<svg width="22" height="22" viewBox="0 0 22 22" fill="none" xmlns="http://www.w3.org/2000/svg">
<circle cx="11" cy="11" r="11" fill="white"/>
<path d="M11.8164 10.9725L15.8664 6.92248C15.9574 6.8162 16.005 6.67949 15.9996 6.53967C15.9942 6.39985 15.9362 6.26722 15.8373 6.16827C15.7383 6.06933 15.6057 6.01137 15.4659 6.00597C15.3261 6.00057 15.1894 6.04813 15.0831 6.13914L11.0331 10.1891L6.98308 6.13359C6.8768 6.04257 6.74009 5.99501 6.60027 6.00041C6.46045 6.00581 6.32782 6.06378 6.22888 6.16272C6.12994 6.26166 6.07197 6.39429 6.06657 6.53411C6.06117 6.67393 6.10873 6.81064 6.19975 6.91692L10.2497 10.9725L6.19419 15.0225C6.13603 15.0723 6.0888 15.1336 6.05545 15.2025C6.02211 15.2714 6.00337 15.3465 6.00041 15.423C5.99746 15.4995 6.01035 15.5758 6.03828 15.6471C6.06621 15.7184 6.10858 15.7831 6.16272 15.8373C6.21686 15.8914 6.28161 15.9338 6.3529 15.9617C6.42419 15.9896 6.50049 16.0025 6.577 15.9996C6.65351 15.9966 6.72858 15.9779 6.79751 15.9445C6.86643 15.9112 6.92772 15.864 6.97752 15.8058L11.0331 11.7558L15.0831 15.8058C15.1894 15.8968 15.3261 15.9444 15.4659 15.939C15.6057 15.9336 15.7383 15.8756 15.8373 15.7767C15.9362 15.6777 15.9942 15.5451 15.9996 15.4053C16.005 15.2655 15.9574 15.1288 15.8664 15.0225L11.8164 10.9725Z" fill="#9C9C9C"/>
</svg>
