<svg width="360" height="274" viewBox="0 0 360 274" fill="none" xmlns="http://www.w3.org/2000/svg">
<path d="M336.311 185.445C333.245 192.823 326.042 198.17 315.449 201.447C304.86 204.723 290.978 205.898 274.739 204.996C242.269 203.192 200.528 193.09 157.229 175.097C113.93 157.105 77.3217 134.651 53.1351 112.912C41.0395 102.04 32.0782 91.3725 26.9296 81.5572C21.7787 71.7375 20.4863 62.8602 23.5518 55.483C26.6173 48.1058 33.8204 42.7587 44.4136 39.4813C55.0021 36.2053 68.8847 35.0299 85.1229 35.9321C117.593 37.7362 159.334 47.8384 202.633 65.8308C245.933 83.8232 282.541 106.278 306.727 128.017C318.823 138.888 327.784 149.556 332.933 159.371C338.084 169.191 339.376 178.068 336.311 185.445Z" stroke="#878787" stroke-width="1.3"/>
<path d="M336.311 218.445C333.245 225.823 326.042 231.17 315.449 234.447C304.86 237.723 290.978 238.898 274.739 237.996C242.269 236.192 200.528 226.09 157.229 208.097C113.93 190.105 77.3217 167.651 53.1351 145.912C41.0395 135.04 32.0782 124.372 26.9296 114.557C21.7787 104.737 20.4863 95.8602 23.5518 88.483C26.6173 81.1058 33.8204 75.7587 44.4136 72.4813C55.0021 69.2053 68.8847 68.0299 85.1229 68.9321C117.593 70.7362 159.334 80.8384 202.633 98.8308C245.933 116.823 282.541 139.278 306.727 161.017C318.823 171.888 327.784 182.556 332.933 192.371C338.084 202.191 339.376 211.068 336.311 218.445Z" stroke="#878787" stroke-width="1.3"/>
</svg>
