<svg width="135" height="74" viewBox="0 0 135 74" fill="none" xmlns="http://www.w3.org/2000/svg">
<path d="M60.9527 13.7109C63.0896 17.2055 62.5886 21.9738 59.8514 26.9422C57.1222 31.8961 52.2161 36.9466 45.7658 40.891C39.3155 44.8355 32.5842 46.9012 26.9308 47.0733C21.261 47.2458 16.7882 45.5191 14.6512 42.0245C12.5143 38.5299 13.0154 33.7616 15.7525 28.7933C18.4817 23.8393 23.3878 18.7888 29.8381 14.8444C36.2885 10.9 43.0198 8.83419 48.6731 8.66216C54.3429 8.48963 58.8157 10.2163 60.9527 13.7109Z" stroke="#00A428"/>
<g filter="url(#filter0_f_268_4193)">
<ellipse cx="43.0666" cy="33.1324" rx="27.6361" ry="15.7653" transform="rotate(-31.446 43.0666 33.1324)" fill="url(#paint0_linear_268_4193)"/>
</g>
<g filter="url(#filter1_d_268_4193)">
<path d="M50.0147 47.44C51.8147 47.44 53.4947 46.92 54.8947 45.96C52.0947 52.88 46.9747 54.76 46.9747 54.76L47.0947 55.12C58.0547 51.36 59.2147 43 59.2147 39.64C59.2147 38.72 59.1347 38.16 59.1347 38.16C58.6547 32.96 55.0547 28.88 50.0147 28.88C44.9747 28.88 40.8547 33 40.8547 38.16C40.8547 43.28 44.9747 47.44 50.0147 47.44ZM50.0147 29.16C53.4947 29.16 56.3347 33.16 56.3347 38.16C56.3347 38.32 56.3347 38.52 56.2947 38.72C56.0947 43.44 53.3747 47.16 50.0147 47.16C46.4947 47.16 43.6947 43.12 43.6947 38.16C43.6947 33.16 46.4947 29.16 50.0147 29.16ZM63.2313 52.2C62.8713 52.2 62.5513 52.32 62.2713 52.6C61.9913 52.88 61.8313 53.2 61.8313 53.6C61.8313 53.96 61.9913 54.28 62.2713 54.56C62.5513 54.84 62.8713 55 63.2313 55C63.5913 55 63.9513 54.84 64.2313 54.56C64.5113 54.28 64.6313 53.96 64.6313 53.6C64.6313 53.2 64.5113 52.88 64.2313 52.6C63.9513 52.32 63.5913 52.2 63.2313 52.2ZM81.5031 53.96C81.0631 53.52 80.7831 52.88 80.7831 52.2V28.88L75.5031 31.68L75.6231 31.92L76.1431 31.68C76.4231 31.52 76.7031 31.44 76.9431 31.44C77.5831 31.44 78.0231 31.92 78.0231 32.52V52.2C78.0231 53.6 76.8631 54.72 75.5031 54.72V55H83.3031V54.72C82.5831 54.72 81.9831 54.44 81.5031 53.96ZM102.937 47.52V47.24H100.417V35.32L97.6569 36.8V47.24H84.8969C94.0569 39.56 94.0969 29.08 94.0969 28.88L90.2169 30.04C90.2969 30.92 90.3369 31.8 90.3369 32.6C90.3369 42.64 84.0969 47.52 84.0969 47.52H97.6569V52.2C97.6569 53.6 96.5369 54.72 95.1369 54.72V55H102.937V54.72C102.217 54.72 101.617 54.44 101.137 53.96C100.697 53.52 100.417 52.88 100.417 52.2V47.52H102.937Z" fill="#004628"/>
<path d="M54.8947 45.96L55.8217 46.3351L57.0667 43.2581L54.3292 45.1353L54.8947 45.96ZM46.9747 54.76L46.63 53.8213L45.7192 54.1557L46.026 55.0762L46.9747 54.76ZM47.0947 55.12L46.146 55.4362L46.465 56.3932L47.4192 56.0659L47.0947 55.12ZM59.1347 38.16L58.1389 38.2519L58.1412 38.2767L58.1447 38.3014L59.1347 38.16ZM56.2947 38.72L55.3141 38.5239L55.2989 38.6001L55.2956 38.6777L56.2947 38.72ZM50.0147 48.44C52.0101 48.44 53.8885 47.8625 55.4602 46.7847L54.3292 45.1353C53.1009 45.9775 51.6193 46.44 50.0147 46.44V48.44ZM53.9677 45.5849C52.6383 48.8704 50.7684 50.9386 49.2511 52.1814C48.4907 52.8041 47.8168 53.2211 47.3413 53.4793C47.1036 53.6083 46.916 53.6974 46.7926 53.7525C46.7309 53.7801 46.6853 53.7991 46.6576 53.8103C46.6437 53.8159 46.6344 53.8195 46.6297 53.8214C46.6274 53.8223 46.6262 53.8227 46.6262 53.8227C46.6263 53.8227 46.6266 53.8225 46.6272 53.8223C46.6275 53.8222 46.6279 53.8221 46.6284 53.8219C46.6286 53.8218 46.629 53.8216 46.6291 53.8216C46.6296 53.8214 46.63 53.8213 46.9747 54.76C47.3194 55.6987 47.3199 55.6985 47.3204 55.6984C47.3206 55.6983 47.3211 55.6981 47.3215 55.6979C47.3222 55.6977 47.3231 55.6973 47.324 55.697C47.3259 55.6963 47.3281 55.6955 47.3306 55.6945C47.3356 55.6927 47.3418 55.6903 47.3492 55.6874C47.3641 55.6817 47.3838 55.674 47.4081 55.6641C47.4568 55.6444 47.5239 55.6163 47.6077 55.5789C47.7752 55.5041 48.0095 55.3923 48.2956 55.2369C48.8676 54.9264 49.6487 54.4408 50.5183 53.7286C52.261 52.3014 54.3511 49.9696 55.8217 46.3351L53.9677 45.5849ZM46.026 55.0762L46.146 55.4362L48.0434 54.8038L47.9234 54.4438L46.026 55.0762ZM47.4192 56.0659C53.1253 54.1083 56.3545 50.9189 58.1383 47.7166C59.9084 44.5391 60.2147 41.4241 60.2147 39.64H58.2147C58.2147 41.2159 57.941 43.9609 56.3911 46.7434C54.8549 49.5011 52.0241 52.3717 46.7702 54.1741L47.4192 56.0659ZM60.2147 39.64C60.2147 39.1512 60.1934 38.755 60.1716 38.4768C60.1607 38.3376 60.1496 38.2278 60.141 38.1504C60.1366 38.1117 60.1329 38.0811 60.1301 38.059C60.1286 38.048 60.1275 38.0391 60.1265 38.0323C60.1261 38.0289 60.1257 38.0261 60.1254 38.0238C60.1252 38.0226 60.1251 38.0216 60.125 38.0208C60.1249 38.0203 60.1248 38.0199 60.1248 38.0196C60.1248 38.0194 60.1247 38.0192 60.1247 38.019C60.1247 38.019 60.1247 38.0188 60.1247 38.0188C60.1247 38.0187 60.1246 38.0186 59.1347 38.16C58.1447 38.3014 58.1447 38.3013 58.1447 38.3012C58.1447 38.3012 58.1447 38.3011 58.1447 38.301C58.1447 38.3009 58.1446 38.3007 58.1446 38.3006C58.1446 38.3004 58.1446 38.3002 58.1445 38.3C58.1445 38.2997 58.1445 38.2995 58.1445 38.2995C58.1444 38.2994 58.1445 38.2998 58.1446 38.3007C58.1449 38.3026 58.1454 38.3066 58.1462 38.3127C58.1478 38.3248 58.1503 38.3451 58.1534 38.3733C58.1597 38.4297 58.1687 38.5174 58.1777 38.6332C58.1959 38.865 58.2147 39.2088 58.2147 39.64H60.2147ZM60.1305 38.0681C59.6151 32.4852 55.6937 27.88 50.0147 27.88V29.88C54.4157 29.88 57.6943 33.4348 58.1389 38.2519L60.1305 38.0681ZM50.0147 27.88C44.4139 27.88 39.8547 32.4562 39.8547 38.16H41.8547C41.8547 33.5438 45.5354 29.88 50.0147 29.88V27.88ZM39.8547 38.16C39.8547 43.821 44.4111 48.44 50.0147 48.44V46.44C45.5382 46.44 41.8547 42.739 41.8547 38.16H39.8547ZM50.0147 30.16C51.3424 30.16 52.6481 30.9216 53.6622 32.361C54.6745 33.7976 55.3347 35.8406 55.3347 38.16H57.3347C57.3347 35.4794 56.5749 33.0224 55.2971 31.209C54.0213 29.3983 52.167 28.16 50.0147 28.16V30.16ZM55.3347 38.16C55.3347 38.3303 55.3319 38.4349 55.3141 38.5239L57.2753 38.9161C57.3375 38.6051 57.3347 38.3097 57.3347 38.16H55.3347ZM55.2956 38.6777C55.2028 40.8664 54.5263 42.777 53.5359 44.1151C52.5455 45.4532 51.2968 46.16 50.0147 46.16V48.16C52.0925 48.16 53.8838 47.0068 55.1435 45.3049C56.4031 43.603 57.1865 41.2936 57.2938 38.7623L55.2956 38.6777ZM50.0147 46.16C48.6686 46.16 47.3635 45.3901 46.3542 43.9469C45.3459 42.5052 44.6947 40.4613 44.6947 38.16H42.6947C42.6947 40.8187 43.4435 43.2748 44.7152 45.0931C45.9859 46.9099 47.8408 48.16 50.0147 48.16V46.16ZM44.6947 38.16C44.6947 35.8374 45.3465 33.7944 46.3533 32.3593C47.3605 30.9237 48.665 30.16 50.0147 30.16V28.16C47.8444 28.16 45.9889 29.3963 44.716 31.2107C43.4429 33.0256 42.6947 35.4826 42.6947 38.16H44.6947ZM62.2713 54.56L62.9784 53.8529L62.2713 54.56ZM64.2313 54.56L63.5241 53.8529L64.2313 54.56ZM63.2313 51.2C62.616 51.2 62.0386 51.4185 61.5641 51.8929L62.9784 53.3071C63.0318 53.2536 63.0714 53.2321 63.0976 53.2215C63.1245 53.2106 63.1647 53.2 63.2313 53.2V51.2ZM61.5641 51.8929C61.1326 52.3244 60.8312 52.8878 60.8312 53.6H62.8312C62.8312 53.5122 62.8499 53.4356 62.9784 53.3071L61.5641 51.8929ZM60.8312 53.6C60.8312 54.2874 61.1457 54.8487 61.5641 55.2671L62.9784 53.8529C62.8368 53.7113 62.8312 53.6326 62.8312 53.6H60.8312ZM61.5641 55.2671C61.9826 55.6855 62.5438 56 63.2313 56V54C63.1987 54 63.1199 53.9945 62.9784 53.8529L61.5641 55.2671ZM63.2313 56C63.8885 56 64.4947 55.7107 64.9384 55.2671L63.5241 53.8529C63.4078 53.9693 63.294 54 63.2313 54V56ZM64.9384 55.2671C65.4128 54.7927 65.6312 54.2153 65.6312 53.6H63.6312C63.6312 53.6665 63.6207 53.7068 63.6098 53.7336C63.5991 53.7598 63.5776 53.7994 63.5241 53.8529L64.9384 55.2671ZM65.6312 53.6C65.6312 52.9605 65.4233 52.3778 64.9384 51.8929L63.5241 53.3071C63.5992 53.3822 63.6312 53.4395 63.6312 53.6H65.6312ZM64.9384 51.8929C64.4437 51.3982 63.8155 51.2 63.2313 51.2V53.2C63.367 53.2 63.4588 53.2418 63.5241 53.3071L64.9384 51.8929ZM81.5031 53.96L80.796 54.6671L81.5031 53.96ZM80.7831 28.88H81.7831V27.2178L80.3146 27.9965L80.7831 28.88ZM75.5031 31.68L75.0346 30.7965L74.1721 31.254L74.6087 32.1272L75.5031 31.68ZM75.6231 31.92L74.7287 32.3672L75.1622 33.2341L76.0422 32.828L75.6231 31.92ZM76.1431 31.68L76.5622 32.588L76.6016 32.5698L76.6393 32.5482L76.1431 31.68ZM75.5031 54.72V53.72H74.5031V54.72H75.5031ZM75.5031 55H74.5031V56H75.5031V55ZM83.3031 55V56H84.3031V55H83.3031ZM83.3031 54.72H84.3031V53.72H83.3031V54.72ZM82.2102 53.2529C81.9556 52.9983 81.7831 52.6118 81.7831 52.2H79.7831C79.7831 53.1482 80.1706 54.0417 80.796 54.6671L82.2102 53.2529ZM81.7831 52.2V28.88H79.7831V52.2H81.7831ZM80.3146 27.9965L75.0346 30.7965L75.9716 32.5635L81.2516 29.7635L80.3146 27.9965ZM74.6087 32.1272L74.7287 32.3672L76.5176 31.4728L76.3976 31.2328L74.6087 32.1272ZM76.0422 32.828L76.5622 32.588L75.7241 30.772L75.2041 31.012L76.0422 32.828ZM76.6393 32.5482C76.8041 32.454 76.9143 32.44 76.9431 32.44V30.44C76.4919 30.44 76.0421 30.586 75.647 30.8118L76.6393 32.5482ZM76.9431 32.44C76.9769 32.44 76.9938 32.446 76.9991 32.4482C77.0047 32.4505 77.0063 32.4523 77.0069 32.4529C77.0078 32.4537 77.0111 32.4574 77.0147 32.4664C77.0182 32.4754 77.0231 32.4927 77.0231 32.52H79.0231C79.0231 31.3924 78.1597 30.44 76.9431 30.44V32.44ZM77.0231 32.52V52.2H79.0231V32.52H77.0231ZM77.0231 52.2C77.0231 53.0374 76.3212 53.72 75.5031 53.72V55.72C77.4051 55.72 79.0231 54.1626 79.0231 52.2H77.0231ZM74.5031 54.72V55H76.5031V54.72H74.5031ZM75.5031 56H83.3031V54H75.5031V56ZM84.3031 55V54.72H82.3031V55H84.3031ZM83.3031 53.72C82.8713 53.72 82.5196 53.5622 82.2102 53.2529L80.796 54.6671C81.4467 55.3178 82.295 55.72 83.3031 55.72V53.72ZM102.937 47.52V48.52H103.937V47.52H102.937ZM102.937 47.24H103.937V46.24H102.937V47.24ZM100.417 47.24H99.4169V48.24H100.417V47.24ZM100.417 35.32H101.417V33.6491L99.9443 34.4387L100.417 35.32ZM97.6569 36.8L97.1843 35.9187L96.6569 36.2015V36.8H97.6569ZM97.6569 47.24V48.24H98.6569V47.24H97.6569ZM84.8969 47.24L84.2544 46.4737L82.1477 48.24H84.8969V47.24ZM94.0969 28.88H95.0969V27.5373L93.8104 27.9219L94.0969 28.88ZM90.2169 30.04L89.9304 29.0819L89.1469 29.3161L89.221 30.1305L90.2169 30.04ZM84.0969 47.52L83.4808 46.7323L81.1949 48.52H84.0969V47.52ZM97.6569 47.52H98.6569V46.52H97.6569V47.52ZM95.1369 54.72V53.72H94.1369V54.72H95.1369ZM95.1369 55H94.1369V56H95.1369V55ZM102.937 55V56H103.937V55H102.937ZM102.937 54.72H103.937V53.72H102.937V54.72ZM101.137 53.96L100.43 54.6671L101.137 53.96ZM100.417 47.52V46.52H99.4169V47.52H100.417ZM103.937 47.52V47.24H101.937V47.52H103.937ZM102.937 46.24H100.417V48.24H102.937V46.24ZM101.417 47.24V35.32H99.4169V47.24H101.417ZM99.9443 34.4387L97.1843 35.9187L98.1295 37.6813L100.889 36.2013L99.9443 34.4387ZM96.6569 36.8V47.24H98.6569V36.8H96.6569ZM97.6569 46.24H84.8969V48.24H97.6569V46.24ZM85.5394 48.0063C95.0489 40.0332 95.0969 29.165 95.0969 28.88H93.0969C93.0969 28.995 93.0649 39.0868 84.2544 46.4737L85.5394 48.0063ZM93.8104 27.9219L89.9304 29.0819L90.5033 30.9981L94.3833 29.8381L93.8104 27.9219ZM89.221 30.1305C89.2984 30.982 89.3369 31.8317 89.3369 32.6H91.3369C91.3369 31.7683 91.2954 30.858 91.2128 29.9495L89.221 30.1305ZM89.3369 32.6C89.3369 37.4018 87.8472 40.9495 86.3709 43.2918C85.6313 44.4652 84.8941 45.3372 84.3477 45.911C84.0746 46.1978 83.8499 46.4094 83.6973 46.5463C83.621 46.6147 83.5628 46.6644 83.5257 46.6954C83.5072 46.7109 83.4939 46.7217 83.4863 46.7279C83.4825 46.7309 83.4801 46.7328 83.4792 46.7336C83.4787 46.7339 83.4786 46.734 83.4789 46.7338C83.479 46.7337 83.4793 46.7335 83.4796 46.7333C83.4797 46.7331 83.4801 46.7329 83.4801 46.7328C83.4805 46.7326 83.4808 46.7323 84.0969 47.52C84.7129 48.3077 84.7133 48.3074 84.7138 48.3071C84.7139 48.3069 84.7144 48.3066 84.7147 48.3063C84.7154 48.3057 84.7162 48.3051 84.7171 48.3044C84.7189 48.303 84.7211 48.3013 84.7236 48.2993C84.7287 48.2952 84.7353 48.29 84.7433 48.2835C84.7593 48.2706 84.781 48.2528 84.8082 48.2301C84.8625 48.1847 84.9384 48.1197 85.0327 48.0351C85.2213 47.8659 85.4841 47.6179 85.7961 47.2902C86.4197 46.6353 87.2425 45.6598 88.0629 44.3582C89.7065 41.7505 91.3369 37.8382 91.3369 32.6H89.3369ZM84.0969 48.52H97.6569V46.52H84.0969V48.52ZM96.6569 47.52V52.2H98.6569V47.52H96.6569ZM96.6569 52.2C96.6569 53.0477 95.9846 53.72 95.1369 53.72V55.72C97.0892 55.72 98.6569 54.1523 98.6569 52.2H96.6569ZM94.1369 54.72V55H96.1369V54.72H94.1369ZM95.1369 56H102.937V54H95.1369V56ZM103.937 55V54.72H101.937V55H103.937ZM102.937 53.72C102.505 53.72 102.153 53.5622 101.844 53.2529L100.43 54.6671C101.08 55.3178 101.929 55.72 102.937 55.72V53.72ZM101.844 53.2529C101.589 52.9983 101.417 52.6118 101.417 52.2H99.4169C99.4169 53.1482 99.8044 54.0417 100.43 54.6671L101.844 53.2529ZM101.417 52.2V47.52H99.4169V52.2H101.417ZM100.417 48.52H102.937V46.52H100.417V48.52Z" fill="#004628"/>
</g>
<path fill-rule="evenodd" clip-rule="evenodd" d="M107.545 18.4545V23H108.455V18.4545H113V17.5455H108.455V13H107.545V17.5455H103V18.4545H107.545Z" fill="#515151"/>
<path fill-rule="evenodd" clip-rule="evenodd" d="M10.5455 56.4545V61H11.4545V56.4545H16V55.5455H11.4545V51H10.5455V55.5455H6V56.4545H10.5455Z" fill="#515151"/>
<rect x="114" y="29" width="2" height="2" fill="#515151"/>
<rect x="118.2" y="20.2" width="2.6" height="2.6" stroke="#515151" stroke-width="0.4"/>
<rect x="0.2" y="61.2" width="1.6" height="1.6" stroke="#515151" stroke-width="0.4"/>
<rect x="3" y="45" width="3" height="3" fill="#515151"/>
<defs>
<filter id="filter0_f_268_4193" x="14.0894" y="9.41504" width="57.9546" height="47.4346" filterUnits="userSpaceOnUse" color-interpolation-filters="sRGB">
<feFlood flood-opacity="0" result="BackgroundImageFix"/>
<feBlend mode="normal" in="SourceGraphic" in2="BackgroundImageFix" result="shape"/>
<feGaussianBlur stdDeviation="2" result="effect1_foregroundBlur_268_4193"/>
</filter>
<filter id="filter1_d_268_4193" x="36.8545" y="28.8799" width="70.0825" height="34.2402" filterUnits="userSpaceOnUse" color-interpolation-filters="sRGB">
<feFlood flood-opacity="0" result="BackgroundImageFix"/>
<feColorMatrix in="SourceAlpha" type="matrix" values="0 0 0 0 0 0 0 0 0 0 0 0 0 0 0 0 0 0 127 0" result="hardAlpha"/>
<feOffset dy="4"/>
<feGaussianBlur stdDeviation="2"/>
<feComposite in2="hardAlpha" operator="out"/>
<feColorMatrix type="matrix" values="0 0 0 0 0 0 0 0 0 0 0 0 0 0 0 0 0 0 0.25 0"/>
<feBlend mode="normal" in2="BackgroundImageFix" result="effect1_dropShadow_268_4193"/>
<feBlend mode="normal" in="SourceGraphic" in2="effect1_dropShadow_268_4193" result="shape"/>
</filter>
<linearGradient id="paint0_linear_268_4193" x1="21.4622" y1="33.8317" x2="78.4163" y2="42.286" gradientUnits="userSpaceOnUse">
<stop stop-color="#FBB03B"/>
<stop offset="1" stop-color="#FBB03B" stop-opacity="0"/>
</linearGradient>
</defs>
</svg>
