<svg width="135" height="74" viewBox="0 0 135 74" fill="none" xmlns="http://www.w3.org/2000/svg">
<path d="M60.9527 13.7109C63.0896 17.2055 62.5886 21.9738 59.8514 26.9422C57.1222 31.8961 52.2161 36.9466 45.7658 40.891C39.3155 44.8355 32.5842 46.9012 26.9308 47.0733C21.261 47.2458 16.7882 45.5191 14.6512 42.0245C12.5143 38.5299 13.0154 33.7616 15.7525 28.7933C18.4817 23.8393 23.3878 18.7888 29.8381 14.8444C36.2885 10.9 43.0198 8.83419 48.6731 8.66216C54.3429 8.48963 58.8157 10.2163 60.9527 13.7109Z" stroke="#00A428"/>
<g filter="url(#filter0_f_268_4147)">
<ellipse cx="43.0666" cy="33.1324" rx="27.6361" ry="15.7653" transform="rotate(-31.446 43.0666 33.1324)" fill="url(#paint0_linear_268_4147)"/>
</g>
<g filter="url(#filter1_d_268_4147)">
<path d="M50.4053 47.44C52.2053 47.44 53.8853 46.92 55.2853 45.96C52.4853 52.88 47.3653 54.76 47.3653 54.76L47.4853 55.12C58.4453 51.36 59.6053 43 59.6053 39.64C59.6053 38.72 59.5253 38.16 59.5253 38.16C59.0453 32.96 55.4453 28.88 50.4053 28.88C45.3653 28.88 41.2453 33 41.2453 38.16C41.2453 43.28 45.3653 47.44 50.4053 47.44ZM50.4053 29.16C53.8853 29.16 56.7253 33.16 56.7253 38.16C56.7253 38.32 56.7253 38.52 56.6853 38.72C56.4853 43.44 53.7653 47.16 50.4053 47.16C46.8853 47.16 44.0853 43.12 44.0853 38.16C44.0853 33.16 46.8853 29.16 50.4053 29.16ZM63.6219 52.2C63.2619 52.2 62.9419 52.32 62.6619 52.6C62.3819 52.88 62.2219 53.2 62.2219 53.6C62.2219 53.96 62.3819 54.28 62.6619 54.56C62.9419 54.84 63.2619 55 63.6219 55C63.9819 55 64.3419 54.84 64.6219 54.56C64.9019 54.28 65.0219 53.96 65.0219 53.6C65.0219 53.2 64.9019 52.88 64.6219 52.6C64.3419 52.32 63.9819 52.2 63.6219 52.2ZM81.8938 53.96C81.4538 53.52 81.1738 52.88 81.1738 52.2V28.88L75.8938 31.68L76.0138 31.92L76.5338 31.68C76.8138 31.52 77.0938 31.44 77.3338 31.44C77.9738 31.44 78.4138 31.92 78.4138 32.52V52.2C78.4138 53.6 77.2538 54.72 75.8938 54.72V55H83.6938V54.72C82.9738 54.72 82.3738 54.44 81.8938 53.96ZM93.4475 36.56C90.1275 36.56 87.6875 38.16 86.6075 39.4L87.0875 31.64H96.0875C98.0875 31.64 99.8475 32.88 100.408 34.76C100.448 34.76 100.448 34.8 100.448 34.8L100.688 34.72L98.9675 28.88H86.9675L86.2075 40.48C88.4475 37 92.5675 36.84 93.3275 36.84H93.4475C96.9275 36.84 99.7675 40.88 99.7675 45.84C99.7675 50.8 96.9275 54.84 93.4475 54.84C90.4075 54.84 88.5675 52.04 87.9675 49.56C87.8075 48.92 87.7275 48.28 87.7275 47.64C87.7275 46.04 88.2475 44.48 89.4475 43.24L89.1675 42.96L84.4875 47.64C85.3275 51.92 89.0075 55.12 93.4475 55.12C98.4875 55.12 102.568 50.96 102.568 45.84C102.568 40.72 98.4875 36.56 93.4475 36.56Z" fill="#004628"/>
<path d="M55.2853 45.96L56.2123 46.3351L57.4573 43.2581L54.7198 45.1353L55.2853 45.96ZM47.3653 54.76L47.0206 53.8213L46.1098 54.1557L46.4166 55.0762L47.3653 54.76ZM47.4853 55.12L46.5366 55.4362L46.8556 56.3932L47.8098 56.0659L47.4853 55.12ZM59.5253 38.16L58.5295 38.2519L58.5318 38.2767L58.5354 38.3014L59.5253 38.16ZM56.6853 38.72L55.7047 38.5239L55.6895 38.6001L55.6862 38.6777L56.6853 38.72ZM50.4053 48.44C52.4007 48.44 54.2791 47.8625 55.8508 46.7847L54.7198 45.1353C53.4916 45.9775 52.0099 46.44 50.4053 46.44V48.44ZM54.3583 45.5849C53.0289 48.8704 51.159 50.9386 49.6417 52.1814C48.8813 52.8041 48.2074 53.2211 47.7319 53.4793C47.4943 53.6083 47.3067 53.6974 47.1832 53.7525C47.1215 53.7801 47.0759 53.7991 47.0482 53.8103C47.0344 53.8159 47.025 53.8195 47.0203 53.8214C47.018 53.8223 47.0168 53.8227 47.0169 53.8227C47.0169 53.8227 47.0172 53.8225 47.0178 53.8223C47.0181 53.8222 47.0185 53.8221 47.019 53.8219C47.0192 53.8218 47.0196 53.8216 47.0198 53.8216C47.0202 53.8214 47.0206 53.8213 47.3653 54.76C47.71 55.6987 47.7105 55.6985 47.711 55.6984C47.7112 55.6983 47.7117 55.6981 47.7121 55.6979C47.7129 55.6977 47.7137 55.6973 47.7147 55.697C47.7165 55.6963 47.7187 55.6955 47.7212 55.6945C47.7262 55.6927 47.7324 55.6903 47.7399 55.6874C47.7547 55.6817 47.7744 55.674 47.7988 55.6641C47.8474 55.6444 47.9146 55.6163 47.9983 55.5789C48.1658 55.5041 48.4001 55.3923 48.6862 55.2369C49.2582 54.9264 50.0393 54.4408 50.9089 53.7286C52.6516 52.3014 54.7417 49.9696 56.2123 46.3351L54.3583 45.5849ZM46.4166 55.0762L46.5366 55.4362L48.434 54.8038L48.314 54.4438L46.4166 55.0762ZM47.8098 56.0659C53.5159 54.1083 56.7451 50.9189 58.5289 47.7166C60.299 44.5391 60.6053 41.4241 60.6053 39.64H58.6053C58.6053 41.2159 58.3316 43.9609 56.7817 46.7434C55.2455 49.5011 52.4147 52.3717 47.1608 54.1741L47.8098 56.0659ZM60.6053 39.64C60.6053 39.1512 60.5841 38.755 60.5623 38.4768C60.5513 38.3376 60.5403 38.2278 60.5316 38.1504C60.5272 38.1117 60.5235 38.0811 60.5207 38.059C60.5193 38.048 60.5181 38.0391 60.5172 38.0323C60.5167 38.0289 60.5163 38.0261 60.516 38.0238C60.5158 38.0226 60.5157 38.0216 60.5156 38.0208C60.5155 38.0203 60.5155 38.0199 60.5154 38.0196C60.5154 38.0194 60.5154 38.0192 60.5153 38.019C60.5153 38.019 60.5153 38.0188 60.5153 38.0188C60.5153 38.0187 60.5153 38.0186 59.5253 38.16C58.5354 38.3014 58.5353 38.3013 58.5353 38.3012C58.5353 38.3012 58.5353 38.3011 58.5353 38.301C58.5353 38.3009 58.5353 38.3007 58.5353 38.3006C58.5352 38.3004 58.5352 38.3002 58.5352 38.3C58.5351 38.2997 58.5351 38.2995 58.5351 38.2995C58.5351 38.2994 58.5351 38.2998 58.5353 38.3007C58.5355 38.3026 58.5361 38.3066 58.5368 38.3127C58.5384 38.3248 58.5409 38.3451 58.544 38.3733C58.5504 38.4297 58.5593 38.5174 58.5684 38.6332C58.5866 38.865 58.6053 39.2088 58.6053 39.64H60.6053ZM60.5211 38.0681C60.0057 32.4852 56.0843 27.88 50.4053 27.88V29.88C54.8063 29.88 58.0849 33.4348 58.5295 38.2519L60.5211 38.0681ZM50.4053 27.88C44.8046 27.88 40.2453 32.4562 40.2453 38.16H42.2453C42.2453 33.5438 45.9261 29.88 50.4053 29.88V27.88ZM40.2453 38.16C40.2453 43.821 44.8018 48.44 50.4053 48.44V46.44C45.9289 46.44 42.2453 42.739 42.2453 38.16H40.2453ZM50.4053 30.16C51.733 30.16 53.0387 30.9216 54.0529 32.361C55.0651 33.7976 55.7253 35.8406 55.7253 38.16H57.7253C57.7253 35.4794 56.9655 33.0224 55.6878 31.209C54.4119 29.3983 52.5576 28.16 50.4053 28.16V30.16ZM55.7253 38.16C55.7253 38.3303 55.7225 38.4349 55.7047 38.5239L57.6659 38.9161C57.7281 38.6051 57.7253 38.3097 57.7253 38.16H55.7253ZM55.6862 38.6777C55.5935 40.8664 54.9169 42.777 53.9265 44.1151C52.9362 45.4532 51.6875 46.16 50.4053 46.16V48.16C52.4832 48.16 54.2745 47.0068 55.5341 45.3049C56.7937 43.603 57.5772 41.2936 57.6844 38.7623L55.6862 38.6777ZM50.4053 46.16C49.0592 46.16 47.7541 45.3901 46.7448 43.9469C45.7365 42.5052 45.0853 40.4613 45.0853 38.16H43.0853C43.0853 40.8187 43.8341 43.2748 45.1058 45.0931C46.3765 46.9099 48.2314 48.16 50.4053 48.16V46.16ZM45.0853 38.16C45.0853 35.8374 45.7371 33.7944 46.744 32.3593C47.7511 30.9237 49.0556 30.16 50.4053 30.16V28.16C48.235 28.16 46.3795 29.3963 45.1067 31.2107C43.8335 33.0256 43.0853 35.4826 43.0853 38.16H45.0853ZM62.6619 54.56L63.369 53.8529L62.6619 54.56ZM64.6219 54.56L63.9148 53.8529L64.6219 54.56ZM63.6219 51.2C63.0066 51.2 62.4292 51.4185 61.9548 51.8929L63.369 53.3071C63.4225 53.2536 63.4621 53.2321 63.4883 53.2215C63.5151 53.2106 63.5553 53.2 63.6219 53.2V51.2ZM61.9548 51.8929C61.5233 52.3244 61.2219 52.8878 61.2219 53.6H63.2219C63.2219 53.5122 63.2405 53.4356 63.369 53.3071L61.9548 51.8929ZM61.2219 53.6C61.2219 54.2874 61.5364 54.8487 61.9548 55.2671L63.369 53.8529C63.2274 53.7113 63.2219 53.6326 63.2219 53.6H61.2219ZM61.9548 55.2671C62.3732 55.6855 62.9344 56 63.6219 56V54C63.5893 54 63.5106 53.9945 63.369 53.8529L61.9548 55.2671ZM63.6219 56C64.2791 56 64.8853 55.7107 65.329 55.2671L63.9148 53.8529C63.7984 53.9693 63.6847 54 63.6219 54V56ZM65.329 55.2671C65.8034 54.7927 66.0219 54.2153 66.0219 53.6H64.0219C64.0219 53.6665 64.0113 53.7068 64.0004 53.7336C63.9898 53.7598 63.9682 53.7994 63.9148 53.8529L65.329 55.2671ZM66.0219 53.6C66.0219 52.9605 65.8139 52.3778 65.329 51.8929L63.9148 53.3071C63.9898 53.3822 64.0219 53.4395 64.0219 53.6H66.0219ZM65.329 51.8929C64.8343 51.3982 64.2061 51.2 63.6219 51.2V53.2C63.7577 53.2 63.8494 53.2418 63.9148 53.3071L65.329 51.8929ZM81.8938 53.96L81.1866 54.6671L81.8938 53.96ZM81.1738 28.88H82.1738V27.2178L80.7052 27.9965L81.1738 28.88ZM75.8938 31.68L75.4252 30.7965L74.5627 31.254L74.9993 32.1272L75.8938 31.68ZM76.0137 31.92L75.1193 32.3672L75.5528 33.2341L76.4328 32.828L76.0137 31.92ZM76.5338 31.68L76.9528 32.588L76.9922 32.5698L77.0299 32.5482L76.5338 31.68ZM75.8938 54.72V53.72H74.8938V54.72H75.8938ZM75.8938 55H74.8938V56H75.8938V55ZM83.6937 55V56H84.6937V55H83.6937ZM83.6937 54.72H84.6937V53.72H83.6937V54.72ZM82.6009 53.2529C82.3463 52.9983 82.1738 52.6118 82.1738 52.2H80.1738C80.1738 53.1482 80.5612 54.0417 81.1866 54.6671L82.6009 53.2529ZM82.1738 52.2V28.88H80.1738V52.2H82.1738ZM80.7052 27.9965L75.4252 30.7965L76.3623 32.5635L81.6423 29.7635L80.7052 27.9965ZM74.9993 32.1272L75.1193 32.3672L76.9082 31.4728L76.7882 31.2328L74.9993 32.1272ZM76.4328 32.828L76.9528 32.588L76.1147 30.772L75.5947 31.012L76.4328 32.828ZM77.0299 32.5482C77.1947 32.454 77.305 32.44 77.3337 32.44V30.44C76.8825 30.44 76.4328 30.586 76.0376 30.8118L77.0299 32.5482ZM77.3337 32.44C77.3675 32.44 77.3845 32.446 77.3898 32.4482C77.3953 32.4505 77.3969 32.4523 77.3975 32.4529C77.3984 32.4537 77.4017 32.4574 77.4053 32.4664C77.4089 32.4754 77.4137 32.4927 77.4137 32.52H79.4137C79.4137 31.3924 78.5504 30.44 77.3337 30.44V32.44ZM77.4137 32.52V52.2H79.4137V32.52H77.4137ZM77.4137 52.2C77.4137 53.0374 76.7118 53.72 75.8938 53.72V55.72C77.7957 55.72 79.4137 54.1626 79.4137 52.2H77.4137ZM74.8938 54.72V55H76.8938V54.72H74.8938ZM75.8938 56H83.6937V54H75.8938V56ZM84.6937 55V54.72H82.6937V55H84.6937ZM83.6937 53.72C83.2619 53.72 82.9102 53.5622 82.6009 53.2529L81.1866 54.6671C81.8373 55.3178 82.6856 55.72 83.6937 55.72V53.72ZM86.6075 39.4L85.6094 39.3383L85.4276 42.2773L87.3616 40.0568L86.6075 39.4ZM87.0875 31.64V30.64H86.1474L86.0894 31.5783L87.0875 31.64ZM100.408 34.76L99.4491 35.0455L99.6619 35.76H100.408V34.76ZM100.448 34.8H99.4475V36.1874L100.764 35.7487L100.448 34.8ZM100.688 34.72L101.004 35.6687L101.919 35.3634L101.647 34.4375L100.688 34.72ZM98.9675 28.88L99.9268 28.5975L99.7154 27.88H98.9675V28.88ZM86.9675 28.88V27.88H86.0309L85.9696 28.8146L86.9675 28.88ZM86.2075 40.48L85.2096 40.4146L84.957 44.2703L87.0484 41.0212L86.2075 40.48ZM87.9675 49.56L88.9395 49.3248L88.9376 49.3175L87.9675 49.56ZM89.4475 43.24L90.1661 43.9354L90.8502 43.2285L90.1546 42.5329L89.4475 43.24ZM89.1675 42.96L89.8746 42.2529L89.1675 41.5458L88.4604 42.2529L89.1675 42.96ZM84.4875 47.64L83.7804 46.9329L83.4036 47.3097L83.5062 47.8326L84.4875 47.64ZM93.4475 35.56C89.8109 35.56 87.1045 37.3067 85.8534 38.7432L87.3616 40.0568C88.2705 39.0133 90.4441 37.56 93.4475 37.56V35.56ZM87.6056 39.4617L88.0856 31.7017L86.0894 31.5783L85.6094 39.3383L87.6056 39.4617ZM87.0875 32.64H96.0875V30.64H87.0875V32.64ZM96.0875 32.64C97.6764 32.64 99.0241 33.6186 99.4491 35.0455L101.366 34.4745C100.671 32.1414 98.4986 30.64 96.0875 30.64V32.64ZM100.408 35.76C100.243 35.76 100.052 35.7159 99.8759 35.5983C99.7058 35.4849 99.6049 35.3408 99.5481 35.2272C99.4932 35.1175 99.4708 35.0199 99.4605 34.9581C99.4549 34.9249 99.4518 34.895 99.45 34.8695C99.449 34.8566 99.4484 34.8444 99.448 34.8329C99.4479 34.8271 99.4477 34.8215 99.4476 34.816C99.4476 34.8133 99.4476 34.8106 99.4475 34.8079C99.4475 34.8066 99.4475 34.8052 99.4475 34.8039C99.4475 34.8033 99.4475 34.8026 99.4475 34.802C99.4475 34.8016 99.4475 34.8011 99.4475 34.801C99.4475 34.8005 99.4475 34.8 100.448 34.8C101.448 34.8 101.448 34.7995 101.448 34.799C101.448 34.7989 101.448 34.7984 101.448 34.798C101.447 34.7974 101.447 34.7967 101.447 34.7961C101.447 34.7947 101.447 34.7934 101.447 34.792C101.447 34.7893 101.447 34.7866 101.447 34.7838C101.447 34.7781 101.447 34.7723 101.447 34.7662C101.447 34.7542 101.446 34.741 101.445 34.727C101.443 34.6994 101.439 34.6663 101.433 34.6294C101.422 34.5601 101.397 34.4525 101.337 34.3328C101.275 34.2092 101.167 34.0551 100.985 33.9342C100.798 33.8091 100.592 33.76 100.408 33.76V35.76ZM100.764 35.7487L101.004 35.6687L100.371 33.7713L100.131 33.8513L100.764 35.7487ZM101.647 34.4375L99.9268 28.5975L98.0082 29.1625L99.7282 35.0025L101.647 34.4375ZM98.9675 27.88H86.9675V29.88H98.9675V27.88ZM85.9696 28.8146L85.2096 40.4146L87.2054 40.5454L87.9654 28.9454L85.9696 28.8146ZM87.0484 41.0212C88.9851 38.0125 92.6037 37.84 93.3275 37.84V35.84C92.5313 35.84 87.9099 35.9875 85.3666 39.9388L87.0484 41.0212ZM93.3275 37.84H93.4475V35.84H93.3275V37.84ZM93.4475 37.84C94.7716 37.84 96.0778 38.6079 97.0942 40.0548C98.1079 41.4979 98.7675 43.5418 98.7675 45.84H100.768C100.768 43.1782 100.007 40.7221 98.7308 38.9052C97.4572 37.0921 95.6034 35.84 93.4475 35.84V37.84ZM98.7675 45.84C98.7675 48.1382 98.1079 50.1821 97.0942 51.6252C96.0778 53.0721 94.7716 53.84 93.4475 53.84V55.84C95.6034 55.84 97.4572 54.5879 98.7308 52.7748C100.007 50.9579 100.768 48.5018 100.768 45.84H98.7675ZM93.4475 53.84C92.2679 53.84 91.3019 53.3066 90.5336 52.4586C89.7525 51.5964 89.2085 50.4371 88.9395 49.3248L86.9955 49.7952C87.3265 51.1629 88.0025 52.6436 89.0514 53.8014C90.1131 54.9734 91.5871 55.84 93.4475 55.84V53.84ZM88.9376 49.3175C88.7969 48.7543 88.7275 48.1958 88.7275 47.64H86.7275C86.7275 48.3643 86.8181 49.0857 86.9974 49.8025L88.9376 49.3175ZM88.7275 47.64C88.7275 46.2625 89.1708 44.9639 90.1661 43.9354L88.7289 42.5446C87.3242 43.9961 86.7275 45.8175 86.7275 47.64H88.7275ZM90.1546 42.5329L89.8746 42.2529L88.4604 43.6671L88.7404 43.9471L90.1546 42.5329ZM88.4604 42.2529L83.7804 46.9329L85.1946 48.3471L89.8746 43.6671L88.4604 42.2529ZM83.5062 47.8326C84.4339 52.5594 88.5071 56.12 93.4475 56.12V54.12C89.5079 54.12 86.2211 51.2806 85.4688 47.4474L83.5062 47.8326ZM93.4475 56.12C99.0567 56.12 103.568 51.4952 103.568 45.84H101.568C101.568 50.4248 97.9183 54.12 93.4475 54.12V56.12ZM103.568 45.84C103.568 40.1848 99.0567 35.56 93.4475 35.56V37.56C97.9183 37.56 101.568 41.2552 101.568 45.84H103.568Z" fill="#004628"/>
</g>
<path fill-rule="evenodd" clip-rule="evenodd" d="M107.545 18.4545V23H108.455V18.4545H113V17.5455H108.455V13H107.545V17.5455H103V18.4545H107.545Z" fill="#515151"/>
<path fill-rule="evenodd" clip-rule="evenodd" d="M10.5455 56.4545V61H11.4545V56.4545H16V55.5455H11.4545V51H10.5455V55.5455H6V56.4545H10.5455Z" fill="#515151"/>
<rect x="114" y="29" width="2" height="2" fill="#515151"/>
<rect x="118.2" y="20.2" width="2.6" height="2.6" stroke="#515151" stroke-width="0.4"/>
<rect x="0.2" y="61.2" width="1.6" height="1.6" stroke="#515151" stroke-width="0.4"/>
<rect x="3" y="45" width="3" height="3" fill="#515151"/>
<defs>
<filter id="filter0_f_268_4147" x="14.0894" y="9.41504" width="57.9546" height="47.4346" filterUnits="userSpaceOnUse" color-interpolation-filters="sRGB">
<feFlood flood-opacity="0" result="BackgroundImageFix"/>
<feBlend mode="normal" in="SourceGraphic" in2="BackgroundImageFix" result="shape"/>
<feGaussianBlur stdDeviation="2" result="effect1_foregroundBlur_268_4147"/>
</filter>
<filter id="filter1_d_268_4147" x="37.2451" y="28.8799" width="69.3223" height="34.2402" filterUnits="userSpaceOnUse" color-interpolation-filters="sRGB">
<feFlood flood-opacity="0" result="BackgroundImageFix"/>
<feColorMatrix in="SourceAlpha" type="matrix" values="0 0 0 0 0 0 0 0 0 0 0 0 0 0 0 0 0 0 127 0" result="hardAlpha"/>
<feOffset dy="4"/>
<feGaussianBlur stdDeviation="2"/>
<feComposite in2="hardAlpha" operator="out"/>
<feColorMatrix type="matrix" values="0 0 0 0 0 0 0 0 0 0 0 0 0 0 0 0 0 0 0.25 0"/>
<feBlend mode="normal" in2="BackgroundImageFix" result="effect1_dropShadow_268_4147"/>
<feBlend mode="normal" in="SourceGraphic" in2="effect1_dropShadow_268_4147" result="shape"/>
</filter>
<linearGradient id="paint0_linear_268_4147" x1="21.4622" y1="33.8317" x2="78.4163" y2="42.286" gradientUnits="userSpaceOnUse">
<stop stop-color="#FBB03B"/>
<stop offset="1" stop-color="#FBB03B" stop-opacity="0"/>
</linearGradient>
</defs>
</svg>
