<svg width="135" height="74" viewBox="0 0 135 74" fill="none" xmlns="http://www.w3.org/2000/svg">
<path d="M60.9527 13.7109C63.0896 17.2055 62.5886 21.9738 59.8514 26.9422C57.1222 31.8961 52.2161 36.9466 45.7658 40.891C39.3155 44.8355 32.5842 46.9012 26.9308 47.0733C21.261 47.2458 16.7882 45.5191 14.6512 42.0245C12.5143 38.5299 13.0154 33.7616 15.7525 28.7933C18.4817 23.8393 23.3878 18.7888 29.8381 14.8444C36.2885 10.9 43.0198 8.83419 48.6731 8.66216C54.3429 8.48963 58.8157 10.2163 60.9527 13.7109Z" stroke="#00A428"/>
<g filter="url(#filter0_f_268_4170)">
<ellipse cx="43.0666" cy="33.1324" rx="27.6361" ry="15.7653" transform="rotate(-31.446 43.0666 33.1324)" fill="url(#paint0_linear_268_4170)"/>
</g>
<g filter="url(#filter1_d_268_4170)">
<path d="M49.3506 47.44C51.1506 47.44 52.8306 46.92 54.2306 45.96C51.4306 52.88 46.3106 54.76 46.3106 54.76L46.4306 55.12C57.3906 51.36 58.5506 43 58.5506 39.64C58.5506 38.72 58.4706 38.16 58.4706 38.16C57.9906 32.96 54.3906 28.88 49.3506 28.88C44.3106 28.88 40.1906 33 40.1906 38.16C40.1906 43.28 44.3106 47.44 49.3506 47.44ZM49.3506 29.16C52.8306 29.16 55.6706 33.16 55.6706 38.16C55.6706 38.32 55.6706 38.52 55.6306 38.72C55.4306 43.44 52.7106 47.16 49.3506 47.16C45.8306 47.16 43.0306 43.12 43.0306 38.16C43.0306 33.16 45.8306 29.16 49.3506 29.16ZM62.5672 52.2C62.2072 52.2 61.8872 52.32 61.6072 52.6C61.3272 52.88 61.1672 53.2 61.1672 53.6C61.1672 53.96 61.3272 54.28 61.6072 54.56C61.8872 54.84 62.2072 55 62.5672 55C62.9272 55 63.2872 54.84 63.5672 54.56C63.8472 54.28 63.9672 53.96 63.9672 53.6C63.9672 53.2 63.8472 52.88 63.5672 52.6C63.2872 52.32 62.9272 52.2 62.5672 52.2ZM80.8391 53.96C80.3991 53.52 80.1191 52.88 80.1191 52.2V28.88L74.8391 31.68L74.9591 31.92L75.4791 31.68C75.7591 31.52 76.0391 31.44 76.2791 31.44C76.9191 31.44 77.3591 31.92 77.3591 32.52V52.2C77.3591 53.6 76.1991 54.72 74.8391 54.72V55H82.6391V54.72C81.9191 54.72 81.3191 54.44 80.8391 53.96ZM94.4328 36.56C92.6328 36.56 90.9528 37.08 89.5528 38C92.3528 31.08 97.4728 29.2 97.4728 29.2L97.3528 28.88C86.3928 32.6 85.2328 40.96 85.2328 44.36C85.2328 45.28 85.3128 45.84 85.3128 45.84C85.7928 51.04 89.3928 55.12 94.4328 55.12C99.4728 55.12 103.593 50.96 103.593 45.84C103.593 40.72 99.4728 36.56 94.4328 36.56ZM94.4328 54.84C90.9528 54.84 88.1128 50.8 88.1128 45.84C88.1128 45.64 88.1528 45.48 88.1528 45.28C88.3528 40.56 91.0728 36.84 94.4328 36.84C97.9528 36.84 100.753 40.88 100.753 45.84C100.753 50.8 97.9528 54.84 94.4328 54.84Z" fill="#004628"/>
<path d="M54.2306 45.96L55.1576 46.3351L56.4026 43.2581L53.6651 45.1353L54.2306 45.96ZM46.3106 54.76L45.9659 53.8213L45.0551 54.1557L45.3619 55.0762L46.3106 54.76ZM46.4306 55.12L45.4819 55.4362L45.8009 56.3932L46.7551 56.0659L46.4306 55.12ZM58.4706 38.16L57.4749 38.2519L57.4771 38.2767L57.4807 38.3014L58.4706 38.16ZM55.6306 38.72L54.65 38.5239L54.6348 38.6001L54.6315 38.6777L55.6306 38.72ZM49.3506 48.44C51.346 48.44 53.2244 47.8625 54.7962 46.7847L53.6651 45.1353C52.4369 45.9775 50.9552 46.44 49.3506 46.44V48.44ZM53.3036 45.5849C51.9742 48.8704 50.1043 50.9386 48.587 52.1814C47.8266 52.8041 47.1527 53.2211 46.6772 53.4793C46.4396 53.6083 46.252 53.6974 46.1285 53.7525C46.0668 53.7801 46.0213 53.7991 45.9935 53.8103C45.9797 53.8159 45.9703 53.8195 45.9656 53.8214C45.9633 53.8223 45.9621 53.8227 45.9622 53.8227C45.9622 53.8227 45.9625 53.8225 45.9631 53.8223C45.9635 53.8222 45.9638 53.8221 45.9643 53.8219C45.9645 53.8218 45.965 53.8216 45.9651 53.8216C45.9655 53.8214 45.9659 53.8213 46.3106 54.76C46.6553 55.6987 46.6558 55.6985 46.6563 55.6984C46.6565 55.6983 46.657 55.6981 46.6574 55.6979C46.6582 55.6977 46.659 55.6973 46.66 55.697C46.6618 55.6963 46.664 55.6955 46.6665 55.6945C46.6715 55.6927 46.6777 55.6903 46.6852 55.6874C46.7 55.6817 46.7197 55.674 46.7441 55.6641C46.7927 55.6444 46.8599 55.6163 46.9436 55.5789C47.1111 55.5041 47.3454 55.3923 47.6315 55.2369C48.2036 54.9264 48.9847 54.4408 49.8543 53.7286C51.5969 52.3014 53.687 49.9696 55.1576 46.3351L53.3036 45.5849ZM45.3619 55.0762L45.4819 55.4362L47.3793 54.8038L47.2593 54.4438L45.3619 55.0762ZM46.7551 56.0659C52.4613 54.1083 55.6904 50.9189 57.4742 47.7166C59.2443 44.5391 59.5506 41.4241 59.5506 39.64H57.5506C57.5506 41.2159 57.277 43.9609 55.727 46.7434C54.1908 49.5011 51.36 52.3717 46.1061 54.1741L46.7551 56.0659ZM59.5506 39.64C59.5506 39.1512 59.5294 38.755 59.5076 38.4768C59.4967 38.3376 59.4856 38.2278 59.4769 38.1504C59.4726 38.1117 59.4688 38.0811 59.466 38.059C59.4646 38.048 59.4634 38.0391 59.4625 38.0323C59.462 38.0289 59.4616 38.0261 59.4613 38.0238C59.4612 38.0226 59.461 38.0216 59.4609 38.0208C59.4608 38.0203 59.4608 38.0199 59.4607 38.0196C59.4607 38.0194 59.4607 38.0192 59.4606 38.019C59.4606 38.019 59.4606 38.0188 59.4606 38.0188C59.4606 38.0187 59.4606 38.0186 58.4706 38.16C57.4807 38.3014 57.4807 38.3013 57.4806 38.3012C57.4806 38.3012 57.4806 38.3011 57.4806 38.301C57.4806 38.3009 57.4806 38.3007 57.4806 38.3006C57.4805 38.3004 57.4805 38.3002 57.4805 38.3C57.4804 38.2997 57.4804 38.2995 57.4804 38.2995C57.4804 38.2994 57.4804 38.2998 57.4806 38.3007C57.4808 38.3026 57.4814 38.3066 57.4821 38.3127C57.4837 38.3248 57.4862 38.3451 57.4894 38.3733C57.4957 38.4297 57.5046 38.5174 57.5137 38.6332C57.5319 38.865 57.5506 39.2088 57.5506 39.64H59.5506ZM59.4664 38.0681C58.951 32.4852 55.0296 27.88 49.3506 27.88V29.88C53.7517 29.88 57.0302 33.4348 57.4749 38.2519L59.4664 38.0681ZM49.3506 27.88C43.7499 27.88 39.1906 32.4562 39.1906 38.16H41.1906C41.1906 33.5438 44.8714 29.88 49.3506 29.88V27.88ZM39.1906 38.16C39.1906 43.821 43.7471 48.44 49.3506 48.44V46.44C44.8742 46.44 41.1906 42.739 41.1906 38.16H39.1906ZM49.3506 30.16C50.6783 30.16 51.984 30.9216 52.9982 32.361C54.0104 33.7976 54.6706 35.8406 54.6706 38.16H56.6706C56.6706 35.4794 55.9108 33.0224 54.6331 31.209C53.3573 29.3983 51.5029 28.16 49.3506 28.16V30.16ZM54.6706 38.16C54.6706 38.3303 54.6678 38.4349 54.65 38.5239L56.6112 38.9161C56.6734 38.6051 56.6706 38.3097 56.6706 38.16H54.6706ZM54.6315 38.6777C54.5388 40.8664 53.8622 42.777 52.8718 44.1151C51.8815 45.4532 50.6328 46.16 49.3506 46.16V48.16C51.4285 48.16 53.2198 47.0068 54.4794 45.3049C55.739 43.603 56.5225 41.2936 56.6297 38.7623L54.6315 38.6777ZM49.3506 46.16C48.0045 46.16 46.6994 45.3901 45.6901 43.9469C44.6818 42.5052 44.0306 40.4613 44.0306 38.16H42.0306C42.0306 40.8187 42.7794 43.2748 44.0512 45.0931C45.3218 46.9099 47.1767 48.16 49.3506 48.16V46.16ZM44.0306 38.16C44.0306 35.8374 44.6825 33.7944 45.6893 32.3593C46.6964 30.9237 48.0009 30.16 49.3506 30.16V28.16C47.1803 28.16 45.3249 29.3963 44.052 31.2107C42.7788 33.0256 42.0306 35.4826 42.0306 38.16H44.0306ZM61.6072 54.56L62.3143 53.8529L61.6072 54.56ZM63.5672 54.56L62.8601 53.8529L63.5672 54.56ZM62.5672 51.2C61.9519 51.2 61.3745 51.4185 60.9001 51.8929L62.3143 53.3071C62.3678 53.2536 62.4074 53.2321 62.4336 53.2215C62.4604 53.2106 62.5006 53.2 62.5672 53.2V51.2ZM60.9001 51.8929C60.4686 52.3244 60.1672 52.8878 60.1672 53.6H62.1672C62.1672 53.5122 62.1858 53.4356 62.3143 53.3071L60.9001 51.8929ZM60.1672 53.6C60.1672 54.2874 60.4817 54.8487 60.9001 55.2671L62.3143 53.8529C62.1727 53.7113 62.1672 53.6326 62.1672 53.6H60.1672ZM60.9001 55.2671C61.3185 55.6855 61.8798 56 62.5672 56V54C62.5346 54 62.4559 53.9945 62.3143 53.8529L60.9001 55.2671ZM62.5672 56C63.2244 56 63.8307 55.7107 64.2743 55.2671L62.8601 53.8529C62.7437 53.9693 62.63 54 62.5672 54V56ZM64.2743 55.2671C64.7487 54.7927 64.9672 54.2153 64.9672 53.6H62.9672C62.9672 53.6665 62.9566 53.7068 62.9457 53.7336C62.9351 53.7598 62.9136 53.7994 62.8601 53.8529L64.2743 55.2671ZM64.9672 53.6C64.9672 52.9605 64.7592 52.3778 64.2743 51.8929L62.8601 53.3071C62.9351 53.3822 62.9672 53.4395 62.9672 53.6H64.9672ZM64.2743 51.8929C63.7796 51.3982 63.1514 51.2 62.5672 51.2V53.2C62.703 53.2 62.7947 53.2418 62.8601 53.3071L64.2743 51.8929ZM80.8391 53.96L80.132 54.6671L80.8391 53.96ZM80.1191 28.88H81.1191V27.2178L79.6506 27.9965L80.1191 28.88ZM74.8391 31.68L74.3706 30.7965L73.508 31.254L73.9446 32.1272L74.8391 31.68ZM74.9591 31.92L74.0646 32.3672L74.4981 33.2341L75.3781 32.828L74.9591 31.92ZM75.4791 31.68L75.8981 32.588L75.9375 32.5698L75.9752 32.5482L75.4791 31.68ZM74.8391 54.72V53.72H73.8391V54.72H74.8391ZM74.8391 55H73.8391V56H74.8391V55ZM82.6391 55V56H83.6391V55H82.6391ZM82.6391 54.72H83.6391V53.72H82.6391V54.72ZM81.5462 53.2529C81.2916 52.9983 81.1191 52.6118 81.1191 52.2H79.1191C79.1191 53.1482 79.5066 54.0417 80.132 54.6671L81.5462 53.2529ZM81.1191 52.2V28.88H79.1191V52.2H81.1191ZM79.6506 27.9965L74.3706 30.7965L75.3076 32.5635L80.5876 29.7635L79.6506 27.9965ZM73.9446 32.1272L74.0646 32.3672L75.8535 31.4728L75.7335 31.2328L73.9446 32.1272ZM75.3781 32.828L75.8981 32.588L75.06 30.772L74.54 31.012L75.3781 32.828ZM75.9752 32.5482C76.14 32.454 76.2503 32.44 76.2791 32.44V30.44C75.8279 30.44 75.3781 30.586 74.9829 30.8118L75.9752 32.5482ZM76.2791 32.44C76.3128 32.44 76.3298 32.446 76.3351 32.4482C76.3406 32.4505 76.3422 32.4523 76.3428 32.4529C76.3437 32.4537 76.347 32.4574 76.3506 32.4664C76.3542 32.4754 76.3591 32.4927 76.3591 32.52H78.3591C78.3591 31.3924 77.4957 30.44 76.2791 30.44V32.44ZM76.3591 32.52V52.2H78.3591V32.52H76.3591ZM76.3591 52.2C76.3591 53.0374 75.6571 53.72 74.8391 53.72V55.72C76.741 55.72 78.3591 54.1626 78.3591 52.2H76.3591ZM73.8391 54.72V55H75.8391V54.72H73.8391ZM74.8391 56H82.6391V54H74.8391V56ZM83.6391 55V54.72H81.6391V55H83.6391ZM82.6391 53.72C82.2072 53.72 81.8555 53.5622 81.5462 53.2529L80.132 54.6671C80.7826 55.3178 81.6309 55.72 82.6391 55.72V53.72ZM89.5528 38L88.6258 37.6249L87.4238 40.5957L90.102 38.8357L89.5528 38ZM97.4728 29.2L97.8175 30.1387L98.7627 29.7917L98.4091 28.8489L97.4728 29.2ZM97.3528 28.88L98.2891 28.5289L97.9489 27.6216L97.0314 27.9331L97.3528 28.88ZM85.3128 45.84L86.3086 45.7481L86.3063 45.7233L86.3028 45.6986L85.3128 45.84ZM88.1528 45.28L87.1537 45.2377L87.1528 45.2588V45.28H88.1528ZM94.4328 35.56C92.4381 35.56 90.5671 36.1368 89.0036 37.1643L90.102 38.8357C91.3385 38.0232 92.8275 37.56 94.4328 37.56V35.56ZM90.4798 38.3751C91.8092 35.0895 93.6791 33.0214 95.1964 31.7786C95.9568 31.1558 96.6307 30.7389 97.1062 30.4807C97.3438 30.3517 97.5315 30.2626 97.6549 30.2075C97.7166 30.1799 97.7622 30.1609 97.7899 30.1497C97.8038 30.1441 97.8131 30.1404 97.8178 30.1386C97.8201 30.1377 97.8213 30.1373 97.8213 30.1373C97.8212 30.1373 97.8209 30.1375 97.8203 30.1377C97.82 30.1378 97.8196 30.1379 97.8191 30.1381C97.8189 30.1382 97.8185 30.1384 97.8184 30.1384C97.8179 30.1386 97.8175 30.1387 97.4728 29.2C97.1281 28.2613 97.1276 28.2615 97.1271 28.2616C97.1269 28.2617 97.1264 28.2619 97.126 28.2621C97.1253 28.2623 97.1244 28.2627 97.1235 28.263C97.1216 28.2637 97.1194 28.2645 97.1169 28.2655C97.1119 28.2673 97.1057 28.2697 97.0983 28.2726C97.0834 28.2783 97.0637 28.286 97.0394 28.2959C96.9907 28.3156 96.9236 28.3437 96.8398 28.3811C96.6723 28.4559 96.438 28.5677 96.1519 28.7231C95.5799 29.0336 94.7988 29.5191 93.9292 30.2314C92.1865 31.6586 90.0964 33.9904 88.6258 37.6249L90.4798 38.3751ZM98.4091 28.8489L98.2891 28.5289L96.4165 29.2311L96.5365 29.5511L98.4091 28.8489ZM97.0314 27.9331C91.3242 29.8702 88.0937 33.0499 86.3092 36.2534C84.5387 39.4317 84.2328 42.5572 84.2328 44.36H86.2328C86.2328 42.7628 86.5069 40.0083 88.0564 37.2266C89.5919 34.4701 92.4214 31.6098 97.6742 29.8269L97.0314 27.9331ZM84.2328 44.36C84.2328 44.8488 84.2541 45.245 84.2759 45.5232C84.2868 45.6624 84.2979 45.7722 84.3065 45.8496C84.3109 45.8883 84.3146 45.9189 84.3175 45.941C84.3189 45.952 84.32 45.9609 84.321 45.9677C84.3214 45.9711 84.3218 45.9739 84.3221 45.9762C84.3223 45.9774 84.3224 45.9784 84.3226 45.9792C84.3226 45.9797 84.3227 45.9801 84.3227 45.9804C84.3227 45.9806 84.3228 45.9808 84.3228 45.9809C84.3228 45.981 84.3228 45.9811 84.3228 45.9812C84.3228 45.9813 84.3229 45.9814 85.3128 45.84C86.3028 45.6986 86.3028 45.6987 86.3028 45.6988C86.3028 45.6988 86.3028 45.6989 86.3028 45.699C86.3028 45.6991 86.3029 45.6993 86.3029 45.6994C86.3029 45.6996 86.3029 45.6998 86.303 45.7C86.303 45.7003 86.303 45.7005 86.303 45.7005C86.3031 45.7006 86.303 45.7002 86.3029 45.6993C86.3026 45.6974 86.3021 45.6934 86.3013 45.6873C86.2998 45.6752 86.2972 45.6549 86.2941 45.6267C86.2878 45.5703 86.2788 45.4826 86.2698 45.3668C86.2516 45.135 86.2328 44.7912 86.2328 44.36H84.2328ZM84.317 45.9319C84.8324 51.5148 88.7538 56.12 94.4328 56.12V54.12C90.0318 54.12 86.7532 50.5652 86.3086 45.7481L84.317 45.9319ZM94.4328 56.12C100.036 56.12 104.593 51.501 104.593 45.84H102.593C102.593 50.419 98.9093 54.12 94.4328 54.12V56.12ZM104.593 45.84C104.593 40.179 100.036 35.56 94.4328 35.56V37.56C98.9093 37.56 102.593 41.261 102.593 45.84H104.593ZM94.4328 53.84C93.1087 53.84 91.8025 53.0721 90.7861 51.6252C89.7724 50.1821 89.1128 48.1382 89.1128 45.84H87.1128C87.1128 48.5018 87.8732 50.9579 89.1495 52.7748C90.4231 54.5879 92.2769 55.84 94.4328 55.84V53.84ZM89.1128 45.84C89.1128 45.8032 89.1161 45.7655 89.1267 45.6704C89.1361 45.5855 89.1528 45.4432 89.1528 45.28H87.1528C87.1528 45.3168 87.1495 45.3545 87.1389 45.4496C87.1295 45.5345 87.1128 45.6768 87.1128 45.84H89.1128ZM89.1519 45.3223C89.2447 43.1336 89.9212 41.223 90.9116 39.8849C91.902 38.5468 93.1507 37.84 94.4328 37.84V35.84C92.3549 35.84 90.5637 36.9932 89.304 38.6951C88.0444 40.397 87.261 42.7064 87.1537 45.2377L89.1519 45.3223ZM94.4328 37.84C95.7789 37.84 97.084 38.6099 98.0933 40.0531C99.1016 41.4948 99.7528 43.5387 99.7528 45.84H101.753C101.753 43.1813 101.004 40.7252 99.7323 38.9069C98.4616 37.0901 96.6067 35.84 94.4328 35.84V37.84ZM99.7528 45.84C99.7528 48.1413 99.1016 50.1852 98.0933 51.6269C97.084 53.0701 95.7789 53.84 94.4328 53.84V55.84C96.6067 55.84 98.4616 54.5899 99.7323 52.7731C101.004 50.9548 101.753 48.4987 101.753 45.84H99.7528Z" fill="#004628"/>
</g>
<path fill-rule="evenodd" clip-rule="evenodd" d="M107.545 18.4545V23H108.455V18.4545H113V17.5455H108.455V13H107.545V17.5455H103V18.4545H107.545Z" fill="#515151"/>
<path fill-rule="evenodd" clip-rule="evenodd" d="M10.5455 56.4545V61H11.4545V56.4545H16V55.5455H11.4545V51H10.5455V55.5455H6V56.4545H10.5455Z" fill="#515151"/>
<rect x="114" y="29" width="2" height="2" fill="#515151"/>
<rect x="118.2" y="20.2" width="2.6" height="2.6" stroke="#515151" stroke-width="0.4"/>
<rect x="0.2" y="61.2" width="1.6" height="1.6" stroke="#515151" stroke-width="0.4"/>
<rect x="3" y="45" width="3" height="3" fill="#515151"/>
<defs>
<filter id="filter0_f_268_4170" x="14.0894" y="9.41504" width="57.9546" height="47.4346" filterUnits="userSpaceOnUse" color-interpolation-filters="sRGB">
<feFlood flood-opacity="0" result="BackgroundImageFix"/>
<feBlend mode="normal" in="SourceGraphic" in2="BackgroundImageFix" result="shape"/>
<feGaussianBlur stdDeviation="2" result="effect1_foregroundBlur_268_4170"/>
</filter>
<filter id="filter1_d_268_4170" x="36.1904" y="28.8799" width="71.4023" height="34.2402" filterUnits="userSpaceOnUse" color-interpolation-filters="sRGB">
<feFlood flood-opacity="0" result="BackgroundImageFix"/>
<feColorMatrix in="SourceAlpha" type="matrix" values="0 0 0 0 0 0 0 0 0 0 0 0 0 0 0 0 0 0 127 0" result="hardAlpha"/>
<feOffset dy="4"/>
<feGaussianBlur stdDeviation="2"/>
<feComposite in2="hardAlpha" operator="out"/>
<feColorMatrix type="matrix" values="0 0 0 0 0 0 0 0 0 0 0 0 0 0 0 0 0 0 0.25 0"/>
<feBlend mode="normal" in2="BackgroundImageFix" result="effect1_dropShadow_268_4170"/>
<feBlend mode="normal" in="SourceGraphic" in2="effect1_dropShadow_268_4170" result="shape"/>
</filter>
<linearGradient id="paint0_linear_268_4170" x1="21.4622" y1="33.8317" x2="78.4163" y2="42.286" gradientUnits="userSpaceOnUse">
<stop stop-color="#FBB03B"/>
<stop offset="1" stop-color="#FBB03B" stop-opacity="0"/>
</linearGradient>
</defs>
</svg>
