<?xml version="1.0" encoding="UTF-8"?>
<svg id="_레이어_2" data-name="레이어 2" xmlns="http://www.w3.org/2000/svg" viewBox="0 0 413.59 114">
  <defs>
    <style>
      .cls-1 {
        stroke-width: 15px;
      }

      .cls-1, .cls-2 {
        fill: none;
      }

      .cls-1, .cls-2, .cls-3, .cls-4, .cls-5 {
        stroke-miterlimit: 10;
      }

      .cls-1, .cls-2, .cls-4 {
        stroke: #fbb03b;
      }

      .cls-2, .cls-4 {
        stroke-width: 7px;
      }

      .cls-3 {
        fill: #fff;
        stroke: #fff;
        stroke-width: .5px;
      }

      .cls-6 {
        font-size: 71.17px;
        letter-spacing: 0em;
      }

      .cls-6, .cls-7 {
        stroke: #004628;
      }

      .cls-6, .cls-7, .cls-8 {
        fill: #004628;
      }

      .cls-4, .cls-9 {
        fill: #fbb03b;
      }

      .cls-7, .cls-10, .cls-11 {
        font-size: 80.89px;
      }

      .cls-10 {
        fill: #007a28;
        letter-spacing: 0em;
        stroke: #007a28;
      }

      .cls-9 {
        fill-rule: evenodd;
      }

      .cls-5 {
        font-family: CooperBlack, 'Cooper Black';
      }

      .cls-11 {
        fill: #00a428;
        stroke: #00a428;
      }
    </style>
  </defs>
  <g id="_레이어_3" data-name="레이어 3">
    <g>
      <text class="cls-5" transform="translate(36.99 93.42) scale(.99) skewX(-8.49)"><tspan class="cls-11" x="0" y="0">R</tspan><tspan class="cls-10" x="62.8" y="0">E</tspan><tspan class="cls-6" x="118.68" y="0" xml:space="preserve">  </tspan><tspan class="cls-7" x="154.27" y="0">WHA</tspan></text>
      <g>
        <path class="cls-1" d="M30,14.08c-12.43,0-22.5,10.07-22.5,22.5s10.07,22.5,22.5,22.5"/>
        <line class="cls-1" x1="29.5" y1="14.08" x2="60.5" y2="14.08"/>
        <ellipse class="cls-4" cx="28.92" cy="59.11" rx="3.11" ry="4.38" transform="translate(-6.16 3.43) rotate(-6.14)"/>
        <g>
          <path class="cls-9" d="M58.15,23.6c-1.43,.82-2.61,.14-2.62-1.51l-.08-16.74c0-1.65,1.16-2.32,2.58-1.5l14.65,8.46c1.43,.82,1.43,2.17,0,2.99l-14.53,8.3Z"/>
          <path class="cls-2" d="M58.15,23.6c-1.43,.82-2.61,.14-2.62-1.51l-.08-16.74c0-1.65,1.16-2.32,2.58-1.5l14.65,8.46c1.43,.82,1.43,2.17,0,2.99l-14.53,8.3Z"/>
        </g>
      </g>
      <g>
        <path class="cls-8" d="M379.18,18.17c.21,.72,.33,1.47,.33,2.26,0,4.28-3.46,7.74-7.74,7.74-1.41,0-2.73-.39-3.87-1.05-1.14,.66-2.46,1.05-3.87,1.05-4.28,0-7.74-3.46-7.74-7.74,0-.79,.12-1.55,.33-2.26-1.39-1.41-2.26-3.35-2.26-5.48,0-3.97,2.98-7.22,6.81-7.68,1.34-2.34,3.85-3.93,6.74-3.93s5.4,1.59,6.74,3.93c3.83,.46,6.81,3.72,6.81,7.68,0,2.13-.87,4.06-2.26,5.48Z"/>
        <path class="cls-3" d="M368.43,9.75s.02,.02,.02,.02c.11,.01,.23,.02,.34,.04,.09,.01,.19,.04,.28,.06,0,0,.01,0,.02,0,.08,.01,.16,.03,.24,.04,.06,.01,.11,.04,.17,.06,.04,.01,.07,.02,.11,.03,.05,.01,.11,.02,.16,.04,.05,.02,.1,.04,.14,.05,.03,.01,.06,.02,.09,.03,.07,.03,.14,.05,.21,.08,.03,.01,.06,.03,.1,.05,.04,.02,.08,.03,.11,.05,.08,.04,.16,.08,.24,.12,.05,.02,.1,.05,.14,.07,.08,.05,.16,.09,.24,.14,.05,.03,.1,.06,.15,.09,.05,.03,.09,.06,.14,.1,.07,.05,.14,.1,.2,.16,.1,.08,.2,.16,.3,.25,.13,.11,.25,.23,.38,.35,.07,.07,.14,.15,.2,.23,.07,.09,.15,.17,.22,.26,.04,.05,.07,.11,.11,.17,.04,.06,.09,.12,.13,.18,.04,.07,.08,.14,.13,.21,.05,.08,.11,.16,.15,.25,.03,.05,.05,.1,.07,.16,.02,.05,.05,.11,.08,.16,.03,.06,.06,.12,.08,.18,.03,.07,.06,.15,.09,.22,.02,.04,.02,.08,.04,.12,.01,.04,.03,.09,.04,.13,.02,.06,.04,.12,.06,.19,.02,.05,.04,.11,.05,.16,0,0,0,.02,0,.02,.01,.07,.02,.14,.04,.21,.02,.07,.04,.15,.06,.22,0,0,0,0,0,.01,.01,.11,.02,.22,.04,.33,.04,.21,.03,.43,.03,.64,0,.19,0,.39,0,.58,0,.1,0,.2-.03,.29-.02,.07-.02,.13-.03,.2,0,.05-.02,.11-.03,.16-.01,.06-.04,.12-.05,.18,0,0,0,.02,0,.03-.02,.08-.04,.16-.06,.24-.02,.06-.03,.12-.05,.18-.01,.05-.04,.09-.05,.13-.01,.04-.02,.08-.04,.11-.02,.05-.04,.1-.06,.15-.02,.06-.05,.13-.07,.19-.03,.06-.06,.12-.09,.18-.01,.03-.02,.06-.04,.09-.03,.06-.06,.11-.09,.17-.03,.06-.07,.12-.11,.19-.03,.05-.06,.1-.09,.14-.03,.05-.07,.11-.1,.16-.03,.04-.06,.08-.09,.12-.05,.07-.09,.14-.14,.2-.08,.1-.16,.19-.24,.28-.06,.07-.12,.14-.18,.2-.07,.07-.14,.14-.21,.21-.09,.08-.18,.17-.28,.24-.07,.06-.14,.1-.21,.16-.06,.05-.12,.1-.19,.15-.07,.05-.15,.09-.23,.14-.06,.04-.12,.08-.19,.12-.05,.03-.1,.05-.15,.07-.05,.03-.1,.06-.15,.08-.05,.03-.1,.05-.15,.07-.07,.03-.14,.07-.21,.1-.04,.02-.08,.02-.12,.04-.04,.01-.07,.03-.11,.04-.08,.03-.16,.06-.25,.09-.06,.02-.11,.04-.17,.06-.05,.02-.11,.03-.16,.04-.07,.02-.14,.04-.22,.06,0,0,0,0,0,0-.07,.01-.15,.02-.22,.04-.12,.02-.23,.04-.35,.06,0,0-.01,0-.02,0-.32,.02-.63,.06-.95,.04-.13,0-.26-.02-.39-.03-.08,0-.16-.02-.24-.03-.12-.02-.24-.04-.35-.07-.09-.02-.18-.04-.27-.06-.12-.04-.24-.08-.36-.12-.08-.03-.15-.05-.23-.08-.04-.01-.07-.03-.1-.05-.04-.02-.07-.03-.11-.04-.09-.04-.18-.09-.28-.13-.05-.02-.11-.05-.16-.07-.04-.02-.08-.04-.12-.07-.07-.04-.14-.08-.2-.12-.05-.03-.09-.07-.13-.09-.08-.03-.14-.09-.2-.14-.1-.07-.19-.15-.29-.22-.1-.08-.19-.16-.28-.24-.07-.06-.13-.11-.19-.18-.07-.07-.14-.15-.2-.22-.07-.08-.14-.16-.21-.24-.07-.08-.14-.17-.2-.26-.06-.09-.11-.18-.17-.27-.06-.1-.13-.19-.18-.29-.04-.07-.08-.15-.11-.23-.04-.07-.08-.14-.12-.22-.04-.08-.07-.17-.1-.26-.03-.07-.06-.14-.09-.2-.01-.04-.03-.07-.04-.11-.01-.05-.02-.1-.04-.15-.02-.05-.04-.11-.06-.16-.01-.04-.02-.08-.03-.12-.02-.07-.03-.14-.04-.21-.02-.08-.04-.15-.06-.23,0,0,0,0,0-.01-.01-.1-.02-.19-.04-.29-.04-.23-.03-.47-.04-.71,0-.18,0-.36,.01-.54,.01-.1,0-.2,.03-.29,.02-.07,.02-.14,.03-.21,.01-.07,.04-.14,.05-.22,.01-.05,.02-.1,.04-.15,.01-.06,.02-.12,.04-.19,.01-.05,.03-.11,.05-.16,0-.01,0-.02,.01-.03,.02-.06,.04-.12,.06-.18,.01-.04,.02-.09,.04-.13,.02-.07,.05-.13,.08-.2,.02-.04,.04-.09,.06-.13,.02-.04,.04-.07,.05-.1,.01-.03,.02-.05,.04-.08,.04-.08,.08-.17,.13-.25,.04-.07,.07-.14,.11-.21,.06-.1,.12-.19,.19-.28,.04-.06,.07-.12,.11-.17,.04-.06,.09-.12,.14-.18,.04-.05,.08-.1,.12-.15,.08-.09,.17-.19,.25-.28,.09-.1,.18-.2,.28-.29,.05-.04,.11-.07,.17-.11,.09-.05,.18-.07,.28-.06,.1,.01,.18,.05,.27,.11,.06,.04,.09,.11,.14,.15,.02,.02,.03,.04,.03,.07,.03,.11,.06,.21,.02,.33-.03,.08-.07,.16-.12,.23-.04,.05-.1,.09-.15,.14-.08,.08-.16,.16-.24,.25-.04,.05-.09,.09-.13,.14-.06,.07-.11,.14-.17,.21-.04,.05-.09,.1-.12,.16-.06,.09-.11,.19-.17,.29-.03,.05-.06,.09-.09,.14-.02,.03-.03,.06-.04,.09-.03,.05-.06,.11-.08,.16-.01,.03-.03,.05-.04,.08-.03,.07-.05,.14-.08,.2-.03,.07-.06,.14-.09,.21-.02,.05-.02,.09-.04,.14-.01,.05-.03,.1-.04,.15-.02,.09-.04,.17-.06,.26-.01,.06-.01,.13-.04,.19-.03,.07,0,.15-.03,.22-.05,.15-.02,.31-.03,.46,0,.07-.03,.14-.02,.2,.03,.16,0,.32,.03,.48,.01,.08,.02,.16,.03,.24,.02,.11,.04,.22,.07,.32,.02,.09,.04,.17,.07,.26,.02,.07,.04,.14,.06,.21,.03,.07,.06,.14,.09,.21,.04,.09,.07,.18,.11,.27,.03,.06,.06,.11,.09,.17,.04,.07,.07,.14,.1,.21,.03,.06,.07,.12,.1,.18,.03,.05,.06,.1,.1,.15,.04,.06,.08,.11,.12,.16,.06,.08,.13,.16,.2,.24,.08,.09,.16,.17,.24,.26,.09,.1,.19,.19,.29,.28,.05,.05,.11,.09,.17,.14,.1,.07,.19,.15,.29,.22,.06,.04,.13,.08,.2,.12,.06,.04,.12,.08,.18,.11,.05,.03,.1,.05,.16,.08,.06,.03,.11,.06,.17,.09,.02,.01,.05,.02,.07,.03,.07,.02,.13,.05,.2,.07,.08,.03,.15,.06,.23,.09,.05,.02,.1,.03,.15,.04,.05,.02,.11,.04,.16,.05,0,0,0,0,.01,0,.07,.01,.15,.02,.22,.04,.09,.02,.18,.04,.28,.06,0,0,.01,0,.02,0,.34,.04,.69,.05,1.03,.03,.1,0,.19-.02,.29-.03,.09-.01,.18-.04,.27-.05,.07-.01,.15-.02,.22-.04,.06-.01,.11-.04,.17-.05,.04-.01,.08-.02,.12-.03,.08-.02,.17-.04,.25-.07,.07-.02,.13-.06,.2-.09,.03-.01,.06-.02,.08-.04,.08-.04,.17-.08,.25-.12,.06-.03,.12-.05,.17-.08,.07-.04,.14-.09,.21-.13,.08-.05,.16-.1,.24-.16,.07-.05,.14-.11,.21-.17,.09-.08,.19-.16,.28-.24,.08-.08,.16-.16,.24-.24,.05-.05,.11-.11,.16-.16,.06-.07,.11-.15,.17-.23,.06-.08,.13-.17,.18-.25,.05-.08,.1-.15,.14-.23,.05-.09,.09-.18,.13-.27,.04-.08,.09-.16,.12-.24,.03-.07,.05-.14,.07-.2,.03-.08,.06-.15,.09-.22,.01-.03,.02-.07,.03-.1,.02-.06,.03-.13,.05-.19,.02-.06,.04-.13,.05-.19,0,0,0,0,0-.01,.01-.1,.02-.19,.04-.29,.02-.18,.04-.36,.05-.55,0-.1,0-.2,0-.3,0-.11,0-.21-.02-.32,0-.1-.01-.2-.04-.29-.02-.06-.02-.12-.03-.18-.01-.06-.03-.12-.05-.18,0,0,0,0,0-.01-.02-.1-.04-.2-.07-.3-.02-.08-.06-.15-.09-.23-.01-.04-.02-.07-.04-.11-.03-.07-.06-.14-.09-.21-.03-.06-.05-.12-.08-.17-.03-.06-.06-.11-.09-.16-.04-.08-.09-.16-.13-.23-.06-.1-.13-.2-.2-.3-.05-.06-.11-.12-.15-.18-.05-.08-.11-.13-.17-.2-.1-.11-.2-.22-.31-.32-.1-.09-.2-.18-.31-.26-.08-.07-.16-.13-.25-.19-.1-.07-.19-.13-.29-.19-.09-.05-.19-.1-.29-.15-.08-.04-.15-.08-.23-.12-.06-.03-.13-.05-.19-.07-.08-.03-.15-.06-.23-.09-.03-.01-.07-.02-.1-.03-.05-.01-.1-.02-.15-.04-.07-.02-.15-.04-.22-.06,0,0-.01,0-.02,0-.09-.01-.17-.03-.26-.04-.09-.01-.18-.02-.27-.03-.02,0-.03,0-.05,0,0,.01,.02,.02,.03,.04,.1,.1,.2,.21,.3,.31,.08,.08,.16,.15,.23,.23,.08,.08,.17,.15,.24,.24,.04,.05,.06,.12,.08,.18,.02,.05,.03,.1,.03,.15,0,.17-.08,.3-.2,.41-.09,.08-.2,.11-.31,.12-.07,0-.14-.01-.21-.04-.18-.06-.28-.22-.41-.34-.14-.13-.27-.27-.41-.41-.14-.14-.27-.27-.41-.4-.1-.1-.2-.2-.31-.31-.08-.08-.15-.18-.24-.24-.07-.05-.11-.12-.17-.18-.02-.02-.03-.04-.04-.07-.03-.1-.06-.2-.04-.3,.02-.07,.06-.13,.09-.2,.05-.12,.17-.18,.25-.27,.1-.11,.21-.21,.31-.31,.14-.14,.27-.27,.41-.41,.12-.12,.24-.25,.37-.37,.15-.15,.3-.3,.45-.44,.04-.04,.11-.06,.17-.08,.06-.02,.12-.03,.18-.02,.1,0,.19,.05,.28,.1,.09,.06,.15,.14,.18,.23,.04,.1,.07,.21,.02,.33-.02,.06-.03,.11-.07,.16-.05,.06-.1,.12-.15,.18-.08,.08-.16,.16-.25,.24-.07,.07-.14,.14-.21,.21-.05,.05-.1,.1-.16,.15Z"/>
      </g>
      <circle class="cls-8" cx="178.34" cy="55.14" r="6.47"/>
      <circle class="cls-8" cx="176.1" cy="83.19" r="6.47"/>
      <path class="cls-8" d="M89.26,1.73h15.1l-.69,4.65h-9.39l-2.39,16.08c1.03,0,2-.01,2.92-.04,.92-.03,1.8-.08,2.65-.15,.85-.07,1.67-.16,2.48-.27s1.63-.25,2.48-.44l-.83,5.55h-16.1l3.77-25.38Zm17.12,0h5.71l-1.33,8.97h2.57l-.76,5.1h-2.57l-1.68,11.31h-5.71l3.77-25.38Z"/>
      <path class="cls-8" d="M120.08,1.73h7.71l1.08,25.38h-5.99l-.07-17.76-5.35,17.76h-5.99L120.08,1.73Zm13.7,0h5.71l-3.77,25.38h-5.71l3.77-25.38Z"/>
      <path class="cls-8" d="M151.33,1.73h7.82l-.36,12.99,3.5-12.99h7.82V18.26h-5.28l.4-11.16-2.97,11.16h-7.99l.35-11.16-2.92,11.16h-5.28l4.91-16.53Zm-5.54,20.73h23.69l-.69,4.65h-23.69l.69-4.65Z"/>
      <path class="cls-8" d="M181.12,1.73l-.87,5.82h6.99c1.86,0,3.76-.08,5.69-.24,1.93-.16,3.74-.38,5.44-.66l-.83,5.55h-23.69l1.56-10.47h5.71Zm-7.44,11.67h23.69l-.69,4.65h-23.69l.69-4.65Zm4.84,5.85l-.48,3.24,7.14-.03c1.87-.02,3.76-.1,5.69-.24,1.92-.14,3.73-.35,5.43-.63l-.82,5.52h-23.83l1.17-7.86h5.71Z"/>
      <path class="cls-8" d="M207.46,8.63c.15-1.04,.46-2,.92-2.9,.46-.89,1.06-1.65,1.81-2.28s1.66-1.12,2.72-1.49c1.06-.36,2.27-.54,3.62-.54s2.5,.18,3.46,.54c.95,.36,1.71,.86,2.28,1.49s.94,1.39,1.13,2.28c.19,.89,.21,1.86,.05,2.9l-1.72,11.58c-.16,1.06-.46,2.03-.92,2.91-.46,.88-1.06,1.63-1.81,2.26s-1.66,1.12-2.72,1.49c-1.06,.36-2.27,.54-3.62,.54s-2.5-.18-3.46-.54c-.96-.36-1.71-.86-2.28-1.49s-.94-1.38-1.13-2.26-.21-1.85-.05-2.91l1.72-11.58Zm8.92-6.24c-.33,2.2-.83,4.06-1.5,5.58-.67,1.52-1.43,2.76-2.28,3.71-.85,.95-1.74,1.64-2.69,2.07s-1.85,.67-2.72,.71c.85,.04,1.69,.27,2.51,.71,.82,.43,1.51,1.11,2.08,2.05,.56,.94,.96,2.17,1.18,3.67,.22,1.51,.17,3.37-.16,5.57,.33-2.2,.83-4.05,1.5-5.57,.67-1.51,1.43-2.74,2.28-3.69,.85-.95,1.74-1.64,2.68-2.07,.94-.43,1.84-.67,2.7-.71-.85-.04-1.68-.27-2.49-.71-.81-.43-1.5-1.11-2.06-2.05s-.96-2.17-1.18-3.69c-.22-1.52-.17-3.38,.16-5.58Zm10.09-.66h5.71l-3.77,25.38h-5.71l3.77-25.38Z"/>
      <path class="cls-8" d="M234.65,2.33h5.05l.22-1.5h5.99l-.22,1.5h5.05l-.69,4.65h-16.09l.69-4.65Zm-1.36,12c.13-.9,.44-1.75,.92-2.55s1.1-1.5,1.87-2.1c.76-.6,1.64-1.07,2.62-1.42,.98-.35,2.05-.53,3.19-.53s2.15,.18,3.03,.53c.88,.35,1.61,.83,2.2,1.42,.59,.6,1,1.3,1.24,2.1s.3,1.65,.16,2.55l-.12,.81c-.2,1.36-.78,2.58-1.74,3.66s-2.17,1.88-3.64,2.4l-.19,1.26h5.08l-.69,4.65h-16.27l.69-4.65h5.19l.17-1.14c-1.41-.48-2.46-1.28-3.14-2.4s-.92-2.38-.71-3.78l.12-.81Zm8.38-5.13c-.16,.84-.46,1.6-.9,2.28-.43,.68-.96,1.26-1.57,1.74-.61,.48-1.3,.85-2.06,1.11-.76,.26-1.55,.4-2.37,.42,.81,.04,1.56,.19,2.24,.45,.68,.26,1.26,.62,1.74,1.08s.83,1.02,1.06,1.69c.23,.67,.31,1.42,.22,2.27,.14-.84,.43-1.59,.87-2.27,.43-.67,.95-1.24,1.57-1.71,.61-.47,1.3-.83,2.06-1.09,.76-.26,1.56-.41,2.41-.45-.83-.02-1.59-.16-2.28-.42-.68-.26-1.26-.62-1.73-1.09s-.83-1.04-1.06-1.73c-.23-.68-.3-1.44-.19-2.28Zm10.47-7.47h5.71l-1.33,8.97h2.57l-.76,5.1h-2.57l-1.68,11.31h-5.71l3.77-25.38Z"/>
      <path class="cls-8" d="M258.2,22.46h17.12l-.69,4.65h-17.12l.69-4.65Zm2.34-13.83c.15-1.04,.47-2,.94-2.9,.48-.89,1.1-1.65,1.87-2.28s1.69-1.12,2.76-1.49,2.28-.54,3.63-.54,2.51,.18,3.47,.54,1.74,.86,2.32,1.49c.58,.63,.98,1.39,1.19,2.28,.21,.89,.24,1.86,.08,2.9l-.52,3.48c-.16,1.06-.47,2.03-.95,2.91-.47,.88-1.09,1.64-1.86,2.27-.77,.63-1.69,1.12-2.76,1.48-1.07,.36-2.28,.54-3.63,.54s-2.51-.18-3.47-.54c-.96-.36-1.74-.85-2.32-1.48s-.98-1.38-1.19-2.27c-.21-.88-.24-1.85-.08-2.91l.52-3.48Zm8.97-5.61c-.19,1.02-.52,1.98-.98,2.87-.47,.89-1.02,1.66-1.67,2.31-.65,.65-1.36,1.17-2.14,1.56-.78,.39-1.58,.61-2.41,.64,.81,.04,1.55,.25,2.22,.63,.67,.38,1.23,.89,1.68,1.54,.46,.65,.78,1.42,.99,2.29s.25,1.83,.13,2.85c.17-1.02,.49-1.97,.95-2.85,.46-.88,1.02-1.65,1.67-2.31,.65-.66,1.36-1.18,2.14-1.56,.78-.38,1.59-.59,2.43-.63-.83-.04-1.58-.25-2.25-.63-.67-.38-1.23-.9-1.68-1.56-.45-.66-.78-1.43-.98-2.31-.2-.88-.24-1.83-.1-2.85Zm10.04-1.29h5.71l-3.77,25.38h-5.71l3.77-25.38Z"/>
      <path class="cls-8" d="M294.4,3.38h8.85l.38-2.55h5.99l-.38,2.55h8.85l-.69,4.65h-5.62l4.11,10.2h-6.56l-3.78-10.08-6.78,10.08h-6.56l7.14-10.2h-5.62l.69-4.65Zm-2.84,19.08h8.85l.95-6.42h5.99l-.95,6.42h8.85l-.69,4.65h-23.69l.69-4.65Z"/>
      <path class="cls-8" d="M319.27,14.6h8.85l.12-.81h-8.85l1.15-7.74h17.98l.12-.78h-17.98l.53-3.54h23.69l-.97,6.54c-1.5,.22-2.96,.4-4.39,.54-1.43,.14-2.87,.26-4.33,.36-1.46,.1-2.96,.17-4.51,.21s-3.19,.06-4.92,.06l-.12,.81c1.73,0,3.37-.02,4.92-.06s3.04-.1,4.49-.19,2.89-.2,4.32-.34c1.43-.14,2.9-.31,4.42-.53l-.69,4.65h-8.85l-.12,.81h8.85l-.6,4.05h-23.69l.6-4.05Zm16.12,12.51l.5-3.36h-17.98l.65-4.35h23.69l-1.15,7.71h-5.71Z"/>
    </g>
  </g>
</svg>