<svg width="193" height="60" viewBox="0 0 193 60" fill="none" xmlns="http://www.w3.org/2000/svg">
<path d="M26.9659 41.848C25.2909 38.364 22.1419 35.885 18.5239 34.88H21.8739C27.3009 34.88 31.7229 30.525 31.7229 25.031C31.7229 19.604 27.3009 15.249 21.8739 15.249H0.634922V15.651C1.77392 15.651 2.84592 16.187 3.58292 16.924C4.31992 17.661 4.85592 18.733 4.85592 19.872V54.31C4.85592 56.655 2.91292 58.531 0.634922 58.531V59H13.6999V58.531C12.4939 58.531 11.4219 58.062 10.6849 57.258C9.94792 56.521 9.47892 55.449 9.47892 54.31V34.88H13.2309C16.3799 34.88 19.2609 36.689 20.6679 39.503L28.3729 55.047C28.5739 55.382 28.6409 55.784 28.6409 56.119C28.6409 57.392 27.6359 58.531 26.2289 58.531V59H39.2939V58.531C36.8149 58.531 34.6039 57.124 33.4649 54.913L26.9659 41.848ZM9.47892 34.411V19.872C9.47892 17.594 11.3549 15.651 13.6999 15.651H17.7199C22.8789 15.651 27.0999 19.872 27.0999 25.031C27.0999 27.644 26.0279 29.989 24.3529 31.664C22.6109 33.406 20.2659 34.411 17.7199 34.411H9.47892Z" fill="#515151"/>
<path d="M66.8765 37.158C64.7325 31.731 59.9085 27.979 54.3475 27.979C46.7765 27.979 40.6125 34.947 40.6125 43.523C40.6125 52.166 46.7765 59.134 54.3475 59.134C58.5685 59.134 62.3875 56.923 64.9335 53.506V53.439C64.7995 53.372 64.6655 53.305 64.4645 53.171C64.0625 53.64 61.5165 57.459 56.0225 57.459C55.5535 57.459 55.0845 57.459 54.5485 57.392C52.6055 57.191 50.7965 56.32 49.3225 54.913C48.8535 54.444 48.5855 53.841 48.5855 53.171C48.5855 52.434 48.9205 51.764 49.5235 51.295L66.8765 37.158ZM45.2355 43.59C45.2355 35.215 49.3225 28.448 54.3475 28.448C57.0275 28.448 59.4395 30.391 61.1145 33.54C61.7175 34.612 61.9855 35.818 61.9855 36.957C61.9855 39.168 60.9805 41.379 59.1715 42.853L47.3795 52.434C46.0395 50.156 45.2355 47.141 45.2355 43.59ZM75.2431 31.195C76.6501 31.195 77.9901 30.19 77.9901 28.314C77.9901 26.371 76.6501 25.299 75.2431 25.299C73.9031 25.299 72.5631 26.371 72.5631 28.314C72.5631 30.19 73.9031 31.195 75.2431 31.195ZM75.2431 59.871C76.6501 59.871 77.9901 58.799 77.9901 56.99C77.9901 55.047 76.6501 53.975 75.2431 53.975C73.9031 53.975 72.5631 55.047 72.5631 56.99C72.5631 58.799 73.9031 59.871 75.2431 59.871ZM121.034 59C120.699 58.062 120.431 57.258 120.431 56.387C120.431 55.449 120.699 54.444 121.235 53.104L126.863 40.441C127.533 38.699 128.002 37.091 128.27 35.617C128.605 33.942 128.672 32.401 128.672 31.061C128.672 28.113 128.136 26.371 128.136 26.371L124.183 29.654C125.925 32.066 126.461 34.679 126.461 36.89C126.461 39.101 125.925 41.312 125.054 43.389L119.627 55.449L110.649 32.535C110.515 32.2 110.448 31.865 110.448 31.463C110.448 29.989 111.721 28.582 113.329 28.582V28.113H100.264V28.582C102.609 28.582 104.753 30.056 105.557 32.2L108.237 38.967C108.572 39.905 108.773 40.843 108.773 41.714C108.773 42.786 108.505 43.858 108.103 44.863L103.346 55.449L94.3679 32.535C94.2339 32.2 94.1669 31.865 94.1669 31.463C94.1669 29.989 95.4399 28.582 97.0479 28.582V28.113H84.0499V28.582C85.1889 28.582 86.3279 28.984 87.1989 29.587C88.1369 30.19 88.8739 31.128 89.2759 32.2L99.7279 59H104.753C104.418 58.062 104.15 57.258 104.15 56.387C104.15 55.449 104.418 54.444 104.954 53.104L109.644 42.585L116.009 59H121.034ZM160.456 57.325C159.719 56.521 159.25 55.516 159.25 54.444V43.59C159.25 41.848 158.915 27.979 147.793 27.979C142.634 27.979 138.279 32.602 136.805 38.967V12.77C136.805 9.152 139.485 6.003 143.17 5.534L148.932 4.797V0.776999C139.016 3.658 132.182 12.703 132.182 23.021V54.31C132.182 56.655 130.306 58.531 127.961 58.531V59H141.026V58.531C139.82 58.531 138.815 58.062 138.011 57.325C137.274 56.588 136.805 55.516 136.805 54.31V43.523C136.805 35.215 141.428 29.587 146.118 29.587C151.545 29.587 154.627 35.148 154.627 43.456V54.31C154.627 56.655 152.751 58.531 150.406 58.531V59H163.471V58.531C162.332 58.531 161.26 58.062 160.456 57.325ZM189.771 57.325C189.034 56.588 188.565 55.65 188.565 54.578V41.446C188.565 34.076 182.535 28.113 175.165 28.113C170.609 28.113 166.12 29.855 163.708 33.339L166.857 35.684C167.929 31.731 171.011 28.582 175.165 28.582C177.778 28.582 179.587 29.587 180.793 30.592C181.53 31.262 181.932 32.2 181.932 33.138C181.932 34.076 181.53 35.014 180.726 35.684C179.252 36.957 176.438 38.565 171.279 40.24C165.048 42.317 162.837 46.806 162.837 50.424V50.558C162.971 54.511 165.584 57.794 169.537 58.933C170.609 59.268 171.614 59.402 172.686 59.402C174.83 59.402 176.907 58.732 178.783 57.459C180.726 56.119 182.2 54.243 183.138 52.434C183.205 52.3 183.339 52.233 183.473 52.233C183.674 52.233 183.875 52.367 183.875 52.635V59H192.719V58.531C191.58 58.531 190.508 58.062 189.771 57.325ZM183.875 48.816C183.875 49.017 183.808 49.285 183.808 49.486C183.406 51.429 182.468 53.104 180.86 54.243C179.453 55.315 177.242 56.454 174.763 56.454C173.155 56.454 171.48 55.918 169.805 54.645C167.996 53.238 167.058 51.094 167.058 48.816C167.058 45.466 169.135 41.915 173.758 40.106C181.262 37.024 182.669 34.612 183.004 33.406C183.54 34.545 183.942 35.885 183.942 37.292L183.875 48.816Z" fill="#004628"/>
</svg>
