<svg width="17" height="17" viewBox="0 0 17 17" fill="none" xmlns="http://www.w3.org/2000/svg">
<path d="M15.5505 17L9.70051 11.1489C8.44533 12.0413 6.90071 12.4295 5.37277 12.2367C3.84483 12.0439 2.44509 11.2841 1.45097 10.1078C0.456851 8.93162 -0.0590944 7.42483 0.00539084 5.88612C0.0698761 4.34741 0.710085 2.88908 1.79913 1.80016C2.88789 0.710764 4.34621 0.0701991 5.88504 0.00543646C7.42386 -0.0593262 8.93085 0.456441 10.1073 1.4505C11.2837 2.44457 12.0437 3.84436 12.2367 5.37241C12.4296 6.90046 12.0414 8.44523 11.1489 9.70051L16.999 15.5516L15.5516 16.999L15.5505 17ZM6.14136 2.04788C5.19969 2.04766 4.28672 2.37203 3.55627 2.96634C2.82583 3.56066 2.32257 4.38858 2.13128 5.31062C1.93998 6.23266 2.07235 7.19246 2.50608 8.0283C2.93982 8.86414 3.6484 9.52493 4.51244 9.89934C5.37648 10.2737 6.34317 10.3389 7.24964 10.0838C8.1561 9.82868 8.94693 9.26892 9.48887 8.49883C10.0308 7.72873 10.2908 6.79537 10.2249 5.856C10.159 4.91663 9.77139 4.02868 9.12728 3.34174L9.74658 3.95592L9.04846 3.25985L9.03618 3.24757C8.657 2.86606 8.2059 2.56357 7.70899 2.35764C7.21208 2.15171 6.67925 2.04642 6.14136 2.04788Z" fill="#004628"/>
</svg>
