<svg width="14" height="13" viewBox="0 0 14 13" fill="none" xmlns="http://www.w3.org/2000/svg">
<path d="M12.9188 1.69763C12.3604 0.551512 10.7516 -0.386223 8.88032 0.159747C7.98612 0.418037 7.20595 0.971944 6.66726 1.73097C6.12858 0.971944 5.34841 0.418037 4.45421 0.159747C2.57874 -0.377887 0.974171 0.551512 0.415698 1.69763C-0.367831 3.3022 -0.0427499 5.10682 1.38261 7.06148C2.49955 8.59103 4.09579 10.1414 6.41303 11.9419C6.48626 11.999 6.57648 12.03 6.66935 12.03C6.76222 12.03 6.85243 11.999 6.92566 11.9419C9.23874 10.1456 10.8391 8.6077 11.9561 7.06148C13.3773 5.10682 13.7024 3.3022 12.9188 1.69763Z" fill="#004628"/>
</svg>
