<svg width="14" height="13" viewBox="0 0 14 13" fill="none" xmlns="http://www.w3.org/2000/svg">
<path d="M6.66559 12.0264C6.57353 12.0261 6.48416 11.9953 6.41143 11.9389C4.09476 10.1389 2.49893 8.58887 1.38226 7.05971C-0.0427392 5.10554 -0.367739 3.30137 0.415594 1.69721C0.973927 0.551374 2.57809 -0.386126 4.45309 0.159707C5.34707 0.417932 6.12705 0.971701 6.66559 1.73054C7.20414 0.971701 7.98412 0.417932 8.87809 0.159707C10.7489 -0.377793 12.3573 0.551374 12.9156 1.69721C13.6989 3.30137 13.3739 5.10554 11.9489 7.05971C10.8323 8.58887 9.23643 10.1389 6.91976 11.9389C6.84703 11.9953 6.75766 12.0261 6.66559 12.0264ZM3.38643 0.838874C2.94028 0.82151 2.49783 0.925977 2.10657 1.14106C1.71531 1.35614 1.39001 1.67372 1.16559 2.05971C0.519761 3.38471 0.811427 4.85971 2.05726 6.56387C3.38125 8.27162 4.9316 9.79113 6.66559 11.0805C8.39931 9.79241 9.94965 8.27431 11.2739 6.56804C12.5239 4.85971 12.8114 3.38471 12.1656 2.06387C11.7489 1.23054 10.4989 0.568041 9.10726 0.959707C8.66103 1.09158 8.24735 1.31542 7.89285 1.61682C7.53834 1.91822 7.25087 2.2905 7.04893 2.70971C7.01754 2.78613 6.96413 2.85149 6.89551 2.89749C6.82688 2.94349 6.74613 2.96805 6.66351 2.96805C6.58089 2.96805 6.50014 2.94349 6.43151 2.89749C6.36289 2.85149 6.30949 2.78613 6.27809 2.70971C6.07767 2.28945 5.79069 1.9163 5.43597 1.61472C5.08124 1.31313 4.66678 1.08992 4.21976 0.959707C3.94892 0.881042 3.66846 0.840375 3.38643 0.838874Z" fill="#004628"/>
</svg>
