<svg width="13" height="16" viewBox="0 0 13 16" fill="none" xmlns="http://www.w3.org/2000/svg">
<path d="M12.4784 0C12.4167 0 12.3533 0.0139983 12.29 0.0459943L2.92463 4.67742H0.259968C0.116985 4.67742 0 4.8254 0 5.00937V10.9886C0 11.1726 0.116985 11.3206 0.259968 11.3206H1.91239C1.85227 11.5526 1.81977 11.7985 1.81977 12.0485C1.81977 13.3663 2.69391 14.4382 3.76953 14.4382C4.66967 14.4382 5.42845 13.6863 5.65267 12.6704L12.2916 15.954C12.355 15.984 12.4183 16 12.4801 16C12.7547 16 13 15.716 13 15.3361V0.663917C12.9984 0.283964 12.7547 0 12.4784 0ZM3.76953 13.0044C3.33896 13.0044 2.98963 12.5764 2.98963 12.0485C2.98963 11.8245 3.05299 11.6105 3.16835 11.4406L4.54781 12.1225C4.51531 12.6144 4.17898 13.0044 3.76953 13.0044V13.0044ZM11.8285 14.1722L3.36008 9.98475L3.15048 9.88077H1.16985V6.11724H3.15048L3.36008 6.01325L11.8285 1.82577V14.1722V14.1722Z" fill="#004628"/>
</svg>
