<svg width="95" height="45" viewBox="0 0 95 45" fill="none" xmlns="http://www.w3.org/2000/svg">
<path d="M17.5222 0.259999V1.3H8.54219V16.14H12.7022C13.8089 16.14 14.8489 16.1133 15.8222 16.06C16.8089 16.0067 17.7422 15.8867 18.6222 15.7V16.74C17.7422 16.9267 16.8089 17.0467 15.8222 17.1C14.8489 17.1533 13.8089 17.18 12.7022 17.18H7.34219V0.259999H17.5222ZM20.7422 0.259999H21.9422V7.36H24.5422V8.4H21.9422V17.18H20.7422V0.259999ZM37.1359 17.18H35.8959L31.4359 1.12L26.9759 17.18H25.7359L30.4359 0.259999H32.4359L37.1359 17.18ZM40.1359 0.259999H41.3359V17.18H40.1359V0.259999ZM53.1 1.18L50.1 10.38H48.9L52.2 0.259999H53.92L56.8 9L59.68 0.259999H61.4L64.7 10.38H63.5L60.5 1.18L57.4 10.38H56.2L53.1 1.18ZM64.7 16.14V17.18H48.9V16.14H64.7ZM68.8938 5.54H83.1938V6.58H67.6938V0.259999H68.8938V5.54ZM83.2938 9.24V10.28H67.4938V9.24H83.2938ZM69.0938 16.14H83.2938V17.18H67.8938V12.74H69.0938V16.14ZM0.230469 32.16C0.230469 31.4267 0.323802 30.7533 0.510469 30.14C0.710469 29.5133 1.01714 28.9733 1.43047 28.52C1.8438 28.0667 2.37714 27.7133 3.03047 27.46C3.69714 27.1933 4.49714 27.06 5.43047 27.06C6.3638 27.06 7.15714 27.1933 7.81047 27.46C8.47714 27.7133 9.01714 28.0667 9.43047 28.52C9.8438 28.9733 10.1438 29.5133 10.3305 30.14C10.5305 30.7533 10.6305 31.4267 10.6305 32.16V39.28C10.6305 40.0133 10.5305 40.6933 10.3305 41.32C10.1438 41.9333 9.8438 42.4667 9.43047 42.92C9.01714 43.3733 8.47714 43.7267 7.81047 43.98C7.15714 44.2467 6.3638 44.38 5.43047 44.38C4.49714 44.38 3.69714 44.2467 3.03047 43.98C2.37714 43.7267 1.8438 43.3733 1.43047 42.92C1.01714 42.4667 0.710469 41.9333 0.510469 41.32C0.323802 40.6933 0.230469 40.0133 0.230469 39.28V32.16ZM14.5305 27.26H15.7305V44.18H14.5305V27.26ZM5.43047 43.34C6.1638 43.34 6.7838 43.24 7.29047 43.04C7.81047 42.84 8.2238 42.56 8.53047 42.2C8.85047 41.84 9.07714 41.4133 9.21047 40.92C9.35714 40.4267 9.43047 39.88 9.43047 39.28V32.16C9.43047 31.56 9.35714 31.0133 9.21047 30.52C9.07714 30.0267 8.85047 29.6 8.53047 29.24C8.2238 28.88 7.81047 28.6 7.29047 28.4C6.7838 28.2 6.1638 28.1 5.43047 28.1C4.6838 28.1 4.05714 28.2 3.55047 28.4C3.0438 28.6 2.63047 28.88 2.31047 29.24C2.0038 29.6 1.77714 30.0267 1.63047 30.52C1.49714 31.0133 1.43047 31.56 1.43047 32.16V39.28C1.43047 39.88 1.49714 40.4267 1.63047 40.92C1.77714 41.4133 2.0038 41.84 2.31047 42.2C2.63047 42.56 3.0438 42.84 3.55047 43.04C4.05714 43.24 4.6838 43.34 5.43047 43.34ZM5.43047 37.66C5.39047 36.8733 5.21714 36.3333 4.91047 36.04C4.6038 35.7467 4.1238 35.5867 3.47047 35.56C4.1238 35.5333 4.6038 35.3733 4.91047 35.08C5.21714 34.7867 5.39047 34.2467 5.43047 33.46C5.47047 34.2467 5.63714 34.7867 5.93047 35.08C6.23714 35.3733 6.7238 35.5333 7.39047 35.56C6.7238 35.5867 6.23714 35.7467 5.93047 36.04C5.63714 36.3333 5.47047 36.8733 5.43047 37.66ZM23.3242 28.26V26.66H24.5242V28.26H29.3242V29.3H18.5242V28.26H23.3242ZM32.3242 27.26H33.5242V34.36H36.1242V35.4H33.5242V44.18H32.3242V27.26ZM19.0242 35.36C19.0242 34.6267 19.1242 33.9533 19.3242 33.34C19.5242 32.7133 19.8242 32.1733 20.2242 31.72C20.6242 31.2667 21.1309 30.9133 21.7442 30.66C22.3576 30.3933 23.0842 30.26 23.9242 30.26C24.7642 30.26 25.4909 30.3933 26.1042 30.66C26.7176 30.9133 27.2242 31.2667 27.6242 31.72C28.0242 32.1733 28.3242 32.7133 28.5242 33.34C28.7242 33.9533 28.8242 34.6267 28.8242 35.36V36.08C28.8242 36.76 28.7376 37.4 28.5642 38C28.3909 38.5867 28.1242 39.1067 27.7642 39.56C27.4176 40 26.9709 40.36 26.4242 40.64C25.8909 40.92 25.2576 41.0933 24.5242 41.16V43.14H29.5242V44.18H18.7242V43.14H23.3242V41.16C22.5909 41.0933 21.9509 40.92 21.4042 40.64C20.8709 40.36 20.4242 40 20.0642 39.56C19.7176 39.1067 19.4576 38.5867 19.2842 38C19.1109 37.4 19.0242 36.76 19.0242 36.08V35.36ZM23.9242 40.14C24.5642 40.14 25.1176 40.04 25.5842 39.84C26.0509 39.64 26.4309 39.36 26.7242 39C27.0309 38.64 27.2576 38.2133 27.4042 37.72C27.5509 37.2267 27.6242 36.68 27.6242 36.08V35.36C27.6242 34.76 27.5509 34.2133 27.4042 33.72C27.2576 33.2267 27.0309 32.8 26.7242 32.44C26.4309 32.08 26.0509 31.8 25.5842 31.6C25.1176 31.4 24.5642 31.3 23.9242 31.3C23.2842 31.3 22.7309 31.4 22.2642 31.6C21.7976 31.8 21.4109 32.08 21.1042 32.44C20.8109 32.8 20.5909 33.2267 20.4442 33.72C20.2976 34.2133 20.2242 34.76 20.2242 35.36V36.08C20.2242 36.68 20.2976 37.2267 20.4442 37.72C20.5909 38.2133 20.8109 38.64 21.1042 39C21.4109 39.36 21.7976 39.64 22.2642 39.84C22.7309 40.04 23.2842 40.14 23.9242 40.14ZM37.418 32.16C37.418 31.4267 37.5246 30.7533 37.738 30.14C37.9646 29.5133 38.3046 28.9733 38.758 28.52C39.2113 28.0667 39.7846 27.7133 40.478 27.46C41.1713 27.1933 41.9846 27.06 42.918 27.06C43.8513 27.06 44.6646 27.1933 45.358 27.46C46.0513 27.7133 46.6246 28.0667 47.078 28.52C47.5313 28.9733 47.8646 29.5133 48.078 30.14C48.3046 30.7533 48.418 31.4267 48.418 32.16V34.08C48.418 34.8133 48.3046 35.4933 48.078 36.12C47.8646 36.7333 47.5313 37.2667 47.078 37.72C46.6246 38.1733 46.0513 38.5333 45.358 38.8C44.6646 39.0533 43.8513 39.18 42.918 39.18C41.9846 39.18 41.1713 39.0533 40.478 38.8C39.7846 38.5333 39.2113 38.1733 38.758 37.72C38.3046 37.2667 37.9646 36.7333 37.738 36.12C37.5246 35.4933 37.418 34.8133 37.418 34.08V32.16ZM51.718 27.26H52.918V44.18H51.718V27.26ZM42.918 38.14C43.6513 38.14 44.2913 38.04 44.838 37.84C45.3846 37.64 45.8313 37.36 46.178 37C46.5246 36.64 46.7846 36.2133 46.958 35.72C47.1313 35.2267 47.218 34.68 47.218 34.08V32.16C47.218 31.56 47.1313 31.0133 46.958 30.52C46.7846 30.0267 46.5246 29.6 46.178 29.24C45.8313 28.88 45.3846 28.6 44.838 28.4C44.2913 28.2 43.6513 28.1 42.918 28.1C42.1713 28.1 41.5246 28.2 40.978 28.4C40.4446 28.6 40.0046 28.88 39.658 29.24C39.3113 29.6 39.0513 30.0267 38.878 30.52C38.7046 31.0133 38.618 31.56 38.618 32.16V34.08C38.618 34.68 38.7046 35.2267 38.878 35.72C39.0513 36.2133 39.3113 36.64 39.658 37C40.0046 37.36 40.4446 37.64 40.978 37.84C41.5246 38.04 42.1713 38.14 42.918 38.14ZM42.918 35.16C42.878 34.3733 42.7046 33.8333 42.398 33.54C42.0913 33.2467 41.6113 33.0867 40.958 33.06C41.6113 33.0333 42.0913 32.8733 42.398 32.58C42.7046 32.2867 42.878 31.7467 42.918 30.96C42.958 31.7467 43.1246 32.2867 43.418 32.58C43.7246 32.8733 44.2113 33.0333 44.878 33.06C44.2113 33.0867 43.7246 33.2467 43.418 33.54C43.1246 33.8333 42.958 34.3733 42.918 35.16ZM37.318 43.14H48.918V44.18H37.318V43.14Z" fill="white"/>
<path d="M67.042 29.9H60.482V28.86H67.782V26.66H68.982V28.86H76.282V29.9H69.722L76.242 37.98H74.962L68.382 30.02L61.802 37.98H60.522L67.042 29.9ZM67.782 43.14V37.26H68.982V43.14H76.282V44.18H60.482V43.14H67.782ZM79.2758 30.4H93.4758V28.3H79.2758V27.26H94.6758V31.44H80.4758V33.54H94.7758V34.58H87.5758V36.74H94.8758V37.78H79.0758V36.74H86.3758V34.58H79.2758V30.4ZM93.4758 40.78H79.2758V39.74H94.6758V44.18H93.4758V40.78Z" fill="#B2FF5A"/>
</svg>
