<svg width="25" height="26" viewBox="0 0 25 26" fill="none" xmlns="http://www.w3.org/2000/svg">
<path fill-rule="evenodd" clip-rule="evenodd" d="M12.5 0.845703C5.59375 0.845703 0 6.50584 0 13.4941C0 19.091 3.57812 23.8183 8.54688 25.4942C9.17188 25.6049 9.40625 25.2254 9.40625 24.8934C9.40625 24.593 9.39063 23.5969 9.39063 22.5376C6.25 23.1226 5.4375 21.7629 5.1875 21.0514C5.04688 20.6878 4.4375 19.5653 3.90625 19.2649C3.46875 19.0277 2.84375 18.4427 3.89062 18.4269C4.875 18.4111 5.57812 19.3439 5.8125 19.7234C6.9375 21.6364 8.73438 21.0989 9.45312 20.7669C9.5625 19.9447 9.89062 19.3913 10.25 19.0751C7.46875 18.7589 4.5625 17.668 4.5625 12.83C4.5625 11.4545 5.04687 10.3162 5.84375 9.43077C5.71875 9.11456 5.28125 7.81811 5.96875 6.07896C5.96875 6.07896 7.01563 5.74694 9.40625 7.37541C10.4062 7.09083 11.4688 6.94853 12.5312 6.94853C13.5938 6.94853 14.6562 7.09083 15.6562 7.37541C18.0469 5.73113 19.0938 6.07896 19.0938 6.07896C19.7812 7.81811 19.3438 9.11456 19.2188 9.43077C20.0156 10.3162 20.5 11.4387 20.5 12.83C20.5 17.6838 17.5781 18.7589 14.7969 19.0751C15.25 19.4704 15.6406 20.2293 15.6406 21.4151C15.6406 23.1068 15.625 24.4665 15.625 24.8934C15.625 25.2254 15.8594 25.6207 16.4844 25.4942C21.4219 23.8183 25 19.0751 25 13.4941C25 6.50584 19.4062 0.845703 12.5 0.845703Z" fill="#6C6C6C"/>
</svg>
