<svg width="25" height="27" viewBox="0 0 25 27" fill="none" xmlns="http://www.w3.org/2000/svg">
<path d="M12.5 0.845703C9.10522 0.845703 8.67952 0.860276 7.34625 0.921805C6.01577 0.983222 5.10712 1.19707 4.312 1.50969C3.49001 1.83292 2.79292 2.26544 2.09802 2.96859C1.40308 3.67173 0.975643 4.37718 0.656234 5.20892C0.347208 6.01343 0.135943 6.93287 0.0751725 8.27914C0.0143646 9.62824 0 10.059 0 13.4941C0 16.9291 0.0143646 17.3599 0.0751725 18.709C0.135943 20.0552 0.347208 20.9747 0.656234 21.7792C0.97568 22.6109 1.40312 23.3163 2.09802 24.0195C2.79296 24.7227 3.49001 25.1552 4.312 25.4784C5.10712 25.791 6.01577 26.0049 7.34625 26.0663C8.67952 26.1278 9.10522 26.1424 12.5 26.1424C15.8948 26.1424 16.3205 26.1278 17.6537 26.0663C18.9842 26.0049 19.8929 25.791 20.688 25.4784C21.5099 25.1552 22.207 24.7227 22.902 24.0195C23.5969 23.3163 24.0244 22.6109 24.3438 21.7792C24.6528 20.9747 24.8641 20.0552 24.9248 18.709C24.9856 17.3599 25 16.9291 25 13.4941C25 10.059 24.9856 9.62824 24.9248 8.27914C24.8641 6.93287 24.6528 6.01343 24.3438 5.20892C24.0244 4.37718 23.5969 3.67173 22.902 2.96859C22.207 2.26544 21.5099 1.83292 20.688 1.50969C19.8929 1.19707 18.9842 0.983222 17.6537 0.921805C16.3205 0.860276 15.8948 0.845703 12.5 0.845703ZM12.5 3.12467C15.8376 3.12467 16.233 3.13758 17.5511 3.19844C18.7698 3.25466 19.4317 3.46071 19.8721 3.63393C20.4556 3.8634 20.872 4.13746 21.3094 4.58007C21.7469 5.02267 22.0177 5.44404 22.2445 6.03441C22.4157 6.4801 22.6193 7.14985 22.6749 8.38304C22.735 9.71677 22.7478 10.1168 22.7478 13.4941C22.7478 16.8713 22.735 17.2713 22.6749 18.6051C22.6193 19.8383 22.4157 20.508 22.2445 20.9537C22.0177 21.5441 21.7469 21.9654 21.3094 22.408C20.872 22.8507 20.4556 23.1247 19.8722 23.3542C19.4317 23.5274 18.7698 23.7335 17.5511 23.7897C16.2332 23.8505 15.8379 23.8634 12.5 23.8634C9.16212 23.8634 8.76687 23.8505 7.44893 23.7896C6.23017 23.7335 5.56831 23.5274 5.12788 23.3542C4.54436 23.1247 4.12798 22.8507 3.6906 22.408C3.25318 21.9654 2.9823 21.5441 2.75552 20.9537C2.58433 20.508 2.38074 19.8383 2.32514 18.6051C2.265 17.2713 2.25224 16.8713 2.25224 13.4941C2.25224 10.1168 2.265 9.71677 2.32514 8.38304C2.38074 7.14981 2.58433 6.4801 2.75552 6.03444C2.9823 5.444 3.25318 5.02267 3.69056 4.5801C4.12798 4.13746 4.5444 3.8634 5.12784 3.63393C5.56831 3.46071 6.2302 3.25466 7.44893 3.19844C8.76701 3.13758 9.16238 3.12467 12.5 3.12467" fill="#6C6C6C"/>
<path d="M12.4996 17.7103C10.1984 17.7103 8.33292 15.8227 8.33292 13.4942C8.33292 11.1656 10.1984 9.27803 12.4996 9.27803C14.8008 9.27803 16.6663 11.1656 16.6663 13.4942C16.6663 15.8227 14.8008 17.7103 12.4996 17.7103ZM12.4996 6.99906C8.95451 6.99906 6.08069 9.90699 6.08069 13.4942C6.08069 17.0813 8.95451 19.9893 12.4996 19.9893C16.0447 19.9893 18.9185 17.0813 18.9185 13.4942C18.9185 9.90699 16.0447 6.99906 12.4996 6.99906ZM20.6722 6.74244C20.6722 7.58073 20.0006 8.26023 19.1721 8.26023C18.3437 8.26023 17.6721 7.58073 17.6721 6.74244C17.6721 5.90418 18.3437 5.22461 19.1721 5.22461C20.0006 5.22461 20.6722 5.90418 20.6722 6.74244Z" fill="#6C6C6C"/>
</svg>
