<svg width="18" height="18" viewBox="0 0 18 18" fill="none" xmlns="http://www.w3.org/2000/svg">
<path d="M9.00003 0C6.55575 0 6.24926 0.0103693 5.2893 0.054151C4.33136 0.0978523 3.67712 0.250016 3.10464 0.472461C2.51281 0.702463 2.0109 1.01022 1.51057 1.51055C1.01022 2.01088 0.702463 2.51284 0.472488 3.10467C0.24999 3.67712 0.0978791 4.33136 0.0541242 5.2893C0.0103425 6.24926 0 6.55575 0 9.00003C0 11.4442 0.0103425 11.7507 0.0541242 12.7107C0.0978791 13.6686 0.24999 14.3229 0.472488 14.8953C0.702489 15.4872 1.01025 15.9891 1.51057 16.4895C2.01093 16.9898 2.51281 17.2975 3.10464 17.5275C3.67712 17.75 4.33136 17.9021 5.2893 17.9458C6.24926 17.9896 6.55575 18 9.00003 18C11.4442 18 11.7507 17.9896 12.7107 17.9458C13.6686 17.9021 14.3229 17.75 14.8953 17.5275C15.4872 17.2975 15.9891 16.9898 16.4895 16.4895C16.9898 15.9891 17.2975 15.4872 17.5275 14.8953C17.75 14.3229 17.9021 13.6686 17.9458 12.7107C17.9896 11.7507 18 11.4442 18 9.00003C18 6.55575 17.9896 6.24926 17.9458 5.2893C17.9021 4.33136 17.75 3.67712 17.5275 3.10467C17.2975 2.51284 16.9898 2.01088 16.4895 1.51055C15.9891 1.01022 15.4872 0.702463 14.8953 0.472461C14.3229 0.250016 13.6686 0.0978523 12.7107 0.054151C11.7507 0.0103693 11.4442 0 9.00003 0ZM9.00003 1.62161C11.4031 1.62161 11.6877 1.6308 12.6368 1.6741C13.5143 1.7141 13.9908 1.86072 14.3079 1.98397C14.7281 2.14726 15.0279 2.34227 15.3428 2.6572C15.6577 2.97214 15.8527 3.27197 16.016 3.69205C16.1393 4.00918 16.2859 4.48575 16.3259 5.36323C16.3692 6.31225 16.3784 6.59691 16.3784 9C16.3784 11.4031 16.3692 11.6877 16.3259 12.6368C16.2859 13.5143 16.1393 13.9908 16.016 14.3079C15.8527 14.7281 15.6577 15.0279 15.3428 15.3428C15.0279 15.6577 14.728 15.8527 14.308 16.016C13.9908 16.1393 13.5143 16.2859 12.6368 16.3259C11.6879 16.3692 11.4033 16.3784 9 16.3784C6.59672 16.3784 6.31214 16.3692 5.36323 16.3259C4.48572 16.2859 4.00918 16.1393 3.69208 16.016C3.27194 15.8527 2.97214 15.6577 2.65723 15.3428C2.34229 15.0279 2.14726 14.728 1.98397 14.308C1.86072 13.9908 1.71413 13.5143 1.6741 12.6368C1.6308 11.6877 1.62161 11.4031 1.62161 9C1.62161 6.59691 1.6308 6.31225 1.6741 5.36323C1.71413 4.48572 1.86072 4.00918 1.98397 3.69208C2.14726 3.27194 2.34229 2.97214 2.6572 2.65723C2.97214 2.34227 3.27197 2.14726 3.69205 1.98397C4.00918 1.86072 4.48575 1.7141 5.36323 1.6741C6.31225 1.6308 6.59691 1.62161 9 1.62161" fill="#A5A5A5"/>
<path d="M8.99957 12C7.34268 12 5.99954 10.6568 5.99954 8.99999C5.99954 7.34309 7.34268 5.99995 8.99957 5.99995C10.6564 5.99995 11.9996 7.34309 11.9996 8.99999C11.9996 10.6568 10.6564 12 8.99957 12ZM8.99957 4.37834C6.44708 4.37834 4.37793 6.4475 4.37793 8.99999C4.37793 11.5524 6.44708 13.6216 8.99957 13.6216C11.552 13.6216 13.6212 11.5524 13.6212 8.99999C13.6212 6.4475 11.552 4.37834 8.99957 4.37834ZM14.8838 4.19574C14.8838 4.79223 14.4002 5.27573 13.8038 5.27573C13.2073 5.27573 12.7238 4.79223 12.7238 4.19574C12.7238 3.59928 13.2073 3.11572 13.8038 3.11572C14.4002 3.11572 14.8838 3.59928 14.8838 4.19574Z" fill="#A5A5A5"/>
</svg>
