<?xml version="1.0" encoding="UTF-8"?><svg id="_레이어_9" xmlns="http://www.w3.org/2000/svg" viewBox="0 0 300 300"><defs><style>.cls-1{font-size:9.81px;}.cls-1,.cls-2,.cls-3,.cls-4,.cls-5{fill:#0e0e0d;font-family:PretendardVariable-Medium, 'Pretendard Variable';font-variation-settings:'wght' 500;}.cls-2{font-size:9.81px;}.cls-6{fill:#e9eaea;}.cls-7{fill:#ffac00;}.cls-8{fill:#a5a5a5;}.cls-3{font-size:15.57px;}.cls-4{font-size:15.57px;}.cls-9{font-size:5.19px;}.cls-9,.cls-10,.cls-11,.cls-12,.cls-13,.cls-14,.cls-15,.cls-16,.cls-17,.cls-18{font-family:NanumGothicExtraBold, NanumGothic;}.cls-10{font-size:5.19px;}.cls-11{font-size:5.19px;}.cls-12{font-size:5.19px;}.cls-13{font-size:5.19px;}.cls-14{font-size:5.19px;}.cls-5{font-size:15.83px;}.cls-15{font-size:5.19px;}.cls-16{font-size:5.19px;}.cls-17{font-size:5.19px;}.cls-18{font-size:5.19px;}.cls-19{fill:#ef0;stroke:#000;stroke-miterlimit:10;stroke-width:.65px;}</style></defs><path class="cls-8" d="M146.93-282.62c-1.94-.67-3.8-1.49-5.67-2.34-1.23-.56-2.5-1.19-3.84-1.43-2.57-.46-4.7,1.02-6.36,2.84-2.57,2.82-3.9,6.52-4.73,10.19-.96,4.26-1.47,8.64-2.03,12.97-2.62,19.96-3.6,40.11-3.32,60.23,.57,40.17,6.13,80.1,13.56,119.52,3.73,19.79,7.94,39.49,12.28,59.16,1.12,5.05,2.24,10.1,3.37,15.15,.85,3.79,1.42,7.95,3.46,11.33,4.59,7.58,13.99,4.55,20.72,2.24,9.08-3.12,17.81-7.14,26.55-11.09,8.68-3.93,17.44-7.66,26.4-10.92,17.8-6.48,36.14-11.41,54.69-15.18,37.32-7.58,75.4-10.47,113.38-12.15,9.41-.42,18.89-.46,28.29-1.16,7.94-.59,16.38-2.9,20.58-10.3,1.75-3.09,2.36-6.71,1.37-10.15-1.03-3.62-3.54-6.6-6.17-9.18-6.19-6.07-12.94-11.93-20.15-16.76-7.71-5.17-16.06-8.27-25.25-9.52-9.76-1.33-19.71-1.56-29.53-2.17-9.63-.6-19.28-1.05-28.89-1.84-7.18-.59-14.41-1.56-21.27-3.83-6.73-2.22-13.18-5.87-17.44-11.68-5.46-7.45-6.22-16.98-6.98-25.88-1.72-20-1.95-40.53,.62-60.47,.65-5.08,1.6-10.13,3-15.05,1.2-4.23,2.76-8.35,4.28-12.48,2.92-7.93,6.11-16.24,6.06-24.82-.02-3.77-.77-7.5-2.4-10.91-1.53-3.2-3.91-6.43-7.7-6.88-3.17-.38-6.05,1.44-8.36,3.41-3.06,2.62-5.41,5.88-8.18,8.78-12.67,13.29-32.5,14.06-49.38,10.6-9.62-1.97-19.08-4.94-28.36-8.12s-18.16-6.69-27.05-10.5-16.97-7.55-25.36-11.52c-.9-.43-1.69,.92-.79,1.34,16.9,7.99,33.99,15.66,51.67,21.79,8.89,3.08,17.92,5.93,27.11,8,8.89,2,18.12,3.12,27.2,1.9,7.66-1.03,15.24-3.68,21.46-8.33,3.09-2.31,5.54-5.12,8.07-8.01,2.33-2.67,4.89-5.65,8.18-7.15,9.13-4.14,12.47,10.35,12.31,16.59-.22,8.64-3.61,16.96-6.56,24.96-3.11,8.44-5.51,16.86-6.69,25.8-1.29,9.78-1.73,19.69-1.85,29.55s.23,20.2,1.05,30.26c.69,8.43,1.24,17.46,5.44,25.01,6.84,12.32,21.27,16.62,34.35,18.38,8.12,1.09,16.34,1.39,24.51,1.9,10.02,.62,20.04,1.23,30.06,1.87s19.15,1.57,27.9,5.75c7.87,3.76,14.69,9.33,21.18,15.08,5.67,5.01,14.7,11.48,12.52,20.22-2.29,9.18-12.26,12.19-20.56,12.81-9.01,.67-18.09,.71-27.12,1.11s-18.69,.89-28.02,1.49c-18.33,1.19-36.64,2.85-54.84,5.35-36.52,5.03-72.65,13.64-106.49,28.51-8.76,3.85-17.38,8.01-26.28,11.53-4.19,1.65-8.45,3.28-12.82,4.41-3.96,1.03-8.77,1.53-11.88-1.71-2.83-2.95-3.42-7.56-4.28-11.38-1.08-4.84-2.16-9.69-3.23-14.54-2.13-9.62-4.23-19.25-6.26-28.89-8.15-38.74-15.22-77.82-18.32-117.32-1.53-19.45-2.08-38.99-1.29-58.49,.4-9.85,1.14-19.69,2.26-29.48,.57-4.96,1.21-9.92,2.01-14.85,.62-3.86,1.43-7.88,3.5-11.26,1.45-2.36,3.88-5.17,6.94-4.41s5.95,2.6,8.96,3.65c.95,.33,1.36-1.17,.41-1.5h0Z"/><path class="cls-8" d="M12.42-400.28c-18.52,17.88-36.6,36.2-54.8,54.41-8.9,8.91-17.83,17.78-26.85,26.56-8.09,7.87-16.58,15.46-22.85,24.93-.18,.27-.13,.73,.12,.94,3.87,3.25,7.73,6.5,11.6,9.74,1.37,1.15,4.67,3.02,4.88,4.8s-2.9,4.79-4.01,6.27c-1.67,2.23-2.12,3.46-4.82,2.21-1.9-.88-3.72-2.32-5.44-3.51-4.4-3.05-8.49-6.49-12.36-10.19-.32-.3-.78-.28-1.1,0-35.06,30.96-68.82,63.36-101.22,97.1-.52,.54,0,1.54,.76,1.3l.58-.18-.76-1.3c-16.04,17.23-32.09,34.46-48.13,51.69-.27,.29-.33,.82,0,1.1,16.87,14.09,32.66,29.44,47.13,46,7.44,8.52,14.49,17.35,21.26,26.41,5.59,7.47,11.14,15.04,17.62,21.77,11.57,12.01,26.73,21.41,43.81,15.99,8.03-2.55,15.2-7.6,20.82-13.81,.92-1.01,5.05-6.25,7.23-4.48,1.17,.94-.53,3.99-.99,4.92-6.82,13.76-22.03,26.1-36.5,30.69-.6,.19-.81,1.1-.19,1.42,9.45,4.81,12.48,16.4,10.53,26.23-2.22,11.18-10.51,20.06-18.38,27.76-18.26,17.86-36.91,35.36-55.36,53.02-15.42,14.77-36.06,29.95-39.31,52.55-1.69,11.76,.32,23.84,1.58,35.54,1.36,12.68,2.73,25.37,4.09,38.05,2.86,26.57,5.72,53.15,8.58,79.72,.56,5.2,.91,10.47,1.73,15.64,.68,4.26,2.07,8.39,5.99,10.66,3.21,1.86,7.13,1.98,10.74,2.1,6.67,.23,13.35,.34,20.02,.51,26.69,.68,53.38,1.36,80.07,2.04,13.35,.34,26.69,.68,40.04,1.02,6.07,.15,12.13,.31,18.2,.46,3.03,.08,6.07,.15,9.1,.23,1.24,.03,4.38-.42,5.46,.14,2.32,1.21,1.96,3.66,1.98,5.97,.02,2.54-.2,8.6-2.24,10.58s-6.66,.63-9.05,.51c-6.64-.33-13.27-.66-19.91-.99-13.27-.66-26.55-1.33-39.82-1.99-26.25-1.31-52.49-2.62-78.74-3.93-8.22-.41-18.02-1.48-25.28,3.35-8.08,5.37-7.37,16.12-7.93,24.67-.85,13.05-1.71,26.1-2.56,39.16-.73,11.15-3.19,23.78-.16,34.74,4.38,15.82,20.89,21.37,35.61,22.87,10.36,1.06,20.82,.37,31.21,.05,13.01-.39,26.03-.79,39.04-1.19,52.51-1.62,105.03-3.04,157.54-4.63,22.14-.67,44.2-2.76,66.33-3.63,19.19-.76,39.35-1.16,57.96,4.33,7.82,2.31,15.22,5.85,21.33,11.32,7.1,6.34,15.2,8.57,24.7,7.6,10.42-1.07,20.86-4.47,30.74-7.84,9.28-3.16,18.36-6.87,27.2-11.11,36.94-17.69,69.47-44.47,93.93-77.33,12.71-17.07,22.25-37.1,38.27-51.49,17.24-15.49,41.53-20.62,62.33-29.71,79.21-34.59,147.49-96.13,177.27-178.69,14.5-40.19,20.84-86.69,10.64-128.69-4.64-19.1-14.1-36.41-29.87-48.51s-34.41-17.93-53.17-22c-9.38-2.04-18.87-3.59-28.36-5.02-10.42-1.57-21.03-2.94-31.58-2.1-9.85,.78-19.46,3.66-27.33,9.8s-13.85,15.02-21.42,21.89c-16.5,14.98-39.59,17.83-60.91,19.31-23.94,1.66-47.77,3.42-71.55,6.78-49.38,6.98-98.08,18.79-145.16,35.25-10.04,3.51-20.83,6.61-30.13,11.87-7.71,4.36-12.37,10.82-13.56,19.66-1.27,9.38-.53,19.43,.36,28.82,.82,8.71,2.28,17.42,4.97,25.76,4.59,14.18,13.1,26.81,27.34,32.5l-.34-1.3c-2.89,3.73-5.78,7.47-8.67,11.2-.97,1.25-2.94,5.06-4.33,5.6-2.27,.89-4.92-2.18-6.66-3.64-6.39-5.37-11.93-11.71-16.48-18.69-9.09-13.96-13.9-30.11-14.21-46.73-.17-8.89-.06-24.19-9.8-28.61-5.93-2.69-12.01,.81-17.3,3.36-8.92,4.29-17.77,8.74-26.53,13.36s-17.45,9.4-26.04,14.33c-4.04,2.32-8.07,4.68-12.07,7.07-1.95,1.17-3.92,2.68-5.99,3.62-1.29,.58-1.47,1.26-2.71,.52-.67-.4-2.02-4.05-2.37-4.76-1.02-2.04-2.45-4.18-3.17-6.34-1.01-3.03,.17-3.27,2.83-4.8,4.43-2.54,8.86-5.08,13.29-7.62,8.86-5.08,17.72-10.16,26.58-15.23s17.72-10.16,26.58-15.23c6.95-3.99,14.56-7.61,20.58-12.99,13.13-11.73,8.72-30.9,7.42-46.42-3.76-44.89-9.49-89.6-17.07-134-.09-.52-.74-.68-1.14-.47-2.57,1.39-5.14,2.79-7.71,4.18-1.64,.89-5.63,4.01-7.38,2.8-.43-.3-1.17-2.65-1.46-3.31-.73-1.66-1.46-3.31-2.19-4.97-.8-1.81-3.74-5.95-2.89-7.85,.35-.78,3.12-2.39,3.86-3.13,1.16-1.16,2.2-2.46,3.13-3.82,2.12-3.1,3.61-6.61,4.76-10.17,2.78-8.65,3.52-17.87,4.65-26.84,1.52-12.09,3.03-24.18,4.55-36.27s3.06-24.09,4.53-36.14c1.29-10.59,2.35-21.68-1.43-31.91-3.23-8.75-9.43-16.01-15.42-23-7.04-8.22-14.38-16.18-22.01-23.85-16.8-16.9-34.97-32.37-54.27-46.34-.81-.59-1.59,.76-.79,1.34,29.21,21.15,55.96,45.85,79.04,73.58,6.18,7.42,11.84,15.33,13.69,25.01s.29,19.85-.93,29.58c-2.5,19.95-5,39.9-7.51,59.85-2.06,16.41-1.53,41.58-17.68,51.41-.39,.24-.45,.67-.28,1.06,2.68,6.07,5.35,12.15,8.03,18.22,.17,.39,.73,.46,1.06,.28,5.14-2.79,10.28-5.57,15.43-8.36l-1.14-.47c6.45,37.76,11.55,75.74,15.24,113.87,.92,9.55,1.76,19.11,2.51,28.68,.65,8.31,2.13,17.48-.44,25.6-2.8,8.83-10.7,13.83-18.29,18.21-8.01,4.62-16.04,9.2-24.07,13.79-18.76,10.75-37.52,21.51-56.28,32.26-.38,.22-.47,.69-.28,1.06,2.64,5.29,5.28,10.57,7.91,15.86,.18,.37,.72,.49,1.06,.28,14.16-8.69,28.57-16.98,43.23-24.8,7.19-3.84,14.45-7.57,21.75-11.19,3.65-1.81,7.32-3.6,11-5.35,3.93-1.87,8.39-4.04,12.8-2.45,10.83,3.91,9.28,21.82,9.69,30.85,.57,12.6,4,25.03,9.75,36.24,6.6,12.85,16.25,23.9,28.15,32.09,.25,.17,.75,.13,.94-.12,4.7-6.07,9.39-12.14,14.09-18.21,.38-.49,.24-1.07-.34-1.3-27.49-10.98-31.59-46.56-31.98-72.25-.13-8.73-.48-18.62,5.59-25.64,5.58-6.45,14.29-9.26,22.03-12.15,18-6.73,36.26-12.78,54.72-18.13,36.81-10.67,74.43-18.58,112.43-23.59,18.56-2.45,37.19-4.15,55.87-5.28,15.61-.94,31.56-1.81,46.54-6.71,6.97-2.28,13.66-5.46,19.56-9.84s10.97-10.34,16.03-15.96c5.95-6.62,12.39-12.56,20.84-15.76,8.2-3.11,17.09-3.77,25.78-3.44,15.95,.6,32.17,3.64,47.77,6.94s29.79,7.47,43.14,14.93c14.05,7.84,25.52,19.18,32.68,33.67,7.92,16.04,10.74,34.18,11.71,51.88,1.89,34.5-4.23,69.17-16.48,101.42-24.46,64.38-73.05,116.28-131.72,151.26-14.13,8.43-28.82,15.91-43.91,22.46-15.85,6.88-32.92,11.5-48.09,19.85-13.85,7.62-23.89,19.48-32.67,32.38-9.31,13.66-17.86,27.66-28.51,40.36-20.67,24.64-46.06,45.28-74.4,60.48-14.17,7.6-29.06,13.83-44.45,18.51-8.41,2.56-17.34,5.39-26.18,5.61-4.49,.11-9.2-.47-13.31-2.36-3.62-1.67-6.23-4.52-9.29-6.96-20.23-16.07-50.81-15.08-75.14-14.25-16.71,.57-33.39,1.92-50.08,2.87-18.94,1.08-37.92,1.36-56.88,1.89-40.25,1.13-80.5,2.39-120.75,3.64-19.08,.59-38.23,1.66-57.32,1.67-13.05,0-28.72-1.19-38.86-10.43-6.53-5.95-8.52-14.26-8.43-22.84,.11-9.55,1.11-19.15,1.74-28.68,.66-10.09,1.32-20.17,1.98-30.26,.58-8.91-.81-21.76,7.89-27.19,6.7-4.18,15.58-3.25,23.09-2.88,9.96,.5,19.91,.99,29.87,1.49,19.91,.99,39.82,1.99,59.73,2.98,19.61,.98,39.22,1.96,58.83,2.94,.26,.01,.56-.15,.67-.39,3.12-6.23,3.86-12.85,2.16-19.61-.08-.34-.41-.56-.75-.57-40.64-1.04-81.28-2.08-121.93-3.11-10.01-.26-20.02-.51-30.03-.77l-14.56-.37c-4.75-.12-10.02,.33-14.67-.82-6.18-1.53-8.15-6.4-8.91-12.18-.69-5.27-1.15-10.58-1.71-15.86-1.07-9.96-2.14-19.93-3.22-29.89-2.18-20.23-4.35-40.46-6.53-60.69-1.07-9.96-2.14-19.93-3.22-29.89-.98-9.11-2.29-18.39-1.48-27.57,1.74-19.79,15.95-32.59,29.46-45.52,14.57-13.95,29.15-27.91,43.72-41.86,7.67-7.35,15.47-14.58,23-22.09,6.04-6.02,11.84-12.6,15.2-20.55,4.94-11.7,3.12-28.05-9.23-34.34l-.19,1.42c14.86-4.71,30.07-17.14,37.28-31.11,1.01-1.95,3.24-6.47,0-7.57-1.49-.51-3.79,.47-5.02,1.24-1.81,1.13-3,3.18-4.49,4.73-2.37,2.48-4.98,4.72-7.79,6.69-10.87,7.6-24.42,9.81-36.42,3.52-11.31-5.93-19.94-15.7-27.67-25.64-16.56-21.3-32.88-42.22-52.33-61.05-5.72-5.54-11.6-10.91-17.62-16.11-.9-.78-4.07-2.64-4.39-3.73-.51-1.76,1.99-3.44,3.06-4.59,2.88-3.09,5.76-6.19,8.64-9.28,11.72-12.59,23.45-25.18,35.17-37.78,.51-.54,.01-1.54-.76-1.3l-.58,.18,.76,1.3c19.44-20.25,39.37-40.03,59.78-59.3,10.2-9.62,20.52-19.12,30.96-28.49,2.48-2.22,5.04-5.22,7.85-7,1.48-.93,1.54-1.58,3.3-.65,1.31,.7,2.5,2.25,3.66,3.22,4.82,4.04,10.02,7.57,15.49,10.66,.4,.22,.81,.06,1.06-.28,2.74-3.65,5.48-7.31,8.23-10.96,.19-.25,.12-.74-.12-.94-2.73-2.29-5.46-4.59-8.19-6.88-1.36-1.15-2.73-2.29-4.09-3.44-.86-.72-3.69-2.32-4.09-3.44-1.01-2.83,3.42-6.6,5.25-8.68,2.06-2.34,4.23-4.56,6.44-6.76,10.01-9.93,20.21-19.67,30.2-29.62,20.34-20.28,40.46-40.79,61.13-60.74,.72-.7-.38-1.8-1.1-1.1h0Z"/><path class="cls-8" d="M667.62,174.12c.29-7.97,2.63-15.32,7-21.98,.15-.23,.14-.56,0-.79-1.75-2.92-5.11-3.77-8.28-2.58-4.85,1.81-6.44,7.71-8.05,12.07-5.01,13.53-11.35,26.54-18.8,38.89-14.83,24.62-33.92,46.53-55.63,65.31-22.68,19.62-48.16,35.83-74.92,49.3-13.34,6.72-27.09,12.43-40.77,18.41-12.81,5.6-25.51,11.89-36.16,21.1-11.97,10.35-20.79,23.72-28.99,37.11-9.61,15.7-19.05,31.51-28.57,47.26-.29,.47,.02,.96,.47,1.14l.4,.16-.34-1.3c-19.7,18.32-42.09,33.6-66.41,45.12-12.41,5.88-25.29,10.76-38.48,14.58-12.32,3.56-25.47,5.21-37.21,10.54-9.25,4.2-15.3,9.82-15.26,20.36,.02,5.74,1,11.44,1.14,17.18,.12,5.29,.12,10.56,.98,15.8,.78,4.75,2.3,11.22,7.26,13.34,4.21,1.8,9-.47,12.63-2.6,12.11-7.08,21.21-18.39,33.39-25.37,3.1-1.77,6.07-2.69,9.59-3.28,8.02-1.33,16.12-2.1,24.23-2.56,14.96-.85,29.96-.67,44.94-.99,30.21-.65,60.69-2.63,90.68-6.3,29.09-3.55,57.59-9.76,85.2-19.65s53.45-22.17,79.67-34.37c27.45-12.77,55.09-25.13,82.93-37.03,55.66-23.79,112.09-45.78,169.16-65.93,28.55-10.08,57.27-19.7,86.13-28.86,14.43-4.58,28.89-9.04,43.39-13.38,13.66-4.09,27.57-7.58,41.09-12.07,4.83-1.6,9.62-3.66,13.45-7.08,4.3-3.84,6.53-9.13,8.35-14.48,4.33-12.73,9.27-25.05,15.85-36.8,12.84-22.94,30.3-43.02,51.18-58.97,8.62-6.59,18.23-13.57,20.35-24.94,2-10.7-.83-23.02-3.33-33.46-5.18-21.63-14.82-41.9-26.03-61.01-23.17-39.53-53.28-75.01-72.15-117.02-4.75-10.58-8.65-21.51-11.5-32.76-.22-.86-1.52-.67-1.53,.21-.6,49.03,2.33,98.08,8.84,146.68,3.19,23.76,7.22,47.41,12.1,70.88,1.71,8.21,2.79,16.59,.79,24.88-2.15,8.9-9.57,15.92-18.77,9.82-4.04-2.68-6.94-6.8-9.91-10.54-3.74-4.71-7.64-9.29-11.72-13.72-7.4-8.03-15.33-15.55-23.74-22.51-13.96-11.56-32.85-25.5-52.1-19.52-15.54,4.83-23.67,20.71-29.14,34.83-8.43,21.79-15.35,44.26-22.94,66.35-8.01,23.32-16.01,46.65-24.02,69.97-6.39,18.62-14.35,47.74-40.33,41.17-19.52-4.93-33.56-24.55-40.78-42.26s-9.15-36.31-6.9-54.73c1.13-9.24,3.38-18.34,6.74-27.02,2.73-7.07,8.82-16.24,2.87-23.31-2.39-2.84-5.88-4.38-9.21-5.8-5.6-2.39-11.24-4.71-16.86-7.07-11.11-4.66-22.23-9.32-33.34-13.98-7.25-3.04-17.08-8.87-23.38-1.17-2.46,3-3.64,6.96-4.93,10.56-1.96,5.44-3.93,10.87-5.96,16.28-8.03,21.38-17.09,42.64-29.99,61.6-11.4,16.76-26.03,31.79-43.83,41.74-4.29,2.4-8.74,4.49-13.35,6.2-4.34,1.61-19.4,6.85-16.61-2.85,2.58-8.97,14.66-12.7,21.71-17.19,30.47-19.43,53.27-50.37,63.6-84.93,2.51-8.41,4.24-17.01,5.26-25.73,.12-.99-1.44-.98-1.56,0-4.61,39.28-25.19,76.14-56.13,100.78-7.78,6.2-16.21,10.74-24.71,15.79-4.32,2.57-11.71,8.93-9.83,14.85,2.42,7.61,14.04,2.5,18.68,.78,8.99-3.32,17.41-8.05,25.13-13.71,34.89-25.62,52.21-66.81,66.56-106.2,1.82-4.99,3.18-10.49,5.88-15.08,4.8-8.15,12.87-4.47,19.71-1.6,11.67,4.89,23.34,9.78,35.01,14.68,5.56,2.33,11.12,4.65,16.67,6.99,7.02,2.95,14.13,6.53,12.01,15.59-1.11,4.72-3.67,9.1-5.37,13.64s-3.12,9.31-4.21,14.09c-7.82,34.11-.36,74.72,26.41,99,12.47,11.31,32.26,18.69,45.81,4.88,6.08-6.2,9.44-14.58,12.29-22.63,4.17-11.75,8.11-23.58,12.16-35.37,8.3-24.19,16.61-48.38,24.91-72.56,4.03-11.74,7.98-23.52,12.11-35.23,3.11-8.83,6.64-17.72,12.04-25.43,6-8.57,14.63-15.07,25.39-15.66,11.71-.65,22.85,5.25,32.18,11.73,18.85,13.1,34.73,29.98,49,47.81,4.47,5.58,10.56,11.9,18.47,10.08,5.54-1.28,8.6-6.35,10.12-11.47,2-6.75,1.93-14.21,.82-21.11-1.88-11.76-4.72-23.4-6.8-35.13-8.8-49.67-13.84-100.01-15.08-150.43-.31-12.55-.37-25.11-.22-37.67l-1.53,.21c10.91,43.12,37.46,79.56,61.92,115.88,12.44,18.47,24.65,37.24,34.22,57.39,4.79,10.08,8.88,20.5,11.9,31.25s6.11,23.52,5.38,35.08c-.92,14.52-12.66,21.99-23.06,30.16-9.67,7.6-18.58,16.17-26.59,25.51-15.55,18.14-27.74,39.13-35.71,61.65-2.46,6.96-4.11,14.64-9.4,20.09-4.51,4.64-10.97,6.83-17.02,8.63-13.7,4.08-27.47,7.93-41.16,12.05-27.87,8.39-55.62,17.21-83.22,26.45-55.23,18.51-109.89,38.73-163.88,60.62-53.66,21.76-106.14,45.9-158.81,69.89-26.41,12.03-53.3,23.33-81.39,30.82s-58.1,11.24-87.57,13.48-58.95,2.95-88.53,3.61c-13.96,.31-28.5,.62-42.19,3.63-5.49,1.2-10.24,4.6-14.64,7.94-5.53,4.21-10.72,8.86-16.12,13.22-4.67,3.78-10.05,8.4-16.04,9.86-6.64,1.62-9.64-3.95-10.98-9.62-1.23-5.23-1.41-10.68-1.47-16.03-.06-5.7-.79-11.33-1.08-17.02s.23-11.33,4.57-15.34c5.36-4.96,12.9-7.63,19.78-9.61,12.35-3.56,24.93-5.93,37.14-10.03,23.84-8,46.51-19.49,67.08-33.95,9.94-6.99,19.36-14.67,28.25-22.95,.47-.44,.16-1.09-.34-1.3l-.4-.16,.47,1.14c8.57-14.18,17.12-28.37,25.7-42.54,7.68-12.69,15.53-25.49,25.94-36.16,20.97-21.49,51.66-29.58,77.96-42.47,51.12-25.05,98.03-60.42,129.73-108.3,8.45-12.77,15.73-26.3,21.58-40.45,1.44-3.48,2.7-7.02,4.05-10.53,.89-2.31,1.85-4.86,3.65-6.65,1.19-1.19,2.68-1.99,4.42-2.08,1.46-.07,3.63,1.13,3.57,2.87-.05,1.49-2.32,4.19-2.93,5.61-.65,1.52-1.22,3.08-1.69,4.66-1.08,3.65-1.59,7.38-1.73,11.17-.04,1,1.52,1,1.56,0h0Z"/><path class="cls-8" d="M369.53,13c-.19-2.74-1.92-4.05-4.37-4.9-3.65-1.26-7.08-1.45-10.91-1.09-7.97,.76-15.94,1.6-23.9,2.47-15.77,1.71-31.53,3.67-47.17,6.36s-31.31,6.15-46.55,10.83c-7.61,2.34-15.13,4.99-22.51,7.99-5.95,2.42-11.83,5.11-17.14,8.77-4.87,3.36-9.37,7.58-12.06,12.93-3.13,6.23-3.23,13.23-1.29,19.84,2.04,6.97,5.8,13.55,9.83,19.56,3.51,5.23,7.76,10.31,13.39,13.32,6.45,3.46,13.68,3.11,20.45,.76,7.47-2.6,14.45-6.73,21.41-10.42,14.27-7.57,28.36-15.5,42.23-23.8,13.79-8.26,27.37-16.89,40.67-25.92,6.68-4.54,13.3-9.18,19.84-13.92,3.12-2.26,6.32-4.44,9.11-7.12,1.36-1.31,2.66-2.68,4.03-3.98,1.26-1.19,2.53-2.35,3.42-3.85,1.43-2.4,1.52-5.12,1.52-7.84,0-1-1.56-1-1.56,0,0,3.01-.17,5.83-2.16,8.26-1.11,1.36-2.51,2.48-3.75,3.71-1.33,1.32-2.64,2.68-4.05,3.92-2.93,2.59-6.27,4.77-9.44,7.05s-6.32,4.51-9.5,6.74c-12.61,8.8-25.48,17.23-38.57,25.31-13.09,8.08-26.39,15.82-39.87,23.23-6.67,3.67-13.39,7.26-20.14,10.77s-13.94,7.64-21.75,8.15c-14.08,.91-22.79-12.22-28.74-23.1-3.61-6.6-6.75-14.02-6.08-21.7,.53-6.02,3.59-11.37,7.81-15.58s9.61-7.5,15.05-10.16c6.31-3.09,12.95-5.56,19.57-7.89,14.31-5.02,29.01-8.84,43.87-11.85s30.5-5.31,45.87-7.17c7.5-.91,15.01-1.73,22.53-2.51,3.83-.4,7.66-.79,11.49-1.17s7.97-1.17,11.78-.25c2.42,.58,5.87,1.29,6.08,4.27,.07,.99,1.63,1,1.56,0h0Z"/><path class="cls-8" d="M26.04,184.48c0,31.53-1.59,63.05-4.8,94.42-.81,7.94-1.72,15.86-2.74,23.77-.91,7.06-1.54,14.33-3.2,21.27-.69,2.88-1.66,5.74-3.33,8.2s-4.1,4.07-6.84,5.33c-2.32,1.07-4.82,2.08-6.46,4.11-1.54,1.9-1.92,4.36-1.24,6.69,1.79,6.13,8.24,7.97,13.9,8.38,7.63,.56,15.33,.65,22.97,.96,15.84,.64,31.68,1.28,47.51,1.92,7.77,.31,15.54,.56,23.3,.96,6.88,.35,13.81,.95,20.47,2.81,6.7,1.87,12.73,5.16,17.87,9.86s9.02,9.93,12.85,15.43c8.39,12.04,16.06,24.58,23,37.5,3.48,6.48,6.77,13.06,9.86,19.73,2.73,5.88,4.9,12.31,8.55,17.71,1.58,2.33,3.51,4.45,5.91,5.96,2.73,1.71,5.9,2.43,9.06,2.79,7.57,.85,15.4,.6,22.98,.04,3.52-.26,7.1-.53,10.58-1.18,2.61-.49,5.3-1.37,7.22-3.3,4.37-4.38,2.17-10.95-.42-15.64-1.76-3.2-3.89-6.21-5.88-9.26s-4.15-6.38-6.24-9.56c-4.22-6.44-8.46-12.87-12.73-19.28-8.53-12.82-17.16-25.58-25.87-38.28-17.43-25.4-35.23-50.55-53.38-75.44-9.08-12.44-18.24-24.82-27.5-37.14-2.29-3.04-4.58-6.08-6.87-9.11-1.99-2.63-3.87-5.66-6.4-7.81-4.68-3.97-10.66-2.72-15.97-.94-5.8,1.94-11.5,4.32-17.7,2.86-5.86-1.38-10.77-5.31-14.77-9.64-4.33-4.68-7.72-10.07-10.97-15.53-3.9-6.55-7.58-13.23-11.03-20.03s-6.35-13.06-9.22-19.73c-.39-.92-1.74-.13-1.34,.79,5.87,13.68,12.63,26.98,20.25,39.77,5.79,9.72,12.78,20.7,23.82,24.99,5.39,2.1,10.8,1.56,16.2-.19s11.99-5.22,17.57-2.58c3.18,1.51,5.17,4.78,7.22,7.49,2.3,3.03,4.59,6.07,6.88,9.11,4.57,6.08,9.13,12.18,13.66,18.29,18.01,24.3,35.69,48.85,53.01,73.65,17.32,24.8,34.3,49.84,50.91,75.11,4.18,6.36,8.34,12.73,12.47,19.12,3.03,4.68,8.21,12.56,3.35,17.73-2.02,2.15-5.13,2.83-7.93,3.25-3.78,.57-7.63,.87-11.44,1.09-3.85,.22-7.71,.3-11.57,.24-3.62-.06-7.35-.08-10.92-.74s-6.54-2.04-9.02-4.53c-2.08-2.1-3.62-4.66-4.95-7.29-3.08-6.08-5.58-12.47-8.55-18.61-6.27-13.01-13.29-25.66-20.99-37.88-3.73-5.92-7.59-11.77-11.7-17.44-3.77-5.19-7.87-10.23-12.84-14.33-10.5-8.66-23.78-10.7-36.98-11.4-30.75-1.63-61.56-2.34-92.32-3.76-3.39-.16-6.96-.41-9.99-2.08-2.58-1.42-4.76-4.26-4.66-7.32s2.61-4.78,5.09-5.99,4.91-2.11,6.96-3.9c4.15-3.61,5.76-9.28,6.71-14.5,1.3-7.14,2.1-14.4,3-21.59,3.85-30.72,6.15-61.63,6.9-92.57,.18-7.59,.27-15.19,.27-22.79,0-1-1.56-1-1.56,0h0Z"/><path class="cls-8" d="M395.93,48.03c-5.76-5.93-13.64-10.82-21.99-11.69-4.29-.45-8.36,.5-12.03,2.77-4.45,2.75-8.52,6.24-12.68,9.4-17.74,13.47-35.49,26.93-53.23,40.4-8.87,6.73-17.74,13.47-26.62,20.2s-16.99,12.72-25.32,19.29c-7.57,5.97-14.85,12.41-20.6,20.2s-9.92,16.73-14.67,25.21-9.94,15.68-16.83,22.05-14.21,11.04-22.44,14.58c-2.07,.89-4.19,1.68-6.33,2.39-.49,.16-.7,.68-.47,1.14,6.49,12.54,12.97,25.09,19.46,37.63,1.17,2.27,2.21,5.3,4.42,6.8,2.35,1.59,5.35,.59,7.85-.02,5.54-1.34,11.34-2.99,15.73-6.82,3.68-3.21,6.3-8.26,5.59-13.24-.39-2.77-2.16-4.82-3.02-7.4-1.02-3.03,.95-5.3,3.17-7.1,4.86-3.95,10.14-7.47,15.39-10.87s10.93-6.76,16.59-9.8,11.18-5.72,16.93-8.24c2.82-1.24,5.7-2.67,8.68-3.46,1.4-.37,2.97-.56,4.32,.1s2.09,1.95,3.02,3c3.89,4.38,9.26,1.5,12.79-1.8,2.41-2.26,4.58-4.81,6.82-7.24s4.58-4.98,6.85-7.48c18.29-20.15,35.89-40.92,53.23-61.9,8.72-10.55,17.37-21.16,26.02-31.78,3.77-4.63,8.03-9.2,10.77-14.55,2.35-4.59,3.45-10.38,2.19-15.46-.6-2.41-1.87-4.54-3.59-6.31-.7-.72-1.8,.38-1.1,1.1,3.96,4.06,4.2,9.82,2.96,15.1-1.36,5.75-5.32,10.43-8.97,14.9-8.39,10.3-16.78,20.61-25.22,30.87-16.78,20.39-33.78,40.61-51.39,60.29-4.4,4.92-8.84,9.81-13.32,14.65-2.12,2.29-4.17,4.72-6.47,6.84-1.87,1.73-4.48,3.73-7.19,3.52-2.87-.23-3.84-3.23-5.95-4.7s-4.82-1.12-7.14-.36c-2.75,.91-5.43,2.16-8.08,3.32-2.87,1.26-5.72,2.58-8.55,3.95-11.02,5.37-21.62,11.59-31.68,18.59-2.45,1.71-4.87,3.46-7.26,5.26-1.98,1.49-4.15,3.06-5.17,5.4s-.35,4.45,.71,6.53c1.3,2.54,2.46,4.77,2.18,7.72-.54,5.61-4.84,9.92-9.64,12.34-2.58,1.3-5.35,2.16-8.13,2.9-1.36,.36-2.74,.69-4.11,1.01-1.63,.38-3.53,.84-5.01-.22-1.06-.76-1.67-2.02-2.26-3.14-.77-1.47-1.53-2.95-2.29-4.43-1.6-3.1-3.2-6.2-4.81-9.3-3.13-6.05-6.26-12.1-9.39-18.15-1.53-2.95-3.05-5.9-4.58-8.85l-.47,1.14c16.59-5.48,31.2-16.39,41.08-30.82,5.43-7.93,9.43-16.7,14.23-25,2.48-4.28,5.18-8.43,8.34-12.24s6.52-7.1,10.12-10.3c7.63-6.76,15.94-12.73,24.05-18.89,8.74-6.63,17.48-13.26,26.22-19.9,17.55-13.32,35.09-26.63,52.64-39.95,4.37-3.32,8.74-6.63,13.11-9.95,3.91-2.97,7.86-6.68,12.49-8.47,8.2-3.18,17.61,1.15,24.15,6.07,1.71,1.28,3.3,2.71,4.79,4.24,.7,.72,1.8-.38,1.1-1.1h0Z"/><polygon class="cls-6" points="194.76 51.89 221.24 101.82 249.66 85.56 247.43 80.21 287.86 59.58 291.38 65.03 320.57 48.73 297.21 -.89 268.88 14.07 272.32 20.81 229.21 42.55 226.22 36.81 194.76 51.89"/><text class="cls-4" transform="translate(245.56 64.77) rotate(-25.27)"><tspan x="0" y="0">중강당 </tspan></text><g><g><rect class="cls-19" x="190.89" y="-8.28" width="7.13" height="7.13" transform="translate(11.17 60.42) rotate(-18.17)"/><rect class="cls-19" x="184.02" y="-6.02" width="7.13" height="7.13" transform="translate(10.13 58.39) rotate(-18.17)"/></g><text class="cls-15" transform="translate(185.02 .23) rotate(-18.17)"><tspan x="0" y="0">34 33</tspan></text></g><g><g><rect class="cls-19" x="176.63" y="-3.6" width="7.13" height="7.13" transform="translate(9 56.2) rotate(-18.17)"/><rect class="cls-19" x="169.76" y="-1.34" width="7.13" height="7.13" transform="translate(7.95 54.17) rotate(-18.17)"/></g><text class="cls-15" transform="translate(170.76 4.91) rotate(-18.17)"><tspan x="0" y="0">36 35</tspan></text></g><g><rect class="cls-19" x="154.68" y="-6.87" width="7.13" height="7.13" transform="translate(32.04 -98.83) rotate(38.32)"/><text class="cls-10" transform="translate(151.77 -4.39) rotate(-51.68)"><tspan x="0" y="0">38</tspan><tspan x="0" y="7.78">37</tspan></text></g><polygon class="cls-7" points="-127.37 58.77 -73.14 116.19 93.03 -51.5 41.27 -106.95 -127.37 58.77"/><g><g><rect class="cls-19" x="39.02" y="-6.8" width="7.43" height="6.31" transform="translate(69.99 -36.77) rotate(134.33)"/><rect class="cls-19" x="33.51" y="-1.15" width="7.43" height="6.31" transform="translate(64.66 -23.23) rotate(134.33)"/></g><text class="cls-17" transform="translate(36.3 5.34) rotate(-45.67)"><tspan x="0" y="0">30 29</tspan></text></g><g><rect class="cls-19" x="27.61" y="4.88" width="7.43" height="6.31" transform="translate(58.96 -8.76) rotate(134.33)"/><g><rect class="cls-19" x="22.09" y="10.53" width="7.43" height="6.31" transform="translate(53.63 4.78) rotate(134.33)"/><text class="cls-17" transform="translate(24.97 16.94) rotate(-45.67)"><tspan x="0" y="0">32 31</tspan></text></g></g><g><g><rect class="cls-19" x="16.2" y="16.57" width="7.43" height="6.31" transform="translate(47.93 19.26) rotate(134.33)"/><rect class="cls-19" x="10.68" y="22.21" width="7.43" height="6.31" transform="translate(42.6 32.8) rotate(134.33)"/></g><text class="cls-17" transform="translate(13.44 28.75) rotate(-45.67)"><tspan x="0" y="0">34 33</tspan></text></g><g><g><rect class="cls-19" x="61.93" y="-6.29" width="7.43" height="6.31" transform="translate(108.61 -52.86) rotate(133.56)"/><rect class="cls-19" x="56.49" y="-.57" width="7.43" height="6.31" transform="translate(103.57 -39.25) rotate(133.56)"/></g><text class="cls-11" transform="translate(59.27 6.05) rotate(-46.44)"><tspan x="0" y="0">14 13</tspan></text></g><g><g><rect class="cls-19" x="50.86" y="5.36" width="7.43" height="6.31" transform="translate(98.35 -25.17) rotate(133.56)"/><rect class="cls-19" x="45.42" y="11.08" width="7.43" height="6.31" transform="translate(93.3 -11.56) rotate(133.56)"/></g><text class="cls-11" transform="translate(48.17 17.75) rotate(-46.44)"><tspan x="0" y="0">16 15</tspan></text></g><g><g><rect class="cls-19" x="39.57" y="17.22" width="7.43" height="6.31" transform="translate(87.88 3.06) rotate(133.56)"/><rect class="cls-19" x="34.13" y="22.94" width="7.43" height="6.31" transform="translate(82.84 16.66) rotate(133.56)"/></g><text class="cls-11" transform="translate(36.84 29.62) rotate(-46.44)"><tspan x="0" y="0">18 17 </tspan></text></g><g><g><rect class="cls-19" x="28.71" y="28.64" width="7.43" height="6.31" transform="translate(77.81 30.22) rotate(133.56)"/><rect class="cls-19" x="23.27" y="34.37" width="7.43" height="6.31" transform="translate(72.77 43.82) rotate(133.56)"/></g><text class="cls-11" transform="translate(26 41.06) rotate(-46.44)"><tspan x="0" y="0">20 19</tspan></text></g><text class="cls-5" transform="translate(-37.4 37.18) rotate(-44.38)"><tspan x="0" y="0">생활환경관</tspan></text><path class="cls-7" d="M9.71,124.82c13.64-8,28.07-16.04,43.3-24,15.86-8.3,31.3-15.84,46.21-22.7l63.56,110.27-31.13,19.46,3.89,5.75-31.13,16.3-2.59-5.19-32.43,15.57c-19.89-38.48-39.78-76.97-59.67-115.45Z"/><g><g><rect class="cls-19" x="141.41" y="83.6" width="7.43" height="6.31" transform="translate(71.12 238.77) rotate(-94.91)"/><rect class="cls-19" x="140.73" y="75.73" width="7.43" height="6.31" transform="translate(78.22 229.56) rotate(-94.91)"/></g><text class="cls-18" transform="translate(143.09 80.75) rotate(-5.4)"><tspan x="0" y="0">1</tspan><tspan x="0" y="7.78">2</tspan></text></g><g><g><rect class="cls-19" x="167.35" y="134.15" width="7.43" height="6.31" transform="translate(226.62 349.5) rotate(-143.42)"/><rect class="cls-19" x="161.01" y="129.45" width="7.43" height="6.31" transform="translate(217.99 337.24) rotate(-143.42)"/></g><text class="cls-14" transform="translate(164.99 134.92) rotate(-53.91)"><tspan x="0" y="0">7</tspan><tspan x="0" y="7.78">8</tspan></text></g><g><g><rect class="cls-19" x="153.08" y="119.89" width="7.43" height="6.31" transform="translate(122.53 319.39) rotate(-118.22)"/><rect class="cls-19" x="149.35" y="112.93" width="7.43" height="6.31" transform="translate(123.16 305.85) rotate(-118.22)"/></g><text class="cls-12" transform="translate(152.52 118.42) rotate(-28.71)"><tspan x="0" y="0">5</tspan><tspan x="0" y="7.78">6</tspan></text></g><g><g><rect class="cls-19" x="145.64" y="102.37" width="7.43" height="6.31" transform="translate(80.16 274.81) rotate(-103.01)"/><rect class="cls-19" x="143.79" y="94.7" width="7.43" height="6.31" transform="translate(85.38 263.61) rotate(-103.01)"/></g><text class="cls-13" transform="translate(146.38 100.05) rotate(-13.5)"><tspan x="0" y="0">3</tspan><tspan x="0" y="7.78">4</tspan></text></g><g><g><rect class="cls-19" x="192.75" y="170.74" width="7.43" height="6.31" transform="translate(446.65 94.86) rotate(120.96)"/><rect class="cls-19" x="188.69" y="177.51" width="7.43" height="6.31" transform="translate(446.31 108.6) rotate(120.96)"/></g><text class="cls-16" transform="translate(192.39 183.97) rotate(-59.04)"><tspan x="0" y="0">14 13</tspan></text></g><g><g><rect class="cls-19" x="202.34" y="155.38" width="7.43" height="6.31" transform="translate(448 63.39) rotate(120.96)"/><rect class="cls-19" x="198.27" y="162.15" width="7.43" height="6.31" transform="translate(447.65 77.12) rotate(120.96)"/></g><text class="cls-16" transform="translate(201.97 168.61) rotate(-59.04)"><tspan x="0" y="0">12 11</tspan></text></g><g><g><rect class="cls-19" x="211.5" y="140.3" width="7.43" height="6.31" transform="translate(448.94 32.7) rotate(120.96)"/><rect class="cls-19" x="207.44" y="147.07" width="7.43" height="6.31" transform="translate(448.6 46.43) rotate(120.96)"/></g><text class="cls-16" transform="translate(210.53 153.77) rotate(-59.04)"><tspan x="0" y="0" xml:space="preserve">10  9 </tspan></text></g><text class="cls-3" transform="translate(64.06 161.64)"><tspan x="0" y="0">대강당 </tspan></text><rect class="cls-19" x="111.72" y="-6.6" width="7.43" height="6.31" transform="translate(125.87 111.56) rotate(-93.47)"/><g><rect class="cls-19" x="112.61" y="10.93" width="7.43" height="6.31" transform="translate(109.31 131.06) rotate(-93.47)"/><rect class="cls-19" x="112.14" y="3.05" width="7.43" height="6.31" transform="translate(116.67 122.22) rotate(-93.47)"/></g><text class="cls-9" transform="translate(113.96 -8.85)"><tspan x="0" y="0">4</tspan><tspan x="0" y="7.78">3</tspan></text><text class="cls-9" transform="translate(113.77 8.02)"><tspan x="0" y="0">2</tspan><tspan x="0" y="7.78">1</tspan></text><polygon class="cls-6" points="119.2 232.82 149.65 286.48 181.53 268.98 153.69 217.14 119.2 232.82"/><polygon class="cls-6" points="283.95 212.06 274.87 196.49 220.39 230.22 231.41 243.61 283.95 212.06"/><text class="cls-1" transform="translate(139.11 257.38) rotate(-27.92)"><tspan x="0" y="0">대강당</tspan><tspan x="3.04" y="11.77">계단 </tspan></text><text class="cls-2" transform="translate(236.31 234.67) rotate(-30.47)"><tspan x="0" y="0">대학원별관</tspan></text><path class="cls-6" d="M15.25,233.43c-25.97-.38-51.94-.75-77.91-1.13-1.13-19.19-2.26-38.39-3.39-57.58,27.1,.38,54.2,.75,81.29,1.13v57.58Z"/><polygon class="cls-6" points="-62.65 232.3 -58.43 317.27 -.56 321.51 16.38 250.37 3.96 230.04 -62.65 232.3"/><path class="cls-6" d="M502.94-51.81c-21.5,38.49-50.48,71.5-78.66,104.75-79.14,93.38-153.72,191.13-223.35,292.73,16.44,30.82,35.6,59.99,57.17,86.99,72.37-87.2,165.01-152.31,244.62-232.05,39-39.06,74.81-81.56,110.56-124-31.73-46.94-68.58-89.96-109.57-127.92-1.03,.94-2.05,1.89-3.08,2.83"/></svg>