<?xml version="1.0" encoding="UTF-8"?><svg id="_레이어_9" xmlns="http://www.w3.org/2000/svg" viewBox="0 0 300 300"><defs><style>.cls-1{fill:#f2f2f2;font-size:5.19px;}.cls-1,.cls-2,.cls-3,.cls-4,.cls-5{font-family:PretendardVariable-Medium, 'Pretendard Variable';font-variation-settings:'wght' 500;}.cls-6{fill:#004725;}.cls-7{fill:#e9eaea;}.cls-8{fill:#ffac00;}.cls-9{fill:#a5a5a5;}.cls-10{font-family:NanumGothicExtraBold, NanumGothic;font-size:5.26px;}.cls-2{font-size:16.03px;}.cls-2,.cls-3,.cls-4,.cls-5{fill:#0e0e0d;}.cls-3{font-size:16.03px;}.cls-4{font-size:16.03px;}.cls-5{font-size:16.03px;}.cls-11{fill:#ef0;stroke:#000;stroke-miterlimit:10;stroke-width:.66px;}</style></defs><path class="cls-9" d="M-195.08,486.2c-1.93-4.63-3.21-9.78-2.22-14.79s4.29-8.9,7.57-12.43c6.62-7.13,14.23-13.39,21.21-20.17,13.96-13.56,27.27-27.78,40.07-42.44,25.85-29.61,49.6-60.98,72.67-92.78S-10.03,239.14,13.41,207.33c2.99-4.05,5.91-8.18,9.03-12.13s6.75-7.29,11.94-6.11,9.64,5.63,13.72,8.86,8.54,6.74,12.81,10.11,8.63,6.77,12.91,10.2c3.73,2.99,7.61,6.5,8.06,11.57s-2.25,9.81-5.04,13.81c-3.29,4.72-7.05,9.14-10.6,13.65-27.64,35.12-55.28,70.25-82.92,105.37-6.06,7.69-12.48,15.25-17.23,23.86-4.05,7.33-7.06,15.8-5.55,24.27,1.67,9.39,8.97,15.71,15.58,21.92,8.19,7.7,16.38,15.4,24.56,23.1,16.27,15.3,32.54,30.6,48.81,45.9,7.07,6.65,14.3,13.4,19.34,21.79s7.28,18.49,7.54,28.43-1.16,19.97-2.9,29.8c-.75,4.26-1.13,9.57-4.1,12.98-3.15,3.62-8.5,3.33-12.76,4.54-7.28,2.07-12.67,7.73-17.91,12.87-3,2.94-6.06,5.88-9.64,8.12-4.07,2.55-8.7,3.95-13.47,4.35-9.8,.82-19.58-2.04-28.78-5.09s-19.08-6.51-28.47-10.19c-18.69-7.34-36.92-16.16-53.28-27.88-17.43-12.48-32.56-27.92-47.97-42.74-8-7.7-16-15.39-24-23.09s-15.88-14.6-23.19-22.44c-5.49-5.88-12.26-15.34-7-23.36,.56-.85-.81-1.64-1.36-.8-4.69,7.14-.63,15.46,4.02,21.48,3.02,3.9,6.67,7.22,10.21,10.63,4.16,4,8.31,8,12.47,12,16.43,15.81,32.69,31.82,49.36,47.36,15.39,14.35,31.78,27.07,50.46,36.88,18.17,9.54,37.47,16.69,56.9,23.19,9.16,3.06,18.72,6,28.49,5.74,8.87-.24,16.31-3.76,22.8-9.65,6.04-5.47,11.47-12.56,19.37-15.41,3.96-1.43,8.44-1.22,12.19-3.27,3.69-2.02,5.22-5.95,6.08-9.85,2.08-9.49,3.53-19.36,3.98-29.07s-.38-19.72-3.99-28.85-9.72-16.38-16.5-23.11c-7.83-7.78-16.05-15.2-24.09-22.77-16.8-15.79-33.59-31.59-50.39-47.38-3.96-3.72-8.01-7.36-11.84-11.21-3.62-3.64-6.87-7.7-8.37-12.69-2.92-9.66,1.12-19.7,6.05-27.95,5.55-9.29,12.76-17.57,19.44-26.05,7.13-9.06,14.27-18.13,21.4-27.19,14.36-18.24,28.71-36.48,43.07-54.73,7.22-9.18,14.44-18.36,21.67-27.53,5.17-6.57,12.04-15.38,7.98-24.18-1.84-3.99-5.45-6.75-8.81-9.4-4.49-3.55-8.99-7.09-13.48-10.64s-8.99-7.09-13.48-10.64c-3.53-2.79-7.22-6.1-11.72-7.14-9.04-2.08-14.38,7.66-18.89,13.75-6.07,8.18-12.07,16.41-18.04,24.66-11.95,16.54-23.74,33.19-35.6,49.79-23.9,33.48-48.06,66.83-74.19,98.62-12.85,15.63-26.17,30.88-40.13,45.52-6.98,7.32-14.11,14.48-21.43,21.46-6.99,6.68-14.97,12.83-20.83,20.57-2.58,3.41-4.47,6.98-4.84,11.3-.39,4.58,.79,9.17,2.54,13.37,.38,.92,1.91,.52,1.52-.42h0Z"/><path class="cls-9" d="M-13.82,398.74c6.46-12.62,14.53-24.3,23-35.64,8.91-11.93,18.08-23.67,27.15-35.48,9.22-12.01,18.44-24.02,27.65-36.02,9.31-12.13,18.42-24.43,27.95-36.39,3.46-4.35,8.53-10.04,14.65-9.78,5.8,.25,8.92,6,9.07,11.24,.18,6.46-3.84,12.15-7.52,17.09-4.5,6.03-9.04,12.03-13.56,18.05-18.02,23.99-36.02,48-54.29,71.8-9.23,12.03-18.54,24-27.95,35.88-2.29,2.89-4.57,5.81-6.91,8.67-1.92,2.35-4.26,4.99-7.54,5.05-5.8,.11-10.09-5.6-11.02-10.81-.45-2.54-.18-5.13,.82-7.51,.39-.94-1.14-1.34-1.52-.42-2.02,4.85-1.11,10.66,1.97,14.86,3.36,4.6,9.73,7.37,14.76,3.63,2.63-1.96,4.56-4.82,6.59-7.36,2.45-3.07,4.89-6.15,7.32-9.24,4.87-6.17,9.71-12.36,14.52-18.57,19.21-24.78,38.05-49.84,56.89-74.91,4.76-6.33,9.51-12.66,14.27-18.99,2.34-3.11,4.69-6.22,7.02-9.34,2.05-2.75,4.06-5.57,5.53-8.68,2.42-5.12,3.16-11.06,.41-16.22-2.58-4.85-8.05-7.02-13.23-5.06-5.95,2.25-10.02,7.68-13.76,12.55-4.86,6.33-9.72,12.67-14.59,19-9.72,12.67-19.45,25.33-29.17,38s-19.38,25.23-29.06,37.85c-8.98,11.71-17.93,23.52-25.47,36.23-1.88,3.18-3.67,6.41-5.36,9.7-.46,.9,.9,1.7,1.36,.8h0Z"/><path class="cls-9" d="M135.71,272.92c-12.57,27.5-25.3,54.95-39.07,81.87-6.92,13.52-14.1,26.91-21.67,40.08-3.69,6.42-7.5,12.77-11.36,19.09-3.62,5.93-6.96,12.06-7.74,19.08-.48,4.3-.12,8.63,.23,12.92s.8,8.87,1.29,13.29c.99,8.92,2.24,17.81,3.73,26.65l1.32-.77c-12.66-10.61-24.18-22.57-34.28-35.64-4.73-6.12-10.79-13.13-9.98-21.4s6.87-14.58,11.71-20.56c11.53-14.25,22.98-28.55,34.41-42.87s22.67-28.46,34.02-42.68,22.77-28.5,34.23-42.68c1.46-1.81,2.93-3.62,4.4-5.43,.63-.78-.48-1.9-1.12-1.12-11.75,14.5-23.42,29.07-35.07,43.65-11.61,14.54-23.19,29.1-34.79,43.65s-23.39,29.27-35.16,43.84c-4.93,6.1-10.83,12.25-13.31,19.86-1.16,3.55-1.3,7.34-.24,10.94,1.13,3.86,3.38,7.27,5.72,10.5,9.8,13.5,21.12,25.93,33.61,36.98,1.56,1.38,3.14,2.74,4.74,4.08,.62,.52,1.45,.02,1.32-.77-1.33-7.9-2.47-15.82-3.39-23.78s-1.91-15.62-2.03-23.43c-.05-3.82,.34-7.59,1.55-11.23,1.08-3.26,2.68-6.32,4.4-9.28,3.68-6.34,7.61-12.53,11.29-18.87,15.06-25.91,28.58-52.69,41.47-79.73,7.19-15.08,14.18-30.26,21.13-45.45,.42-.92-.94-1.72-1.36-.8h0Z"/><path class="cls-9" d="M177.43,152.12c-6.64,1.57-10.59,7.99-10.92,14.51s2.35,14.55,9.4,16.35c6.69,1.7,14.71-1.08,19.4-6.04s4.36-12.56,1.25-18.15c-1.73-3.11-4.43-5.74-7.77-7.06-3.67-1.45-7.71-1.14-11.41,.04-.96,.31-.55,1.83,.42,1.52,2.93-.94,6.07-1.34,9.08-.53s5.31,2.58,7.08,4.93c3.39,4.48,4.7,11.48,1.56,16.45s-10.42,7.97-16.26,7.73c-3.2-.13-6.28-1.24-8.21-3.91-1.8-2.47-2.67-5.68-2.91-8.69-.54-6.68,2.72-13.97,9.72-15.63,.99-.23,.57-1.76-.42-1.52h0Z"/><path class="cls-9" d="M87.63,615.57c-3.33-3.5,1.9-10.39,3.56-13.56s3.42-6.55,5.13-9.82c.4-.77-.6-1.63-1.24-.96l-.42,.44,1.32,.77c5.14-15.8,8.12-33.84,4.92-50.36-1.46-7.56-4.7-14.12-9.39-20.16-4.93-6.34-10.88-11.95-14.82-19.02-4.96-8.91-4.78-19.4-5.42-29.3-.61-9.37-1.37-18.74-1.8-28.12-.87-19.41,8.06-35.16,18.16-51.02,.47-.74-.67-1.66-1.24-.96l-.57,.71,1.24,.96c21.13-32.72,39.47-67.11,56.24-102.24,7.95-16.66,15.04-33.81,23.84-50.05,4.49-8.28,9.51-16.31,15.54-23.57,5.05-6.09,10.83-11.52,16.17-17.35,9-9.83,17.07-21.78,15.21-35.76-1.63-12.26-10.02-23.8-21.72-28.22s-25.2-.38-33.98,8.24c-9.19,9.03-12.14,22.31-7.72,34.41,2.32,6.35,6.36,12.07,11.7,16.23,1.46,1.13,3.01,2.16,4.64,3.02,1.04,.55,3.8,1.22,4.64,1.97,1.54,1.38-5.08,10.56-6.37,12.8-10.96,19.11-20.87,38.8-29.76,58.95l1.47,.4c.92-10.9,1.63-22.52-4.52-32.14-5.9-9.23-15.93-15.48-24.49-22-10.93-8.32-21.86-16.63-32.78-24.95-5.74-4.37-11.47-8.73-17.21-13.1-5.03-3.83-14.52-8.44-15.9-15.1-.11-.54-.73-.66-1.16-.47l-.23,.11,1.08,1.08c26.56-35.18,53.12-70.37,79.68-105.55,24.15-31.99,47.86-64,62.9-101.46,14.84-36.97,22.84-76.14,32.15-114.74,2.3-9.54,4.68-19.06,7.26-28.52s5.35-19.78,11.31-28.13c5.57-7.81,13.12-13.94,19.47-21.07s11.35-14.17,16.22-21.82c12.54-19.7,23.08-40.76,34.25-61.25,11.83-21.68,23.65-43.37,35.48-65.05h-1.36c10.19,21.07,33.28,32.41,53.62,41.31,12.19,5.34,26.6,10.07,37.11,18.47,4.74,3.79,2.5,8.03,.91,12.68-1.2,3.51-2.41,7.03-3.61,10.54-2.63,7.66-5.25,15.33-7.88,22.99-.12,.34,.08,.71,.36,.89,4.32,2.86,8.84,4.92,13.82,6.33,.3,.08,.76-.05,.89-.36,12.32-28.79,26.12-56.92,41.46-84.22,3.49-6.21,7.09-15.07,15.43-15.15,7.88-.08,14.86,5.61,21.51,9.15,5.25,2.8,11.2,5.19,17.27,4.42,5.22-.65,9.25-3.78,12.96-7.3,19.28-18.26,36.06-51.94,67.21-49.59,14.68,1.11,28.43,13.99,37.57,24.76,11.59,13.65,11.11,31.18,3.97,46.9s-17.58,28.24-26.9,41.67c-8.16,11.75-19.92,24.53-20.16,39.62,0,.64,.9,1.1,1.35,.56l.21-.25-1.32-.35c6.27,17.95-6.06,34.59-18.53,46.24-11.84,11.07-23.56,21.03-31.32,35.55-7.29,13.64-11.48,28.68-15.14,43.63-4.34,17.75-8.49,35.52-13.26,53.16-9.76,36.05-21.12,71.67-34.03,106.71-3.28,8.91-6.66,17.78-10.15,26.61-3.01,7.62-6.12,15.37-10.92,22.07-10.95,15.29-28.63,15.53-44.86,21.32-14.27,5.08-26.28,14.72-37.14,25.03-13.52,12.82-26.33,26.45-39.31,39.82-26.47,27.27-52.7,54.78-78.49,82.7-47.83,51.77-94.09,106.8-122.24,172.11-13.3,30.85-22.44,63.63-25.11,97.19-1.32,16.58-.56,33.23-1.55,49.82s-3.87,36.31-15.06,49.66c-2.68,3.2-6.09,5.96-10.32,6.57-5.16,.74-10.37-2.45-11.16-7.74-.15-1-1.67-.58-1.52,.42,.76,5.07,5.02,8.46,10.04,8.97,5.66,.58,10.6-2.96,14.07-7.1,9.63-11.5,13.25-27.69,14.82-42.22,1.83-16.99,.91-34.11,1.79-51.15,.95-18.6,3.96-37.05,8.62-55.07,18.85-72.87,63.31-135.25,112.29-191.05,25.49-29.04,52.19-57.04,78.89-84.96,14.03-14.66,28.14-29.24,42.34-43.74,12.82-13.09,25.37-27.14,40.46-37.68,7.06-4.93,14.69-8.89,22.96-11.35s16.33-3.61,24.09-6.75c13.95-5.64,21.14-17.76,26.67-31.1,14.89-35.9,27.26-73.05,38.28-110.3,5.49-18.54,10.55-37.21,15.19-55.99,4.18-16.94,7.54-34.2,13.3-50.7,6.08-17.43,15.27-31.9,28.94-44.35,11.57-10.54,24.28-20.82,29.02-36.38,2.05-6.74,2.17-13.69-.16-20.36-.18-.51-.91-.84-1.32-.35l-.21,.25,1.35,.56c.18-11.82,7.83-21.38,14.28-30.66s13.53-19.42,20.24-29.17c10.87-15.81,22.16-35.07,16.32-54.98-2.6-8.86-8.82-15.74-15.47-21.88s-14.17-13.03-23.11-16.12c-17.76-6.15-35.92,4.38-48.22,16.62-7.51,7.47-13.89,15.96-20.92,23.86-3.68,4.14-7.56,8.71-12.2,11.81-6.41,4.3-13.73,3.31-20.45,.27-8.14-3.68-16.06-11.04-25.48-10.96-8.43,.08-12.21,7.82-15.83,14.23-11.23,19.87-21.66,40.19-31.27,60.88-2.47,5.33-4.89,10.68-7.26,16.05-.78,1.77-1.69,5.9-3.12,7.18-2.32,2.08-6.69-.89-9.02-2.12-3.01-1.59-3.3-2.25-2.63-5.55,.59-2.86,2-5.85,2.95-8.62,2.08-6.07,4.16-12.14,6.24-18.2,1.15-3.36,4.76-9.46,3.64-13.15s-7.51-6.31-10.56-8.06c-10.67-6.15-22.14-10.73-33.37-15.71-19.31-8.56-40.87-19.68-50.52-39.63-.26-.53-1.09-.49-1.36,0-20.56,37.7-40.52,75.81-61.81,113.1-4.93,8.63-10.14,17.13-16.09,25.1s-12.88,14.77-19.75,21.89c-5.81,6.01-10.6,12.42-13.77,20.21-3.67,9.01-5.88,18.67-8.3,28.07-9.93,38.54-17.27,77.82-30.24,115.52-6.57,19.11-14.7,37.61-24.93,55.05s-22.12,33.81-34.23,49.96c-29.75,39.66-59.73,79.14-89.6,118.71-.53,.71,.46,1.36,1.08,1.08-2.67,1.2,4.2,6.7,5.05,7.36,5.4,4.23,10.93,8.32,16.39,12.47,10.93,8.32,21.86,16.63,32.78,24.95,10.12,7.7,21.38,14.88,30.33,23.95,10.43,10.57,10.54,23.65,9.37,37.56-.06,.76,1.16,1.11,1.47,.4,10.99-24.9,23.56-49.04,37.66-72.32,.26-.44,.01-1.03-.47-1.16-12.09-3.33-21.07-13.9-23.37-26.13s3.53-24.8,14.09-31.7,23.47-7.29,33.66-.08,16.18,20.49,13.84,32.9-11.1,21.48-19.36,30.04c-8.74,9.06-16.67,18.29-23.15,29.14-13.94,23.35-23.77,49.21-35.83,73.55-14.56,29.4-30.41,58.16-48.21,85.73-.48,.74,.67,1.66,1.24,.96l.57-.71-1.24-.96c-8.75,13.74-17.75,28.32-18.45,45.07-.4,9.62,.87,19.44,1.49,29.03,.56,8.67,.48,17.68,2.35,26.19,3.45,15.73,18.12,24.31,24.57,38.4,8.25,18.03,4.11,41.56-1.77,59.65-.25,.75,.78,1.32,1.32,.77l.42-.44-1.24-.96c-3.02,5.77-6.59,11.52-9.12,17.52-1.2,2.85-1.55,5.43,.68,7.78,.7,.74,1.82-.38,1.12-1.12h0Z"/><path class="cls-9" d="M476.78,510.7c1.63-5.84-2.57-10.96-8.73-8.55-3.66,1.43-6.12,4.87-8.36,7.93-2.91,3.97-5.73,7.99-8.63,11.96-5.92,8.13-12.14,16.16-19.61,22.94-6.63,6.01-14.21,10.57-22.34,14.24-15.15,6.83-31.61,10.75-46.09,19.09-3.24,1.87-6.35,3.97-9.24,6.35-1.53,1.27-3,2.61-4.39,4.04-1,1.04-2.48,3.73-3.71,4.31-1.38,.65-4.53-1.1-5.9-1.61-2.89-1.08-5.73-2.28-8.52-3.61-4.62-2.21-9.09-4.75-13.35-7.6-2.82-1.89-6.77-3.85-7.14-7.43s2.12-6.81,3.77-9.86c2.3-4.26,4.52-8.73,5.04-13.61,.77-7.2-3.64-15.68-11.57-15.93-.26,0-.56,.15-.68,.39-6.28,12.6-13.87,24.51-22.76,35.43-4.1,5.04-8.38,10.11-13.36,14.3-5.85,4.92-12.63,7.56-20.2,8.39-7.07,.77-14.28,.51-21.38,.43-7.65-.08-15.31-.27-22.96-.56-14.85-.57-29.68-1.55-44.48-2.93-3.4-.32-7.33-.21-10.61-1.21-4.54-1.38-4.22-7.35-4.65-11.19-.8-7.1-1.35-14.22-1.66-21.35-.61-14.06-.26-28.16,1.02-42.17,2.58-28.2,8.97-56.1,19.08-82.56,10.27-26.89,24.97-52.69,47.22-71.45l-1.35-.56c.47,13.26,1.24,26.16,6.4,38.55,4.4,10.57,11.1,20.11,19.22,28.15,17.96,17.79,42.13,27.19,67.04,29.65,28.15,2.78,56.28-3.09,82.76-12.36,13.45-4.71,26.81-10.11,39.7-16.2,8.39-3.97,18.49-11.83,14.41-22.48-.62-1.61-1.65-3.24-3.06-4.27-1.98-1.44-4.17,.41-6.23,1.25-6.41,2.64-12.78,5.36-19.17,8.06-14.13,5.99-28.33,11.9-42.98,16.54-27.73,8.78-58.75,13.14-86.79,3.13-22.81-8.14-43.13-26.23-48.94-50.38-6.76-28.06,6.11-56.47,23.12-78.21,8.64-11.05,18.51-21.05,28.43-30.93,11.02-10.98,22.06-21.93,33.09-32.89,22.46-22.32,44.92-44.65,67.38-66.97,5.49-5.46,10.99-10.92,16.48-16.38,.68-.68-.18-1.57-.96-1.24l-.77,.33,.96,1.24c8.46-9.43,18.22-17.63,29.06-24.2,5.4-3.27,11.74-7.37,17.99-8.63,4.47-.9,10.77,1.25,9.56,6.94-.68,3.19-3.2,6.34-4.77,9.16-5.94,10.67-11.05,21.82-11.76,34.18-.62,10.86,1.78,21.88,6.82,31.51,1.24,2.38,2.65,4.67,4.21,6.85,1.69,2.35,3.97,4.45,5.37,6.97,2,3.6,.04,7.3-1.27,10.78-1.19,3.17-2.39,6.34-3.65,9.48-2.48,6.21-5.19,12.34-8.39,18.21-3.01,5.51-6.71,10.41-10.26,15.55-2.73,3.96-4.91,8.61-3.41,13.48,1.32,4.26,4.84,7.64,8.75,9.6,7.62,3.83,17.4,2.79,24.19-2.3,8.09-6.07,10.13-17.13,6.37-26.25-.85-2.05-1.98-3.98-3.39-5.7-.87-1.05-1.88-1.87-2.82-2.84-1.17-1.21-1.08-1.3-.65-3.26,1.67-7.62,4.53-14.89,8.35-21.68l-1.24,.16c16.16,16.66,42.02,9.07,58.26-3.08,10.19-7.62,18.83-17.04,28.38-25.4,10.04-8.79,20.98-16.54,32.57-23.15,22.8-13,48.96-22.45,75.23-24.78,12.99-1.15,26.78-.17,38.32,6.43s18.67,17.65,24.59,28.96c14.28,27.29,26.86,55.82,35.41,85.45,.23,.79,1.25,.7,1.52,0l.16-.42-1.44,.19c18.2,41.71,23.36,87.39,26.69,132.34,.79,10.64,1.82,21.33,1.95,32s-1.16,21.89-7.32,30.99c-12.14,17.94-35.35,22.14-54.78,27.39-17.94,4.85-33.78,12.65-46.39,26.55-11.26,12.41-19.05,27.62-24.43,43.4-13.47,39.59-9.89,81.74-13.79,122.76-1.11,11.72-2.86,23.4-5.79,34.81-2.43,9.44-5.37,19.7-12.08,27.08-17.15,18.84-42.87-2.19-59.76-10.66-19.47-9.76-40.24-17.52-61.52-22.24-10.13-2.25-20.96-3.36-30.81,.65-7.6,3.1-13.84,8.72-18.76,15.2-12.83,16.91-15.45,38.71-26.09,56.75-2.78,4.71-6.46,9.29-11.82,11.08-5.95,1.99-12.77-.17-18.7-1.3-11.77-2.24-23.54-4.48-35.32-6.71-11.99-2.28-23.99-4.56-35.98-6.84-10.34-1.97-23.15-2.73-29.73-12.14-5.35-7.65-5.82-17.8-4.93-26.78,1.11-11.24,4.26-22.21,8.45-32.67,8.45-21.1,20.7-40.83,32.97-59.88,6.33-9.83,12.93-19.48,19.8-28.95,6.34-8.74,12.78-17.5,20.42-25.16s16.45-13.63,26.76-17.19c9.53-3.29,19.26-5.58,27.95-10.89,14.97-9.15,25.58-23.77,34.05-38.82,4.46-7.93,8.4-16.14,12.25-24.39,.43-.91-.93-1.72-1.36-.8-8.08,17.28-16.61,34.98-29.64,49.17-6.32,6.89-13.75,12.82-22.24,16.79-10,4.68-21.15,6.31-30.97,11.44-18.53,9.68-30.98,28.25-42.74,44.87-13.62,19.23-26.37,39.21-37.59,59.95-10.16,18.76-19.32,39.55-20,61.21-.26,8.28,1.04,17.36,6.3,24.05,5.98,7.59,15.58,9.02,24.51,10.71,24.66,4.69,49.31,9.37,73.97,14.06,9.25,1.76,19.76,5.24,27.9-1.34,7.52-6.08,11.29-16.4,14.66-25.14,7.33-19.04,13.3-42.03,32.43-52.85,11.08-6.26,23.82-4.92,35.72-2.12,11.1,2.62,22.04,6.03,32.71,10.04,10.99,4.13,21.71,8.97,32.08,14.46,9.53,5.05,18.72,11.43,29.22,14.35,8.57,2.39,17.58,1.5,24.51-4.43,6.58-5.63,10.13-14.1,12.66-22.17,13.84-44.18,7.02-91.09,14.56-136.21,5.84-34.96,21.29-72.97,54.52-90.04,19.29-9.91,41.94-10.48,60.95-21.09,7.96-4.44,15.17-10.63,19.42-18.81,4.58-8.82,5.52-18.93,5.35-28.71-.19-11.1-1.25-22.22-2.08-33.29-.87-11.63-1.87-23.25-3.19-34.84-2.53-22.26-6.24-44.47-12.55-65.99-3.04-10.37-6.7-20.53-11.02-30.43-.3-.69-1.23-.37-1.44,.19l-.16,.42h1.52c-7.55-26.2-18.46-51-30.4-75.45-5.41-11.09-10.89-22.52-19.58-31.48s-19.1-13.33-30.83-14.85c-12.38-1.61-24.98,.04-37.12,2.63-12.62,2.7-24.96,6.64-36.83,11.69-24.35,10.37-45.42,25.47-64.54,43.62-10.62,10.09-21.84,20.95-36.11,25.52-12.74,4.08-27.98,3.26-37.74-6.81-.35-.36-.99-.28-1.24,.16-4.4,7.82-7.46,16.2-9.1,25.02-.07,.37,.05,.67,.36,.89,8.27,5.8,11.37,17.75,6.81,26.83s-15.61,12.73-24.83,9.95c-5.38-1.62-11.21-6.06-11.59-12.12s4.45-10.94,7.69-15.49c6.37-8.97,10.98-19.04,15.04-29.22,1.03-2.59,2.03-5.2,3.01-7.81s2.44-5.41,2.7-8.18c.44-4.56-3.43-7.71-5.91-11.03-6.45-8.64-10.37-19.13-11.31-29.86-1.05-11.86,1.87-23.1,7.06-33.72,2.59-5.3,5.95-10.25,8.44-15.58,1.46-3.13,1.52-6.47-1.15-8.96-3.67-3.42-8.85-2.66-13.12-.96-5.65,2.24-11.08,5.33-16.23,8.54-10.37,6.48-19.74,14.43-27.9,23.53-.63,.7,.15,1.58,.96,1.24l.77-.33-.96-1.24c-21.97,21.84-43.95,43.68-65.92,65.53-21.26,21.13-43.02,41.86-63.68,63.59-17.82,18.74-34.23,40.13-39.47,66.02-4.74,23.37,1.48,46.63,18.5,63.53s40.56,24.87,64.25,25.46c28.75,.71,56.5-8.34,82.83-19.04,6.42-2.61,12.8-5.32,19.18-8.03,3.49-1.48,6.98-2.96,10.48-4.43,2.66-1.11,8.22-4.75,10.64-2.5,5,4.65,1.29,13.37-2.68,17.14-4.71,4.47-11.24,6.82-17.08,9.38-26.61,11.64-54.4,21.95-83.49,24.85-26.97,2.69-55.51-.98-78.97-15.3-20.18-12.32-36.4-32.4-40.86-55.96-1.46-7.7-1.61-15.57-1.89-23.39-.03-.72-.83-.99-1.35-.56-25.12,21.17-40.6,51.14-51.11,81.76-11.89,34.63-17.59,71.37-16.91,107.97,.17,9.24,.76,18.47,1.75,27.66,.67,6.15,.35,13.17,7.78,14.3,9.23,1.4,18.74,1.81,28.05,2.46,9.88,.69,19.78,1.21,29.68,1.54,9.85,.33,19.7,.51,29.55,.46,8-.04,16.28-.38,23.65-3.81,7.55-3.51,13.33-9.89,18.65-16.1,5.56-6.49,10.69-13.35,15.34-20.52,2.63-4.07,5.11-8.24,7.43-12.49,1.01-1.86,2.1-5.8,4.28-5.89,2.45-.11,4.97,2.66,6.16,4.5,5.74,8.88-.59,18.55-4.8,26.54-1.71,3.24-3.33,6.76-.8,10.03,2.26,2.91,6.34,5.06,9.41,6.99,8.08,5.09,16.81,9.02,25.92,11.84,.36,.11,.68-.09,.89-.36,12.71-16.92,34.14-22.56,52.99-29.75,9.07-3.46,18.11-7.35,26.03-13.03,9.14-6.55,16.52-15.1,23.27-24.01,4-5.28,7.78-10.71,11.68-16.07,2.09-2.87,4.3-6.23,7.58-7.88,4.97-2.49,8.67,1.45,7.3,6.37-.27,.98,1.25,1.4,1.52,.42h0Z"/><polygon class="cls-8" points="287.56 127.97 262.07 164.05 173.69 101.6 121.49 175.47 162.79 204.66 142.11 233.92 52.39 170.51 73.07 141.25 73.39 141.48 132.96 57.22 133.08 57.3 151.21 31.62 287.56 127.97"/><g><g><rect class="cls-11" x="168.39" y="178.06" width="7.53" height="6.39" transform="translate(205.98 428.94) rotate(-144.25)"/><rect class="cls-11" x="161.89" y="173.39" width="7.53" height="6.39" transform="translate(196.95 416.68) rotate(-144.25)"/></g><text class="cls-10" transform="translate(162.26 176.3) rotate(35.75)"><tspan x="0" y="0" xml:space="preserve"> 1   2</tspan></text></g><text class="cls-4" transform="translate(169.09 81.29) rotate(32.81)"><tspan x="0" y="0">교육관 A동</tspan></text><text class="cls-3" transform="translate(101.75 147.92) rotate(-50.85)"><tspan x="0" y="0">교육관</tspan><tspan x="8.85" y="19.24">B동</tspan></text><g><g><rect class="cls-11" x="143.62" y="143.86" width="7.53" height="6.39" transform="translate(352.84 113.35) rotate(125.75)"/><rect class="cls-11" x="138.94" y="150.35" width="7.53" height="6.39" transform="translate(350.7 127.43) rotate(125.75)"/></g><text class="cls-10" transform="translate(142.42 156.94) rotate(-54.25)"><tspan x="0" y="0" xml:space="preserve"> 8   7</tspan></text></g><g><g><rect class="cls-11" x="201.73" y="126.59" width="7.53" height="6.39" transform="translate(296.46 355.17) rotate(-144.25)"/><rect class="cls-11" x="195.24" y="121.91" width="7.53" height="6.39" transform="translate(287.42 342.91) rotate(-144.25)"/></g><text class="cls-10" transform="translate(195.6 124.83) rotate(35.75)"><tspan x="0" y="0" xml:space="preserve"> 3   4</tspan></text></g><g><g><rect class="cls-11" x="157.44" y="124.65" width="7.53" height="6.39" transform="translate(359.15 71.7) rotate(125.75)"/><rect class="cls-11" x="152.77" y="131.15" width="7.53" height="6.39" transform="translate(357.01 85.78) rotate(125.75)"/></g><text class="cls-10" transform="translate(156.25 137.73) rotate(-54.25)"><tspan x="0" y="0" xml:space="preserve"> 6   5</tspan></text></g><path class="cls-6" d="M176.7,169.29c-3.46,.19-6.76-2.9-6.78-6.37-.01-1.82,.83-3.67,2.33-4.71,1.5-1.03,3.64-1.13,5.13-.08,.18-1.65,.94-3.28,2.26-4.29,1.32-1.01,3.23-1.29,4.69-.5,1.46,.8,2.25,2.74,1.56,4.25,1.87-1.77,5.18-1.87,6.99-.03,1.81,1.84,1.51,5.37-.71,6.69,2.27,1.54,3.16,4.82,2,7.3s-4.26,3.88-6.9,3.11c-.88,2.28-3,4.07-5.42,4.41-2.42,.34-5.02-.87-6.18-3.03-1.16-2.15-.67-5.1,1.22-6.65"/><text class="cls-1" transform="translate(176.54 165.69)"><tspan x="0" y="0">교육관</tspan><tspan x="2.24" y="6.23">나무</tspan></text><polygon class="cls-7" points="303.51 -209.93 189.49 -8.3 387.41 93.66 511.68 -163.92 500.64 -209.93 303.51 -209.93"/><polygon class="cls-7" points="459.92 349.93 452.37 352.63 459.91 369.74 426.09 381.81 430.35 391.49 366.19 414.39 361.93 404.71 353.26 407.8 345.73 390.69 289.64 410.71 283.76 397.35 272.94 401.21 259.61 370.88 463.33 298.18 476.67 328.5 454.04 336.58 459.92 349.93"/><polygon class="cls-7" points="383.02 310.96 383.14 311.27 264.07 358.03 248.46 318.31 351.41 277.88 397.44 209.62 434.5 234.61 383.02 310.96"/><polyline class="cls-7" points="31.93 204.84 -68.91 349.58 -42.38 383.63 65.19 231.59 35.51 204.84"/><text class="cls-5" transform="translate(19.06 266.95) rotate(-47.49)"><tspan x="0" y="0">인문관</tspan></text><text class="cls-2" transform="translate(289.96 330.65) rotate(-20.18)"><tspan x="0" y="0">종합과학관</tspan></text></svg>