<?xml version="1.0" encoding="UTF-8"?><svg id="_레이어_9" xmlns="http://www.w3.org/2000/svg" viewBox="0 0 300 300"><defs><style>.cls-1{fill:#ef0;stroke:#000;stroke-miterlimit:10;stroke-width:.63px;}.cls-2{font-size:34.04px;}.cls-2,.cls-3,.cls-4,.cls-5{fill:#0e0e0d;font-family:PretendardVariable-Medium, 'Pretendard Variable';font-variation-settings:'wght' 500;}.cls-6{fill:#00df04;}.cls-7{fill:#e9eaea;}.cls-8{fill:#ffac00;}.cls-9{fill:#a5a5a5;}.cls-3{font-size:15.02px;}.cls-10,.cls-11{font-size:5.01px;}.cls-12{font-size:1.25px;}.cls-4{font-size:8.97px;}.cls-13{font-size:5.01px;}.cls-13,.cls-14,.cls-15,.cls-16,.cls-11,.cls-17{font-family:NanumGothicExtraBold, NanumGothic;}.cls-14{font-size:5.01px;}.cls-15{font-size:5.01px;}.cls-16{font-size:5.01px;}.cls-5{font-size:7.51px;}</style></defs><path class="cls-9" d="M-104.46-667.63c-17.88,17.25-35.33,34.93-52.89,52.51-8.59,8.6-17.21,17.16-25.92,25.64-7.81,7.6-16,14.92-22.05,24.06-.17,.26-.12,.71,.12,.91,3.73,3.13,7.46,6.27,11.19,9.4,1.32,1.11,4.51,2.91,4.71,4.63s-2.8,4.63-3.87,6.05c-1.62,2.15-2.05,3.34-4.65,2.14-1.84-.85-3.59-2.24-5.25-3.39-4.25-2.95-8.19-6.26-11.93-9.83-.31-.29-.75-.27-1.06,0-33.83,29.88-66.42,61.15-97.69,93.72-.5,.52,0,1.49,.73,1.26l.56-.18-.73-1.26c-15.48,16.63-30.97,33.26-46.45,49.89-.26,.28-.32,.79,0,1.06,16.28,13.6,31.52,28.42,45.48,44.4,7.18,8.22,13.98,16.75,20.52,25.49,5.39,7.21,10.75,14.51,17.01,21.01,11.17,11.59,25.79,20.66,42.28,15.43,7.75-2.46,14.67-7.34,20.1-13.33,.88-.98,4.88-6.03,6.98-4.33,1.13,.91-.51,3.86-.95,4.75-6.58,13.28-21.26,25.19-35.23,29.62-.58,.18-.78,1.07-.18,1.37,9.12,4.64,12.05,15.82,10.16,25.32-2.14,10.79-10.14,19.36-17.74,26.79-17.63,17.24-35.62,34.12-53.43,51.18-14.89,14.25-34.8,28.91-37.94,50.72-1.64,11.35,.31,23.01,1.53,34.3,1.32,12.24,2.63,24.48,3.95,36.72,2.76,25.65,5.52,51.29,8.28,76.94,.54,5.02,.88,10.11,1.67,15.09,.65,4.11,2,8.1,5.78,10.29,3.1,1.8,6.88,1.91,10.37,2.03,6.44,.22,12.88,.33,19.32,.49,25.76,.66,51.52,1.32,77.28,1.97,12.88,.33,25.76,.66,38.64,.99,5.85,.15,11.71,.3,17.56,.45,2.93,.07,5.85,.15,8.78,.22,1.2,.03,4.22-.41,5.27,.13,2.24,1.16,1.89,3.53,1.91,5.76,.02,2.45-.19,8.3-2.16,10.21s-6.43,.6-8.74,.49c-6.41-.32-12.81-.64-19.22-.96-12.81-.64-25.62-1.28-38.43-1.92-25.33-1.27-50.66-2.53-75.99-3.8-7.93-.4-17.39-1.43-24.4,3.23-7.8,5.18-7.11,15.56-7.65,23.81-.82,12.6-1.65,25.19-2.47,37.79-.7,10.76-3.08,22.95-.16,33.53,4.22,15.27,20.16,20.62,34.36,22.08,10,1.03,20.1,.35,30.12,.05,12.56-.38,25.12-.76,37.68-1.15,50.68-1.57,101.37-2.94,152.05-4.47,21.37-.64,42.66-2.67,64.02-3.51,18.52-.73,37.98-1.12,55.94,4.18,7.55,2.23,14.68,5.65,20.58,10.92,6.85,6.12,14.67,8.27,23.84,7.33,10.06-1.03,20.13-4.32,29.67-7.56,8.95-3.05,17.72-6.63,26.25-10.72,35.65-17.08,67.05-42.92,90.65-74.63,12.27-16.48,21.47-35.81,36.93-49.7,16.64-14.95,40.08-19.9,60.16-28.67,76.45-33.38,142.34-92.77,171.09-172.46,13.99-38.79,20.11-83.67,10.27-124.2-4.48-18.44-13.61-35.14-28.83-46.82-14.87-11.41-33.21-17.3-51.32-21.23-9.06-1.97-18.21-3.47-27.37-4.84-10.06-1.51-20.29-2.83-30.48-2.03-9.5,.75-18.78,3.53-26.37,9.46s-13.36,14.49-20.67,21.13c-15.93,14.45-38.21,17.21-58.79,18.64-23.11,1.6-46.11,3.31-69.06,6.55-47.66,6.73-94.66,18.14-140.1,34.03-9.69,3.39-20.1,6.38-29.08,11.45-7.44,4.21-11.93,10.44-13.09,18.97-1.23,9.05-.51,18.75,.35,27.81,.79,8.41,2.2,16.82,4.8,24.86,4.43,13.69,12.64,25.88,26.38,31.37l-.33-1.26c-2.79,3.6-5.58,7.21-8.37,10.81-.93,1.2-2.84,4.88-4.18,5.41-2.19,.85-4.75-2.1-6.43-3.51-6.16-5.18-11.51-11.3-15.91-18.04-8.77-13.47-13.41-29.06-13.71-45.1-.16-8.58-.05-23.35-9.46-27.62-5.72-2.59-11.59,.78-16.7,3.24-8.61,4.14-17.15,8.44-25.6,12.89-8.46,4.46-16.84,9.07-25.13,13.83-3.9,2.24-7.79,4.52-11.65,6.83-1.89,1.13-3.78,2.59-5.78,3.49-1.24,.56-1.42,1.22-2.62,.5-.64-.38-1.95-3.9-2.29-4.59-.98-1.97-2.36-4.04-3.06-6.12-.97-2.93,.16-3.16,2.73-4.63,4.28-2.45,8.55-4.9,12.83-7.35,8.55-4.9,17.1-9.8,25.65-14.7,8.55-4.9,17.1-9.8,25.65-14.7,6.71-3.85,14.05-7.34,19.86-12.53,12.68-11.32,8.41-29.82,7.16-44.8-3.63-43.32-9.16-86.47-16.47-129.33-.09-.5-.72-.66-1.1-.45-2.48,1.34-4.96,2.69-7.44,4.03-1.59,.86-5.44,3.87-7.12,2.7-.41-.29-1.13-2.55-1.41-3.2-.7-1.6-1.41-3.2-2.11-4.8-.77-1.75-3.6-5.74-2.78-7.58,.34-.76,3.01-2.3,3.72-3.02,1.12-1.12,2.12-2.38,3.02-3.68,2.05-2.99,3.48-6.38,4.59-9.82,2.69-8.35,3.4-17.25,4.48-25.9,1.46-11.67,2.93-23.34,4.39-35s2.95-23.25,4.37-34.88c1.25-10.22,2.27-20.93-1.38-30.8-3.12-8.45-9.1-15.45-14.88-22.2-6.79-7.93-13.88-15.62-21.24-23.02-16.21-16.31-33.75-31.24-52.38-44.73-.78-.57-1.53,.73-.76,1.3,28.19,20.41,54.01,44.25,76.29,71.02,5.96,7.16,11.43,14.8,13.21,24.13s.28,19.15-.9,28.55c-2.41,19.25-4.83,38.51-7.24,57.76-1.99,15.84-1.48,40.13-17.07,49.62-.38,.23-.44,.65-.27,1.03,2.58,5.86,5.17,11.72,7.75,17.59,.17,.38,.7,.44,1.03,.27,4.96-2.69,9.93-5.38,14.89-8.07l-1.1-.45c6.22,36.44,11.15,73.1,14.7,109.9,.89,9.22,1.7,18.44,2.42,27.68,.63,8.02,2.05,16.87-.43,24.71-2.7,8.52-10.32,13.34-17.66,17.58-7.73,4.46-15.48,8.88-23.23,13.31-18.11,10.38-36.21,20.76-54.32,31.13-.37,.21-.45,.67-.27,1.03,2.55,5.1,5.09,10.2,7.64,15.31,.18,.36,.7,.47,1.03,.27,13.67-8.39,27.57-16.38,41.72-23.93,6.94-3.71,13.94-7.31,21-10.8,3.52-1.75,7.06-3.47,10.61-5.16,3.79-1.8,8.1-3.9,12.35-2.36,10.45,3.78,8.96,21.06,9.35,29.78,.55,12.16,3.86,24.15,9.41,34.98,6.37,12.41,15.68,23.06,27.17,30.97,.24,.17,.72,.13,.91-.12,4.53-5.86,9.06-11.71,13.6-17.57,.36-.47,.23-1.03-.33-1.26-26.53-10.59-30.49-44.93-30.86-69.73-.13-8.42-.47-17.97,5.39-24.74,5.38-6.23,13.79-8.94,21.26-11.73,17.38-6.5,35-12.33,52.81-17.5,35.52-10.3,71.83-17.93,108.5-22.77,17.91-2.36,35.89-4.01,53.92-5.1,15.06-.91,30.46-1.75,44.91-6.47,6.72-2.2,13.18-5.27,18.88-9.49s10.59-9.98,15.47-15.41c5.74-6.39,11.95-12.12,20.11-15.21s16.49-3.63,24.88-3.32c15.39,.58,31.05,3.51,46.1,6.7,14.37,3.04,28.75,7.21,41.64,14.41,13.56,7.57,24.63,18.51,31.54,32.5,7.64,15.48,10.36,32.99,11.3,50.07,1.82,33.3-4.08,66.76-15.9,97.88-23.6,62.13-70.5,112.22-127.13,145.98-13.64,8.13-27.82,15.35-42.38,21.68-15.3,6.64-31.77,11.1-46.41,19.15-13.37,7.35-23.05,18.8-31.53,31.25-8.98,13.19-17.23,26.69-27.52,38.95-19.95,23.79-44.45,43.7-71.81,58.37-13.67,7.33-28.05,13.35-42.9,17.86-8.11,2.47-16.74,5.2-25.27,5.41-4.33,.11-8.88-.45-12.85-2.28-3.49-1.61-6.01-4.37-8.97-6.71-19.53-15.51-49.03-14.56-72.52-13.76-16.13,.55-32.23,1.85-48.34,2.77-18.28,1.04-36.59,1.31-54.89,1.82-38.85,1.09-77.7,2.31-116.54,3.51-18.42,.57-36.9,1.61-55.32,1.62-12.6,0-27.71-1.15-37.51-10.07-6.3-5.74-8.22-13.76-8.13-22.05,.1-9.22,1.07-18.48,1.68-27.68,.64-9.73,1.27-19.47,1.91-29.2,.56-8.6-.79-21,7.61-26.24,6.47-4.03,15.03-3.14,22.29-2.78,9.61,.48,19.22,.96,28.83,1.44,19.22,.96,38.43,1.92,57.65,2.88,18.93,.95,37.85,1.89,56.78,2.84,.25,.01,.54-.15,.65-.37,3.01-6.01,3.72-12.41,2.09-18.93-.08-.33-.4-.54-.72-.55-39.22-1-78.45-2-117.67-3-9.66-.25-19.32-.49-28.98-.74l-14.05-.36c-4.58-.12-9.67,.31-14.16-.8-5.97-1.48-7.87-6.17-8.6-11.76-.66-5.09-1.11-10.21-1.65-15.31-1.03-9.62-2.07-19.23-3.1-28.85-2.1-19.53-4.2-39.05-6.3-58.58-1.03-9.62-2.07-19.23-3.1-28.85-.95-8.8-2.21-17.75-1.43-26.61,1.68-19.1,15.39-31.45,28.43-43.94,14.07-13.47,28.13-26.93,42.2-40.4,7.41-7.09,14.93-14.08,22.19-21.32,5.83-5.81,11.43-12.16,14.67-19.83,4.77-11.29,3.01-27.07-8.91-33.14l-.18,1.37c14.34-4.55,29.03-16.54,35.98-30.02,.97-1.89,3.13-6.24,0-7.3-1.44-.49-3.65,.46-4.84,1.2-1.75,1.09-2.9,3.07-4.33,4.57-2.29,2.4-4.81,4.56-7.52,6.45-10.49,7.33-23.57,9.47-35.15,3.4-10.92-5.72-19.24-15.15-26.7-24.75-15.99-20.55-31.74-40.75-50.5-58.92-5.52-5.34-11.19-10.53-17.01-15.55-.87-.75-3.93-2.55-4.23-3.6-.49-1.69,1.92-3.32,2.95-4.43,2.78-2.98,5.56-5.97,8.34-8.95,11.31-12.15,22.63-24.31,33.94-36.46,.49-.53,.01-1.49-.73-1.26l-.56,.18,.73,1.26c18.76-19.54,37.99-38.64,57.7-57.23,9.84-9.29,19.81-18.45,29.88-27.49,2.39-2.14,4.86-5.04,7.57-6.75,1.42-.9,1.49-1.53,3.18-.62,1.27,.67,2.42,2.18,3.53,3.11,4.66,3.9,9.67,7.3,14.95,10.29,.38,.22,.78,.06,1.03-.27,2.65-3.53,5.29-7.05,7.94-10.58,.18-.24,.11-.72-.12-.91-2.63-2.21-5.27-4.43-7.9-6.64-1.32-1.11-2.63-2.21-3.95-3.32-.83-.69-3.56-2.23-3.95-3.32-.97-2.73,3.3-6.37,5.06-8.37,1.99-2.25,4.08-4.41,6.22-6.52,9.66-9.58,19.5-18.98,29.14-28.59,19.63-19.57,39.05-39.36,59-58.62,.7-.67-.37-1.73-1.06-1.06h0Z"/><path class="cls-9" d="M527.89-113.26c.28-7.69,2.54-14.78,6.76-21.22,.14-.22,.13-.54,0-.76-1.69-2.82-4.94-3.63-7.99-2.49-4.69,1.75-6.21,7.44-7.77,11.65-4.84,13.06-10.96,25.61-18.14,37.54-14.31,23.76-32.73,44.91-53.69,63.03-21.89,18.94-46.48,34.58-72.3,47.58-12.88,6.48-26.15,12-39.35,17.77-12.37,5.41-24.62,11.48-34.9,20.36-11.55,9.99-20.06,22.89-27.97,35.81-9.28,15.15-18.39,30.41-27.57,45.61-.28,.46,.02,.92,.45,1.1l.38,.16-.33-1.26c-19.01,17.68-40.62,32.43-64.09,43.55-11.98,5.67-24.4,10.39-37.13,14.07-11.89,3.44-24.58,5.03-35.91,10.17-8.93,4.05-14.76,9.48-14.73,19.65,.02,5.54,.97,11.04,1.1,16.58,.12,5.11,.12,10.19,.95,15.25,.75,4.58,2.22,10.83,7.01,12.87,4.06,1.74,8.69-.46,12.19-2.51,11.68-6.84,20.47-17.75,32.22-24.48,2.99-1.71,5.86-2.6,9.25-3.16,7.74-1.28,15.55-2.02,23.38-2.47,14.44-.82,28.91-.65,43.37-.96,29.15-.63,58.57-2.54,87.52-6.08,28.08-3.43,55.58-9.42,82.23-18.97,26.3-9.43,51.58-21.4,76.89-33.17,26.49-12.32,53.17-24.25,80.04-35.74,53.72-22.96,108.18-44.18,163.26-63.63,27.56-9.73,55.27-19.02,83.12-27.85,13.92-4.42,27.88-8.72,41.88-12.91,13.18-3.95,26.61-7.32,39.66-11.65,4.66-1.55,9.28-3.53,12.98-6.84,4.15-3.71,6.3-8.81,8.06-13.97,4.18-12.28,8.94-24.17,15.29-35.51,12.39-22.14,29.24-41.52,49.4-56.92,8.32-6.36,17.59-13.1,19.64-24.07,1.93-10.33-.8-22.22-3.21-32.3-5-20.88-14.31-40.44-25.12-58.89-22.36-38.15-51.43-72.39-69.64-112.94-4.59-10.21-8.35-20.76-11.1-31.62-.21-.83-1.47-.64-1.48,.2-.58,47.32,2.25,94.66,8.53,141.56,3.07,22.93,6.97,45.75,11.68,68.41,1.65,7.93,2.7,16.01,.76,24.01-2.08,8.59-9.24,15.36-18.12,9.48-3.9-2.59-6.69-6.56-9.56-10.17-3.61-4.55-7.38-8.97-11.31-13.24-7.14-7.75-14.79-15.01-22.91-21.73-13.48-11.16-31.7-24.61-50.28-18.84-15,4.66-22.85,19.99-28.12,33.62-8.13,21.03-14.82,42.71-22.14,64.04-7.73,22.51-15.46,45.02-23.18,67.53-6.17,17.97-13.85,46.07-38.92,39.74-18.84-4.76-32.39-23.69-39.36-40.79-6.78-16.62-8.83-35.04-6.66-52.82,1.09-8.91,3.27-17.7,6.5-26.08,2.63-6.82,8.51-15.68,2.77-22.5-2.31-2.74-5.67-4.23-8.89-5.6-5.41-2.31-10.85-4.55-16.27-6.82-10.73-4.5-21.45-8.99-32.18-13.49-6.99-2.93-16.48-8.56-22.57-1.13-2.37,2.9-3.51,6.72-4.76,10.19-1.89,5.25-3.79,10.49-5.75,15.71-7.75,20.64-16.49,41.15-28.94,59.45-11,16.18-25.12,30.68-42.3,40.28-4.14,2.31-8.44,4.33-12.89,5.98-4.19,1.55-18.73,6.61-16.03-2.75,2.49-8.66,14.15-12.25,20.95-16.59,29.4-18.75,51.41-48.61,61.38-81.96,2.43-8.12,4.09-16.42,5.08-24.83,.11-.96-1.39-.95-1.5,0-4.45,37.91-24.31,73.49-54.17,97.26-7.51,5.98-15.64,10.36-23.84,15.24-4.17,2.48-11.3,8.62-9.49,14.34,2.33,7.34,13.55,2.41,18.03,.75,8.67-3.21,16.81-7.77,24.25-13.24,33.67-24.73,50.39-64.48,64.24-102.5,1.75-4.81,3.07-10.13,5.68-14.55,4.63-7.87,12.42-4.31,19.02-1.55,11.26,4.72,22.53,9.44,33.79,14.16,5.36,2.25,10.73,4.49,16.09,6.74,6.78,2.85,13.64,6.3,11.59,15.05-1.07,4.55-3.54,8.78-5.18,13.16s-3.01,8.98-4.07,13.6c-7.55,32.92-.34,72.12,25.49,95.55,12.03,10.91,31.13,18.04,44.21,4.71,5.87-5.99,9.11-14.07,11.86-21.84,4.02-11.34,7.83-22.76,11.73-34.14,8.01-23.34,16.03-46.69,24.04-70.03,3.89-11.33,7.7-22.7,11.68-34,3-8.52,6.41-17.1,11.62-24.55,5.79-8.27,14.12-14.54,24.5-15.12,11.3-.62,22.05,5.06,31.06,11.32,18.19,12.64,33.52,28.94,47.29,46.14,4.32,5.39,10.2,11.49,17.82,9.73,5.35-1.23,8.3-6.13,9.77-11.07,1.93-6.52,1.86-13.71,.8-20.37-1.82-11.35-4.56-22.58-6.56-33.91-8.5-47.94-13.36-96.52-14.55-145.19-.3-12.12-.36-24.24-.21-36.35l-1.48,.2c10.53,41.61,36.15,76.79,59.76,111.84,12.01,17.83,23.79,35.94,33.03,55.39,4.62,9.73,8.57,19.78,11.49,30.16s5.9,22.7,5.2,33.86c-.88,14.01-12.22,21.22-22.26,29.11-9.34,7.34-17.93,15.6-25.66,24.62-15.01,17.5-26.77,37.76-34.47,59.5-2.38,6.71-3.96,14.12-9.08,19.39-4.35,4.48-10.59,6.59-16.43,8.33-13.22,3.94-26.51,7.66-39.72,11.63-26.9,8.09-53.68,16.61-80.32,25.53-53.31,17.86-106.06,37.38-158.16,58.51-51.78,21-102.44,44.3-153.27,67.46-25.49,11.61-51.44,22.52-78.55,29.74s-56.07,10.85-84.51,13.01c-28.49,2.16-56.9,2.84-85.44,3.48-13.47,.3-27.5,.6-40.72,3.5-5.3,1.16-9.88,4.44-14.13,7.67-5.34,4.06-10.34,8.55-15.56,12.76-4.51,3.64-9.7,8.11-15.48,9.52-6.41,1.56-9.31-3.81-10.6-9.28-1.19-5.05-1.36-10.31-1.42-15.47-.06-5.5-.77-10.93-1.05-16.42s.22-10.93,4.41-14.81c5.17-4.79,12.45-7.37,19.09-9.28,11.92-3.43,24.06-5.72,35.84-9.68,23.01-7.72,44.89-18.81,64.74-32.77,9.59-6.74,18.68-14.16,27.27-22.15,.46-.43,.16-1.05-.33-1.26l-.38-.16,.45,1.1c8.27-13.69,16.53-27.38,24.8-41.06,7.41-12.25,14.99-24.6,25.04-34.9,20.24-20.74,49.86-28.55,75.24-40.99,49.34-24.18,94.61-58.32,125.2-104.52,8.16-12.32,15.18-25.38,20.83-39.04,1.39-3.36,2.6-6.78,3.91-10.17,.86-2.23,1.79-4.69,3.52-6.42,1.15-1.15,2.59-1.92,4.27-2.01,1.41-.07,3.5,1.09,3.44,2.77-.05,1.43-2.24,4.04-2.83,5.41-.63,1.47-1.18,2.97-1.63,4.5-1.04,3.52-1.53,7.12-1.67,10.78-.04,.97,1.47,.97,1.5,0h0Z"/><path class="cls-9" d="M72.86,197.83c-4.42-4.48-11.22-1.68-15.14,2.01-3.96,3.74-5.98,9.49-3.86,14.71,2.24,5.52,8.76,7.49,14.29,6.91s11.16-4.72,12.6-10.13c1.91-7.17-4.86-12.02-10.35-14.84-.86-.44-1.62,.86-.76,1.3,4.29,2.2,9.49,5.28,9.89,10.67,.37,5-4.55,9.61-8.99,11s-11.35,.55-14.29-3.59c-2.75-3.88-2.06-9.08,.6-12.79,3.02-4.21,10.38-8.78,14.93-4.17,.68,.69,1.74-.37,1.06-1.06h0Z"/><path class="cls-9" d="M-335.69,161.58c8.81,31.31,18.9,62.26,30.26,92.74,1.39,3.73,2.76,7.47,4.23,11.17,.99,2.49,2.21,5.1,4.73,6.35,2.73,1.35,6.07,.77,8.97,.56,4.26-.3,8.52-.6,12.78-.9,16.51-1.17,33.02-2.37,49.52-3.68,33.11-2.62,66.18-5.72,99.14-9.81,32.78-4.06,65.5-8.76,98.45-11.31,16.52-1.28,33.09-2.01,49.66-1.88,8.23,.06,16.45,.32,24.67,.78,3.93,.22,7.9,.7,11.83,.7,2.9,0,5.89-.52,8.1-2.53,1.87-1.7,2.8-4.04,2.34-6.54-.06-.34-.41-.53-.72-.55-9.86-.78-18.86-7.22-22.88-16.25s-2.53-21.04,3.88-29.05c.37-.47,.22-1.03-.33-1.26-11.21-4.51-23.26-6.05-35.27-6.35-12.82-.32-25.67,.47-38.48,1-27.06,1.12-54.11,2.48-81.17,3.71-26.91,1.22-53.84,2.32-80.77,2.92-27.05,.61-54.12,.72-81.17-.03-6.5-.18-13-.35-19.49-.72-6.3-.36-12.64-1.07-18.64-3.08-10.02-3.37-19.88-10.18-25.51-19.24-1.39-2.23-2.47-4.59-3.25-7.1-.29-.92-1.74-.53-1.45,.4,2.97,9.6,10.48,17.06,18.89,22.21,4.67,2.86,9.74,5.08,15.07,6.36,5.82,1.4,11.83,1.83,17.79,2.1,27.34,1.23,54.74,1.31,82.09,.9,27.47-.41,54.93-1.4,82.38-2.59,27.46-1.19,54.92-2.58,82.38-3.79,13.33-.59,26.67-1.25,40.01-1.54,12.48-.27,25.15,.08,37.29,3.31,3.03,.81,6,1.81,8.91,2.98l-.33-1.26c-6.73,8.42-8.57,20.35-4.35,30.32,4.15,9.81,13.82,16.71,24.41,17.55l-.72-.55c.83,4.48-3.88,6.86-7.61,7.13s-7.54-.33-11.24-.55c-7.95-.47-15.91-.76-23.87-.86-15.91-.21-31.82,.37-47.69,1.5-31.77,2.26-63.33,6.63-94.91,10.62-31.61,4-63.3,7.22-95.06,9.85-15.96,1.32-31.94,2.52-47.92,3.68-7.99,.58-15.98,1.14-23.97,1.71-3.33,.24-7.97,1.34-11.09-.23s-4.24-6.09-5.43-9.22c-11.1-29.18-21.04-58.79-29.78-88.76-1.1-3.76-2.18-7.53-3.24-11.31-.26-.93-1.71-.53-1.45,.4h0Z"/><path class="cls-9" d="M-91.31-103.26c0,30.43-1.54,60.85-4.63,91.12-.78,7.66-1.66,15.31-2.64,22.94-.88,6.82-1.49,13.83-3.09,20.53-.66,2.78-1.6,5.54-3.21,7.92s-3.96,3.93-6.6,5.15c-2.24,1.03-4.65,2-6.24,3.97-1.48,1.84-1.85,4.21-1.2,6.46,1.72,5.91,7.95,7.69,13.42,8.09,7.37,.54,14.79,.63,22.17,.93,15.29,.62,30.57,1.24,45.86,1.85,7.49,.3,14.99,.55,22.49,.93,6.64,.34,13.33,.92,19.76,2.71s12.29,4.98,17.25,9.52,8.7,9.59,12.4,14.89c8.09,11.62,15.5,23.72,22.19,36.2,3.36,6.25,6.53,12.61,9.52,19.04,2.64,5.68,4.73,11.88,8.26,17.09,1.52,2.25,3.38,4.3,5.7,5.75,2.63,1.65,5.69,2.35,8.75,2.69,7.31,.82,14.86,.58,22.18,.04,3.4-.25,6.86-.51,10.21-1.14,2.52-.47,5.12-1.33,6.97-3.18,4.22-4.23,2.09-10.56-.4-15.09-1.7-3.08-3.76-5.99-5.67-8.94s-4.01-6.15-6.02-9.22c-4.07-6.22-8.17-12.42-12.29-18.61-8.24-12.38-16.56-24.69-24.97-36.95C62,56.91,44.83,32.63,27.31,8.61,18.55-3.4,9.71-15.34,.77-27.23c-2.21-2.94-4.42-5.87-6.63-8.79-1.92-2.53-3.73-5.46-6.17-7.53-4.51-3.83-10.28-2.62-15.42-.9-5.6,1.87-11.1,4.17-17.09,2.76-5.65-1.33-10.39-5.12-14.26-9.31-4.18-4.52-7.45-9.72-10.59-14.98-3.77-6.32-7.32-12.77-10.64-19.33s-6.13-12.6-8.9-19.05c-.38-.89-1.67-.12-1.3,.76,5.67,13.2,12.19,26.04,19.54,38.38,5.59,9.38,12.34,19.97,22.99,24.12,5.2,2.02,10.42,1.51,15.64-.18s11.57-5.04,16.96-2.49c3.07,1.46,4.99,4.62,6.97,7.23,2.22,2.93,4.43,5.86,6.64,8.79C2.92-21.89,7.32-16.01,11.69-10.11,29.08,13.34,46.13,37.04,62.85,60.97c16.72,23.93,33.1,48.1,49.14,72.49,4.03,6.14,8.05,12.29,12.04,18.45,2.92,4.51,7.93,12.12,3.24,17.12-1.95,2.08-4.95,2.73-7.66,3.14-3.65,.55-7.36,.84-11.05,1.05-3.72,.21-7.44,.29-11.17,.23-3.5-.06-7.09-.08-10.54-.72s-6.31-1.97-8.71-4.38c-2.01-2.02-3.49-4.5-4.78-7.03-2.97-5.87-5.39-12.03-8.25-17.96-6.06-12.55-12.82-24.77-20.26-36.56-3.6-5.71-7.33-11.36-11.29-16.83-3.64-5.01-7.59-9.87-12.39-13.83-10.13-8.36-22.95-10.32-35.69-11-29.68-1.58-59.41-2.26-89.1-3.63-3.27-.15-6.72-.4-9.64-2.01-2.49-1.37-4.59-4.11-4.49-7.06s2.52-4.61,4.91-5.78,4.74-2.04,6.72-3.76c4.01-3.49,5.56-8.95,6.48-13.99,1.25-6.89,2.03-13.89,2.9-20.84,3.71-29.65,5.94-59.48,6.66-89.35,.18-7.33,.26-14.66,.26-21.99,0-.97-1.5-.97-1.5,0h0Z"/><g><rect class="cls-1" x="105.6" y="203.72" width="7.17" height="6.09" transform="translate(274.27 372.37) rotate(162.93)"/><rect class="cls-1" x="98.32" y="205.96" width="7.17" height="6.09" transform="translate(260.68 378.88) rotate(162.93)"/></g><text class="cls-11" transform="translate(100.82 211.14) rotate(-17.07)"><tspan x="0" y="0" xml:space="preserve">7   8</tspan></text><g><rect class="cls-1" x="120.87" y="198.96" width="7.17" height="6.09" transform="translate(302.73 358.56) rotate(162.93)"/><rect class="cls-1" x="113.58" y="201.19" width="7.17" height="6.09" transform="translate(289.14 365.08) rotate(162.93)"/></g><text class="cls-17" transform="translate(114.89 206.74) rotate(-17.07)"><tspan class="cls-10" x="0" y="0" xml:space="preserve"> 9  </tspan><tspan class="cls-12" x="7.24" y="0"> </tspan><tspan class="cls-10" x="7.59" y="0">10</tspan></text><g><rect class="cls-1" x="211.28" y="158.95" width="7.17" height="6.09" transform="translate(483.87 155.08) rotate(141.51)"/><rect class="cls-1" x="205.32" y="163.7" width="7.17" height="6.09" transform="translate(476.19 167.25) rotate(141.51)"/></g><text class="cls-16" transform="translate(207.72 169.8) rotate(-38.49)"><tspan x="0" y="0">21 22</tspan></text><g><rect class="cls-1" x="222.8" y="149.21" width="7.17" height="6.09" transform="translate(498.35 130.54) rotate(141.51)"/><rect class="cls-1" x="216.84" y="153.95" width="7.17" height="6.09" transform="translate(490.67 142.7) rotate(141.51)"/></g><text class="cls-16" transform="translate(219.24 160.06) rotate(-38.49)"><tspan x="0" y="0">23 24</tspan></text><g><rect class="cls-1" x="199.08" y="168.81" width="7.17" height="6.09" transform="translate(467.72 190.7) rotate(143.77)"/><rect class="cls-1" x="192.94" y="173.32" width="7.17" height="6.09" transform="translate(459.28 202.47) rotate(143.77)"/></g><text class="cls-14" transform="translate(195.6 179.53) rotate(-36.23)"><tspan x="0" y="0">19 20</tspan></text><g><rect class="cls-1" x="90.29" y="221.14" width="7.17" height="6.09" transform="translate(-124.21 331.46) rotate(-93.47)"/><rect class="cls-1" x="89.83" y="213.53" width="7.17" height="6.09" transform="translate(-117.11 322.93) rotate(-93.47)"/></g><rect class="cls-1" x="90.33" y="237.69" width="7.17" height="6.09" transform="translate(-140.69 349.06) rotate(-93.47)"/><rect class="cls-1" x="89.87" y="230.09" width="7.17" height="6.09" transform="translate(-133.59 340.53) rotate(-93.47)"/><g><rect class="cls-1" x="91.19" y="254.62" width="7.17" height="6.09" transform="translate(-156.67 367.87) rotate(-93.47)"/><rect class="cls-1" x="90.73" y="247.01" width="7.17" height="6.09" transform="translate(-149.57 359.34) rotate(-93.47)"/></g><text class="cls-13" transform="translate(92.15 217.99)"><tspan x="0" y="0">6</tspan><tspan x="0" y="7.51">5</tspan></text><text class="cls-13" transform="translate(92.5 235.52)"><tspan x="0" y="0">4</tspan><tspan x="0" y="7.51">3</tspan></text><path class="cls-8" d="M260.96,126.07c-12.83,25.28-36.26,43.82-61.58,56.59-25.32,12.77-52.82,20.45-79.74,29.37-4.33,1.43-8.82,3.01-12.01,6.27-4.02,4.12-5.23,10.18-5.72,15.92-.77,9.01-.2,18.13,1.69,26.97,.31,1.43,.68,2.92,1.64,4.02,1.73,1.97,4.91,2.05,7.28,.93,2.37-1.13,4.15-3.18,5.91-5.13,9.81-10.87,21.71-20.38,35.74-24.57,10.18-3.04,20.97-3.14,31.59-3.28,34.69-.47,69.36-1.61,104.01-3.44,17.17-.91,34.42-1.99,51.19-5.78,3.71-.84,7.9-2.24,9.27-5.79,1.11-2.87-.08-6.06-1.26-8.89-10.81-26.03-21.63-52.06-32.44-78.08-3.6-8.66-7.21-17.34-11.72-25.56-2.88-5.25-7-10.85-12.97-11.31-4.43-.34-8.51,2.33-11.89,5.22-8.32,7.12-14.84,16.33-18.78,26.55"/><text class="cls-13" transform="translate(93.56 251.81)"><tspan x="0" y="0">2</tspan><tspan x="0" y="7.51">1</tspan></text><rect class="cls-6" x="233.81" y="136.26" width="38.81" height="25.04"/><text class="cls-5" transform="translate(240.59 147.31)"><tspan x="0" y="0">물품배부</tspan><tspan x="-3.25" y="9.01">쓰레기수거</tspan></text><text class="cls-3" transform="translate(174.39 207.69)"><tspan x="0" y="0">잔디광장</tspan></text><g><rect class="cls-1" x="141.65" y="192.31" width="7.17" height="6.09" transform="translate(343.14 337.08) rotate(162.24)"/><rect class="cls-1" x="134.39" y="194.63" width="7.17" height="6.09" transform="translate(329.68 343.84) rotate(162.24)"/></g><text class="cls-15" transform="translate(135.75 200.13) rotate(-17.76)"><tspan x="0" y="0">11 12</tspan></text><g><rect class="cls-1" x="155.87" y="187.27" width="7.17" height="6.09" transform="translate(369.37 322.91) rotate(162.24)"/><rect class="cls-1" x="148.62" y="189.59" width="7.17" height="6.09" transform="translate(355.91 329.66) rotate(162.24)"/></g><text class="cls-15" transform="translate(149.97 195.09) rotate(-17.76)"><tspan x="0" y="0">13 14</tspan></text><g><rect class="cls-1" x="170.57" y="182.06" width="7.17" height="6.09" transform="translate(396.48 308.26) rotate(162.24)"/><rect class="cls-1" x="163.31" y="184.39" width="7.17" height="6.09" transform="translate(383.02 315.01) rotate(162.24)"/></g><text class="cls-15" transform="translate(164.67 189.89) rotate(-17.76)"><tspan x="0" y="0">15 16 </tspan></text><g><rect class="cls-1" x="184.79" y="177.02" width="7.17" height="6.09" transform="translate(422.71 294.09) rotate(162.24)"/><rect class="cls-1" x="177.54" y="179.35" width="7.17" height="6.09" transform="translate(409.26 300.84) rotate(162.24)"/></g><text class="cls-15" transform="translate(178.89 184.85) rotate(-17.76)"><tspan x="0" y="0">17 18</tspan></text><rect class="cls-7" x="-5.32" y="116.23" width="66.36" height="28.8"/><text class="cls-4" transform="translate(16.38 127.57)"><tspan x="0" y="0">이화 아트</tspan><tspan x="1.09" y="10.76">파빌리온</tspan></text><rect class="cls-7" x="-107.4" y="71.54" width="110.18" height="83.88"/><path class="cls-7" d="M368.95-331.31c-20.75,37.15-48.72,69.01-75.92,101.1C216.66-140.09,144.68-45.75,77.48,52.31c15.86,29.74,34.36,57.89,55.17,83.96C202.5,52.1,291.9-10.73,368.74-87.69c37.64-37.7,72.2-78.72,106.7-119.68-30.63-45.3-66.19-86.82-105.75-123.46-.99,.91-1.98,1.82-2.97,2.74"/><text class="cls-2" transform="translate(118.02 55.25)"><tspan x="0" y="0">ECC</tspan></text></svg>