<?xml version="1.0" encoding="UTF-8"?><svg id="_레이어_9" xmlns="http://www.w3.org/2000/svg" viewBox="0 0 300 300"><defs><style>.cls-1{letter-spacing:0em;}.cls-1,.cls-2{font-size:.13px;}.cls-3{font-size:15.27px;}.cls-3,.cls-4,.cls-5,.cls-6{fill:#0e0e0d;font-family:PretendardVariable-Medium, 'Pretendard Variable';font-variation-settings:'wght' 500;}.cls-7{fill:#ef0;stroke:#000;stroke-miterlimit:10;stroke-width:.63px;}.cls-4{font-size:34.04px;}.cls-8{fill:#00df04;}.cls-9,.cls-10{fill:#004625;}.cls-11{fill:#e9eaea;}.cls-12{fill:#f5f5ee;}.cls-13{fill:#ffac00;}.cls-14{fill:#a5a5a5;}.cls-5{font-size:9.46px;}.cls-15{letter-spacing:0em;}.cls-15,.cls-16,.cls-17{font-size:5.01px;}.cls-10,.cls-18,.cls-19,.cls-20,.cls-17,.cls-21,.cls-22,.cls-23,.cls-24,.cls-25,.cls-26,.cls-27,.cls-28,.cls-29,.cls-30{font-family:NanumGothicExtraBold, NanumGothic;}.cls-10,.cls-20{font-size:5.01px;}.cls-6{font-size:15.02px;}.cls-16{letter-spacing:0em;}.cls-18{font-size:5.01px;}.cls-19{font-size:5.01px;}.cls-21{font-size:5.01px;}.cls-22{font-size:5.01px;}.cls-23{font-size:5.01px;}.cls-24{font-size:5.01px;}.cls-25{font-size:5.01px;}.cls-26{font-size:5.01px;}.cls-27{font-size:5.01px;}.cls-28{font-size:5.01px;}.cls-29{font-size:5.01px;}</style></defs><path class="cls-14" d="M15.36-202.07c-1.87-.65-3.67-1.44-5.47-2.26-1.19-.54-2.41-1.14-3.71-1.38-2.48-.44-4.53,.98-6.14,2.75-2.48,2.72-3.76,6.29-4.56,9.83-.93,4.11-1.42,8.34-1.96,12.52-2.52,19.26-3.48,38.71-3.2,58.13C-9.13-83.72-3.76-45.18,3.4-7.14,7,11.97,11.06,30.98,15.26,49.96c1.08,4.87,2.16,9.75,3.25,14.62,.82,3.66,1.37,7.67,3.34,10.93,4.43,7.32,13.51,4.39,20,2.16,8.76-3.01,17.19-6.89,25.62-10.71,8.38-3.79,16.83-7.39,25.48-10.54,17.18-6.25,34.88-11.02,52.79-14.65,36.02-7.31,72.77-10.1,109.43-11.73,9.09-.4,18.23-.44,27.3-1.12,7.66-.57,15.81-2.8,19.87-9.94,1.69-2.98,2.28-6.48,1.33-9.8-1-3.49-3.41-6.37-5.96-8.86-5.97-5.85-12.49-11.52-19.45-16.17-7.44-4.99-15.5-7.98-24.37-9.19-9.42-1.29-19.02-1.51-28.5-2.1s-18.6-1.02-27.88-1.78c-6.93-.57-13.9-1.51-20.53-3.69s-12.72-5.66-16.83-11.27c-5.27-7.19-6-16.39-6.74-24.97-1.66-19.3-1.88-39.12,.6-58.36,.63-4.9,1.54-9.77,2.89-14.53,1.16-4.08,2.67-8.06,4.13-12.04,2.82-7.65,5.9-15.68,5.85-23.96-.02-3.64-.74-7.24-2.32-10.53-1.48-3.09-3.78-6.21-7.43-6.64-3.06-.37-5.84,1.39-8.06,3.29-2.95,2.52-5.22,5.68-7.89,8.47-12.23,12.83-31.37,13.57-47.66,10.23-9.29-1.9-18.41-4.77-27.37-7.84-8.83-3.03-17.53-6.45-26.11-10.13-8.24-3.53-16.37-7.29-24.48-11.12-.87-.41-1.63,.88-.76,1.3,16.31,7.71,32.81,15.11,49.87,21.03,8.58,2.98,17.3,5.73,26.16,7.72,8.58,1.93,17.48,3.01,26.25,1.84,7.39-.99,14.71-3.55,20.71-8.04,2.98-2.23,5.35-4.94,7.79-7.73,2.25-2.58,4.72-5.46,7.9-6.9,8.81-3.99,12.04,9.98,11.88,16.01-.21,8.34-3.49,16.37-6.33,24.09-3,8.15-5.31,16.27-6.46,24.9-1.25,9.44-1.67,19.01-1.79,28.52s.22,19.49,1.01,29.21c.67,8.13,1.2,16.85,5.25,24.14,6.6,11.89,20.53,16.04,33.15,17.74,7.84,1.06,15.77,1.34,23.66,1.83,9.67,.6,19.34,1.19,29.01,1.81,9.22,.59,18.48,1.51,26.92,5.55,7.6,3.63,14.17,9.01,20.44,14.55,5.47,4.84,14.19,11.08,12.09,19.51-2.21,8.86-11.84,11.76-19.85,12.36-8.7,.65-17.46,.69-26.17,1.07s-18.04,.86-27.04,1.44c-17.69,1.14-35.36,2.75-52.93,5.16-35.25,4.85-70.12,13.17-102.77,27.51-8.45,3.71-16.77,7.73-25.36,11.12-4.04,1.59-8.16,3.16-12.37,4.25-3.82,.99-8.46,1.47-11.46-1.65-2.73-2.85-3.3-7.3-4.13-10.99-1.04-4.68-2.09-9.35-3.12-14.03-2.05-9.29-4.08-18.58-6.04-27.88C3.19-13.95-3.64-51.67-6.63-89.8c-1.47-18.77-2.01-37.63-1.25-56.45,.38-9.51,1.1-19,2.18-28.46,.55-4.79,1.17-9.57,1.94-14.33,.6-3.73,1.38-7.6,3.38-10.86,1.4-2.28,3.74-4.99,6.7-4.26s5.75,2.51,8.65,3.52c.92,.32,1.31-1.13,.4-1.45h0Z"/><path class="cls-14" d="M-114.46-315.63c-17.88,17.25-35.33,34.93-52.89,52.51-8.59,8.6-17.21,17.16-25.92,25.64-7.81,7.6-16,14.92-22.05,24.06-.17,.26-.12,.71,.12,.91,3.73,3.13,7.46,6.27,11.19,9.4,1.32,1.11,4.51,2.91,4.71,4.63s-2.8,4.63-3.87,6.05c-1.62,2.15-2.05,3.34-4.65,2.14-1.84-.85-3.59-2.24-5.25-3.39-4.25-2.95-8.19-6.26-11.93-9.83-.31-.29-.75-.27-1.06,0-33.83,29.88-66.42,61.15-97.69,93.72-.5,.52,0,1.49,.73,1.26l.56-.18-.73-1.26c-15.48,16.63-30.97,33.26-46.45,49.89-.26,.28-.32,.79,0,1.06,16.28,13.6,31.52,28.42,45.48,44.4,7.18,8.22,13.98,16.75,20.52,25.49,5.39,7.21,10.75,14.51,17.01,21.01,11.17,11.59,25.79,20.66,42.28,15.43,7.75-2.46,14.67-7.34,20.1-13.33,.88-.98,4.88-6.03,6.98-4.33,1.13,.91-.51,3.86-.95,4.75-6.58,13.28-21.26,25.19-35.23,29.62-.58,.18-.78,1.07-.18,1.37,9.12,4.64,12.05,15.82,10.16,25.32-2.14,10.79-10.14,19.36-17.74,26.79-17.63,17.24-35.62,34.12-53.43,51.18-14.89,14.25-34.8,28.91-37.94,50.72-1.64,11.35,.31,23.01,1.53,34.3,1.32,12.24,2.63,24.48,3.95,36.72,2.76,25.65,5.52,51.29,8.28,76.94,.54,5.02,.88,10.11,1.67,15.09,.65,4.11,2,8.1,5.78,10.29,3.1,1.8,6.88,1.91,10.37,2.03,6.44,.22,12.88,.33,19.32,.49,25.76,.66,51.52,1.32,77.28,1.97,12.88,.33,25.76,.66,38.64,.99,5.85,.15,11.71,.3,17.56,.45,2.93,.07,5.85,.15,8.78,.22,1.2,.03,4.22-.41,5.27,.13,2.24,1.16,1.89,3.53,1.91,5.76,.02,2.45-.19,8.3-2.16,10.21s-6.43,.6-8.74,.49c-6.41-.32-12.81-.64-19.22-.96-12.81-.64-25.62-1.28-38.43-1.92-25.33-1.27-50.66-2.53-75.99-3.8-7.93-.4-17.39-1.43-24.4,3.23-7.8,5.18-7.11,15.56-7.65,23.81-.82,12.6-1.65,25.19-2.47,37.79-.7,10.76-3.08,22.95-.16,33.53,4.22,15.27,20.16,20.62,34.36,22.08,10,1.03,20.1,.35,30.12,.05,12.56-.38,25.12-.76,37.68-1.15,50.68-1.57,101.37-2.94,152.05-4.47,21.37-.64,42.66-2.67,64.02-3.51,18.52-.73,37.98-1.12,55.94,4.18,7.55,2.23,14.68,5.65,20.58,10.92,6.85,6.12,14.67,8.27,23.84,7.33,10.06-1.03,20.13-4.32,29.67-7.56,8.95-3.05,17.72-6.63,26.25-10.72,35.65-17.08,67.05-42.92,90.65-74.63,12.27-16.48,21.47-35.81,36.93-49.7,16.64-14.95,40.08-19.9,60.16-28.67,76.45-33.38,142.34-92.77,171.09-172.46,13.99-38.79,20.11-83.67,10.27-124.2-4.48-18.44-13.61-35.14-28.83-46.82-14.87-11.41-33.21-17.3-51.32-21.23-9.06-1.97-18.21-3.47-27.37-4.84-10.06-1.51-20.29-2.83-30.48-2.03-9.5,.75-18.78,3.53-26.37,9.46s-13.36,14.49-20.67,21.13c-15.93,14.45-38.21,17.21-58.79,18.64-23.11,1.6-46.11,3.31-69.06,6.55-47.66,6.73-94.66,18.14-140.1,34.03-9.69,3.39-20.1,6.38-29.08,11.45-7.44,4.21-11.93,10.44-13.09,18.97-1.23,9.05-.51,18.75,.35,27.81,.79,8.41,2.2,16.82,4.8,24.86,4.43,13.69,12.64,25.88,26.38,31.37l-.33-1.26c-2.79,3.6-5.58,7.21-8.37,10.81-.93,1.2-2.84,4.88-4.18,5.41-2.19,.85-4.75-2.1-6.43-3.51-6.16-5.18-11.51-11.3-15.91-18.04C4.53,183.95-.11,168.36-.41,152.32c-.16-8.58-.05-23.35-9.46-27.62-5.72-2.59-11.59,.78-16.7,3.24-8.61,4.14-17.15,8.44-25.6,12.89-8.46,4.46-16.84,9.07-25.13,13.83-3.9,2.24-7.79,4.52-11.65,6.83-1.89,1.13-3.78,2.59-5.78,3.49-1.24,.56-1.42,1.22-2.62,.5-.64-.38-1.95-3.9-2.29-4.59-.98-1.97-2.36-4.04-3.06-6.12-.97-2.93,.16-3.16,2.73-4.63,4.28-2.45,8.55-4.9,12.83-7.35,8.55-4.9,17.1-9.8,25.65-14.7,8.55-4.9,17.1-9.8,25.65-14.7,6.71-3.85,14.05-7.34,19.86-12.53,12.68-11.32,8.41-29.82,7.16-44.8C-12.46,12.73-17.98-30.43-25.3-73.28c-.09-.5-.72-.66-1.1-.45-2.48,1.34-4.96,2.69-7.44,4.03-1.59,.86-5.44,3.87-7.12,2.7-.41-.29-1.13-2.55-1.41-3.2-.7-1.6-1.41-3.2-2.11-4.8-.77-1.75-3.6-5.74-2.78-7.58,.34-.76,3.01-2.3,3.72-3.02,1.12-1.12,2.12-2.38,3.02-3.68,2.05-2.99,3.48-6.38,4.59-9.82,2.69-8.35,3.4-17.25,4.48-25.9,1.46-11.67,2.93-23.34,4.39-35s2.95-23.25,4.37-34.88c1.25-10.22,2.27-20.93-1.38-30.8-3.12-8.45-9.1-15.45-14.88-22.2-6.79-7.93-13.88-15.62-21.24-23.02-16.21-16.31-33.75-31.24-52.38-44.73-.78-.57-1.53,.73-.76,1.3,28.19,20.41,54.01,44.25,76.29,71.02,5.96,7.16,11.43,14.8,13.21,24.13s.28,19.15-.9,28.55c-2.41,19.25-4.83,38.51-7.24,57.76-1.99,15.84-1.48,40.13-17.07,49.62-.38,.23-.44,.65-.27,1.03,2.58,5.86,5.17,11.72,7.75,17.59,.17,.38,.7,.44,1.03,.27,4.96-2.69,9.93-5.38,14.89-8.07l-1.1-.45C-20.53-36.44-15.6,.22-12.04,37.02c.89,9.22,1.7,18.44,2.42,27.68,.63,8.02,2.05,16.87-.43,24.71-2.7,8.52-10.32,13.34-17.66,17.58-7.73,4.46-15.48,8.88-23.23,13.31-18.11,10.38-36.21,20.76-54.32,31.13-.37,.21-.45,.67-.27,1.03,2.55,5.1,5.09,10.2,7.64,15.31,.18,.36,.7,.47,1.03,.27,13.67-8.39,27.57-16.38,41.72-23.93,6.94-3.71,13.94-7.31,21-10.8,3.52-1.75,7.06-3.47,10.61-5.16,3.79-1.8,8.1-3.9,12.35-2.36,10.45,3.78,8.96,21.06,9.35,29.78,.55,12.16,3.86,24.15,9.41,34.98,6.37,12.41,15.68,23.06,27.17,30.97,.24,.17,.72,.13,.91-.12,4.53-5.86,9.06-11.71,13.6-17.57,.36-.47,.23-1.03-.33-1.26-26.53-10.59-30.49-44.93-30.86-69.73-.13-8.42-.47-17.97,5.39-24.74,5.38-6.23,13.79-8.94,21.26-11.73,17.38-6.5,35-12.33,52.81-17.5,35.52-10.3,71.83-17.93,108.5-22.77,17.91-2.36,35.89-4.01,53.92-5.1,15.06-.91,30.46-1.75,44.91-6.47,6.72-2.2,13.18-5.27,18.88-9.49s10.59-9.98,15.47-15.41c5.74-6.39,11.95-12.12,20.11-15.21,7.91-3,16.49-3.63,24.88-3.32,15.39,.58,31.05,3.51,46.1,6.7,14.37,3.04,28.75,7.21,41.64,14.41,13.56,7.57,24.63,18.51,31.54,32.5,7.64,15.48,10.36,32.99,11.3,50.07,1.82,33.3-4.08,66.76-15.9,97.88-23.6,62.13-70.5,112.22-127.13,145.98-13.64,8.13-27.82,15.35-42.38,21.68-15.3,6.64-31.77,11.1-46.41,19.15-13.37,7.35-23.05,18.8-31.53,31.25-8.98,13.19-17.23,26.69-27.52,38.95-19.95,23.79-44.45,43.7-71.81,58.37-13.67,7.33-28.05,13.35-42.9,17.86-8.11,2.47-16.74,5.2-25.27,5.41-4.33,.11-8.88-.45-12.85-2.28-3.49-1.61-6.01-4.37-8.97-6.71-19.53-15.51-49.03-14.56-72.52-13.76-16.13,.55-32.23,1.85-48.34,2.77-18.28,1.04-36.59,1.31-54.89,1.82-38.85,1.09-77.7,2.31-116.54,3.51-18.42,.57-36.9,1.61-55.32,1.62-12.6,0-27.71-1.15-37.51-10.07-6.3-5.74-8.22-13.76-8.13-22.05,.1-9.22,1.07-18.48,1.68-27.68,.64-9.73,1.27-19.47,1.91-29.2,.56-8.6-.79-21,7.61-26.24,6.47-4.03,15.03-3.14,22.29-2.78,9.61,.48,19.22,.96,28.83,1.44,19.22,.96,38.43,1.92,57.65,2.88,18.93,.95,37.85,1.89,56.78,2.84,.25,.01,.54-.15,.65-.37,3.01-6.01,3.72-12.41,2.09-18.93-.08-.33-.4-.54-.72-.55-39.22-1-78.45-2-117.67-3-9.66-.25-19.32-.49-28.98-.74-4.68-.12-9.37-.24-14.05-.36s-9.67,.31-14.16-.8c-5.97-1.48-7.87-6.17-8.6-11.76-.66-5.09-1.11-10.21-1.65-15.31-1.03-9.62-2.07-19.23-3.1-28.85-2.1-19.53-4.2-39.05-6.3-58.58-1.03-9.62-2.07-19.23-3.1-28.85-.95-8.8-2.21-17.75-1.43-26.61,1.68-19.1,15.39-31.45,28.43-43.94,14.07-13.47,28.13-26.93,42.2-40.4,7.41-7.09,14.93-14.08,22.19-21.32,5.83-5.81,11.43-12.16,14.67-19.83,4.77-11.29,3.01-27.07-8.91-33.14l-.18,1.37c14.34-4.55,29.03-16.54,35.98-30.02,.97-1.89,3.13-6.24,0-7.3-1.44-.49-3.65,.46-4.84,1.2-1.75,1.09-2.9,3.07-4.33,4.57-2.29,2.4-4.81,4.56-7.52,6.45-10.49,7.33-23.57,9.47-35.15,3.4-10.92-5.72-19.24-15.15-26.7-24.75-15.99-20.55-31.74-40.75-50.5-58.92-5.52-5.34-11.19-10.53-17.01-15.55-.87-.75-3.93-2.55-4.23-3.6-.49-1.69,1.92-3.32,2.95-4.43,2.78-2.98,5.56-5.97,8.34-8.95,11.31-12.15,22.63-24.31,33.94-36.46,.49-.53,.01-1.49-.73-1.26l-.56,.18,.73,1.26c18.76-19.54,37.99-38.64,57.7-57.23,9.84-9.29,19.81-18.45,29.88-27.49,2.39-2.14,4.86-5.04,7.57-6.75,1.42-.9,1.49-1.53,3.18-.62,1.27,.67,2.42,2.18,3.53,3.11,4.66,3.9,9.67,7.3,14.95,10.29,.38,.22,.78,.06,1.03-.27,2.65-3.53,5.29-7.05,7.94-10.58,.18-.24,.11-.72-.12-.91-2.63-2.21-5.27-4.43-7.9-6.64-1.32-1.11-2.63-2.21-3.95-3.32-.83-.69-3.56-2.23-3.95-3.32-.97-2.73,3.3-6.37,5.06-8.37,1.99-2.25,4.08-4.41,6.22-6.52,9.66-9.58,19.5-18.98,29.14-28.59,19.63-19.57,39.05-39.36,59-58.62,.7-.67-.37-1.73-1.06-1.06h0Z"/><path class="cls-14" d="M517.89,238.74c.28-7.69,2.54-14.78,6.76-21.22,.14-.22,.13-.54,0-.76-1.69-2.82-4.94-3.63-7.99-2.49-4.69,1.75-6.21,7.44-7.77,11.65-4.84,13.06-10.96,25.61-18.14,37.54-14.31,23.76-32.73,44.91-53.69,63.03-21.89,18.94-46.48,34.58-72.3,47.58-12.88,6.48-26.15,12-39.35,17.77-12.37,5.41-24.62,11.48-34.9,20.36-11.55,9.99-20.06,22.89-27.97,35.81-9.28,15.15-18.39,30.41-27.57,45.61-.28,.46,.02,.92,.45,1.1l.38,.16-.33-1.26c-19.01,17.68-40.62,32.43-64.09,43.55-11.98,5.67-24.4,10.39-37.13,14.07-11.89,3.44-24.58,5.03-35.91,10.17-8.93,4.05-14.76,9.48-14.73,19.65,.02,5.54,.97,11.04,1.1,16.58,.12,5.11,.12,10.19,.95,15.25,.75,4.58,2.22,10.83,7.01,12.87,4.06,1.74,8.69-.46,12.19-2.51,11.68-6.84,20.47-17.75,32.22-24.48,2.99-1.71,5.86-2.6,9.25-3.16,7.74-1.28,15.55-2.02,23.38-2.47,14.44-.82,28.91-.65,43.37-.96,29.15-.63,58.57-2.54,87.52-6.08,28.08-3.43,55.58-9.42,82.23-18.97,26.3-9.43,51.58-21.4,76.89-33.17,26.49-12.32,53.17-24.25,80.04-35.74,53.72-22.96,108.18-44.18,163.26-63.63,27.56-9.73,55.27-19.02,83.12-27.85,13.92-4.42,27.88-8.72,41.88-12.91,13.18-3.95,26.61-7.32,39.66-11.65,4.66-1.55,9.28-3.53,12.98-6.84,4.15-3.71,6.3-8.81,8.06-13.97,4.18-12.28,8.94-24.17,15.29-35.51,12.39-22.14,29.24-41.52,49.4-56.92,8.32-6.36,17.59-13.1,19.64-24.07,1.93-10.33-.8-22.22-3.21-32.3-5-20.88-14.31-40.44-25.12-58.89-22.36-38.15-51.43-72.39-69.64-112.94-4.59-10.21-8.35-20.76-11.1-31.62-.21-.83-1.47-.64-1.48,.2-.58,47.32,2.25,94.66,8.53,141.56,3.07,22.93,6.97,45.75,11.68,68.41,1.65,7.93,2.7,16.01,.76,24.01-2.08,8.59-9.24,15.36-18.12,9.48-3.9-2.59-6.69-6.56-9.56-10.17-3.61-4.55-7.38-8.97-11.31-13.24-7.14-7.75-14.79-15.01-22.91-21.73-13.48-11.16-31.7-24.61-50.28-18.84-15,4.66-22.85,19.99-28.12,33.62-8.13,21.03-14.82,42.71-22.14,64.04-7.73,22.51-15.46,45.02-23.18,67.53-6.17,17.97-13.85,46.07-38.92,39.74-18.84-4.76-32.39-23.69-39.36-40.79s-8.83-35.04-6.66-52.82c1.09-8.91,3.27-17.7,6.5-26.08,2.63-6.82,8.51-15.68,2.77-22.5-2.31-2.74-5.67-4.23-8.89-5.6-5.41-2.31-10.85-4.55-16.27-6.82-10.73-4.5-21.45-8.99-32.18-13.49-6.99-2.93-16.48-8.56-22.57-1.13-2.37,2.9-3.51,6.72-4.76,10.19-1.89,5.25-3.79,10.49-5.75,15.71-7.75,20.64-16.49,41.15-28.94,59.45-11,16.18-25.12,30.68-42.3,40.28-4.14,2.31-8.44,4.33-12.89,5.98-4.19,1.55-18.73,6.61-16.03-2.75,2.49-8.66,14.15-12.25,20.95-16.59,29.4-18.75,51.41-48.61,61.38-81.96,2.43-8.12,4.09-16.42,5.08-24.83,.11-.96-1.39-.95-1.5,0-4.45,37.91-24.31,73.49-54.17,97.26-7.51,5.98-15.64,10.36-23.84,15.24-4.17,2.48-11.3,8.62-9.49,14.34,2.33,7.34,13.55,2.41,18.03,.75,8.67-3.21,16.81-7.77,24.25-13.24,33.67-24.73,50.39-64.48,64.24-102.5,1.75-4.81,3.07-10.13,5.68-14.55,4.63-7.87,12.42-4.31,19.02-1.55,11.26,4.72,22.53,9.44,33.79,14.16,5.36,2.25,10.73,4.49,16.09,6.74,6.78,2.85,13.64,6.3,11.59,15.05-1.07,4.55-3.54,8.78-5.18,13.16s-3.01,8.98-4.07,13.6c-7.55,32.92-.34,72.12,25.49,95.55,12.03,10.91,31.13,18.04,44.21,4.71,5.87-5.99,9.11-14.07,11.86-21.84,4.02-11.34,7.83-22.76,11.73-34.14,8.01-23.34,16.03-46.69,24.04-70.03,3.89-11.33,7.7-22.7,11.68-34,3-8.52,6.41-17.1,11.62-24.55,5.79-8.27,14.12-14.54,24.5-15.12,11.3-.62,22.05,5.06,31.06,11.32,18.19,12.64,33.52,28.94,47.29,46.14,4.32,5.39,10.2,11.49,17.82,9.73,5.35-1.23,8.3-6.13,9.77-11.07,1.93-6.52,1.86-13.71,.8-20.37-1.82-11.35-4.56-22.58-6.56-33.91-8.5-47.94-13.36-96.52-14.55-145.19-.3-12.12-.36-24.24-.21-36.35l-1.48,.2c10.53,41.61,36.15,76.79,59.76,111.84,12.01,17.83,23.79,35.94,33.03,55.39,4.62,9.73,8.57,19.78,11.49,30.16s5.9,22.7,5.2,33.86c-.88,14.01-12.22,21.22-22.26,29.11-9.34,7.34-17.93,15.6-25.66,24.62-15.01,17.5-26.77,37.76-34.47,59.5-2.38,6.71-3.96,14.12-9.08,19.39-4.35,4.48-10.59,6.59-16.43,8.33-13.22,3.94-26.51,7.66-39.72,11.63-26.9,8.09-53.68,16.61-80.32,25.53-53.31,17.86-106.06,37.38-158.16,58.51-51.78,21-102.44,44.3-153.27,67.46-25.49,11.61-51.44,22.52-78.55,29.74s-56.07,10.85-84.51,13.01c-28.49,2.16-56.9,2.84-85.44,3.48-13.47,.3-27.5,.6-40.72,3.5-5.3,1.16-9.88,4.44-14.13,7.67-5.34,4.06-10.34,8.55-15.56,12.76-4.51,3.64-9.7,8.11-15.48,9.52-6.41,1.56-9.31-3.81-10.6-9.28-1.19-5.05-1.36-10.31-1.42-15.47-.06-5.5-.77-10.93-1.05-16.42s.22-10.93,4.41-14.81c5.17-4.79,12.45-7.37,19.09-9.28,11.92-3.43,24.06-5.72,35.84-9.68,23.01-7.72,44.89-18.81,64.74-32.77,9.59-6.74,18.68-14.16,27.27-22.15,.46-.43,.16-1.05-.33-1.26l-.38-.16,.45,1.1c8.27-13.69,16.53-27.38,24.8-41.06,7.41-12.25,14.99-24.6,25.04-34.9,20.24-20.74,49.86-28.55,75.24-40.99,49.34-24.18,94.61-58.32,125.2-104.52,8.16-12.32,15.18-25.38,20.83-39.04,1.39-3.36,2.6-6.78,3.91-10.17,.86-2.23,1.79-4.69,3.52-6.42,1.15-1.15,2.59-1.92,4.27-2.01,1.41-.07,3.5,1.09,3.44,2.77-.05,1.43-2.24,4.04-2.83,5.41-.63,1.47-1.18,2.97-1.63,4.5-1.04,3.52-1.53,7.12-1.67,10.78-.04,.97,1.47,.97,1.5,0h0Z"/><path class="cls-14" d="M230.2,83.24c-.19-2.61-1.82-3.89-4.15-4.71-3.38-1.18-6.59-1.43-10.15-1.11-7.73,.7-15.45,1.55-23.17,2.38-15.24,1.65-30.46,3.54-45.57,6.13-15.18,2.6-30.26,5.92-45,10.44-7.32,2.24-14.56,4.78-21.65,7.66-5.8,2.35-11.53,4.95-16.71,8.5-4.69,3.22-9.02,7.25-11.66,12.36-3.04,5.9-3.25,12.56-1.49,18.89,1.91,6.85,5.59,13.31,9.52,19.2,3.36,5.04,7.43,9.94,12.82,12.89,6.14,3.37,13.05,3.17,19.56,.97,7.27-2.45,14.07-6.49,20.83-10.07,13.75-7.29,27.33-14.92,40.69-22.91s26.63-16.42,39.57-25.21c6.44-4.37,12.81-8.84,19.11-13.41,3.06-2.22,6.2-4.36,8.93-7,1.31-1.27,2.57-2.59,3.9-3.84,1.2-1.13,2.39-2.24,3.22-3.68,1.33-2.3,1.42-4.89,1.42-7.48,0-.97-1.5-.97-1.5,0,0,2.87-.17,5.6-2.04,7.93-1.1,1.36-2.5,2.48-3.74,3.71s-2.44,2.48-3.75,3.64c-2.81,2.5-6.03,4.6-9.08,6.8s-6.08,4.34-9.14,6.48c-12.25,8.55-24.75,16.74-37.47,24.59-12.58,7.77-25.37,15.2-38.33,22.33-6.55,3.6-13.14,7.12-19.77,10.56-6.53,3.39-13.43,7.32-20.95,7.73-13.57,.72-21.95-12.1-27.65-22.61-3.4-6.27-6.32-13.3-5.71-20.58,.5-5.91,3.53-11.15,7.7-15.26s9.27-7.17,14.5-9.72c6.21-3.03,12.74-5.45,19.26-7.72,13.74-4.79,27.86-8.44,42.12-11.32,14.58-2.94,29.3-5.09,44.06-6.88,7.35-.89,14.71-1.69,22.07-2.45,3.68-.38,7.35-.75,11.03-1.12s7.45-1.07,11.02-.21c2.34,.56,5.66,1.25,5.87,4.12,.07,.96,1.57,.97,1.5,0h0Z"/><path class="cls-14" d="M-101.31,248.74c0,30.43-1.54,60.85-4.63,91.12-.78,7.66-1.66,15.31-2.64,22.94-.88,6.82-1.49,13.83-3.09,20.53-.66,2.78-1.6,5.54-3.21,7.92s-3.96,3.93-6.6,5.15c-2.24,1.03-4.65,2-6.24,3.97-1.48,1.84-1.85,4.21-1.2,6.46,1.72,5.91,7.95,7.69,13.42,8.09,7.37,.54,14.79,.63,22.17,.93,15.29,.62,30.57,1.24,45.86,1.85,7.49,.3,14.99,.55,22.49,.93,6.64,.34,13.33,.92,19.76,2.71s12.29,4.98,17.25,9.52,8.7,9.59,12.4,14.89c8.09,11.62,15.5,23.72,22.19,36.2,3.36,6.25,6.53,12.61,9.52,19.04,2.64,5.68,4.73,11.88,8.26,17.09,1.52,2.25,3.38,4.3,5.7,5.75,2.63,1.65,5.69,2.35,8.75,2.69,7.31,.82,14.86,.58,22.18,.04,3.4-.25,6.86-.51,10.21-1.14,2.52-.47,5.12-1.33,6.97-3.18,4.22-4.23,2.09-10.56-.4-15.09-1.7-3.08-3.76-5.99-5.67-8.94s-4.01-6.15-6.02-9.22c-4.07-6.22-8.17-12.42-12.29-18.61-8.24-12.38-16.56-24.69-24.97-36.95-16.82-24.51-34-48.79-51.52-72.81-8.76-12.01-17.61-23.96-26.54-35.84-2.21-2.94-4.42-5.87-6.63-8.79-1.92-2.53-3.73-5.46-6.17-7.53-4.51-3.83-10.28-2.62-15.42-.9-5.6,1.87-11.1,4.17-17.09,2.76-5.65-1.33-10.39-5.12-14.26-9.31-4.18-4.52-7.45-9.72-10.59-14.98-3.77-6.32-7.32-12.77-10.64-19.33s-6.13-12.6-8.9-19.05c-.38-.89-1.67-.12-1.3,.76,5.67,13.2,12.19,26.04,19.54,38.38,5.59,9.38,12.34,19.97,22.99,24.12,5.2,2.02,10.42,1.51,15.64-.18s11.57-5.04,16.96-2.49c3.07,1.46,4.99,4.62,6.97,7.23,2.22,2.93,4.43,5.86,6.64,8.79,4.41,5.87,8.81,11.75,13.18,17.65,17.39,23.45,34.44,47.15,51.16,71.08,16.72,23.93,33.1,48.1,49.14,72.49,4.03,6.14,8.05,12.29,12.04,18.45,2.92,4.51,7.93,12.12,3.24,17.12-1.95,2.08-4.95,2.73-7.66,3.14-3.65,.55-7.36,.84-11.05,1.05s-7.44,.29-11.17,.23c-3.5-.06-7.09-.08-10.54-.72s-6.31-1.97-8.71-4.38c-2.01-2.02-3.49-4.5-4.78-7.03-2.97-5.87-5.39-12.03-8.25-17.96-6.06-12.55-12.82-24.77-20.26-36.56-3.6-5.71-7.33-11.36-11.29-16.83-3.64-5.01-7.59-9.87-12.39-13.83-10.13-8.36-22.95-10.32-35.69-11-29.68-1.58-59.41-2.26-89.1-3.63-3.27-.15-6.72-.4-9.64-2.01-2.49-1.37-4.59-4.11-4.49-7.06s2.52-4.61,4.91-5.78,4.74-2.04,6.72-3.76c4.01-3.49,5.56-8.95,6.48-13.99,1.25-6.89,2.03-13.89,2.9-20.84,3.71-29.65,5.94-59.48,6.66-89.35,.18-7.33,.26-14.66,.26-21.99,0-.97-1.5-.97-1.5,0h0Z"/><path class="cls-14" d="M255.68,117.05c-5.58-5.75-13.24-10.49-21.34-11.3-4.1-.41-7.99,.52-11.49,2.68-4.26,2.63-8.14,5.97-12.12,8.99-17.13,13-34.26,26-51.39,39-8.53,6.47-17.06,12.95-25.6,19.42-8.14,6.17-16.35,12.26-24.38,18.57-7.35,5.78-14.43,12.01-20.03,19.55s-9.7,16.34-14.35,24.62c-4.41,7.86-9.6,15.08-16.25,21.21-6.33,5.83-13.65,10.58-21.55,13.98-2.01,.86-4.06,1.63-6.13,2.31-.48,.16-.68,.66-.45,1.1,6.24,12.07,12.49,24.15,18.73,36.22,1.14,2.2,2.15,5.16,4.28,6.63,2.29,1.58,5.21,.6,7.66,0,5.29-1.29,10.81-2.86,15.03-6.48,3.57-3.06,6.12-7.89,5.53-12.67-.34-2.73-2.03-4.72-2.91-7.23-1.04-2.96,.8-5.15,2.98-6.93,4.74-3.87,9.92-7.31,15.06-10.63s10.44-6.45,15.84-9.35,10.92-5.59,16.54-8.05c2.7-1.18,5.46-2.56,8.32-3.29,1.44-.36,3.05-.49,4.37,.31,1.18,.72,1.9,2,2.83,2.98,3.72,3.93,8.82,1.06,12.06-1.97,2.29-2.14,4.35-4.56,6.47-6.86s4.35-4.73,6.51-7.11c17.66-19.45,34.66-39.49,51.39-59.74,8.34-10.1,16.62-20.25,24.9-30.4,3.72-4.57,7.93-9.07,10.7-14.32,2.36-4.49,3.51-10.22,2.24-15.22-.59-2.31-1.8-4.34-3.46-6.05-.68-.69-1.74,.37-1.06,1.06,3.91,4.01,4.1,9.84,2.74,15.01-1.47,5.6-5.44,10.13-9.02,14.53-8.02,9.85-16.03,19.69-24.1,29.49-16.19,19.66-32.59,39.16-49.57,58.13-4.18,4.67-8.39,9.31-12.65,13.91-2.06,2.23-4.05,4.58-6.29,6.64-1.81,1.66-4.37,3.63-6.99,3.35s-3.63-3.13-5.64-4.53-4.59-1.09-6.81-.37c-2.62,.85-5.17,2.05-7.69,3.15-2.74,1.2-5.46,2.45-8.15,3.76-10.63,5.16-20.86,11.14-30.57,17.88-2.46,1.71-4.88,3.46-7.27,5.26-1.89,1.43-3.98,2.93-4.99,5.16s-.38,4.36,.67,6.4c1.23,2.39,2.34,4.5,2.1,7.28-.46,5.52-4.69,9.76-9.42,12.11-2.56,1.27-5.3,2.11-8.06,2.83-1.21,.32-2.44,.61-3.66,.9-1.47,.34-3.18,.77-4.57-.04-1.18-.69-1.83-2.03-2.44-3.2-.77-1.47-1.52-2.94-2.28-4.42-1.52-2.94-3.05-5.89-4.57-8.83-3.01-5.82-6.01-11.63-9.02-17.45-1.48-2.87-2.97-5.74-4.45-8.61l-.45,1.1c15.95-5.27,30.02-15.75,39.55-29.6,5.28-7.67,9.15-16.17,13.8-24.21,2.38-4.12,4.97-8.12,8.01-11.78s6.32-6.9,9.81-10c7.34-6.5,15.34-12.25,23.14-18.18,8.47-6.42,16.93-12.85,25.4-19.27,16.87-12.8,33.73-25.6,50.6-38.4,4.23-3.21,8.47-6.42,12.7-9.64,3.81-2.89,7.66-6.52,12.17-8.28,7.9-3.1,17.01,1.06,23.32,5.81,1.66,1.25,3.22,2.63,4.66,4.12,.67,.7,1.74-.37,1.06-1.06h0Z"/><polygon class="cls-11" points="61.53 120.77 87.08 168.96 114.51 153.27 112.36 148.1 151.37 128.19 154.78 133.45 182.94 117.72 160.4 69.83 133.06 84.27 136.37 90.77 94.77 111.76 91.89 106.22 61.53 120.77"/><rect class="cls-8" x="144.4" y="-36.58" width="38.81" height="56.34"/><g><g><rect class="cls-7" x="245.99" y="71.15" width="7.17" height="6.09" transform="translate(498.46 -2.26) rotate(146.37)"/><rect class="cls-7" x="239.64" y="75.37" width="7.17" height="6.09" transform="translate(489.17 8.98) rotate(146.37)"/></g><text class="cls-18" transform="translate(242.71 80.71) rotate(-33.63)"><tspan x="0" y="0" xml:space="preserve">1   2</tspan></text></g><g><g><rect class="cls-7" x="259.26" y="62.23" width="7.17" height="6.09" transform="translate(517.85 -25.96) rotate(146.37)"/><rect class="cls-7" x="252.92" y="66.45" width="7.17" height="6.09" transform="translate(508.56 -14.71) rotate(146.37)"/></g><text class="cls-18" transform="translate(254.94 72.49) rotate(-33.63)"><tspan x="0" y="0" xml:space="preserve"> 3   4</tspan></text></g><g><g><rect class="cls-7" x="239.57" y="93.74" width="7.17" height="6.09" transform="translate(366.35 327.69) rotate(-139.78)"/><rect class="cls-7" x="233.76" y="88.82" width="7.17" height="6.09" transform="translate(359.26 315.26) rotate(-139.78)"/></g><text class="cls-17" transform="translate(234.05 91.28) rotate(40.22)"><tspan x="0" y="0">12 11</tspan></text></g><g><g><rect class="cls-7" x="266.89" y="88.4" width="7.17" height="6.09" transform="translate(500.4 -77.84) rotate(124.96)"/><rect class="cls-7" x="262.53" y="94.65" width="7.17" height="6.09" transform="translate(498.65 -64.44) rotate(124.96)"/></g><text class="cls-28" transform="translate(265.86 100.96) rotate(-55.04)"><tspan x="0" y="0" xml:space="preserve"> 8   7</tspan></text></g><g><path class="cls-9" d="M49.67-21.92c-7.93,1.25-15.86,2.5-23.79,3.76-2.5,1.67-5.01,3.34-7.51,5.01L8.35-3.14l11.27,53.84,3.76,7.51,6.26,5.01,17.53,5.01,77.62-23.79,12.52-20.03-3.76-42.57c-5.84-2.09-11.69-4.17-17.53-6.26-16.18,.61-32.36,1.22-48.53,1.83-5.94,.22-11.88,.45-17.82,.67Z"/><path class="cls-12" d="M63.41,10.63l-52.48,1.42,1.19,8.33,51.3,1.52L30.89,63.22l9.93,4.37L79.72,23.15l56.21,3.46,1.38-2.21-.58-6.55-55.99-5.81c.08-11.74,.15-23.48,.23-35.22-3.94,.17-7.87,.34-11.81,.52l-5.75,33.29Z"/><text class="cls-10" transform="translate(56.06 19.06)"><tspan x="0" y="0">학생문화관 숲</tspan></text></g><g><g><rect class="cls-7" x="276.16" y="75.02" width="7.17" height="6.09" transform="translate(504.01 -106.48) rotate(124.96)"/><rect class="cls-7" x="271.79" y="81.26" width="7.17" height="6.09" transform="translate(502.26 -93.08) rotate(124.96)"/></g><text class="cls-28" transform="translate(275.12 87.58) rotate(-55.04)"><tspan x="0" y="0" xml:space="preserve"> 6   5</tspan></text></g><g><g><rect class="cls-7" x="252.34" y="104.64" width="7.17" height="6.09" transform="translate(381.83 355.16) rotate(-139.78)"/><rect class="cls-7" x="246.53" y="99.72" width="7.17" height="6.09" transform="translate(374.74 342.72) rotate(-139.78)"/></g><text class="cls-30" transform="translate(246.82 102.18) rotate(40.22)"><tspan class="cls-2" x="0" y="0"> </tspan><tspan class="cls-15" x=".04" y="0" xml:space="preserve">10  </tspan><tspan class="cls-1" x="8.91" y="0"> </tspan><tspan class="cls-16" x="8.95" y="0">9</tspan></text></g><text class="cls-6" transform="translate(110.55 133.21) rotate(-25.27)"><tspan x="0" y="0">중강당 </tspan></text><text class="cls-3" transform="translate(151.38 -2.55)"><tspan x="0" y="0">ESS</tspan></text><g><g><rect class="cls-7" x="137.13" y="29.31" width="6.88" height="6.88" transform="translate(14.97 103.87) rotate(-42.64)"/><rect class="cls-7" x="131.99" y="34.04" width="6.88" height="6.88" transform="translate(10.42 101.64) rotate(-42.64)"/></g><text class="cls-23" transform="translate(134.27 40.77) rotate(-42.64)"><tspan x="0" y="0">22 21</tspan></text></g><g><g><rect class="cls-7" x="57.79" y="62.7" width="6.88" height="6.88" transform="translate(-17.58 22.4) rotate(-18.17)"/><rect class="cls-7" x="51.16" y="64.88" width="6.88" height="6.88" transform="translate(-18.59 20.44) rotate(-18.17)"/></g><text class="cls-25" transform="translate(52.12 70.91) rotate(-18.17)"><tspan x="0" y="0">34 33</tspan></text></g><g><g><rect class="cls-7" x="44.02" y="67.22" width="6.88" height="6.88" transform="translate(-19.67 18.33) rotate(-18.17)"/><rect class="cls-7" x="37.4" y="69.4" width="6.88" height="6.88" transform="translate(-20.68 16.37) rotate(-18.17)"/></g><text class="cls-25" transform="translate(38.36 75.43) rotate(-18.17)"><tspan x="0" y="0">36 35</tspan></text></g><g><g><rect class="cls-7" x="112.85" y="44.63" width="6.88" height="6.88" transform="translate(-9.19 38.67) rotate(-18.17)"/><rect class="cls-7" x="106.22" y="46.8" width="6.88" height="6.88" transform="translate(-10.2 36.71) rotate(-18.17)"/></g><text class="cls-25" transform="translate(107.18 52.84) rotate(-18.17)"><tspan x="0" y="0">26 25</tspan></text></g><g><g><rect class="cls-7" x="99.08" y="49.15" width="6.88" height="6.88" transform="translate(-11.29 34.6) rotate(-18.17)"/><rect class="cls-7" x="92.45" y="51.32" width="6.88" height="6.88" transform="translate(-12.3 32.64) rotate(-18.17)"/></g><text class="cls-25" transform="translate(93.42 57.36) rotate(-18.17)"><tspan x="0" y="0">28 27</tspan></text></g><g><g><rect class="cls-7" x="71.55" y="58.18" width="6.88" height="6.88" transform="translate(-15.48 26.47) rotate(-18.17)"/><rect class="cls-7" x="64.92" y="60.36" width="6.88" height="6.88" transform="translate(-16.49 24.51) rotate(-18.17)"/></g><text class="cls-25" transform="translate(65.89 66.4) rotate(-18.17)"><tspan x="0" y="0">32 31</tspan></text></g><g><g><rect class="cls-7" x="126.34" y="38.23" width="6.88" height="6.88" transform="translate(-3.74 69.08) rotate(-29.4)"/><rect class="cls-7" x="120.26" y="41.66" width="6.88" height="6.88" transform="translate(-6.21 66.53) rotate(-29.4)"/></g><text class="cls-22" transform="translate(121.81 48.07) rotate(-29.4)"><tspan x="0" y="0">24 23</tspan></text></g><g><g><rect class="cls-7" x="85.32" y="53.66" width="6.88" height="6.88" transform="translate(-13.38 30.53) rotate(-18.17)"/><rect class="cls-7" x="78.69" y="55.84" width="6.88" height="6.88" transform="translate(-14.39 28.58) rotate(-18.17)"/></g><text class="cls-25" transform="translate(79.65 61.88) rotate(-18.17)"><tspan x="0" y="0">30 29</tspan></text></g><g><g><rect class="cls-7" x="22.84" y="64.06" width="6.88" height="6.88" transform="translate(47.51 -1.75) rotate(38.32)"/><rect class="cls-7" x="17.36" y="59.73" width="6.88" height="6.88" transform="translate(43.65 .71) rotate(38.32)"/></g><text class="cls-22" transform="translate(20.03 66.45) rotate(-51.68)"><tspan x="0" y="0">38</tspan><tspan x="0" y="7.51">37</tspan></text></g><g><g><rect class="cls-7" x="12.4" y="53.44" width="6.88" height="6.88" transform="translate(67.31 27.93) rotate(76.21)"/><rect class="cls-7" x="10.74" y="46.66" width="6.88" height="6.88" transform="translate(59.46 24.39) rotate(76.21)"/></g><text class="cls-21" transform="translate(11.58 52.19) rotate(-13.79)"><tspan x="0" y="0">40</tspan><tspan x="0" y="7.51">39</tspan></text></g><g><g><rect class="cls-7" x="8.88" y="39.1" width="6.88" height="6.88" transform="translate(50.69 20.43) rotate(76.21)"/><rect class="cls-7" x="7.22" y="32.32" width="6.88" height="6.88" transform="translate(42.85 16.88) rotate(76.21)"/></g><text class="cls-21" transform="translate(8.06 37.84) rotate(-13.79)"><tspan x="0" y="0">42</tspan><tspan x="0" y="7.51">41</tspan></text></g><g><g><rect class="cls-7" x="5.36" y="24.75" width="6.88" height="6.88" transform="translate(34.08 12.92) rotate(76.21)"/><rect class="cls-7" x="3.7" y="17.98" width="6.88" height="6.88" transform="translate(26.23 9.38) rotate(76.21)"/></g><text class="cls-21" transform="translate(4.54 23.5) rotate(-13.79)"><tspan x="0" y="0">44</tspan><tspan x="0" y="7.51">43</tspan></text></g><g><g><rect class="cls-7" x="1.05" y="4.43" width="6.88" height="6.88" transform="translate(12.36 3.39) rotate(90)"/><rect class="cls-7" x="1.05" y="-2.54" width="6.88" height="6.88" transform="translate(5.39 -3.59) rotate(90)"/></g><text class="cls-20" transform="translate(1.48 2.28)"><tspan x="0" y="0">46</tspan><tspan x="0" y="7.51">45</tspan></text></g><path class="cls-13" d="M-117.07,191.16c13.16-7.72,27.09-15.48,41.79-23.16,15.31-8.01,30.21-15.29,44.6-21.91L30.66,252.51,.61,271.29l3.76,5.55-30.05,15.73-2.5-5.01-31.3,15.02c-19.2-37.14-38.39-74.29-57.59-111.43Z"/><g><g><rect class="cls-7" x="10.03" y="151.37" width="7.17" height="6.09" transform="translate(-139.06 181.21) rotate(-94.91)"/><rect class="cls-7" x="9.38" y="143.78" width="7.17" height="6.09" transform="translate(-132.21 172.32) rotate(-94.91)"/></g><text class="cls-24" transform="translate(11.66 148.63) rotate(-5.4)"><tspan x="0" y="0">1</tspan><tspan x="0" y="7.51">2</tspan></text></g><g><g><rect class="cls-7" x="35.07" y="200.16" width="7.17" height="6.09" transform="translate(-51.4 389.43) rotate(-143.42)"/><rect class="cls-7" x="28.95" y="195.62" width="7.17" height="6.09" transform="translate(-59.72 377.59) rotate(-143.42)"/></g><text class="cls-19" transform="translate(32.79 200.9) rotate(-53.91)"><tspan x="0" y="0">7</tspan><tspan x="0" y="7.51">8</tspan></text></g><g><g><rect class="cls-7" x="21.3" y="186.4" width="7.17" height="6.09" transform="translate(-130.27 300.95) rotate(-118.22)"/><rect class="cls-7" x="17.7" y="179.69" width="7.17" height="6.09" transform="translate(-129.66 287.89) rotate(-118.22)"/></g><text class="cls-27" transform="translate(20.75 184.98) rotate(-28.71)"><tspan x="0" y="0">5</tspan><tspan x="0" y="7.51">6</tspan></text></g><g><g><rect class="cls-7" x="14.11" y="169.5" width="7.17" height="6.09" transform="translate(-146.43 228.64) rotate(-103.01)"/><rect class="cls-7" x="12.33" y="162.09" width="7.17" height="6.09" transform="translate(-141.39 217.83) rotate(-103.01)"/></g><text class="cls-29" transform="translate(14.83 167.25) rotate(-13.5)"><tspan x="0" y="0">3</tspan><tspan x="0" y="7.51">4</tspan></text></g><g><g><rect class="cls-7" x="59.59" y="235.47" width="7.17" height="6.09" transform="translate(300.21 307.04) rotate(120.96)"/><rect class="cls-7" x="55.67" y="242.01" width="7.17" height="6.09" transform="translate(299.87 320.3) rotate(120.96)"/></g><text class="cls-26" transform="translate(59.23 248.24) rotate(-59.04)"><tspan x="0" y="0">14 13</tspan></text></g><g><g><rect class="cls-7" x="68.83" y="220.65" width="7.17" height="6.09" transform="translate(301.5 276.67) rotate(120.96)"/><rect class="cls-7" x="64.91" y="227.19" width="7.17" height="6.09" transform="translate(301.17 289.92) rotate(120.96)"/></g><text class="cls-26" transform="translate(68.48 233.42) rotate(-59.04)"><tspan x="0" y="0">12 11</tspan></text></g><g><g><rect class="cls-7" x="77.68" y="206.1" width="7.17" height="6.09" transform="translate(302.42 247.05) rotate(120.96)"/><rect class="cls-7" x="73.76" y="212.63" width="7.17" height="6.09" transform="translate(302.08 260.3) rotate(120.96)"/></g><text class="cls-26" transform="translate(76.74 219.1) rotate(-59.04)"><tspan x="0" y="0" xml:space="preserve">10  9 </tspan></text></g><polygon class="cls-11" points="-11.4 295.39 17.98 347.18 48.75 330.29 21.88 280.26 -11.4 295.39"/><polygon class="cls-11" points="147.6 275.36 138.84 260.33 86.25 292.88 96.89 305.8 147.6 275.36"/><text class="cls-5" transform="translate(101.63 297.18) rotate(-30.47)"><tspan x="0" y="0">대학원별관</tspan></text><path class="cls-11" d="M358.95,20.69c-20.75,37.15-48.72,69.01-75.92,101.1-76.38,90.13-148.36,184.47-215.56,282.52,15.86,29.74,34.36,57.89,55.17,83.96,69.85-84.16,159.25-147,236.09-223.95,37.64-37.7,72.2-78.72,106.7-119.68-30.63-45.3-66.19-86.82-105.75-123.46-.99,.91-1.98,1.82-2.97,2.74"/><text class="cls-4" transform="translate(214.02 270.25)"><tspan x="0" y="0">ECC</tspan></text><polygon class="cls-11" points="492.47 192.91 454.47 163.63 382.87 262.71 321.76 302.9 325.09 308.32 299.13 336.85 340.52 357.16 351.9 352.08 387.89 328.41 392.16 331.7 400.57 320.06 419.94 307.33 415.28 299.72 424.42 287.08 431.32 292.38 464.24 246.67 457.41 241.42 492.47 192.91"/></svg>