<?xml version="1.0" encoding="UTF-8"?><svg id="_레이어_9" xmlns="http://www.w3.org/2000/svg" viewBox="0 0 300 300"><defs><style>.cls-1{font-size:16.57px;}.cls-1,.cls-2{fill:#0e0e0d;font-family:PretendardVariable-Medium, 'Pretendard Variable';font-variation-settings:'wght' 500;}.cls-3{fill:#004625;}.cls-4{fill:#e9eaea;}.cls-5{fill:#f5f5ee;}.cls-6{fill:#ffac00;}.cls-7{fill:#a5a5a5;}.cls-2{font-size:16.85px;}.cls-8{fill:#ef0;stroke:#000;stroke-miterlimit:10;stroke-width:.69px;}.cls-9{font-size:5.52px;}.cls-9,.cls-10,.cls-11,.cls-12,.cls-13,.cls-14,.cls-15,.cls-16,.cls-17,.cls-18,.cls-19{font-family:NanumGothicExtraBold, NanumGothic;}.cls-10{font-size:5.52px;}.cls-11{font-size:5.52px;}.cls-12{font-size:5.52px;}.cls-13{font-size:5.52px;}.cls-14{font-size:5.52px;}.cls-15{font-size:5.52px;}.cls-16{font-size:5.52px;}.cls-17{font-size:5.52px;}.cls-18{font-size:5.52px;}.cls-19{font-size:5.52px;}</style></defs><path class="cls-7" d="M275.38-149.79c-2.06-.72-4.05-1.59-6.03-2.49-1.31-.6-2.66-1.26-4.09-1.52-2.74-.49-5,1.09-6.77,3.03-2.74,3-4.15,6.94-5.03,10.84-1.02,4.54-1.56,9.2-2.17,13.8-2.78,21.24-3.83,42.69-3.53,64.1,.6,42.75,6.53,85.25,14.43,127.21,3.97,21.07,8.45,42.03,13.07,62.97,1.19,5.38,2.38,10.75,3.58,16.12,.9,4.03,1.51,8.46,3.69,12.06,4.88,8.07,14.89,4.84,22.06,2.38,9.66-3.32,18.96-7.6,28.25-11.81,9.24-4.18,18.56-8.15,28.1-11.62,18.95-6.89,38.46-12.15,58.21-16.16,39.72-8.06,80.25-11.14,120.67-12.94,10.02-.45,20.11-.48,30.11-1.23,8.45-.63,17.44-3.08,21.91-10.97,1.86-3.29,2.51-7.14,1.46-10.81-1.1-3.85-3.76-7.02-6.57-9.77-6.58-6.46-13.78-12.7-21.44-17.84-8.21-5.5-17.09-8.8-26.88-10.13-10.39-1.42-20.98-1.66-31.43-2.31-10.25-.64-20.52-1.12-30.75-1.96-7.64-.63-15.33-1.67-22.64-4.07s-14.03-6.25-18.56-12.43c-5.81-7.93-6.62-18.07-7.43-27.54-1.83-21.28-2.08-43.14,.66-64.36,.7-5.4,1.7-10.78,3.19-16.02,1.28-4.5,2.94-8.89,4.56-13.28,3.11-8.44,6.5-17.29,6.45-26.42-.02-4.01-.82-7.99-2.55-11.61-1.63-3.41-4.16-6.84-8.19-7.33-3.38-.4-6.44,1.53-8.89,3.63-3.26,2.78-5.76,6.26-8.7,9.34-13.49,14.15-34.59,14.96-52.55,11.28-10.24-2.1-20.31-5.26-30.18-8.65-9.74-3.34-19.33-7.12-28.79-11.18s-18.06-8.04-26.99-12.26c-.96-.45-1.8,.97-.84,1.43,17.99,8.51,36.18,16.66,54.99,23.2,9.46,3.28,19.08,6.31,28.85,8.51,9.46,2.13,19.28,3.32,28.95,2.02,8.15-1.09,16.22-3.91,22.84-8.87,3.29-2.46,5.9-5.45,8.59-8.52,2.48-2.84,5.2-6.02,8.71-7.61,9.72-4.41,13.27,11.01,13.1,17.65-.23,9.2-3.84,18.05-6.98,26.57-3.31,8.98-5.86,17.94-7.12,27.46-1.38,10.4-1.84,20.96-1.97,31.45s.24,21.5,1.12,32.21c.74,8.97,1.32,18.58,5.79,26.62,7.28,13.11,22.64,17.69,36.56,19.56,8.64,1.16,17.39,1.48,26.09,2.02,10.66,.66,21.33,1.31,31.99,1.99,10.16,.65,20.38,1.67,29.69,6.12,8.38,4,15.63,9.93,22.54,16.04,6.03,5.33,15.65,12.22,13.33,21.52-2.43,9.77-13.05,12.97-21.89,13.63-9.59,.71-19.26,.76-28.86,1.18-9.95,.44-19.89,.95-29.82,1.59-19.51,1.26-39,3.03-58.37,5.69-38.87,5.35-77.33,14.52-113.34,30.34-9.32,4.09-18.5,8.53-27.97,12.27-4.46,1.76-9,3.49-13.64,4.69-4.22,1.09-9.33,1.63-12.64-1.82-3.01-3.14-3.64-8.05-4.55-12.12-1.15-5.16-2.3-10.31-3.44-15.47-2.27-10.24-4.5-20.49-6.66-30.75-8.68-41.23-16.2-82.82-19.5-124.87-1.62-20.7-2.21-41.5-1.38-62.25,.42-10.48,1.21-20.95,2.4-31.38,.6-5.28,1.29-10.56,2.14-15.8,.66-4.11,1.52-8.38,3.72-11.98,1.54-2.51,4.13-5.51,7.39-4.69s6.34,2.77,9.54,3.88c1.01,.35,1.44-1.25,.44-1.6h0Z"/><path class="cls-7" d="M132.22-275.01c-19.71,19.03-38.96,38.52-58.32,57.91-9.47,9.48-18.97,18.93-28.58,28.27-8.61,8.38-17.65,16.45-24.32,26.54-.19,.28-.14,.78,.13,1,4.11,3.46,8.23,6.91,12.34,10.37,1.46,1.22,4.97,3.21,5.2,5.11s-3.09,5.1-4.26,6.67c-1.78,2.37-2.26,3.68-5.13,2.36-2.03-.94-3.96-2.47-5.79-3.74-4.69-3.25-9.04-6.9-13.15-10.84-.34-.32-.83-.3-1.17,0C-28.16-118.42-64.1-83.94-98.58-48.02c-.55,.58,0,1.64,.81,1.38l.62-.19-.81-1.38c-17.07,18.34-34.15,36.68-51.22,55.02-.28,.31-.35,.88,0,1.17,17.96,15,34.76,31.34,50.16,48.96,7.92,9.07,15.42,18.47,22.63,28.11,5.95,7.95,11.85,16,18.76,23.17,12.32,12.78,28.45,22.79,46.62,17.02,8.54-2.71,16.18-8.09,22.16-14.7,.98-1.08,5.38-6.65,7.7-4.77,1.24,1.01-.56,4.25-1.05,5.24-7.26,14.65-23.45,27.78-38.85,32.66-.64,.2-.86,1.18-.2,1.51,10.05,5.12,13.28,17.45,11.21,27.92-2.36,11.9-11.18,21.35-19.56,29.54-19.44,19.01-39.28,37.63-58.92,56.44-16.42,15.72-38.38,31.88-41.84,55.93-1.8,12.52,.34,25.37,1.68,37.83,1.45,13.5,2.9,27,4.36,40.49,3.04,28.28,6.09,56.56,9.13,84.85,.6,5.54,.97,11.15,1.84,16.64,.72,4.53,2.2,8.93,6.38,11.35,3.42,1.98,7.59,2.11,11.43,2.24,7.1,.25,14.2,.36,21.31,.54,28.41,.73,56.81,1.45,85.22,2.18,14.2,.36,28.41,.73,42.61,1.09,6.46,.16,12.91,.33,19.37,.49,3.23,.08,6.46,.16,9.68,.25,1.32,.03,4.66-.45,5.81,.15,2.47,1.28,2.09,3.89,2.1,6.35,.02,2.7-.21,9.16-2.38,11.26s-7.09,.67-9.63,.54c-7.06-.35-14.13-.71-21.19-1.06-14.13-.71-28.26-1.41-42.38-2.12-27.94-1.4-55.87-2.79-83.81-4.19-8.75-.44-19.18-1.57-26.91,3.56-8.6,5.71-7.84,17.16-8.44,26.26-.91,13.89-1.82,27.78-2.72,41.68-.78,11.86-3.4,25.31-.17,36.97,4.66,16.84,22.23,22.74,37.9,24.35,11.03,1.13,22.16,.39,33.21,.06,13.85-.42,27.7-.84,41.55-1.27,55.89-1.73,111.78-3.24,167.67-4.92,23.56-.71,47.05-2.94,70.6-3.87,20.43-.8,41.89-1.24,61.68,4.61,8.32,2.46,16.19,6.23,22.7,12.04,7.55,6.75,16.18,9.12,26.29,8.09,11.09-1.13,22.2-4.76,32.72-8.34,9.87-3.36,19.54-7.32,28.95-11.82,39.32-18.83,73.94-47.33,99.97-82.3,13.53-18.17,23.68-39.49,40.73-54.8,18.35-16.48,44.2-21.95,66.34-31.62,84.31-36.81,156.97-102.31,188.67-190.18,15.43-42.78,22.18-92.27,11.33-136.97-4.94-20.33-15.01-38.75-31.79-51.63-16.4-12.59-36.63-19.08-56.59-23.41-9.99-2.17-20.08-3.82-30.19-5.34-11.1-1.67-22.38-3.13-33.62-2.24-10.48,.83-20.71,3.89-29.08,10.43s-14.74,15.98-22.8,23.3c-17.56,15.94-42.14,18.98-64.83,20.55-25.48,1.76-50.85,3.65-76.16,7.22-52.56,7.42-104.39,20-154.5,37.52-10.68,3.74-22.17,7.03-32.06,12.63-8.21,4.64-13.16,11.52-14.44,20.92-1.35,9.98-.56,20.68,.38,30.67,.88,9.27,2.42,18.54,5.29,27.42,4.88,15.09,13.94,28.54,29.1,34.59l-.37-1.38c-3.08,3.98-6.15,7.95-9.23,11.93-1.03,1.33-3.13,5.38-4.61,5.96-2.41,.94-5.24-2.32-7.09-3.88-6.8-5.72-12.7-12.46-17.54-19.9-9.68-14.85-14.79-32.05-15.12-49.73-.18-9.46-.06-25.75-10.44-30.45-6.31-2.86-12.78,.86-18.41,3.57-9.5,4.57-18.91,9.31-28.24,14.22s-18.57,10-27.71,15.25c-4.31,2.47-8.59,4.98-12.85,7.53-2.08,1.24-4.17,2.86-6.38,3.85-1.37,.62-1.56,1.34-2.89,.55-.71-.42-2.15-4.31-2.53-5.06-1.08-2.17-2.61-4.45-3.37-6.75-1.07-3.23,.18-3.48,3.01-5.1,4.71-2.7,9.43-5.4,14.14-8.11,9.43-5.4,18.86-10.81,28.29-16.21,9.43-5.4,18.86-10.81,28.29-16.21,7.4-4.24,15.49-8.1,21.9-13.82,13.98-12.48,9.28-32.89,7.89-49.4-4.01-47.77-10.1-95.36-18.17-142.62-.09-.55-.79-.73-1.22-.5-2.74,1.48-5.47,2.97-8.21,4.45-1.75,.95-6,4.27-7.85,2.98-.45-.32-1.24-2.82-1.55-3.53-.78-1.76-1.55-3.53-2.33-5.29-.85-1.93-3.98-6.33-3.07-8.36,.37-.83,3.32-2.54,4.1-3.33,1.24-1.24,2.34-2.62,3.33-4.06,2.26-3.3,3.84-7.04,5.06-10.83,2.96-9.2,3.75-19.02,4.94-28.57,1.61-12.87,3.23-25.74,4.84-38.6s3.26-25.64,4.82-38.47c1.38-11.27,2.5-23.08-1.52-33.97-3.44-9.32-10.04-17.04-16.41-24.48-7.49-8.75-15.31-17.22-23.43-25.39-17.88-17.98-37.22-34.45-57.76-49.32-.86-.63-1.69,.81-.84,1.43,31.09,22.51,59.56,48.8,84.13,78.32,6.57,7.9,12.6,16.32,14.57,26.61s.31,21.12-.99,31.49c-2.66,21.23-5.33,42.46-7.99,63.7-2.19,17.47-1.63,44.25-18.82,54.72-.41,.25-.48,.72-.3,1.13,2.85,6.46,5.7,12.93,8.54,19.39,.18,.42,.78,.49,1.13,.3,5.47-2.97,10.95-5.93,16.42-8.9l-1.22-.5c6.86,40.19,12.3,80.62,16.22,121.2,.98,10.17,1.87,20.34,2.67,30.52,.69,8.85,2.27,18.61-.47,27.25-2.98,9.4-11.38,14.72-19.47,19.39-8.52,4.92-17.08,9.79-25.61,14.68-19.97,11.44-39.94,22.89-59.9,34.33-.41,.23-.5,.74-.3,1.13,2.81,5.63,5.62,11.25,8.42,16.88,.2,.39,.77,.52,1.13,.3,15.07-9.25,30.41-18.07,46.01-26.39,7.66-4.09,15.38-8.06,23.15-11.91,3.89-1.93,7.79-3.83,11.7-5.69,4.18-1.99,8.93-4.3,13.62-2.6,11.53,4.16,9.88,23.22,10.31,32.84,.6,13.42,4.25,26.64,10.38,38.57,7.02,13.68,17.29,25.43,29.96,34.15,.27,.19,.79,.14,1-.13,5-6.46,10-12.92,14.99-19.38,.4-.52,.25-1.14-.37-1.38-29.26-11.68-33.62-49.55-34.04-76.89-.14-9.29-.51-19.81,5.94-27.29,5.94-6.87,15.21-9.85,23.45-12.93,19.16-7.16,38.6-13.6,58.24-19.3,39.18-11.36,79.22-19.77,119.66-25.11,19.75-2.61,39.58-4.42,59.46-5.62,16.61-1,33.59-1.93,49.53-7.14,7.41-2.42,14.53-5.81,20.82-10.47s11.68-11,17.06-16.99c6.33-7.04,13.18-13.37,22.18-16.78s18.18-4.01,27.44-3.66c16.97,.63,34.24,3.87,50.84,7.39,15.85,3.35,31.7,7.96,45.92,15.89,14.95,8.35,27.17,20.42,34.78,35.84,8.43,17.07,11.43,36.38,12.46,55.22,2.01,36.72-4.5,73.62-17.54,107.94-26.03,68.52-77.75,123.76-140.2,160.99-15.04,8.97-30.68,16.93-46.74,23.91-16.87,7.33-35.04,12.24-51.18,21.12-14.74,8.11-25.42,20.74-34.77,34.46-9.9,14.54-19,29.44-30.34,42.96-22,26.23-49.02,48.19-79.19,64.37-15.08,8.09-30.93,14.72-47.31,19.7-8.95,2.72-18.46,5.73-27.86,5.97-4.78,.12-9.79-.5-14.17-2.52-3.85-1.77-6.63-4.81-9.89-7.4-21.54-17.1-54.08-16.05-79.98-15.17-17.79,.6-35.54,2.04-53.31,3.06-20.16,1.15-40.36,1.44-60.54,2.01-42.84,1.2-85.68,2.55-128.52,3.87-20.31,.63-40.69,1.77-61.01,1.78-13.89,0-30.56-1.27-41.36-11.11-6.95-6.33-9.07-15.17-8.97-24.31,.11-10.17,1.18-20.38,1.85-30.53,.7-10.73,1.4-21.47,2.11-32.2,.62-9.49-.87-23.16,8.4-28.94,7.13-4.45,16.58-3.46,24.58-3.06,10.6,.53,21.19,1.06,31.79,1.59,21.19,1.06,42.38,2.12,63.58,3.18,20.87,1.04,41.74,2.09,62.61,3.13,.27,.01,.59-.16,.72-.41,3.32-6.63,4.1-13.68,2.3-20.88-.09-.36-.44-.6-.8-.61-43.26-1.1-86.51-2.21-129.77-3.31-10.65-.27-21.31-.54-31.96-.82-5.16-.13-10.33-.26-15.49-.4-5.05-.13-10.66,.35-15.61-.88-6.58-1.63-8.68-6.81-9.48-12.97-.73-5.61-1.22-11.26-1.82-16.88-1.14-10.61-2.28-21.21-3.42-31.82-2.32-21.53-4.63-43.07-6.95-64.6-1.14-10.61-2.28-21.21-3.42-31.82-1.04-9.7-2.44-19.57-1.58-29.34,1.86-21.06,16.98-34.69,31.35-48.45,15.51-14.85,31.02-29.7,46.53-44.55,8.17-7.82,16.47-15.52,24.48-23.51,6.43-6.41,12.61-13.41,16.18-21.87,5.26-12.45,3.32-29.86-9.83-36.55l-.2,1.51c15.82-5.02,32.01-18.24,39.68-33.11,1.07-2.08,3.45-6.88,.01-8.06-1.58-.54-4.03,.5-5.34,1.32-1.92,1.21-3.2,3.38-4.78,5.04-2.52,2.64-5.3,5.02-8.29,7.12-11.57,8.09-25.99,10.44-38.77,3.75-12.04-6.31-21.22-16.71-29.45-27.29-17.63-22.67-35-44.93-55.69-64.98-6.09-5.89-12.34-11.61-18.76-17.15-.96-.83-4.33-2.81-4.67-3.97-.54-1.87,2.11-3.66,3.25-4.89,3.06-3.29,6.13-6.58,9.19-9.88,12.48-13.4,24.96-26.8,37.43-40.21,.54-.58,.02-1.64-.81-1.38l-.62,.19,.81,1.38c20.69-21.55,41.9-42.61,63.63-63.11,10.86-10.24,21.84-20.35,32.95-30.32,2.63-2.36,5.36-5.55,8.35-7.45,1.57-.99,1.64-1.68,3.51-.69,1.4,.74,2.66,2.4,3.89,3.43,5.14,4.3,10.66,8.05,16.49,11.35,.42,.24,.86,.07,1.13-.3,2.92-3.89,5.84-7.78,8.75-11.67,.2-.27,.13-.79-.13-1-2.9-2.44-5.81-4.88-8.71-7.32-1.45-1.22-2.9-2.44-4.36-3.66-.91-.77-3.93-2.46-4.36-3.66-1.07-3.01,3.64-7.02,5.58-9.23,2.19-2.49,4.5-4.86,6.86-7.19,10.66-10.56,21.51-20.93,32.14-31.53,21.65-21.58,43.06-43.41,65.06-64.64,.77-.74-.4-1.91-1.17-1.17h0Z"/><path class="cls-7" d="M540.4,202.14c-6.08-6.27-14.37-11.41-23.18-12.42-4.56-.52-8.92,.42-12.85,2.81-4.78,2.9-9.12,6.66-13.57,10.04-18.88,14.33-37.75,28.65-56.63,42.98-9.44,7.16-18.88,14.33-28.32,21.49-9.01,6.83-18.1,13.56-26.98,20.56-8.13,6.41-15.96,13.33-22.13,21.71-6.15,8.37-10.54,17.83-15.6,26.85-4.87,8.68-10.6,16.66-17.94,23.42s-15.08,11.68-23.81,15.43c-2.2,.94-4.44,1.78-6.7,2.53-.52,.17-.75,.73-.5,1.22,6.86,13.27,13.72,26.54,20.59,39.81,1.28,2.48,2.42,5.84,4.83,7.47,2.58,1.74,5.91,.58,8.65-.09,5.79-1.41,11.81-3.17,16.41-7.15,3.94-3.41,6.71-8.76,6-14.06-.41-3.01-2.37-5.23-3.26-8.05-1.02-3.21,1.11-5.59,3.45-7.48,5.25-4.25,10.94-8.05,16.61-11.71,5.69-3.67,11.53-7.11,17.49-10.31s11.79-6.03,17.86-8.69c3.09-1.36,6.27-2.98,9.56-3.77,1.55-.38,3.27-.49,4.7,.37,1.22,.75,1.99,2.04,2.93,3.08,4.21,4.67,10.05,1.34,13.75-2.2,2.46-2.36,4.71-4.97,7.02-7.48,2.52-2.73,5.02-5.46,7.52-8.21,19.41-21.39,38.08-43.43,56.48-65.69,9.15-11.07,18.23-22.2,27.3-33.34,4.11-5.04,8.76-10.01,11.77-15.82,2.55-4.94,3.77-11.21,2.36-16.68-.65-2.52-1.98-4.75-3.8-6.6-.75-.76-1.92,.41-1.17,1.17,4.21,4.31,4.46,10.43,3.15,16.03-1.43,6.12-5.64,11.09-9.51,15.85-8.86,10.89-17.73,21.77-26.65,32.61-17.89,21.74-36.01,43.3-54.78,64.28-4.68,5.23-9.4,10.43-14.16,15.58-2.29,2.48-4.51,5.1-6.98,7.39-1.98,1.84-4.67,3.93-7.53,3.83-3.06-.11-4.13-3.15-6.25-4.8-2.27-1.77-5.19-1.46-7.76-.63-2.99,.97-5.89,2.34-8.77,3.6s-5.9,2.66-8.81,4.07c-11.78,5.72-23.1,12.36-33.85,19.83-2.65,1.85-5.27,3.75-7.86,5.69-2.11,1.59-4.42,3.28-5.5,5.79s-.18,5.06,1.06,7.39c1.42,2.67,2.43,5.16,1.98,8.24-.85,5.78-5.25,10.12-10.28,12.64-2.81,1.4-5.83,2.33-8.87,3.12-1.36,.35-2.72,.68-4.08,1-1.73,.4-3.76,.89-5.33-.23-1.13-.81-1.78-2.14-2.41-3.34-.85-1.62-1.68-3.24-2.52-4.87-1.68-3.24-3.35-6.49-5.03-9.73-3.35-6.49-6.71-12.98-10.06-19.46-1.6-3.1-3.2-6.19-4.8-9.29l-.5,1.22c17.63-5.83,33.18-17.43,43.69-32.75,5.83-8.5,10.11-17.92,15.27-26.82,2.65-4.57,5.55-9,8.95-13.06s6.97-7.55,10.82-10.95c8.14-7.19,17.01-13.55,25.65-20.12,9.31-7.06,18.61-14.12,27.92-21.19,18.68-14.17,37.36-28.35,56.03-42.52,4.65-3.53,9.31-7.06,13.96-10.59,2.24-1.7,4.46-3.43,6.72-5.09,2.08-1.53,4.28-3.01,6.73-3.87,8.74-3.07,18.6,1.56,25.48,6.81,1.73,1.32,3.35,2.77,4.86,4.33,.74,.77,1.91-.41,1.17-1.17h0Z"/><g><path class="cls-3" d="M313.21,48.88c-8.74,1.38-17.49,2.76-26.23,4.14-2.76,1.84-5.52,3.68-8.28,5.52l-11.05,11.05,12.43,59.37,4.14,8.28,6.9,5.52,19.33,5.52,85.6-26.23,13.81-22.09-4.14-46.94c-6.44-2.3-12.89-4.6-19.33-6.9-17.84,.67-35.68,1.35-53.52,2.02-6.55,.25-13.1,.49-19.65,.74Z"/><path class="cls-5" d="M328.36,84.78l-57.88,1.56,1.31,9.18,56.57,1.68-35.86,45.56,10.95,4.82,42.9-49,61.99,3.82,1.52-2.44-.64-7.22-61.75-6.4c.09-12.95,.17-25.9,.26-38.84-4.34,.19-8.68,.38-13.03,.57l-6.34,36.71Z"/></g><g><rect class="cls-8" x="299.68" y="149.59" width="7.59" height="7.59" transform="translate(-32.7 102.31) rotate(-18.17)"/><text class="cls-17" transform="translate(300.74 156.24) rotate(-18.17)"><tspan x="0" y="0">36 35</tspan></text></g><g><g><rect class="cls-8" x="274.28" y="49.11" width="7.59" height="7.59" transform="translate(540.87 -52.25) rotate(147.42)"/><rect class="cls-8" x="280.76" y="44.97" width="7.59" height="7.59" transform="translate(550.59 -63.38) rotate(147.42)"/></g><text class="cls-9" transform="translate(281.48 46.85) rotate(57.42)"><tspan x="0" y="0">50</tspan><tspan x="0" y="8.28">49</tspan></text></g><g><g><rect class="cls-8" x="283.63" y="143.7" width="7.59" height="7.59" transform="translate(153.37 -146.44) rotate(38.32)"/><rect class="cls-8" x="277.59" y="138.92" width="7.59" height="7.59" transform="translate(149.11 -143.72) rotate(38.32)"/></g><text class="cls-13" transform="translate(280.53 146.34) rotate(-51.68)"><tspan x="0" y="0">38</tspan><tspan x="0" y="8.28">37</tspan></text></g><g><g><rect class="cls-8" x="272.12" y="131.99" width="7.59" height="7.59" transform="translate(341.99 -164.55) rotate(76.21)"/><rect class="cls-8" x="270.28" y="124.52" width="7.59" height="7.59" transform="translate(333.34 -168.46) rotate(76.21)"/></g><text class="cls-15" transform="translate(271.21 130.61) rotate(-13.79)"><tspan x="0" y="0">40</tspan><tspan x="0" y="8.28">39</tspan></text></g><g><g><rect class="cls-8" x="268.24" y="116.17" width="7.59" height="7.59" transform="translate(323.67 -172.82) rotate(76.21)"/><rect class="cls-8" x="266.4" y="108.7" width="7.59" height="7.59" transform="translate(315.02 -176.73) rotate(76.21)"/></g><text class="cls-15" transform="translate(267.33 114.79) rotate(-13.79)"><tspan x="0" y="0">42</tspan><tspan x="0" y="8.28">41</tspan></text></g><g><g><rect class="cls-8" x="264.35" y="100.35" width="7.59" height="7.59" transform="translate(305.35 -181.1) rotate(76.21)"/><rect class="cls-8" x="262.52" y="92.88" width="7.59" height="7.59" transform="translate(296.7 -185.01) rotate(76.21)"/></g><text class="cls-15" transform="translate(263.44 98.97) rotate(-13.79)"><tspan x="0" y="0">44</tspan><tspan x="0" y="8.28">43</tspan></text></g><g><g><rect class="cls-8" x="259.59" y="77.94" width="7.59" height="7.59" transform="translate(345.13 -181.65) rotate(90)"/><rect class="cls-8" x="259.59" y="70.25" width="7.59" height="7.59" transform="translate(337.43 -189.34) rotate(90)"/></g><text class="cls-14" transform="translate(260.07 75.57)"><tspan x="0" y="0">46</tspan><tspan x="0" y="8.28">45</tspan></text></g><g><g><rect class="cls-8" x="262.58" y="60.7" width="7.59" height="7.59" transform="translate(490.72 -92.93) rotate(131.33)"/><rect class="cls-8" x="267.66" y="54.92" width="7.59" height="7.59" transform="translate(494.82 -106.34) rotate(131.33)"/></g><text class="cls-10" transform="translate(267.92 57.69) rotate(41.33)"><tspan x="0" y="0">48</tspan><tspan x="0" y="8.28">47</tspan></text></g><polygon class="cls-6" points="417.24 -34.98 391.01 -34.98 391.01 -56.53 400.67 -65.13 344.07 -118.88 336.47 -113.66 330.26 -117.57 313.69 -102.9 313.69 -101.84 323.19 -93.58 294.65 -69.28 299.08 -63.69 299.29 -63.53 262.61 -33.67 262.61 -23.58 266.75 -20.56 295.74 -21.44 295.74 -.89 308.17 -.89 308.17 31.88 400.67 31.88 400.67 .42 417.24 .42 417.24 -34.98"/><polygon class="cls-6" points="-16.56 213.56 41.15 274.68 218.01 96.2 162.93 37.18 -16.56 213.56"/><g><g><rect class="cls-8" x="220.27" y="107.14" width="7.91" height="6.72" transform="translate(458.81 24.17) rotate(133.56)"/><rect class="cls-8" x="214.48" y="113.23" width="7.91" height="6.72" transform="translate(453.44 38.65) rotate(133.56)"/></g><text class="cls-12" transform="translate(218.7 118.94) rotate(-46.44)"><tspan x="0" y="0" xml:space="preserve">8   7</tspan></text></g><g><g><rect class="cls-8" x="196.7" y="131.93" width="7.91" height="6.72" transform="translate(436.96 83.11) rotate(133.56)"/><rect class="cls-8" x="190.91" y="138.02" width="7.91" height="6.72" transform="translate(431.59 97.59) rotate(133.56)"/></g><text class="cls-12" transform="translate(193.93 145.05) rotate(-46.44)"><tspan x="0" y="0">12 11</tspan></text></g><g><g><rect class="cls-8" x="209.12" y="94.03" width="7.91" height="6.72" transform="translate(431.63 13) rotate(134.33)"/><rect class="cls-8" x="203.25" y="100.04" width="7.91" height="6.72" transform="translate(425.96 27.41) rotate(134.33)"/></g><text class="cls-18" transform="translate(206.34 106.88) rotate(-45.67)"><tspan x="0" y="0">22 21</tspan></text></g><g><g><rect class="cls-8" x="196.98" y="106.46" width="7.91" height="6.72" transform="translate(419.89 42.82) rotate(134.33)"/><rect class="cls-8" x="191.1" y="112.47" width="7.91" height="6.72" transform="translate(414.22 57.23) rotate(134.33)"/></g><text class="cls-18" transform="translate(194.05 119.42) rotate(-45.67)"><tspan x="0" y="0">24 23</tspan></text></g><g><g><rect class="cls-8" x="184.83" y="118.9" width="7.91" height="6.72" transform="translate(408.15 72.64) rotate(134.33)"/><rect class="cls-8" x="178.96" y="124.91" width="7.91" height="6.72" transform="translate(402.48 87.05) rotate(134.33)"/></g><text class="cls-18" transform="translate(181.96 131.82) rotate(-45.67)"><tspan x="0" y="0">26 25</tspan></text></g><g><g><rect class="cls-8" x="172.68" y="131.34" width="7.91" height="6.72" transform="translate(396.41 102.45) rotate(134.33)"/><rect class="cls-8" x="166.81" y="137.35" width="7.91" height="6.72" transform="translate(390.74 116.86) rotate(134.33)"/></g><text class="cls-18" transform="translate(169.77 144.26) rotate(-45.67)"><tspan x="0" y="0">28 27</tspan></text></g><g><g><rect class="cls-8" x="160.53" y="143.77" width="7.91" height="6.72" transform="translate(384.67 132.27) rotate(134.33)"/><rect class="cls-8" x="154.66" y="149.78" width="7.91" height="6.72" transform="translate(379 146.68) rotate(134.33)"/></g><text class="cls-18" transform="translate(157.63 156.7) rotate(-45.67)"><tspan x="0" y="0">30 29</tspan></text></g><g><rect class="cls-8" x="148.39" y="156.21" width="7.91" height="6.72" transform="translate(372.93 162.09) rotate(134.33)"/><g><rect class="cls-8" x="142.51" y="162.22" width="7.91" height="6.72" transform="translate(367.26 176.5) rotate(134.33)"/><text class="cls-18" transform="translate(145.57 169.04) rotate(-45.67)"><tspan x="0" y="0">32 31</tspan></text></g></g><g><g><rect class="cls-8" x="136.24" y="168.65" width="7.91" height="6.72" transform="translate(361.2 191.9) rotate(134.33)"/><rect class="cls-8" x="130.37" y="174.66" width="7.91" height="6.72" transform="translate(355.52 206.31) rotate(134.33)"/></g><text class="cls-18" transform="translate(133.3 181.61) rotate(-45.67)"><tspan x="0" y="0">34 33</tspan></text></g><g><rect class="cls-8" x="202.89" y="125.41" width="7.91" height="6.72" transform="translate(442.7 67.62) rotate(133.56)"/><g><rect class="cls-8" x="208.28" y="119.74" width="7.91" height="6.72" transform="translate(447.7 54.14) rotate(133.56)"/><text class="cls-12" transform="translate(212.41 125.58) rotate(-46.44)"><tspan x="0" y="0">9</tspan></text><text class="cls-12" transform="translate(205.74 132.59) rotate(-46.44)"><tspan x="0" y="0">10</tspan></text></g></g><g><g><rect class="cls-8" x="184.91" y="144.32" width="7.91" height="6.72" transform="translate(426.03 112.59) rotate(133.56)"/><rect class="cls-8" x="179.12" y="150.41" width="7.91" height="6.72" transform="translate(420.66 127.07) rotate(133.56)"/></g><text class="cls-12" transform="translate(182.09 157.45) rotate(-46.44)"><tspan x="0" y="0">14 13</tspan></text></g><g><g><rect class="cls-8" x="173.13" y="156.71" width="7.91" height="6.72" transform="translate(415.1 142.06) rotate(133.56)"/><rect class="cls-8" x="167.34" y="162.8" width="7.91" height="6.72" transform="translate(409.74 156.54) rotate(133.56)"/></g><text class="cls-12" transform="translate(170.27 169.91) rotate(-46.44)"><tspan x="0" y="0">16 15</tspan></text></g><g><g><rect class="cls-8" x="161.11" y="169.34" width="7.91" height="6.72" transform="translate(403.97 172.1) rotate(133.56)"/><rect class="cls-8" x="155.32" y="175.43" width="7.91" height="6.72" transform="translate(398.6 186.58) rotate(133.56)"/></g><text class="cls-12" transform="translate(158.21 182.54) rotate(-46.44)"><tspan x="0" y="0">18 17 </tspan></text></g><g><g><rect class="cls-8" x="149.55" y="181.5" width="7.91" height="6.72" transform="translate(393.25 201.01) rotate(133.56)"/><rect class="cls-8" x="143.76" y="187.59" width="7.91" height="6.72" transform="translate(387.88 215.49) rotate(133.56)"/></g><text class="cls-12" transform="translate(146.67 194.71) rotate(-46.44)"><tspan x="0" y="0">20 19</tspan></text></g><text class="cls-2" transform="translate(79.2 190.59) rotate(-44.38)"><tspan x="0" y="0">생활환경관</tspan></text><path class="cls-6" d="M129.33,283.86c14.51-8.51,29.87-17.07,46.08-25.54,16.88-8.83,33.32-16.86,49.19-24.16l67.65,117.36-33.14,20.71,4.14,6.12-33.14,17.35-2.76-5.52-34.52,16.57c-21.17-40.96-42.34-81.92-63.51-122.88Z"/><g><g><rect class="cls-8" x="269.51" y="239.98" width="7.91" height="6.72" transform="translate(54.42 536.63) rotate(-94.91)"/><rect class="cls-8" x="268.79" y="231.61" width="7.91" height="6.72" transform="translate(61.98 526.83) rotate(-94.91)"/></g><text class="cls-16" transform="translate(271.3 236.96) rotate(-5.4)"><tspan x="0" y="0">1</tspan><tspan x="0" y="8.28">2</tspan></text></g><g><g><rect class="cls-8" x="297.11" y="293.79" width="7.91" height="6.72" transform="translate(365.77 715.18) rotate(-143.42)"/><rect class="cls-8" x="290.37" y="288.78" width="7.91" height="6.72" transform="translate(356.59 702.13) rotate(-143.42)"/></g><text class="cls-19" transform="translate(294.61 294.61) rotate(-53.91)"><tspan x="0" y="0">7</tspan><tspan x="0" y="8.28">8</tspan></text></g><g><g><rect class="cls-8" x="281.93" y="278.61" width="7.91" height="6.72" transform="translate(172.62 667.21) rotate(-118.22)"/><rect class="cls-8" x="277.96" y="271.21" width="7.91" height="6.72" transform="translate(173.29 652.8) rotate(-118.22)"/></g><text class="cls-9" transform="translate(281.33 277.05) rotate(-28.71)"><tspan x="0" y="0">5</tspan><tspan x="0" y="8.28">6</tspan></text></g><g><g><rect class="cls-8" x="274" y="259.97" width="7.91" height="6.72" transform="translate(83.98 593.44) rotate(-103.01)"/><rect class="cls-8" x="272.04" y="251.8" width="7.91" height="6.72" transform="translate(89.54 581.52) rotate(-103.01)"/></g><text class="cls-11" transform="translate(274.8 257.5) rotate(-13.5)"><tspan x="0" y="0">3</tspan><tspan x="0" y="8.28">4</tspan></text></g><text class="cls-1" transform="translate(183.18 282.05)"><tspan x="0" y="0">대강당 </tspan></text><g><rect class="cls-8" x="236.48" y="125.73" width="7.91" height="6.72" transform="translate(126.14 376.89) rotate(-93.47)"/><rect class="cls-8" x="235.97" y="117.34" width="7.91" height="6.72" transform="translate(133.97 367.49) rotate(-93.47)"/></g><rect class="cls-8" x="237.9" y="143.98" width="7.91" height="6.72" transform="translate(109.43 397.68) rotate(-93.47)"/><rect class="cls-8" x="237.4" y="135.6" width="7.91" height="6.72" transform="translate(117.26 388.28) rotate(-93.47)"/><g><rect class="cls-8" x="238.86" y="162.65" width="7.91" height="6.72" transform="translate(91.81 418.42) rotate(-93.47)"/><rect class="cls-8" x="238.35" y="154.26" width="7.91" height="6.72" transform="translate(99.64 409.02) rotate(-93.47)"/></g><text class="cls-14" transform="translate(238.53 122.26)"><tspan x="0" y="0">6</tspan><tspan x="0" y="8.28">5</tspan></text><text class="cls-14" transform="translate(240.29 141.59)"><tspan x="0" y="0">4</tspan><tspan x="0" y="8.28">3</tspan></text><text class="cls-14" transform="translate(240.08 159.55)"><tspan x="0" y="0">2</tspan><tspan x="0" y="8.28">1</tspan></text><rect class="cls-4" x="-106.9" y="-120.62" width="330.59" height="140.59" transform="translate(52.69 26.55) rotate(-45)"/><text class="cls-2" transform="translate(-2.29 70.12) rotate(-44.38)"><tspan x="0" y="0">부속이화·금란중학교</tspan></text><path class="cls-4" d="M-43.24,236.38c-3.14,1.38-69.42,70.42-69.42,70.42l11.6,178.11,17.39,15.19L-.82,491.81l-11.05-186.39,23.47-1.38v-14.22l-54.85-53.44Z"/></svg>