<?xml version="1.0" encoding="UTF-8"?><svg id="_레이어_9" xmlns="http://www.w3.org/2000/svg" viewBox="0 0 300 300"><defs><style>.cls-1{fill:#f2f2f2;font-size:4.94px;}.cls-1,.cls-2,.cls-3,.cls-4,.cls-5,.cls-6{font-family:PretendardVariable-Medium, 'Pretendard Variable';font-variation-settings:'wght' 500;}.cls-2{font-size:15.27px;}.cls-2,.cls-3,.cls-4,.cls-5,.cls-6{fill:#0e0e0d;}.cls-3{font-size:15.27px;}.cls-4{font-size:15.27px;}.cls-7{fill:#ef0;stroke:#000;stroke-miterlimit:10;stroke-width:.63px;}.cls-5{font-size:15.27px;}.cls-6{font-size:15.27px;}.cls-8{fill:#004725;}.cls-9{fill:#e9eaea;}.cls-10{fill:#ffac00;}.cls-11{fill:#a5a5a5;}.cls-12{font-size:5.01px;}.cls-12,.cls-13,.cls-14,.cls-15,.cls-16,.cls-17,.cls-18,.cls-19,.cls-20,.cls-21,.cls-22{font-family:NanumGothicExtraBold, NanumGothic;}.cls-13{font-size:5.01px;}.cls-14{font-size:5.01px;}.cls-15{font-size:5.01px;}.cls-16{font-size:5.01px;}.cls-17{font-size:5.01px;}.cls-18{font-size:5.01px;}.cls-19{font-size:5.01px;}.cls-20{font-size:5.01px;}.cls-21{font-size:5.01px;}.cls-22{font-size:5.01px;}</style></defs><path class="cls-11" d="M314.2,329.52c32.83-4.72,64.47,7.94,94.05,20.65,7.28,3.13,14.53,6.31,21.84,9.36,3.74,1.56,7.49,3.09,11.27,4.55s7.65,3.19,11.64,3.98c14.88,2.97,19.37-14.86,22.52-25.64,9.62-32.85,12.42-67.15,15.4-101.09,1.5-17.09,2.89-34.26,5.56-51.21,2.48-15.73,6.38-31.6,14.59-45.4,15.19-25.55,43.77-39.01,72.15-43.91,3.78-.65,8.35-1.88,12.13-.78s5.62,4.37,6.07,8.12c.86,7.28-1.9,14.9-3.32,21.96-3.44,17.08-5.91,34.36-7.55,51.71-3.33,35.35-3.16,70.98-.58,106.38,2.59,35.45,8.04,70.45,13.75,105.51,2.95,18.1,5.72,36.24,7.25,54.53,1.5,17.96,1.28,35.89,.83,53.89s-.5,36.22,1.73,54.26,5.91,34.81,10.17,51.93c2.13,8.54,4.38,17.05,6.64,25.56l1.26-.73c-14.54-18.53-29.58-37.63-49.75-50.35-16.94-10.68-37.82-15.54-57.48-10.23-10.29,2.78-19.56,8.51-26.14,16.96h1.06c-8.61-7.47-17.93-14.07-27.89-19.62s-21.1-11.22-32.48-12.76c-20.57-2.78-34.39,14.83-40.25,32.46-4.31,12.98-5.85,26.69-10.28,39.64l.92-.52c-35.88-9.63-71.01-21.93-105.07-36.78l.35,.85c10.75-33.14,13.64-68.61,8.81-103.1-2.43-17.37-6.82-34.47-13.17-50.82-1.47-3.78-3.04-7.53-4.71-11.22-1.99-4.39-4.75-8.92-4.96-13.85s2.46-9.58,4.59-13.91,4.42-8.83,6.71-13.21c10.19-19.55,21.31-38.61,33.35-57.08,.53-.81-.77-1.57-1.3-.76-10.73,16.46-20.73,33.4-29.99,50.73-4.52,8.45-9.31,16.97-13.03,25.81-1.48,3.52-2.25,7.09-1.52,10.89,.79,4.14,2.94,7.93,4.67,11.73,14.88,32.67,21.53,68.97,19.91,104.79-.92,20.25-4.54,40.33-10.8,59.61-.09,.28,.05,.72,.35,.85,34.17,14.9,69.42,27.26,105.43,36.93,.41,.11,.79-.14,.92-.52,6.74-19.69,6.83-42.62,20.81-59.2,6.35-7.53,15.04-12.55,25.11-12.09,11.18,.51,22.26,6.13,31.98,11.28,10.93,5.79,21.14,12.85,30.48,20.95,.28,.24,.8,.34,1.06,0,12.19-15.66,32.86-20.7,51.85-17.92,21.6,3.16,39.58,16.51,54.38,31.87,8.98,9.32,17.02,19.5,25.01,29.68,.49,.62,1.43-.06,1.26-.73-9.39-35.38-18.37-70.89-18.77-107.72-.2-18.39,.99-36.77,.63-55.16s-2.29-35.83-4.82-53.59c-5.16-36.15-12.03-71.97-15.61-108.35s-4.77-71.66-2.66-107.49c1.07-18.11,3-36.18,5.94-54.08,1.47-8.91,3.19-17.77,5.15-26.58,1.18-5.29,2.46-11.46,.19-16.64-2.71-6.18-9.28-5.98-15.01-5.15-7.03,1.02-13.99,2.53-20.8,4.57-13.26,3.98-26,10.02-36.89,18.65-11.42,9.05-19.95,20.83-25.44,34.31-5.95,14.62-8.5,30.35-10.4,45.94-4.24,34.84-5.48,70.04-11.32,104.69-1.45,8.61-3.19,17.17-5.33,25.63-2.02,8.01-4.04,16.43-7.54,23.94-1.46,3.14-3.37,6.32-6.22,8.38-3.71,2.69-8.13,2.36-12.33,1.06-8.11-2.52-16-6.05-23.81-9.36-29.08-12.33-58.57-27.15-90.62-29.3-7.47-.5-14.94-.21-22.35,.85-.95,.14-.55,1.59,.4,1.45h0Z"/><path class="cls-11" d="M139.54,214.81c3.65,2.77,8.78,5.1,10.84,9.43,.54,1.13,.88,2.39,.71,3.65-.2,1.45-1,2.76-1.63,4.05-1.18,2.42-2.38,4.83-3.57,7.24-4.86,9.81-9.76,19.61-14.19,29.62-4.4,9.93-8.37,20.07-11.32,30.53s-4.86,21.71-5.33,32.85c-.26,5.94-.18,11.9,.11,17.84,.14,2.93,.33,5.86,.55,8.79s.61,5.81,.58,8.72-.67,5.42-2.34,7.67c-1.43,1.91-3.37,3.4-5.36,4.69-4.65,3-9.69,5.49-14.65,7.9-2.58,1.26-5.34,2.92-8.2,3.39-2.7,.45-5.15-.87-7.17-2.54s-3.79-3.65-5.66-5.48c-2.04-1.99-4.13-3.93-6.26-5.83-4.08-3.62-8.32-7.05-12.7-10.29s-9-6.43-13.98-8.8c-10.12-4.83-21.24-5.09-32.24-4.66-11.77,.46-23.47,.73-35.24-.05-5.95-.4-11.9-.99-17.81-1.8-2.99-.41-5.97-.87-8.95-1.38-2.23-.38-4.84-.68-6.64-2.2-2.11-1.79-1.84-5.08-2-7.58-.2-3.05-.39-6.1-.56-9.15-.35-6.02-.67-12.04-.96-18.07-.57-12.05-1-24.1-1.3-36.16-.14-5.83-.63-11.86,.37-17.64,.93-5.41,3.61-10.09,6.82-14.46,6.76-9.19,14.34-17.86,22.11-26.2,3.82-4.1,7.68-8.25,11.86-11.99s8.5-6.4,13.75-7.81,10.74-1.59,16.15-1.57c5.82,.02,11.65,.15,17.47,.24,12.16,.18,24.33,.35,36.49,.53,12.21,.18,24.44,.12,36.64,.58,5.79,.22,11.55,.83,17.12,2.49,4.88,1.45,9.5,3.61,13.95,6.05,4.26,2.34,8.37,4.92,12.55,7.38,.84,.49,1.59-.81,.76-1.3-8.9-5.24-17.64-10.99-27.68-13.82-5.52-1.56-11.23-2.11-16.95-2.32-6.29-.23-12.6-.23-18.9-.32-12.58-.18-25.16-.36-37.74-.54-6.25-.09-12.5-.18-18.75-.27s-12.02-.29-18.03-.18c-5.3,.09-10.7,.55-15.75,2.29s-9.26,4.8-13.12,8.38c-8.61,7.98-16.47,16.93-23.98,25.95-3.54,4.25-7.1,8.53-10.27,13.06s-5.45,9.3-6.17,14.77c-.8,5.99-.33,12.16-.18,18.18s.35,12.39,.58,18.58c.46,12.47,1.07,24.93,1.83,37.38,.19,3.07,.32,6.16,.59,9.23,.19,2.18,.75,4.22,2.55,5.62s3.92,1.78,6,2.15c2.97,.53,5.95,.99,8.94,1.41,12.18,1.71,24.48,2.58,36.78,2.57,11.68,0,23.55-1.62,35.18-.1,5.89,.77,11.48,2.59,16.69,5.44s9.61,6.09,14.09,9.55,9.04,7.33,13.28,11.32c2.07,1.95,4.06,3.98,6.09,5.97,1.72,1.69,3.59,3.35,5.84,4.28s4.71,.8,7.03-.07c2.63-.99,5.17-2.32,7.69-3.57,4.95-2.45,10.11-4.92,14.63-8.12,4.04-2.87,6.81-6.59,7.14-11.66,.19-2.96-.23-5.94-.46-8.88-.24-3.09-.45-6.18-.6-9.28-.6-12.11-.33-24.28,1.79-36.24,1.96-11.05,5.29-21.82,9.34-32.27,4.12-10.62,8.99-20.94,14-31.16,2.47-5.05,4.99-10.08,7.47-15.12,.63-1.27,1.25-2.55,1.88-3.82,.56-1.14,1.16-2.26,1.39-3.52,.37-2.12-.36-4.31-1.53-6.07-2.55-3.86-7.12-6.07-10.71-8.8-.77-.58-1.52,.72-.76,1.3h0Z"/><path class="cls-11" d="M-225.64,197.93c-1.87-.65-3.67-1.44-5.47-2.26-1.19-.54-2.41-1.14-3.71-1.38-2.48-.44-4.53,.98-6.14,2.75-2.48,2.72-3.76,6.29-4.56,9.83-.93,4.11-1.42,8.34-1.96,12.52-2.52,19.26-3.48,38.71-3.2,58.13,.55,38.77,5.92,77.31,13.08,115.35,3.6,19.1,7.66,38.12,11.85,57.1,1.08,4.87,2.16,9.75,3.25,14.62,.82,3.66,1.37,7.67,3.34,10.93,4.43,7.32,13.51,4.39,20,2.16,8.76-3.01,17.19-6.89,25.62-10.71,8.38-3.79,16.83-7.39,25.48-10.54,17.18-6.25,34.88-11.02,52.79-14.65,36.02-7.31,72.77-10.1,109.43-11.73,9.09-.4,18.23-.44,27.3-1.12,7.66-.57,15.81-2.8,19.87-9.94,1.69-2.98,2.28-6.48,1.33-9.8-1-3.49-3.41-6.37-5.96-8.86-5.97-5.85-12.49-11.52-19.45-16.17-7.44-4.99-15.5-7.98-24.37-9.19-9.42-1.29-19.02-1.51-28.5-2.1s-18.6-1.02-27.88-1.78c-6.93-.57-13.9-1.51-20.53-3.69-6.5-2.14-12.72-5.66-16.83-11.27-5.27-7.19-6-16.39-6.74-24.97-1.66-19.3-1.88-39.12,.6-58.36,.63-4.9,1.54-9.77,2.89-14.53,1.16-4.08,2.67-8.06,4.13-12.04,2.82-7.65,5.9-15.68,5.85-23.96-.02-3.64-.74-7.24-2.32-10.53-1.48-3.09-3.78-6.21-7.43-6.64-3.06-.37-5.84,1.39-8.06,3.29-2.95,2.52-5.22,5.68-7.89,8.47-12.23,12.83-31.37,13.57-47.66,10.23-9.29-1.9-18.41-4.77-27.37-7.84s-17.53-6.45-26.11-10.13-16.37-7.29-24.48-11.12c-.87-.41-1.63,.88-.76,1.3,16.31,7.71,32.81,15.11,49.87,21.03,8.58,2.98,17.3,5.73,26.16,7.72,8.58,1.93,17.48,3.01,26.25,1.84,7.39-.99,14.71-3.55,20.71-8.04,2.98-2.23,5.35-4.94,7.79-7.73,2.25-2.58,4.72-5.46,7.9-6.9,8.81-3.99,12.04,9.98,11.88,16.01-.21,8.34-3.49,16.37-6.33,24.09-3,8.15-5.31,16.27-6.46,24.9-1.25,9.44-1.67,19.01-1.79,28.52s.22,19.49,1.01,29.21c.67,8.13,1.2,16.85,5.25,24.14,6.6,11.89,20.53,16.04,33.15,17.74,7.84,1.06,15.77,1.34,23.66,1.83,9.67,.6,19.34,1.19,29.01,1.81,9.22,.59,18.48,1.51,26.92,5.55,7.6,3.63,14.17,9.01,20.44,14.55,5.47,4.84,14.19,11.08,12.09,19.51-2.21,8.86-11.84,11.76-19.85,12.36-8.7,.65-17.46,.69-26.17,1.07s-18.04,.86-27.04,1.44c-17.69,1.14-35.36,2.75-52.93,5.16-35.25,4.85-70.12,13.17-102.77,27.51-8.45,3.71-16.77,7.73-25.36,11.12-4.04,1.59-8.16,3.16-12.37,4.25-3.82,.99-8.46,1.47-11.46-1.65-2.73-2.85-3.3-7.3-4.13-10.99-1.04-4.68-2.09-9.35-3.12-14.03-2.05-9.29-4.08-18.58-6.04-27.88-7.87-37.39-14.69-75.1-17.69-113.23-1.47-18.77-2.01-37.63-1.25-56.45,.38-9.51,1.1-19,2.18-28.46,.55-4.79,1.17-9.57,1.94-14.33,.6-3.73,1.38-7.6,3.38-10.86,1.4-2.28,3.74-4.99,6.7-4.26s5.75,2.51,8.65,3.52c.92,.32,1.31-1.13,.4-1.45h0Z"/><path class="cls-11" d="M-60.92,201.45c-3.17-3.33,1.81-9.89,3.39-12.92s3.26-6.24,4.89-9.36c.38-.73-.57-1.55-1.18-.91l-.4,.42,1.26,.73c4.9-15.05,7.73-32.23,4.69-47.96-1.39-7.19-4.47-13.45-8.95-19.2-4.69-6.04-10.36-11.38-14.11-18.12-4.72-8.48-4.55-18.47-5.16-27.9-.58-8.92-1.31-17.85-1.71-26.78-.83-18.49,7.68-33.48,17.29-48.59,.45-.71-.64-1.58-1.18-.91l-.54,.67,1.18,.91C-41.34-39.61-23.87-72.37-7.9-105.82c7.57-15.86,14.33-32.2,22.7-47.66,4.27-7.89,9.06-15.53,14.8-22.45,4.81-5.8,10.31-10.97,15.4-16.52,8.57-9.36,16.25-20.75,14.49-34.05-1.55-11.67-9.55-22.67-20.68-26.87-11.21-4.23-24-.37-32.36,7.85-8.76,8.6-11.56,21.25-7.35,32.77,2.21,6.04,6.06,11.49,11.14,15.46,1.39,1.08,2.86,2.05,4.42,2.87,.99,.52,3.61,1.16,4.42,1.88,1.47,1.31-4.84,10.05-6.07,12.19-10.44,18.2-19.87,36.95-28.35,56.14l1.4,.38c.87-10.38,1.55-21.45-4.31-30.61s-15.17-14.75-23.32-20.95c-10.41-7.92-20.81-15.84-31.22-23.76-5.46-4.16-10.93-8.32-16.39-12.47-4.79-3.65-13.83-8.04-15.14-14.38-.11-.52-.69-.63-1.1-.45l-.22,.1,1.03,1.03c25.29-33.51,50.59-67.01,75.88-100.52,23-30.46,45.58-60.95,59.9-96.63,14.13-35.21,21.75-72.52,30.62-109.27,2.19-9.08,4.46-18.15,6.92-27.16s5.1-18.83,10.78-26.79c5.31-7.44,12.5-13.28,18.54-20.07s10.81-13.49,15.45-20.78c11.95-18.76,21.98-38.82,32.62-58.34,11.26-20.65,22.52-41.3,33.78-61.95h-1.3c9.71,20.07,31.69,30.86,51.07,39.34,11.61,5.09,25.33,9.59,35.34,17.59,4.51,3.61,2.38,7.65,.87,12.08l-3.44,10.04c-2.5,7.3-5,14.6-7.5,21.9-.11,.33,.08,.67,.35,.85,4.11,2.72,8.42,4.69,13.16,6.03,.29,.08,.72-.05,.85-.35,11.73-27.42,24.88-54.21,39.49-80.21,3.32-5.91,6.75-14.35,14.69-14.43,7.51-.08,14.15,5.34,20.49,8.71,5,2.66,10.67,4.94,16.45,4.21,4.97-.62,8.81-3.6,12.34-6.95,18.36-17.39,34.34-49.47,64.01-47.23,13.98,1.06,27.08,13.33,35.78,23.58,11.04,13,10.58,29.69,3.78,44.67s-16.74,26.89-25.62,39.68c-7.77,11.19-18.97,23.36-19.2,37.73,0,.61,.86,1.05,1.28,.53l.2-.24-1.26-.33c5.97,17.1-5.77,32.94-17.64,44.03-11.28,10.54-22.43,20.02-29.83,33.86-6.94,12.99-10.94,27.31-14.41,41.55-4.13,16.9-8.08,33.83-12.63,50.62-9.3,34.33-20.11,68.25-32.41,101.62-3.13,8.48-6.34,16.93-9.66,25.34-2.86,7.26-5.82,14.64-10.4,21.02-10.43,14.56-27.26,14.79-42.72,20.3-13.59,4.84-25.02,14.02-35.37,23.83-12.87,12.21-25.08,25.19-37.43,37.92-25.21,25.97-50.19,52.17-74.75,78.76C68.89-101.47,24.83-49.06-1.98,13.14c-12.66,29.38-21.37,60.59-23.91,92.55-1.26,15.79-.53,31.65-1.48,47.45s-3.69,34.58-14.34,47.29c-2.55,3.05-5.8,5.68-9.83,6.26-4.91,.71-9.87-2.34-10.63-7.37-.14-.95-1.59-.55-1.45,.4,.72,4.82,4.78,8.06,9.56,8.54,5.39,.55,10.1-2.81,13.4-6.76,9.17-10.95,12.62-26.37,14.11-40.21,1.74-16.18,.87-32.49,1.7-48.71,.91-17.71,3.77-35.29,8.21-52.45C1.32-9.27,43.66-68.67,90.31-121.81c24.27-27.66,49.7-54.32,75.13-80.91,13.36-13.96,26.8-27.85,40.32-41.66,12.21-12.46,24.16-25.84,38.54-35.88,6.72-4.69,13.99-8.47,21.87-10.81s15.55-3.44,22.94-6.43c13.29-5.37,20.13-16.92,25.4-29.62,14.18-34.19,25.96-69.57,36.46-105.04,5.23-17.66,10.05-35.44,14.46-53.32,3.98-16.14,7.18-32.57,12.67-48.29,5.79-16.6,14.54-30.38,27.56-42.24,11.02-10.04,23.12-19.82,27.64-34.65,1.96-6.42,2.07-13.03-.15-19.39-.17-.48-.87-.8-1.26-.33l-.2,.24,1.28,.53c.18-11.26,7.46-20.36,13.6-29.2,6.43-9.26,12.89-18.49,19.27-27.78,10.35-15.05,21.1-33.4,15.54-52.36-2.48-8.44-8.4-14.99-14.73-20.84-6.5-6-13.5-12.41-22.01-15.35-16.91-5.85-34.2,4.18-45.92,15.83-7.15,7.12-13.23,15.2-19.93,22.72-3.51,3.94-7.2,8.29-11.62,11.25-6.11,4.09-13.08,3.15-19.47,.25-7.75-3.51-15.3-10.52-24.27-10.44-8.02,.07-11.63,7.45-15.08,13.55-10.69,18.92-20.63,38.27-29.78,57.98-2.36,5.07-4.66,10.17-6.91,15.29-.74,1.68-1.61,5.62-2.97,6.84-2.21,1.98-6.37-.85-8.59-2.02-2.87-1.52-3.14-2.14-2.5-5.29,.56-2.73,1.91-5.57,2.81-8.21,1.98-5.78,3.96-11.56,5.94-17.34,1.1-3.2,4.53-9.01,3.46-12.52s-7.16-6.01-10.06-7.68c-10.16-5.86-21.08-10.22-31.78-14.96-18.39-8.15-38.92-18.74-48.11-37.74-.25-.51-1.04-.47-1.3,0-19.58,35.9-38.59,72.19-58.86,107.71-4.69,8.22-9.66,16.31-15.32,23.91s-12.26,14.07-18.81,20.84c-5.53,5.73-10.1,11.82-13.12,19.25-3.49,8.58-5.6,17.78-7.91,26.73-9.45,36.7-16.45,74.12-28.8,110.02-6.26,18.2-14,35.82-23.74,52.43-9.74,16.6-21.06,32.19-32.6,47.57-28.33,37.77-56.89,75.37-85.33,113.06-.51,.67,.43,1.29,1.03,1.03-2.54,1.14,4,6.38,4.8,7.01,5.14,4.03,10.41,7.92,15.61,11.88,10.41,7.92,20.81,15.84,31.22,23.76,9.64,7.33,20.36,14.17,28.89,22.81,9.94,10.07,10.04,22.52,8.92,35.77-.06,.72,1.1,1.06,1.4,.38,10.47-23.71,22.44-46.7,35.87-68.87,.25-.42,.01-.98-.45-1.1-11.52-3.17-20.06-13.23-22.26-24.89s3.37-23.62,13.42-30.19,22.35-6.94,32.06-.07,15.41,19.52,13.18,31.33-10.57,20.46-18.44,28.61c-8.33,8.63-15.87,17.41-22.04,27.75C4-138.67-5.36-114.04-16.84-90.85-30.71-62.86-45.8-35.47-62.76-9.21c-.45,.7,.64,1.58,1.18,.91l.54-.67-1.18-.91c-8.33,13.09-16.91,26.97-17.57,42.92-.38,9.16,.82,18.52,1.42,27.65,.54,8.26,.46,16.84,2.23,24.94,3.28,14.98,17.25,23.15,23.4,36.57,7.86,17.17,3.92,39.58-1.69,56.81-.23,.72,.75,1.26,1.26,.73l.4-.42-1.18-.91c-2.87,5.5-6.27,10.97-8.69,16.68-1.15,2.71-1.48,5.17,.65,7.41,.67,.7,1.73-.36,1.06-1.06h0Z"/><path class="cls-11" d="M-355.46,84.37c-17.88,17.25-35.33,34.93-52.89,52.51-8.59,8.6-17.21,17.16-25.92,25.64-7.81,7.6-16,14.92-22.05,24.06-.17,.26-.12,.71,.12,.91,3.73,3.13,7.46,6.27,11.19,9.4,1.32,1.11,4.51,2.91,4.71,4.63s-2.8,4.63-3.87,6.05c-1.62,2.15-2.05,3.34-4.65,2.14-1.84-.85-3.59-2.24-5.25-3.39-4.25-2.95-8.19-6.26-11.93-9.83-.31-.29-.75-.27-1.06,0-33.83,29.88-66.42,61.15-97.69,93.72-.5,.52,0,1.49,.73,1.26l.56-.18-.73-1.26c-15.48,16.63-30.97,33.26-46.45,49.89-.26,.28-.32,.79,0,1.06,16.28,13.6,31.52,28.42,45.48,44.4,7.18,8.22,13.98,16.75,20.52,25.49,5.39,7.21,10.75,14.51,17.01,21.01,11.17,11.59,25.79,20.66,42.28,15.43,7.75-2.46,14.67-7.34,20.1-13.33,.88-.98,4.88-6.03,6.98-4.33,1.13,.91-.51,3.86-.95,4.75-6.58,13.28-21.26,25.19-35.23,29.62-.58,.18-.78,1.07-.18,1.37,9.12,4.64,12.05,15.82,10.16,25.32-2.14,10.79-10.14,19.36-17.74,26.79-17.63,17.24-35.62,34.12-53.43,51.18-14.89,14.25-34.8,28.91-37.94,50.72-1.64,11.35,.31,23.01,1.53,34.3,1.32,12.24,2.63,24.48,3.95,36.72,2.76,25.65,5.52,51.29,8.28,76.94,.54,5.02,.88,10.11,1.67,15.09,.65,4.11,2,8.1,5.78,10.29,3.1,1.8,6.88,1.91,10.37,2.03,6.44,.22,12.88,.33,19.32,.49,25.76,.66,51.52,1.32,77.28,1.97,12.88,.33,25.76,.66,38.64,.99,5.85,.15,11.71,.3,17.56,.45,2.93,.07,5.85,.15,8.78,.22,1.2,.03,4.22-.41,5.27,.13,2.24,1.16,1.89,3.53,1.91,5.76,.02,2.45-.19,8.3-2.16,10.21s-6.43,.6-8.74,.49c-6.41-.32-12.81-.64-19.22-.96-12.81-.64-25.62-1.28-38.43-1.92-25.33-1.27-50.66-2.53-75.99-3.8-7.93-.4-17.39-1.43-24.4,3.23-7.8,5.18-7.11,15.56-7.65,23.81-.82,12.6-1.65,25.19-2.47,37.79-.7,10.76-3.08,22.95-.16,33.53,4.22,15.27,20.16,20.62,34.36,22.08,10,1.03,20.1,.35,30.12,.05,12.56-.38,25.12-.76,37.68-1.15,50.68-1.57,101.37-2.94,152.05-4.47,21.37-.64,42.66-2.67,64.02-3.51,18.52-.73,37.98-1.12,55.94,4.18,7.55,2.23,14.68,5.65,20.58,10.92,6.85,6.12,14.67,8.27,23.84,7.33,10.06-1.03,20.13-4.32,29.67-7.56,8.95-3.05,17.72-6.63,26.25-10.72,35.65-17.08,67.05-42.92,90.65-74.63,12.27-16.48,21.47-35.81,36.93-49.7,16.64-14.95,40.08-19.9,60.16-28.67,76.45-33.38,142.34-92.77,171.09-172.46,13.99-38.79,20.11-83.67,10.27-124.2-4.48-18.44-13.61-35.14-28.83-46.82s-33.21-17.3-51.32-21.23c-9.06-1.97-18.21-3.47-27.37-4.84-10.06-1.51-20.29-2.83-30.48-2.03-9.5,.75-18.78,3.53-26.37,9.46s-13.36,14.49-20.67,21.13c-15.93,14.45-38.21,17.21-58.79,18.64-23.11,1.6-46.11,3.31-69.06,6.55-47.66,6.73-94.66,18.14-140.1,34.03-9.69,3.39-20.1,6.38-29.08,11.45-7.44,4.21-11.93,10.44-13.09,18.97-1.23,9.05-.51,18.75,.35,27.81,.79,8.41,2.2,16.82,4.8,24.86,4.43,13.69,12.64,25.88,26.38,31.37l-.33-1.26c-2.79,3.6-5.58,7.21-8.37,10.81-.93,1.2-2.84,4.88-4.18,5.41-2.19,.85-4.75-2.1-6.43-3.51-6.16-5.18-11.51-11.3-15.91-18.04-8.77-13.47-13.41-29.06-13.71-45.1-.16-8.58-.05-23.35-9.46-27.62-5.72-2.59-11.59,.78-16.7,3.24-8.61,4.14-17.15,8.44-25.6,12.89-8.46,4.46-16.84,9.07-25.13,13.83-3.9,2.24-7.79,4.52-11.65,6.83-1.89,1.13-3.78,2.59-5.78,3.49-1.24,.56-1.42,1.22-2.62,.5-.64-.38-1.95-3.9-2.29-4.59-.98-1.97-2.36-4.04-3.06-6.12-.97-2.93,.16-3.16,2.73-4.63,4.28-2.45,8.55-4.9,12.83-7.35,8.55-4.9,17.1-9.8,25.65-14.7s17.1-9.8,25.65-14.7c6.71-3.85,14.05-7.34,19.86-12.53,12.68-11.32,8.41-29.82,7.16-44.8-3.63-43.32-9.16-86.47-16.47-129.33-.09-.5-.72-.66-1.1-.45-2.48,1.34-4.96,2.69-7.44,4.03-1.59,.86-5.44,3.87-7.12,2.7-.41-.29-1.13-2.55-1.41-3.2-.7-1.6-1.41-3.2-2.11-4.8-.77-1.75-3.6-5.74-2.78-7.58,.34-.76,3.01-2.3,3.72-3.02,1.12-1.12,2.12-2.38,3.02-3.68,2.05-2.99,3.48-6.38,4.59-9.82,2.69-8.35,3.4-17.25,4.48-25.9,1.46-11.67,2.93-23.34,4.39-35s2.95-23.25,4.37-34.88c1.25-10.22,2.27-20.93-1.38-30.8-3.12-8.45-9.1-15.45-14.88-22.2-6.79-7.93-13.88-15.62-21.24-23.02-16.21-16.31-33.75-31.24-52.38-44.73-.78-.57-1.53,.73-.76,1.3,28.19,20.41,54.01,44.25,76.29,71.02,5.96,7.16,11.43,14.8,13.21,24.13s.28,19.15-.9,28.55c-2.41,19.25-4.83,38.51-7.24,57.76-1.99,15.84-1.48,40.13-17.07,49.62-.38,.23-.44,.65-.27,1.03,2.58,5.86,5.17,11.72,7.75,17.59,.17,.38,.7,.44,1.03,.27,4.96-2.69,9.93-5.38,14.89-8.07l-1.1-.45c6.22,36.44,11.15,73.1,14.7,109.9,.89,9.22,1.7,18.44,2.42,27.68,.63,8.02,2.05,16.87-.43,24.71-2.7,8.52-10.32,13.34-17.66,17.58-7.73,4.46-15.48,8.88-23.23,13.31-18.11,10.38-36.21,20.76-54.32,31.13-.37,.21-.45,.67-.27,1.03,2.55,5.1,5.09,10.2,7.64,15.31,.18,.36,.7,.47,1.03,.27,13.67-8.39,27.57-16.38,41.72-23.93,6.94-3.71,13.94-7.31,21-10.8,3.52-1.75,7.06-3.47,10.61-5.16,3.79-1.8,8.1-3.9,12.35-2.36,10.45,3.78,8.96,21.06,9.35,29.78,.55,12.16,3.86,24.15,9.41,34.98,6.37,12.41,15.68,23.06,27.17,30.97,.24,.17,.72,.13,.91-.12,4.53-5.86,9.06-11.71,13.6-17.57,.36-.47,.23-1.03-.33-1.26-26.53-10.59-30.49-44.93-30.86-69.73-.13-8.42-.47-17.97,5.39-24.74,5.38-6.23,13.79-8.94,21.26-11.73,17.38-6.5,35-12.33,52.81-17.5,35.52-10.3,71.83-17.93,108.5-22.77,17.91-2.36,35.89-4.01,53.92-5.1,15.06-.91,30.46-1.75,44.91-6.47,6.72-2.2,13.18-5.27,18.88-9.49s10.59-9.98,15.47-15.41c5.74-6.39,11.95-12.12,20.11-15.21s16.49-3.63,24.88-3.32c15.39,.58,31.05,3.51,46.1,6.7,14.37,3.04,28.75,7.21,41.64,14.41,13.56,7.57,24.63,18.51,31.54,32.5,7.64,15.48,10.36,32.99,11.3,50.07,1.82,33.3-4.08,66.76-15.9,97.88-23.6,62.13-70.5,112.22-127.13,145.98-13.64,8.13-27.82,15.35-42.38,21.68-15.3,6.64-31.77,11.1-46.41,19.15-13.37,7.35-23.05,18.8-31.53,31.25-8.98,13.19-17.23,26.69-27.52,38.95-19.95,23.79-44.45,43.7-71.81,58.37-13.67,7.33-28.05,13.35-42.9,17.86-8.11,2.47-16.74,5.2-25.27,5.41-4.33,.11-8.88-.45-12.85-2.28-3.49-1.61-6.01-4.37-8.97-6.71-19.53-15.51-49.03-14.56-72.52-13.76-16.13,.55-32.23,1.85-48.34,2.77-18.28,1.04-36.59,1.31-54.89,1.82-38.85,1.09-77.7,2.31-116.54,3.51-18.42,.57-36.9,1.61-55.32,1.62-12.6,0-27.71-1.15-37.51-10.07-6.3-5.74-8.22-13.76-8.13-22.05,.1-9.22,1.07-18.48,1.68-27.68,.64-9.73,1.27-19.47,1.91-29.2,.56-8.6-.79-21,7.61-26.24,6.47-4.03,15.03-3.14,22.29-2.78,9.61,.48,19.22,.96,28.83,1.44,19.22,.96,38.43,1.92,57.65,2.88,18.93,.95,37.85,1.89,56.78,2.84,.25,.01,.54-.15,.65-.37,3.01-6.01,3.72-12.41,2.09-18.93-.08-.33-.4-.54-.72-.55-39.22-1-78.45-2-117.67-3-9.66-.25-19.32-.49-28.98-.74-4.68-.12-9.37-.24-14.05-.36s-9.67,.31-14.16-.8c-5.97-1.48-7.87-6.17-8.6-11.76-.66-5.09-1.11-10.21-1.65-15.31-1.03-9.62-2.07-19.23-3.1-28.85-2.1-19.53-4.2-39.05-6.3-58.58-1.03-9.62-2.07-19.23-3.1-28.85-.95-8.8-2.21-17.75-1.43-26.61,1.68-19.1,15.39-31.45,28.43-43.94,14.07-13.47,28.13-26.93,42.2-40.4,7.41-7.09,14.93-14.08,22.19-21.32,5.83-5.81,11.43-12.16,14.67-19.83,4.77-11.29,3.01-27.07-8.91-33.14l-.18,1.37c14.34-4.55,29.03-16.54,35.98-30.02,.97-1.89,3.13-6.24,0-7.3-1.44-.49-3.65,.46-4.84,1.2-1.75,1.09-2.9,3.07-4.33,4.57-2.29,2.4-4.81,4.56-7.52,6.45-10.49,7.33-23.57,9.47-35.15,3.4-10.92-5.72-19.24-15.15-26.7-24.75-15.99-20.55-31.74-40.75-50.5-58.92-5.52-5.34-11.19-10.53-17.01-15.55-.87-.75-3.93-2.55-4.23-3.6-.49-1.69,1.92-3.32,2.95-4.43,2.78-2.98,5.56-5.97,8.34-8.95,11.31-12.15,22.63-24.31,33.94-36.46,.49-.53,.01-1.49-.73-1.26l-.56,.18,.73,1.26c18.76-19.54,37.99-38.64,57.7-57.23,9.84-9.29,19.81-18.45,29.88-27.49,2.39-2.14,4.86-5.04,7.57-6.75,1.42-.9,1.49-1.53,3.18-.62,1.27,.67,2.42,2.18,3.53,3.11,4.66,3.9,9.67,7.3,14.95,10.29,.38,.22,.78,.06,1.03-.27,2.65-3.53,5.29-7.05,7.94-10.58,.18-.24,.11-.72-.12-.91-2.63-2.21-5.27-4.43-7.9-6.64-1.32-1.11-2.63-2.21-3.95-3.32-.83-.69-3.56-2.23-3.95-3.32-.97-2.73,3.3-6.37,5.06-8.37,1.99-2.25,4.08-4.41,6.22-6.52,9.66-9.58,19.5-18.98,29.14-28.59,19.63-19.57,39.05-39.36,59-58.62,.7-.67-.37-1.73-1.06-1.06h0Z"/><path class="cls-11" d="M309.68,101.58c1.55-5.56-2.45-10.44-8.31-8.14-3.49,1.37-5.83,4.64-7.96,7.55-2.77,3.78-5.46,7.61-8.22,11.39-5.64,7.75-11.56,15.39-18.68,21.85-6.31,5.72-13.53,10.07-21.27,13.56-14.43,6.5-30.11,10.24-43.89,18.18-3.09,1.78-6.05,3.78-8.8,6.04-1.46,1.21-2.86,2.49-4.18,3.85-.96,.99-2.36,3.55-3.54,4.11-1.31,.62-4.31-1.05-5.62-1.53-2.75-1.03-5.46-2.17-8.11-3.44-4.4-2.1-8.66-4.52-12.71-7.24-2.69-1.8-6.44-3.66-6.8-7.07s2.02-6.48,3.59-9.39c2.19-4.06,4.3-8.31,4.8-12.96,.74-6.86-3.46-14.93-11.02-15.17-.25,0-.54,.15-.65,.37-5.98,12-13.21,23.34-21.67,33.74-3.9,4.8-7.98,9.63-12.72,13.62-5.57,4.69-12.03,7.2-19.24,7.99-6.73,.74-13.6,.48-20.36,.41-7.29-.08-14.58-.26-21.86-.54-14.14-.55-28.27-1.48-42.36-2.79-3.24-.3-6.98-.2-10.1-1.15-4.32-1.31-4.02-7-4.43-10.65-.76-6.76-1.29-13.54-1.58-20.34-.58-13.39-.25-26.82,.98-40.16C-2.58,76.82,3.51,50.25,13.13,25.05,22.91-.56,36.91-25.14,58.1-42.99l-1.28-.53c.45,12.63,1.18,24.91,6.1,36.71,4.2,10.06,10.57,19.15,18.3,26.81,17.1,16.95,40.12,25.9,63.84,28.24,26.81,2.65,53.6-2.94,78.82-11.77,12.81-4.49,25.53-9.62,37.81-15.43,7.99-3.78,17.61-11.26,13.72-21.41-.59-1.54-1.57-3.08-2.92-4.07-1.88-1.37-3.98,.39-5.93,1.19-6.11,2.51-12.18,5.1-18.25,7.68-13.46,5.7-26.98,11.34-40.93,15.75-26.41,8.36-55.95,12.51-82.66,2.98C103,15.42,83.65-1.82,78.12-24.81c-6.44-26.72,5.82-53.78,22.02-74.48,8.23-10.52,17.63-20.05,27.08-29.46,10.49-10.45,21.01-20.88,31.51-31.33,21.39-21.26,42.78-42.52,64.17-63.78,5.23-5.2,10.46-10.4,15.7-15.6,.65-.65-.17-1.49-.91-1.18l-.73,.31,.91,1.18c8.06-8.98,17.35-16.79,27.68-23.04,5.15-3.12,11.18-7.01,17.13-8.22,4.25-.86,10.26,1.19,9.1,6.61-.65,3.04-3.05,6.04-4.54,8.72-5.65,10.16-10.52,20.78-11.2,32.55-.59,10.34,1.7,20.83,6.49,30.01,1.18,2.26,2.52,4.45,4.01,6.52,1.61,2.24,3.78,4.23,5.11,6.64,1.9,3.43,.04,6.95-1.21,10.26-1.13,3.02-2.28,6.04-3.48,9.03-2.37,5.91-4.94,11.75-7.99,17.34-2.86,5.25-6.39,9.91-9.77,14.81-2.6,3.77-4.68,8.2-3.24,12.83,1.26,4.06,4.61,7.28,8.33,9.15,7.25,3.65,16.57,2.66,23.04-2.19,7.71-5.78,9.65-16.32,6.06-25-.81-1.96-1.88-3.79-3.23-5.43-.82-1-1.79-1.78-2.69-2.7-1.12-1.15-1.03-1.24-.62-3.1,1.59-7.26,4.31-14.18,7.95-20.65l-1.18,.15c15.39,15.87,40.01,8.64,55.49-2.93,9.7-7.26,17.93-16.22,27.03-24.19,9.56-8.37,19.98-15.76,31.01-22.05,21.71-12.38,46.63-21.38,71.64-23.6,12.37-1.1,25.51-.16,36.5,6.12s17.78,16.81,23.42,27.58c13.6,25.99,25.58,53.16,33.72,81.38,.22,.76,1.19,.67,1.45,0l.15-.4-1.37,.18c17.33,39.72,22.25,83.22,25.41,126.03,.75,10.13,1.74,20.32,1.86,30.48s-1.11,20.85-6.97,29.51c-11.57,17.08-33.67,21.09-52.17,26.09-17.08,4.62-32.17,12.04-44.18,25.28-10.72,11.82-18.15,26.31-23.26,41.34-12.83,37.7-9.42,77.85-13.13,116.91-1.06,11.16-2.72,22.28-5.52,33.15-2.31,8.99-5.11,18.76-11.51,25.79-16.34,17.95-40.83-2.08-56.91-10.15-18.54-9.29-38.32-16.69-58.59-21.18-9.65-2.14-19.96-3.2-29.34,.62-7.24,2.95-13.18,8.31-17.86,14.48-12.22,16.11-14.71,36.87-24.85,54.05-2.64,4.48-6.15,8.84-11.25,10.55-5.66,1.9-12.16-.17-17.81-1.24-11.21-2.13-22.42-4.26-33.63-6.39s-22.85-4.34-34.27-6.51c-9.85-1.87-22.04-2.6-28.32-11.56-5.1-7.28-5.54-16.95-4.7-25.51,1.06-10.71,4.06-21.15,8.05-31.12,8.04-20.09,19.71-38.89,31.4-57.03,6.03-9.36,12.32-18.55,18.85-27.57,6.03-8.32,12.17-16.67,19.45-23.96s15.66-12.98,25.49-16.37c9.07-3.13,18.34-5.31,26.61-10.37,14.25-8.71,24.37-22.63,32.42-36.97,4.25-7.56,8-15.38,11.67-23.22,.41-.87-.89-1.63-1.3-.76-7.7,16.46-15.82,33.31-28.22,46.82-6.02,6.56-13.09,12.2-21.18,15.99-9.53,4.46-20.14,6.01-29.49,10.89-17.64,9.22-29.5,26.91-40.71,42.73-12.97,18.32-25.11,37.35-35.8,57.09-9.67,17.87-18.4,37.66-19.05,58.29-.25,7.88,.99,16.54,6,22.91,5.69,7.23,14.84,8.59,23.34,10.2,23.48,4.46,46.96,8.93,70.44,13.39,8.81,1.67,18.82,4.99,26.57-1.27,7.16-5.79,10.75-15.62,13.96-23.95,6.98-18.14,12.66-40.03,30.89-50.33,10.55-5.96,22.69-4.69,34.02-2.01,10.57,2.49,20.99,5.74,31.15,9.57s20.67,8.54,30.55,13.77c9.08,4.81,17.83,10.89,27.82,13.67,8.16,2.27,16.74,1.43,23.34-4.22,6.26-5.36,9.65-13.42,12.06-21.11,13.18-42.07,6.69-86.75,13.87-129.72,5.56-33.29,20.28-69.49,51.92-85.75,18.37-9.43,39.94-9.98,58.04-20.09,7.58-4.23,14.44-10.12,18.5-17.92,4.37-8.4,5.25-18.02,5.1-27.34-.18-10.57-1.19-21.16-1.98-31.7-.83-11.08-1.78-22.15-3.04-33.18-2.41-21.2-5.94-42.35-11.95-62.85-2.89-9.87-6.39-19.55-10.5-28.98-.29-.66-1.17-.35-1.37,.18l-.15,.4h1.45c-7.19-24.95-17.58-48.56-28.95-71.86-5.15-10.56-10.37-21.44-18.65-29.98s-18.19-12.7-29.36-14.15c-11.79-1.53-23.79,.04-35.35,2.51-12.02,2.57-23.77,6.32-35.08,11.14-23.19,9.88-43.25,24.25-61.46,41.54-10.12,9.61-20.8,19.95-34.39,24.31-12.14,3.89-26.65,3.1-35.94-6.49-.33-.34-.94-.27-1.18,.15-4.19,7.45-7.1,15.43-8.67,23.83-.07,.36,.05,.64,.35,.85,7.87,5.53,10.83,16.9,6.48,25.55s-14.87,12.12-23.65,9.47c-5.12-1.55-10.67-5.78-11.04-11.54s4.24-10.42,7.32-14.76c6.07-8.54,10.46-18.13,14.32-27.83,.98-2.47,1.93-4.95,2.87-7.44s2.32-5.15,2.57-7.79c.42-4.35-3.27-7.35-5.63-10.51-6.15-8.22-9.87-18.21-10.77-28.43-1-11.3,1.78-22,6.72-32.11,2.47-5.05,5.67-9.76,8.04-14.84,1.39-2.98,1.45-6.16-1.1-8.54-3.49-3.26-8.42-2.53-12.49-.92-5.38,2.13-10.55,5.07-15.45,8.13-9.88,6.17-18.8,13.75-26.57,22.41-.6,.67,.14,1.51,.91,1.18l.73-.31-.91-1.18c-20.93,20.8-41.85,41.6-62.78,62.4-20.25,20.12-40.97,39.87-60.64,60.56-16.97,17.85-32.59,38.22-37.59,62.87-4.51,22.26,1.41,44.41,17.61,60.5,16.23,16.11,38.63,23.68,61.19,24.24,27.38,.68,53.81-7.95,78.88-18.13,6.11-2.48,12.19-5.07,18.26-7.64,3.32-1.41,6.65-2.82,9.98-4.21,2.53-1.06,7.83-4.53,10.14-2.38,4.77,4.43,1.23,12.73-2.55,16.32-4.48,4.26-10.7,6.5-16.27,8.93-25.34,11.08-51.8,20.9-79.51,23.67-25.68,2.56-52.86-.94-75.2-14.57C79.82,20.31,64.37,1.18,60.12-21.25c-1.39-7.34-1.54-14.83-1.8-22.27-.02-.68-.79-.95-1.28-.53C33.12-23.89,18.37,4.65,8.36,33.81-2.96,66.79-8.39,101.78-7.74,136.64c.16,8.8,.72,17.59,1.67,26.34,.64,5.86,.33,12.54,7.41,13.62,8.79,1.34,17.85,1.73,26.71,2.35,9.41,.66,18.83,1.15,28.26,1.47s18.76,.49,28.14,.44c7.62-.04,15.5-.36,22.53-3.63s12.69-9.42,17.76-15.33,10.18-12.71,14.61-19.55c2.51-3.87,4.87-7.84,7.07-11.9,.96-1.77,2-5.52,4.07-5.61,2.33-.1,4.73,2.53,5.86,4.28,5.47,8.46-.56,17.67-4.57,25.27-1.62,3.08-3.17,6.44-.76,9.55,2.15,2.77,6.04,4.82,8.96,6.66,7.69,4.84,16.01,8.59,24.69,11.28,.35,.11,.65-.08,.85-.35,12.11-16.11,32.51-21.48,50.47-28.33,8.64-3.29,17.24-7,24.79-12.41,8.7-6.24,15.74-14.38,22.16-22.87,3.8-5.03,7.41-10.2,11.12-15.3,1.99-2.73,4.1-5.94,7.22-7.5,4.73-2.37,8.25,1.38,6.95,6.07-.26,.93,1.19,1.33,1.45,.4h0Z"/><rect class="cls-10" x="13.16" y="46.23" width="166.41" height="43.82" transform="translate(34.48 -32.35) rotate(23.11)"/><rect class="cls-10" x="7.09" y="96.6" width="40.06" height="33.8"/><rect class="cls-10" x="9.6" y="136.66" width="90.14" height="32.55"/><polygon class="cls-9" points="189.89 93.4 168.6 149.18 200.17 156.7 217.43 111.62 249.4 93.4 267.51 85.33 298.81 87.84 302.57 56.54 246.84 56.54 189.89 93.4"/><text class="cls-5" transform="translate(72.47 64.22) rotate(23.11)"><tspan x="0" y="0">포스코관</tspan></text><text class="cls-6" transform="translate(209.86 103.69) rotate(-29.79)"><tspan x="0" y="0">진선미관</tspan></text><text class="cls-3" transform="translate(28.56 156.89)"><tspan x="0" y="0">포스코관</tspan></text><g><g><rect class="cls-7" x="89" y="170.46" width="7.17" height="6.09" transform="translate(289.22 176.73) rotate(119.02)"/><rect class="cls-7" x="85.3" y="177.13" width="7.17" height="6.09" transform="translate(289.56 189.85) rotate(119.02)"/></g><text class="cls-18" transform="translate(89.72 182.18) rotate(-60.98)"><tspan x="0" y="0" xml:space="preserve">1   2</tspan></text></g><g><g><rect class="cls-7" x="102.44" y="174.94" width="7.17" height="6.09" transform="translate(236.52 17.09) rotate(69.83)"/><rect class="cls-7" x="105.06" y="182.09" width="7.17" height="6.09" transform="translate(244.96 19.31) rotate(69.83)"/></g><text class="cls-20" transform="translate(110.63 185.85) rotate(-110.17)"><tspan x="0" y="0" xml:space="preserve">3   4</tspan></text></g><g><g><rect class="cls-7" x="106.79" y="159.42" width="7.17" height="6.09" transform="translate(306.23 177.25) rotate(128.51)"/><rect class="cls-7" x="102.05" y="165.38" width="7.17" height="6.09" transform="translate(303.2 190.64) rotate(128.51)"/></g><text class="cls-12" transform="translate(105.98 170.53) rotate(-51.49)"><tspan x="0" y="0" xml:space="preserve">5   6</tspan></text></g><g><g><rect class="cls-7" x="122.58" y="157.1" width="7.17" height="6.09" transform="translate(205.11 348.11) rotate(-164.55)"/><rect class="cls-7" x="115.24" y="155.07" width="7.17" height="6.09" transform="translate(191.23 342.17) rotate(-164.55)"/></g><text class="cls-13" transform="translate(117.01 159.24) rotate(15.45)"><tspan x="0" y="0" xml:space="preserve">7   8</tspan></text></g><g><g><rect class="cls-7" x="125.02" y="199.03" width="7.17" height="6.09" transform="translate(147.22 440.88) rotate(-151.98)"/><rect class="cls-7" x="118.3" y="195.45" width="7.17" height="6.09" transform="translate(136.24 430.98) rotate(-151.98)"/></g><text class="cls-14" transform="translate(118.41 198.49) rotate(28.02)"><tspan x="0" y="0">11 12</tspan></text></g><g><g><rect class="cls-7" x="138.88" y="206.3" width="7.17" height="6.09" transform="translate(169.9 461.07) rotate(-151.98)"/><rect class="cls-7" x="132.15" y="202.72" width="7.17" height="6.09" transform="translate(158.92 451.17) rotate(-151.98)"/></g><text class="cls-14" transform="translate(132.14 205.66) rotate(28.02)"><tspan x="0" y="0">13 14</tspan></text></g><g><g><rect class="cls-7" x="154.11" y="145.97" width="7.17" height="6.09" transform="translate(270 334.65) rotate(-164.55)"/><rect class="cls-7" x="146.77" y="143.94" width="7.17" height="6.09" transform="translate(256.12 328.71) rotate(-164.55)"/></g><text class="cls-13" transform="translate(146.89 147.68) rotate(15.45)"><tspan x="0" y="0">15 16</tspan></text></g><g><g><rect class="cls-7" x="169.41" y="150.69" width="7.17" height="6.09" transform="translate(298.78 348.01) rotate(-164.55)"/><rect class="cls-7" x="162.06" y="148.66" width="7.17" height="6.09" transform="translate(284.89 342.06) rotate(-164.55)"/></g><text class="cls-13" transform="translate(162.16 152.37) rotate(15.45)"><tspan x="0" y="0">17 18</tspan></text></g><g><g><rect class="cls-7" x="184.89" y="155.24" width="7.17" height="6.09" transform="translate(327.98 361.06) rotate(-164.55)"/><rect class="cls-7" x="177.55" y="153.21" width="7.17" height="6.09" transform="translate(314.1 355.12) rotate(-164.55)"/></g><text class="cls-13" transform="translate(177.64 156.93) rotate(15.45)"><tspan x="0" y="0">19 20</tspan></text></g><g><g><rect class="cls-7" x="202.41" y="182.79" width="7.17" height="6.09" transform="translate(481.02 149.34) rotate(130.39)"/><rect class="cls-7" x="197.48" y="188.59" width="7.17" height="6.09" transform="translate(477.31 162.66) rotate(130.39)"/></g><text class="cls-12" transform="translate(200.44 194.97) rotate(-49.61)"><tspan x="0" y="0">22 21</tspan></text></g><g><g><rect class="cls-7" x="192.43" y="195.2" width="7.17" height="6.09" transform="translate(474.18 179.55) rotate(130.83)"/><rect class="cls-7" x="187.45" y="200.96" width="7.17" height="6.09" transform="translate(470.3 192.85) rotate(130.83)"/></g><text class="cls-19" transform="translate(190.33 207.39) rotate(-49.17)"><tspan x="0" y="0">24 23</tspan></text></g><g><g><rect class="cls-7" x="173.94" y="218.01" width="7.17" height="6.09" transform="translate(457.53 176.54) rotate(119.73)"/><rect class="cls-7" x="170.16" y="224.63" width="7.17" height="6.09" transform="translate(457.62 189.72) rotate(119.73)"/></g><text class="cls-16" transform="translate(173.71 231.07) rotate(-60.27)"><tspan x="0" y="0">26 25</tspan></text></g><g><g><rect class="cls-7" x="164.81" y="232.89" width="7.17" height="6.09" transform="translate(443.11 143.47) rotate(106.91)"/><rect class="cls-7" x="162.59" y="240.18" width="7.17" height="6.09" transform="translate(447.23 155) rotate(106.91)"/></g><text class="cls-17" transform="translate(166.81 246.54) rotate(-73.09)"><tspan x="0" y="0">28 27</tspan></text></g><g><g><rect class="cls-7" x="247.05" y="159.74" width="7.17" height="6.09" transform="translate(540.79 234.43) rotate(160.87)"/><rect class="cls-7" x="239.86" y="162.23" width="7.17" height="6.09" transform="translate(527.6 241.65) rotate(160.87)"/></g><text class="cls-22" transform="translate(241.13 167.87) rotate(-19.13)"><tspan x="0" y="0">29 30</tspan></text></g><g><g><rect class="cls-7" x="267.63" y="146.78" width="7.17" height="6.09" transform="translate(577.02 99.9) rotate(141.81)"/><rect class="cls-7" x="261.65" y="151.49" width="7.17" height="6.09" transform="translate(569.24 112.02) rotate(141.81)"/></g><text class="cls-15" transform="translate(263.88 157.64) rotate(-38.19)"><tspan x="0" y="0">31 32</tspan></text></g><g><g><rect class="cls-7" x="280.38" y="133.15" width="7.17" height="6.09" transform="translate(561.32 -12.99) rotate(126.1)"/><rect class="cls-7" x="275.89" y="139.3" width="7.17" height="6.09" transform="translate(559.16 .42) rotate(126.1)"/></g><text class="cls-21" transform="translate(279.02 145.79) rotate(-53.9)"><tspan x="0" y="0">33 34</tspan></text></g><g><g><rect class="cls-7" x="129.52" y="158.98" width="7.17" height="6.09" transform="translate(218.25 353.65) rotate(-164.55)"/><text class="cls-13" transform="translate(131.17 163.13) rotate(15.45)"><tspan x="0" y="0">9</tspan></text></g><g><rect class="cls-7" x="135.96" y="160.76" width="7.17" height="6.09" transform="translate(230.42 358.86) rotate(-164.55)"/><text class="cls-13" transform="translate(135.98 164.46) rotate(15.45)"><tspan x="0" y="0">10</tspan></text></g></g><path class="cls-8" d="M126.71,169.5c2.39-2.83,7.22-3.1,9.92-.57,1.42,1.33,2.23,3.34,1.93,5.26-.3,1.92-1.8,3.65-3.71,4.04,1.14,1.36,1.85,3.14,1.66,4.91-.19,1.76-1.37,3.45-3.06,4s-3.78-.27-4.44-1.92c0,2.76-2.35,5.39-5.11,5.44-2.76,.05-5.27-2.78-4.66-5.46-2.86,.62-6.06-1.09-7.12-3.82-1.07-2.73,.13-6.15,2.66-7.63-1.11-2.36-.95-5.32,.56-7.44,1.51-2.12,4.37-3.25,6.89-2.57,2.52,.69,4.44,3.23,4.26,5.83"/><text class="cls-1" transform="translate(117.21 175.61)"><tspan x="0" y="0">포스코관</tspan><tspan x="4.27" y="5.93">나무</tspan></text><polygon class="cls-9" points="293.63 -51.53 286.44 -48.96 293.62 -32.66 261.41 -21.17 265.46 -11.95 204.36 9.86 200.31 .64 192.05 3.59 184.88 -12.71 131.46 6.35 125.86 -6.37 115.56 -2.69 102.86 -31.57 296.87 -100.81 309.58 -71.93 288.03 -64.24 293.63 -51.53"/><polygon class="cls-9" points="368.28 -15.41 377.75 8.52 298.43 39.96 286.7 10.32 286.81 10.27 277.33 -13.65 378.57 -53.77 390.3 -24.13 368.28 -15.41"/><polygon class="cls-9" points="66.69 276.04 66.69 346.15 -53.5 346.15 -53.5 276.04 -23.45 276.04 -23.45 294.82 -4.67 294.82 -4.67 304.83 19.12 304.83 19.12 293.56 39.15 293.56 39.15 276.04 66.69 276.04"/><rect class="cls-9" x="-22.2" y="208.43" width="96.4" height="56.34"/><polygon class="cls-9" points="271.72 316.66 259.63 375.53 235.09 370.5 237.65 358.01 169.61 344.03 166.97 356.87 141.2 351.59 153.3 292.72 179.06 298 176.41 310.91 244.45 324.91 247.18 311.63 271.72 316.66"/><path class="cls-9" d="M298.48,178.31c-4.59,5.84-9.18,11.69-13.77,17.53,15.86,11.69,31.72,23.37,47.58,35.06,5.01-5.43,10.02-10.85,15.02-16.28-16.28-12.1-32.55-24.21-48.83-36.31Z"/><text class="cls-3" transform="translate(5.26 240.49)"><tspan x="0" y="0">약학관B동</tspan></text><text class="cls-2" transform="translate(296.76 196.83) rotate(35.14)"><tspan x="0" y="0">아령당</tspan></text><text class="cls-4" transform="translate(303.29 3.98) rotate(-20.18)"><tspan x="0" y="0">종합과학관</tspan></text></svg>