<?xml version="1.0" encoding="UTF-8"?><svg id="_레이어_9" xmlns="http://www.w3.org/2000/svg" viewBox="0 0 300 300"><defs><style>.cls-1{font-size:15.27px;}.cls-1,.cls-2,.cls-3,.cls-4{fill:#0e0e0d;font-family:PretendardVariable-Medium, 'Pretendard Variable';font-variation-settings:'wght' 500;}.cls-5{fill:#ef0;stroke:#000;stroke-miterlimit:10;stroke-width:.63px;}.cls-6{fill:#e9eaea;}.cls-7{fill:#ffac00;}.cls-8{fill:#a5a5a5;}.cls-2{font-size:12.25px;}.cls-3{font-size:12.7px;}.cls-9{font-family:NanumGothicExtraBold, NanumGothic;font-size:5.01px;}.cls-4{font-size:15.28px;}</style></defs><path class="cls-8" d="M536.54-318.63c-17.88,17.25-35.33,34.93-52.89,52.51-8.59,8.6-17.21,17.16-25.92,25.64-7.81,7.6-16,14.92-22.05,24.06-.17,.26-.12,.71,.12,.91,3.73,3.13,7.46,6.27,11.19,9.4,1.32,1.11,4.51,2.91,4.71,4.63s-2.8,4.63-3.87,6.05c-1.62,2.15-2.05,3.34-4.65,2.14-1.84-.85-3.59-2.24-5.25-3.39-4.25-2.95-8.19-6.26-11.93-9.83-.31-.29-.75-.27-1.06,0-33.83,29.88-66.42,61.15-97.69,93.72-.5,.52,0,1.49,.73,1.26l.56-.18-.73-1.26c-15.48,16.63-30.97,33.26-46.45,49.89-.26,.28-.32,.79,0,1.06,16.28,13.6,31.52,28.42,45.48,44.4,7.18,8.22,13.98,16.75,20.52,25.49,5.39,7.21,10.75,14.51,17.01,21.01,11.17,11.59,25.79,20.66,42.28,15.43,7.75-2.46,14.67-7.34,20.1-13.33,.88-.98,4.88-6.03,6.98-4.33,1.13,.91-.51,3.86-.95,4.75-6.58,13.28-21.26,25.19-35.23,29.62-.58,.18-.78,1.07-.18,1.37,9.12,4.64,12.05,15.82,10.16,25.32-2.14,10.79-10.14,19.36-17.74,26.79-17.63,17.24-35.62,34.12-53.43,51.18-14.89,14.25-34.8,28.91-37.94,50.72-1.64,11.35,.31,23.01,1.53,34.3,1.32,12.24,2.63,24.48,3.95,36.72,2.76,25.65,5.52,51.29,8.28,76.94,.54,5.02,.88,10.11,1.67,15.09,.65,4.11,2,8.1,5.78,10.29,3.1,1.8,6.88,1.91,10.37,2.03,6.44,.22,12.88,.33,19.32,.49,25.76,.66,51.52,1.32,77.28,1.97,12.88,.33,25.76,.66,38.64,.99,5.85,.15,11.71,.3,17.56,.45,2.93,.07,5.85,.15,8.78,.22,1.2,.03,4.22-.41,5.27,.13,2.24,1.16,1.89,3.53,1.91,5.76,.02,2.45-.19,8.3-2.16,10.21s-6.43,.6-8.74,.49c-6.41-.32-12.81-.64-19.22-.96-12.81-.64-25.62-1.28-38.43-1.92-25.33-1.27-50.66-2.53-75.99-3.8-7.93-.4-17.39-1.43-24.4,3.23-7.8,5.18-7.11,15.56-7.65,23.81-.82,12.6-1.65,25.19-2.47,37.79-.7,10.76-3.08,22.95-.16,33.53,4.22,15.27,20.16,20.62,34.36,22.08,10,1.03,20.1,.35,30.12,.05,12.56-.38,25.12-.76,37.68-1.15,50.68-1.57,101.37-2.94,152.05-4.47,21.37-.64,42.66-2.67,64.02-3.51,18.52-.73,37.98-1.12,55.94,4.18,7.55,2.23,14.68,5.65,20.58,10.92,6.85,6.12,14.67,8.27,23.84,7.33,10.06-1.03,20.13-4.32,29.67-7.56,8.95-3.05,17.72-6.63,26.25-10.72,35.65-17.08,67.05-42.92,90.65-74.63,12.27-16.48,21.47-35.81,36.93-49.7,16.64-14.95,40.08-19.9,60.16-28.67,76.45-33.38,142.34-92.77,171.09-172.46,13.99-38.79,20.11-83.67,10.27-124.2-4.48-18.44-13.61-35.14-28.83-46.82-14.87-11.41-33.21-17.3-51.32-21.23-9.06-1.97-18.21-3.47-27.37-4.84-10.06-1.51-20.29-2.83-30.48-2.03-9.5,.75-18.78,3.53-26.37,9.46s-13.36,14.49-20.67,21.13c-15.93,14.45-38.21,17.21-58.79,18.64-23.11,1.6-46.11,3.31-69.06,6.55-47.66,6.73-94.66,18.14-140.1,34.03-9.69,3.39-20.1,6.38-29.08,11.45-7.44,4.21-11.93,10.44-13.09,18.97-1.23,9.05-.51,18.75,.35,27.81,.79,8.41,2.2,16.82,4.8,24.86,4.43,13.69,12.64,25.88,26.38,31.37l-.33-1.26c-2.79,3.6-5.58,7.21-8.37,10.81-.93,1.2-2.84,4.88-4.18,5.41-2.19,.85-4.75-2.1-6.43-3.51-6.16-5.18-11.51-11.3-15.91-18.04-8.77-13.47-13.41-29.06-13.71-45.1-.16-8.58-.05-23.35-9.46-27.62-5.72-2.59-11.59,.78-16.7,3.24-8.61,4.14-17.15,8.44-25.6,12.89-8.46,4.46-16.84,9.07-25.13,13.83-3.9,2.24-7.79,4.52-11.65,6.83-1.89,1.13-3.78,2.59-5.78,3.49-1.24,.56-1.42,1.22-2.62,.5-.64-.38-1.95-3.9-2.29-4.59-.98-1.97-2.36-4.04-3.06-6.12-.97-2.93,.16-3.16,2.73-4.63,4.28-2.45,8.55-4.9,12.83-7.35,8.55-4.9,17.1-9.8,25.65-14.7,8.55-4.9,17.1-9.8,25.65-14.7,6.71-3.85,14.05-7.34,19.86-12.53,12.68-11.32,8.41-29.82,7.16-44.8-3.63-43.32-9.16-86.47-16.47-129.33-.09-.5-.72-.66-1.1-.45-2.48,1.34-4.96,2.69-7.44,4.03-1.59,.86-5.44,3.87-7.12,2.7-.41-.29-1.13-2.55-1.41-3.2-.7-1.6-1.41-3.2-2.11-4.8-.77-1.75-3.6-5.74-2.78-7.58,.34-.76,3.01-2.3,3.72-3.02,1.12-1.12,2.12-2.38,3.02-3.68,2.05-2.99,3.48-6.38,4.59-9.82,2.69-8.35,3.4-17.25,4.48-25.9,1.46-11.67,2.93-23.34,4.39-35s2.95-23.25,4.37-34.88c1.25-10.22,2.27-20.93-1.38-30.8-3.12-8.45-9.1-15.45-14.88-22.2-6.79-7.93-13.88-15.62-21.24-23.02-16.21-16.31-33.75-31.24-52.38-44.73-.78-.57-1.53,.73-.76,1.3,28.19,20.41,54.01,44.25,76.29,71.02,5.96,7.16,11.43,14.8,13.21,24.13s.28,19.15-.9,28.55c-2.41,19.25-4.83,38.51-7.24,57.76-1.99,15.84-1.48,40.13-17.07,49.62-.38,.23-.44,.65-.27,1.03,2.58,5.86,5.17,11.72,7.75,17.59,.17,.38,.7,.44,1.03,.27,4.96-2.69,9.93-5.38,14.89-8.07l-1.1-.45c6.22,36.44,11.15,73.1,14.7,109.9,.89,9.22,1.7,18.44,2.42,27.68,.63,8.02,2.05,16.87-.43,24.71-2.7,8.52-10.32,13.34-17.66,17.58-7.73,4.46-15.48,8.88-23.23,13.31-18.11,10.38-36.21,20.76-54.32,31.13-.37,.21-.45,.67-.27,1.03,2.55,5.1,5.09,10.2,7.64,15.31,.18,.36,.7,.47,1.03,.27,13.67-8.39,27.57-16.38,41.72-23.93,6.94-3.71,13.94-7.31,21-10.8,3.52-1.75,7.06-3.47,10.61-5.16,3.79-1.8,8.1-3.9,12.35-2.36,10.45,3.78,8.96,21.06,9.35,29.78,.55,12.16,3.86,24.15,9.41,34.98,6.37,12.41,15.68,23.06,27.17,30.97,.24,.17,.72,.13,.91-.12,4.53-5.86,9.06-11.71,13.6-17.57,.36-.47,.23-1.03-.33-1.26-26.53-10.59-30.49-44.93-30.86-69.73-.13-8.42-.47-17.97,5.39-24.74,5.38-6.23,13.79-8.94,21.26-11.73,17.38-6.5,35-12.33,52.81-17.5,35.52-10.3,71.83-17.93,108.5-22.77,17.91-2.36,35.89-4.01,53.92-5.1,15.06-.91,30.46-1.75,44.91-6.47,6.72-2.2,13.18-5.27,18.88-9.49s10.59-9.98,15.47-15.41c5.74-6.39,11.95-12.12,20.11-15.21s16.49-3.63,24.88-3.32c15.39,.58,31.05,3.51,46.1,6.7,14.37,3.04,28.75,7.21,41.64,14.41,13.56,7.57,24.63,18.51,31.54,32.5,7.64,15.48,10.36,32.99,11.3,50.07,1.82,33.3-4.08,66.76-15.9,97.88-23.6,62.13-70.5,112.22-127.13,145.98-13.64,8.13-27.82,15.35-42.38,21.68-15.3,6.64-31.77,11.1-46.41,19.15-13.37,7.35-23.05,18.8-31.53,31.25-8.98,13.19-17.23,26.69-27.52,38.95-19.95,23.79-44.45,43.7-71.81,58.37-13.67,7.33-28.05,13.35-42.9,17.86-8.11,2.47-16.74,5.2-25.27,5.41-4.33,.11-8.88-.45-12.85-2.28-3.49-1.61-6.01-4.37-8.97-6.71-19.53-15.51-49.03-14.56-72.52-13.76-16.13,.55-32.23,1.85-48.34,2.77-18.28,1.04-36.59,1.31-54.89,1.82-38.85,1.09-77.7,2.31-116.54,3.51-18.42,.57-36.9,1.61-55.32,1.62-12.6,0-27.71-1.15-37.51-10.07-6.3-5.74-8.22-13.76-8.13-22.05,.1-9.22,1.07-18.48,1.68-27.68,.64-9.73,1.27-19.47,1.91-29.2,.56-8.6-.79-21,7.61-26.24,6.47-4.03,15.03-3.14,22.29-2.78,9.61,.48,19.22,.96,28.83,1.44,19.22,.96,38.43,1.92,57.65,2.88,18.93,.95,37.85,1.89,56.78,2.84,.25,.01,.54-.15,.65-.37,3.01-6.01,3.72-12.41,2.09-18.93-.08-.33-.4-.54-.72-.55-39.22-1-78.45-2-117.67-3-9.66-.25-19.32-.49-28.98-.74-4.68-.12-9.37-.24-14.05-.36s-9.67,.31-14.16-.8c-5.97-1.48-7.87-6.17-8.6-11.76-.66-5.09-1.11-10.21-1.65-15.31-1.03-9.62-2.07-19.23-3.1-28.85-2.1-19.53-4.2-39.05-6.3-58.58-1.03-9.62-2.07-19.23-3.1-28.85-.95-8.8-2.21-17.75-1.43-26.61,1.68-19.1,15.39-31.45,28.43-43.94,14.07-13.47,28.13-26.93,42.2-40.4,7.41-7.09,14.93-14.08,22.19-21.32,5.83-5.81,11.43-12.16,14.67-19.83,4.77-11.29,3.01-27.07-8.91-33.14l-.18,1.37c14.34-4.55,29.03-16.54,35.98-30.02,.97-1.89,3.13-6.24,0-7.3-1.44-.49-3.65,.46-4.84,1.2-1.75,1.09-2.9,3.07-4.33,4.57-2.29,2.4-4.81,4.56-7.52,6.45-10.49,7.33-23.57,9.47-35.15,3.4-10.92-5.72-19.24-15.15-26.7-24.75-15.99-20.55-31.74-40.75-50.5-58.92-5.52-5.34-11.19-10.53-17.01-15.55-.87-.75-3.93-2.55-4.23-3.6-.49-1.69,1.92-3.32,2.95-4.43,2.78-2.98,5.56-5.97,8.34-8.95,11.31-12.15,22.63-24.31,33.94-36.46,.49-.53,.01-1.49-.73-1.26l-.56,.18,.73,1.26c18.76-19.54,37.99-38.64,57.7-57.23,9.84-9.29,19.81-18.45,29.88-27.49,2.39-2.14,4.86-5.04,7.57-6.75,1.42-.9,1.49-1.53,3.18-.62,1.27,.67,2.42,2.18,3.53,3.11,4.66,3.9,9.67,7.3,14.95,10.29,.38,.22,.78,.06,1.03-.27,2.65-3.53,5.29-7.05,7.94-10.58,.18-.24,.11-.72-.12-.91-2.63-2.21-5.27-4.43-7.9-6.64-1.32-1.11-2.63-2.21-3.95-3.32-.83-.69-3.56-2.23-3.95-3.32-.97-2.73,3.3-6.37,5.06-8.37,1.99-2.25,4.08-4.41,6.22-6.52,9.66-9.58,19.5-18.98,29.14-28.59,19.63-19.57,39.05-39.36,59-58.62,.7-.67-.37-1.73-1.06-1.06h0Z"/><path class="cls-8" d="M163.92,57.86c10.91,13.1,22.06,26,33.44,38.69,11.43,12.74,23.09,25.27,34.97,37.58,11.82,12.24,23.87,24.27,36.14,36.07,6.13,5.9,12.31,11.74,18.55,17.52,1.53,1.42,3.05,2.86,4.61,4.25,1.05,.93,2.34,1.83,3.81,1.35,1.73-.56,3.14-2.58,4.38-3.81,1.59-1.58,3.17-3.15,4.76-4.73,12.8-12.74,25.58-25.49,38.35-38.26,12.71-12.71,25.5-25.36,38.09-38.19,4.94-5.03,9.9-10.54,12.13-17.38s.94-13.77-2.25-19.96-8.35-11.98-13.39-17.18c-6.29-6.49-12.6-12.96-18.9-19.44-12.62-12.98-25.24-25.97-37.86-38.95-12.68-13.04-25.36-26.08-38.04-39.13-3.07-3.16-6.14-6.31-9.21-9.47-.29-.3-.77-.27-1.06,0-14.77,13.52-29.31,27.31-43.56,41.38-14.15,13.99-28.02,28.26-41.58,42.83-7.72,8.3-15.33,16.69-22.85,25.17-.64,.72,.42,1.79,1.06,1.06,13.31-15.01,26.92-29.73,40.86-44.16,13.82-14.31,27.94-28.32,42.33-42.06,8.18-7.81,16.45-15.53,24.8-23.17h-1.06c12.39,12.74,24.78,25.49,37.17,38.23,12.33,12.69,24.66,25.37,37,38.06,6.2,6.37,12.39,12.74,18.59,19.12,5.72,5.88,11.68,11.61,17.02,17.84,4.64,5.41,8.98,11.65,10.25,18.81s-1.5,14.17-5.9,19.93c-4.85,6.35-10.97,11.8-16.6,17.45-6.26,6.28-12.52,12.55-18.78,18.82-12.53,12.54-25.07,25.07-37.63,37.58-3.11,3.1-6.22,6.2-9.33,9.29-1.59,1.58-3.17,3.16-4.76,4.73-.7,.7-1.41,1.4-2.11,2.1s-1.74,2.15-2.84,2.11c-.97-.03-1.82-1.05-2.48-1.65-.8-.74-1.61-1.48-2.41-2.22-1.55-1.43-3.09-2.86-4.63-4.3-3.02-2.82-6.03-5.66-9.03-8.5-12.11-11.51-24.02-23.23-35.71-35.17-11.64-11.89-23.07-23.99-34.29-36.28-11.27-12.36-22.32-24.93-33.14-37.69-2.63-3.1-5.25-6.22-7.85-9.34-.62-.74-1.68,.32-1.06,1.06h0Z"/><path class="cls-8" d="M4.22,219.29c11.39-13.64,24.32-25.88,37.09-38.19,13.47-12.99,26.95-25.98,40.42-38.97,13.41-12.93,26.83-25.87,40.24-38.8,6.77-6.52,13.53-13.05,20.3-19.57,1.68-1.62,3.35-3.23,5.03-4.85l2.34-2.25c.87-.84,1.91-2.21,3.22-1.4,.77,.48,1.37,1.36,1.97,2.03,.83,.92,1.66,1.85,2.49,2.77,1.55,1.72,3.09,3.45,4.64,5.18,12.42,13.87,24.77,27.8,37.06,41.79,1.53,1.74,3.06,3.48,4.58,5.23v-1.06c-13.14,13.19-26.28,26.37-39.43,39.56-13.08,13.13-26.17,26.26-39.25,39.38-13.14,13.19-26.28,26.37-39.43,39.56l-9.86,9.89c-3.02,3.03-5.95,6.23-9.39,8.79-2.97,2.21-6.61,4.25-10.45,3.89-4.15-.4-6.85-3.77-9.45-6.66-12.45-13.82-24.89-27.64-37.34-41.45-1.29-1.44-3.93-3.44-3.69-5.56,.11-.96-1.4-.95-1.5,0-.21,1.89,1.13,3.29,2.3,4.59,1.61,1.79,3.22,3.58,4.83,5.37,3.22,3.58,6.45,7.16,9.67,10.73,6.39,7.09,12.78,14.19,19.17,21.28,2.96,3.29,5.79,6.87,9.05,9.87,2.66,2.45,5.93,3.78,9.57,3.24s7.05-2.7,9.92-5.02c3.39-2.73,6.36-5.98,9.43-9.06,13.55-13.6,27.11-27.2,40.66-40.8,13.55-13.6,27.11-27.2,40.66-40.8s26.99-27.08,40.48-40.62c1.7-1.71,3.4-3.41,5.1-5.12,.3-.3,.27-.76,0-1.06-12.54-14.31-25.16-28.57-37.84-42.76-3.14-3.52-6.29-7.03-9.44-10.54-1.23-1.37-2.55-3.47-4.29-4.23-1.48-.64-2.75,.25-3.8,1.24-6.97,6.55-13.78,13.28-20.66,19.92-13.71,13.22-27.43,26.45-41.14,39.67-13.77,13.28-27.55,26.56-41.32,39.84-13.16,12.69-26.63,25.17-38.73,38.9-1.45,1.65-2.89,3.32-4.29,5.01-.62,.74,.44,1.81,1.06,1.06h0Z"/><path class="cls-8" d="M-54.16,424.66c17.94-18.17,35.92-36.32,53.92-54.44,18.08-18.2,36.19-36.38,54.34-54.52s36.14-36.09,54.25-54.09c18.11-18,36.25-35.98,54.41-53.92,18.16-17.94,36.36-35.86,54.58-53.75,2.3-2.26,4.6-4.51,6.9-6.77h-1.06c18.31,15.03,35.72,31.22,51.87,48.55,3.77,4.05,7.47,8.34,9.71,13.46,2.44,5.57,2.76,11.74,3.11,17.73,.74,12.62,1.49,25.24,2.23,37.85,1.49,25.36,2.99,50.71,4.48,76.07,1.49,25.36,2.99,50.71,4.48,76.07,.75,12.74,1.5,25.48,2.25,38.22,.31,5.21,1.23,11.41-1.81,16.03-2.76,4.19-8.07,5.2-12.74,5.36-5.67,.2-11.41-.34-17.08-.6-6.36-.29-12.71-.6-19.07-.91-12.59-.62-25.18-1.27-37.77-1.93-25.3-1.32-50.6-2.67-75.91-3.83-25.3-1.16-50.6-2.14-75.92-2.74-25.3-.6-50.62-.8-75.92-.42-6.36,.1-12.72,.23-19.07,.4-3.12,.09-6.24,.19-9.36,.29-2.49,.08-5.04,.13-7.48-.46-6.01-1.45-7.31-6.81-7.51-12.29-.18-5.01-.2-10.06,.39-15.04s1.92-10.05,3.44-14.93c.29-.93-1.16-1.32-1.45-.4-1.51,4.85-2.8,9.76-3.43,14.81s-.65,10.56-.44,15.84c.17,4.33,.88,9.1,4.7,11.77s9.09,2.29,13.58,2.14c26.14-.85,52.3-.99,78.44-.65,26.04,.34,52.06,1.16,78.08,2.23,26.03,1.07,52.05,2.4,78.07,3.75,26.02,1.36,52.04,2.75,78.06,3.94,5.68,.26,11.5,.89,17.19,.45,4.07-.31,8.36-1.36,11.25-4.45,3.37-3.61,3.71-8.73,3.53-13.42-.25-6.46-.74-12.91-1.12-19.36-1.54-26.08-3.07-52.16-4.61-78.23s-3.07-52.16-4.61-78.23c-.77-13.1-1.54-26.2-2.32-39.3-.38-6.45-.75-12.91-1.14-19.36-.34-5.61-.8-11.35-3-16.58s-5.53-9.23-9.15-13.2c-4.03-4.41-8.23-8.69-12.44-12.93-8.66-8.69-17.61-17.1-26.84-25.19-4.48-3.93-9.03-7.78-13.64-11.57-.32-.26-.75-.31-1.06,0-18.23,17.88-36.43,35.79-54.6,53.72s-36.49,36.07-54.69,54.15-36.21,36.02-54.27,54.07c-18.06,18.05-36.1,36.14-54.1,54.25-18.01,18.11-35.99,36.25-53.94,54.42-2.26,2.29-4.53,4.58-6.79,6.88-.68,.69,.38,1.75,1.06,1.06h0Z"/><rect class="cls-7" x="7.53" y="142.56" width="192.11" height="68.17" transform="translate(-94.57 124.98) rotate(-45)"/><g><rect class="cls-5" x="114.54" y="223.56" width="7.17" height="6.09" transform="translate(363.42 298.24) rotate(133.81)"/><text class="cls-9" transform="translate(118.45 228.74) rotate(-46.19)"><tspan x="0" y="0">1</tspan></text></g><text class="cls-4" transform="translate(73.2 209.84) rotate(-42.44)"><tspan x="0" y="0">이화·신세계관</tspan></text><rect class="cls-6" x="201.54" y="-6.67" width="127.33" height="121.97" transform="translate(39.27 203.44) rotate(-45)"/><rect class="cls-6" x="271.2" y="99.53" width="121.8" height="39.25" transform="translate(13.01 269.73) rotate(-45)"/><polygon class="cls-6" points="-49.16 456.47 -44.06 459.53 275.1 466.48 291.38 461.47 277.81 223.82 222.52 163.5 -51.06 432.85 -52.92 440.19 -49.16 456.47"/><text class="cls-1" transform="translate(160.01 267.32)"><tspan x="0" y="0">부속초등학교</tspan></text><text class="cls-2" transform="translate(231.78 87.88) rotate(-44.38)"><tspan x="0" y="0">이화·삼성교육문화관</tspan></text><text class="cls-3" transform="translate(306.57 153.16) rotate(-44.38)"><tspan x="0" y="0">이화·SK텔레콤관</tspan></text></svg>