<?xml version="1.0" encoding="UTF-8"?><svg id="_레이어_9" xmlns="http://www.w3.org/2000/svg" viewBox="0 0 300 300"><defs><style>.cls-1{font-size:6.62px;}.cls-1,.cls-2,.cls-3{fill:#0e0e0d;font-family:PretendardVariable-Medium, 'Pretendard Variable';font-variation-settings:'wght' 500;}.cls-4{fill:#ef0;stroke:#000;stroke-miterlimit:10;stroke-width:.55px;}.cls-5{font-size:4.41px;}.cls-5,.cls-6,.cls-7,.cls-8,.cls-9,.cls-10,.cls-11,.cls-12,.cls-13,.cls-14,.cls-15,.cls-16,.cls-17,.cls-18,.cls-19,.cls-20,.cls-21,.cls-22{font-family:NanumGothicExtraBold, NanumGothic;}.cls-6{font-size:4.41px;}.cls-7{font-size:4.41px;}.cls-8{font-size:4.41px;}.cls-9{font-size:4.41px;}.cls-10,.cls-23,.cls-24{font-size:4.41px;}.cls-11{font-size:4.41px;}.cls-12{font-size:4.41px;}.cls-13{font-size:4.41px;}.cls-14,.cls-20{font-size:4.41px;}.cls-15{font-size:4.41px;}.cls-16{font-size:4.41px;}.cls-17,.cls-19,.cls-21{font-size:4.41px;}.cls-18{font-size:4.41px;}.cls-25{fill:#00df04;}.cls-26,.cls-21{fill:#004625;}.cls-27{fill:#e9eaea;}.cls-28{fill:#f5f5ee;}.cls-29{fill:#ffac00;}.cls-30{fill:#a8b2a5;}.cls-31{fill:#a5a5a5;}.cls-23{letter-spacing:0em;}.cls-32{font-size:.11px;}.cls-19,.cls-20{fill:#fff;}.cls-2{font-size:13.24px;}.cls-3{font-size:13.46px;}</style></defs><path class="cls-31" d="M409.58,39.39c3.26,2.47,7.87,4.56,9.63,8.48,1.19,2.65,.08,4.67-1.1,7.07-1.06,2.15-2.12,4.3-3.18,6.45-4.3,8.68-8.63,17.36-12.54,26.23-7.84,17.79-13.67,36.31-14.42,55.86-.2,5.19-.11,10.39,.14,15.57,.13,2.6,.3,5.19,.5,7.78,.19,2.44,.52,4.91,.47,7.36s-.68,4.8-2.23,6.77c-1.29,1.65-2.98,2.92-4.73,4.04-4.05,2.58-8.41,4.75-12.73,6.85-2.25,1.1-4.65,2.53-7.14,2.98s-4.58-.72-6.39-2.2c-1.72-1.4-3.21-3.08-4.79-4.63-1.74-1.7-3.51-3.36-5.33-4.98-3.55-3.17-7.24-6.18-11.06-9.03s-7.85-5.67-12.18-7.83c-8.82-4.39-18.49-4.83-28.15-4.48-10.34,.37-20.62,.7-30.96,.06-5.19-.32-10.37-.82-15.52-1.49-2.68-.35-5.35-.75-8.02-1.2-2.1-.35-4.5-.55-6.36-1.7-2.25-1.39-2.16-4.07-2.31-6.42-.17-2.65-.34-5.31-.5-7.97-.32-5.31-.6-10.62-.85-15.94-.51-10.71-.9-21.43-1.17-32.15-.13-5.24-.57-10.65,.28-15.85,.79-4.82,3.15-8.99,6.01-12.88,5.96-8.12,12.66-15.77,19.52-23.13s13.3-15.09,22.99-17.56c4.64-1.18,9.48-1.3,14.25-1.27,5.2,.03,10.41,.14,15.61,.22,10.8,.16,21.61,.31,32.41,.47s21.13,.09,31.67,.51c5.06,.2,10.09,.76,14.95,2.22,4.26,1.28,8.29,3.16,12.18,5.3s7.38,4.33,11.06,6.5c.74,.43,1.4-.71,.67-1.14-7.78-4.58-15.4-9.59-24.16-12.11-10.1-2.91-21-2.23-31.4-2.38-11.05-.16-22.11-.32-33.16-.48-10.82-.16-21.66-.56-32.48-.42-4.79,.06-9.67,.44-14.24,1.99s-8.34,4.32-11.8,7.55c-7.56,7.05-14.5,14.92-21.1,22.87-6.07,7.3-13.21,14.93-14.43,24.73-.66,5.31-.24,10.78-.1,16.12s.31,10.97,.52,16.45c.42,11.13,.97,22.26,1.65,33.38,.16,2.68,.2,5.41,.56,8.06,.25,1.82,1.02,3.36,2.58,4.38,1.66,1.09,3.7,1.39,5.61,1.72,2.72,.47,5.45,.89,8.19,1.26,10.6,1.44,21.3,2.16,32,2.12,10.45-.04,21.14-1.55,31.53,.08,10.26,1.61,18.74,7.39,26.76,13.66,4.01,3.13,7.86,6.46,11.55,9.96,1.74,1.65,3.4,3.39,5.13,5.05,1.46,1.4,3.07,2.75,4.98,3.48,4.33,1.66,8.92-1.4,12.68-3.27,4.37-2.16,8.92-4.34,12.91-7.16,3.4-2.41,5.88-5.53,6.29-9.79,.25-2.56-.11-5.16-.31-7.71s-.4-5.34-.54-8.02c-.57-10.73-.39-21.54,1.44-32.15,1.7-9.84,4.63-19.42,8.22-28.72,3.65-9.47,7.99-18.65,12.45-27.76,2.18-4.45,4.4-8.88,6.59-13.33,1.01-2.05,2.51-4.28,2.89-6.56,.31-1.86-.38-3.8-1.41-5.33-2.26-3.36-6.24-5.3-9.39-7.69-.68-.51-1.34,.63-.67,1.14h0Z"/><path class="cls-31" d="M87.74,24.51c-1.65-.57-3.23-1.27-4.82-1.99-1.05-.48-2.12-1.01-3.27-1.21-2.19-.39-4,.87-5.41,2.42-2.19,2.4-3.32,5.55-4.02,8.67-.82,3.62-1.25,7.35-1.73,11.03-2.23,16.98-3.06,34.12-2.82,51.23,.48,34.17,5.22,68.13,11.53,101.66,3.17,16.84,6.75,33.59,10.44,50.32,.95,4.3,1.9,8.59,2.86,12.88,.72,3.22,1.21,6.76,2.95,9.63,3.9,6.45,11.9,3.87,17.63,1.9,7.72-2.65,15.15-6.07,22.58-9.44,7.39-3.34,14.83-6.51,22.45-9.29,15.14-5.51,30.74-9.71,46.52-12.91,31.74-6.44,64.13-8.9,96.44-10.34,8.01-.36,16.07-.39,24.06-.99,6.75-.51,13.93-2.46,17.51-8.76,1.49-2.63,2.01-5.71,1.17-8.64-.88-3.08-3.01-5.61-5.25-7.81-5.26-5.16-11.01-10.15-17.14-14.26-6.56-4.39-13.66-7.03-21.48-8.1-8.3-1.13-16.77-1.33-25.12-1.85-8.19-.51-16.4-.9-24.57-1.56-6.11-.5-12.25-1.33-18.09-3.25-5.73-1.89-11.21-4.99-14.83-9.93-4.64-6.33-5.29-14.44-5.94-22.01-1.46-17.01-1.66-34.48,.53-51.43,.56-4.32,1.36-8.61,2.55-12.8,1.02-3.6,2.35-7.1,3.64-10.61,2.49-6.74,5.2-13.82,5.15-21.11-.02-3.2-.65-6.38-2.04-9.28-1.3-2.72-3.33-5.47-6.55-5.85-2.7-.32-5.15,1.23-7.11,2.9-2.6,2.22-4.6,5-6.95,7.47-10.78,11.31-27.65,11.96-42,9.02-8.18-1.68-16.23-4.2-24.12-6.91-7.78-2.67-15.45-5.69-23.01-8.93s-14.43-6.43-21.57-9.8c-.77-.36-1.44,.78-.67,1.14,14.38,6.8,28.91,13.32,43.95,18.54,7.56,2.62,15.25,5.05,23.06,6.8s15.41,2.66,23.13,1.62c6.51-.87,12.96-3.13,18.26-7.09,2.63-1.97,4.71-4.36,6.86-6.81,1.99-2.27,4.16-4.81,6.96-6.08,7.76-3.52,10.61,8.8,10.47,14.11-.19,7.35-3.07,14.42-5.58,21.23-2.65,7.18-4.68,14.34-5.69,21.94-1.1,8.32-1.47,16.75-1.58,25.13s.19,17.18,.89,25.74c.59,7.17,1.06,14.85,4.63,21.27,5.82,10.48,18.1,14.13,29.22,15.63,6.91,.93,13.9,1.18,20.85,1.62,8.52,.53,17.05,1.05,25.57,1.59,8.12,.52,16.29,1.33,23.73,4.89,6.69,3.2,12.49,7.94,18.02,12.82,4.82,4.26,12.5,9.76,10.65,17.2-1.94,7.81-10.43,10.37-17.49,10.89-7.66,.57-15.39,.61-23.07,.94s-15.9,.76-23.83,1.27c-15.59,1.01-31.17,2.42-46.65,4.55-31.06,4.27-61.8,11.6-90.58,24.25-7.45,3.27-14.78,6.82-22.35,9.8-3.56,1.41-7.19,2.79-10.9,3.75-3.37,.87-7.46,1.3-10.1-1.46-2.41-2.51-2.91-6.43-3.64-9.68-.92-4.12-1.84-8.24-2.75-12.36-1.81-8.18-3.6-16.37-5.32-24.58-6.93-32.95-12.95-66.19-15.59-99.79-1.3-16.54-1.77-33.16-1.1-49.75,.34-8.38,.97-16.75,1.92-25.08,.48-4.22,1.03-8.44,1.71-12.63,.53-3.29,1.21-6.7,2.98-9.57,1.23-2.01,3.3-4.4,5.91-3.75s5.06,2.21,7.62,3.1c.81,.28,1.15-1,.35-1.28h0Z"/><path class="cls-31" d="M-4.38-80.97c-1.62-3.88-2.69-8.21-1.87-12.42s3.6-7.47,6.35-10.43c5.55-5.98,11.94-11.24,17.8-16.93,11.72-11.38,22.89-23.31,33.63-35.62,21.7-24.85,41.63-51.18,61-77.87,19.48-26.85,38.4-54.09,58.08-80.8,2.51-3.4,4.96-6.86,7.58-10.18s5.66-6.11,10.02-5.13,8.09,4.73,11.52,7.44,7.17,5.66,10.75,8.49,7.24,5.68,10.84,8.56c3.13,2.51,6.39,5.46,6.77,9.71s-1.89,8.24-4.23,11.59c-2.76,3.96-5.92,7.67-8.9,11.46-23.2,29.48-46.4,58.96-69.6,88.44-5.08,6.46-10.47,12.8-14.46,20.02-3.4,6.16-5.92,13.26-4.66,20.37,1.4,7.88,7.53,13.19,13.07,18.4,6.87,6.46,13.75,12.92,20.62,19.39,13.66,12.84,27.31,25.68,40.97,38.53,5.93,5.58,12,11.25,16.23,18.29s6.11,15.52,6.33,23.86-.98,16.76-2.43,25.01c-.63,3.58-.95,8.03-3.44,10.9-2.65,3.04-7.13,2.8-10.71,3.81-6.11,1.73-10.64,6.49-15.04,10.8-2.52,2.47-5.09,4.94-8.09,6.82-3.41,2.14-7.3,3.32-11.3,3.65-8.23,.69-16.43-1.71-24.16-4.27s-16.02-5.47-23.89-8.56c-15.69-6.16-30.99-13.56-44.72-23.4-14.63-10.48-27.33-23.44-40.26-35.88-6.72-6.46-13.43-12.92-20.15-19.38S5.94-68.54-.19-75.12c-4.61-4.94-10.29-12.87-5.87-19.6,.47-.71-.68-1.38-1.14-.67-3.93,6-.53,12.98,3.37,18.03,2.53,3.28,5.6,6.06,8.57,8.92,3.49,3.36,6.98,6.71,10.47,10.07,13.79,13.27,27.43,26.71,41.43,39.75,12.92,12.05,26.67,22.72,42.35,30.95,15.25,8,31.45,14.01,47.76,19.47,7.68,2.57,15.72,5.04,23.91,4.82,7.44-.2,13.69-3.16,19.14-8.1,5.07-4.59,9.63-10.54,16.26-12.93,3.32-1.2,7.09-1.03,10.23-2.74s4.38-4.99,5.1-8.27c1.75-7.97,2.96-16.25,3.34-24.4s-.32-16.55-3.35-24.21-8.16-13.75-13.85-19.4c-6.58-6.53-13.47-12.76-20.22-19.11-14.1-13.26-28.2-26.51-42.29-39.77-3.32-3.12-6.72-6.18-9.93-9.41-3.04-3.06-5.76-6.47-7.03-10.65-2.45-8.11,.94-16.54,5.08-23.46,4.65-7.8,10.71-14.75,16.31-21.87,5.99-7.61,11.97-15.22,17.96-22.82,12.05-15.31,24.1-30.62,36.15-45.93,6.06-7.7,12.12-15.41,18.19-23.11,4.34-5.51,10.1-12.91,6.69-20.29-1.55-3.35-4.58-5.66-7.4-7.89-3.77-2.98-7.54-5.95-11.32-8.93s-7.54-5.95-11.32-8.93c-2.96-2.34-6.06-5.12-9.84-5.99-7.59-1.75-12.07,6.43-15.86,11.54-5.09,6.86-10.13,13.77-15.14,20.7-10.03,13.88-19.93,27.86-29.88,41.79-20.06,28.1-40.33,56.09-62.27,82.78-10.78,13.12-21.96,25.92-33.68,38.21-5.86,6.14-11.85,12.15-17.98,18.02S1.2-107.82-3.73-101.32c-2.17,2.86-3.75,5.86-4.06,9.49-.33,3.85,.66,7.69,2.13,11.22,.32,.78,1.6,.44,1.28-.35h0Z"/><path class="cls-31" d="M232.9,27.62c-2.79-2.94,1.59-8.72,2.98-11.38s2.87-5.5,4.31-8.25c.34-.65-.5-1.37-1.04-.8l-.35,.37,1.11,.64c4.32-13.26,6.82-28.4,4.13-42.27-1.23-6.34-3.94-11.85-7.88-16.92-4.14-5.32-9.13-10.03-12.43-15.97-4.16-7.48-4.01-16.28-4.55-24.59-.51-7.86-1.15-15.73-1.51-23.6-.73-16.29,6.76-29.51,15.24-42.82,.4-.62-.56-1.4-1.04-.8l-.48,.59,1.04,.8c17.73-27.46,33.13-56.33,47.2-85.82,6.67-13.98,12.63-28.38,20.01-42.01,3.77-6.95,7.98-13.69,13.04-19.78,4.24-5.11,9.09-9.67,13.57-14.56,7.55-8.25,14.32-18.28,12.77-30.01-1.36-10.29-8.41-19.98-18.23-23.68-9.88-3.73-21.15-.32-28.52,6.92s-10.19,18.73-6.48,28.88c1.95,5.33,5.34,10.13,9.82,13.62,1.22,.95,2.52,1.81,3.89,2.53,.87,.46,3.19,1.02,3.89,1.65,1.3,1.16-4.27,8.86-5.35,10.74-9.2,16.04-17.51,32.57-24.98,49.48l1.23,.33c.77-9.15,1.37-18.9-3.79-26.98-4.95-7.75-13.37-13-20.56-18.46-9.17-6.98-18.34-13.96-27.52-20.94-4.82-3.66-9.63-7.33-14.45-10.99-4.22-3.21-12.19-7.08-13.34-12.68-.09-.46-.61-.56-.97-.4l-.2,.09,.91,.91c22.29-29.53,44.59-59.06,66.88-88.59,20.27-26.85,40.17-53.72,52.79-85.16s19.17-63.91,26.98-96.3c1.93-8,3.93-15.99,6.09-23.94s4.49-16.6,9.5-23.61c4.68-6.55,11.01-11.7,16.34-17.69s9.53-11.89,13.62-18.31c10.53-16.54,19.37-34.21,28.75-51.41,9.93-18.2,19.85-36.4,29.78-54.6h-1.14c8.55,17.68,27.93,27.2,45.01,34.68,10.24,4.48,22.33,8.45,31.14,15.5,3.97,3.18,2.1,6.74,.76,10.64l-3.03,8.85c-2.2,6.43-4.41,12.87-6.61,19.3-.1,.29,.07,.59,.3,.75,3.63,2.4,7.42,4.13,11.6,5.31,.25,.07,.64-.04,.75-.3,10.34-24.16,21.93-47.78,34.8-70.69,2.93-5.21,5.95-12.64,12.95-12.72,6.62-.07,12.47,4.7,18.06,7.68,4.41,2.35,9.4,4.35,14.5,3.71,4.38-.55,7.76-3.17,10.88-6.12,16.18-15.33,30.27-43.6,56.41-41.62,12.32,.93,23.86,11.75,31.53,20.78,9.73,11.46,9.33,26.17,3.33,39.37s-14.75,23.7-22.58,34.97c-6.85,9.87-16.72,20.59-16.92,33.25,0,.54,.76,.92,1.13,.47l.17-.21-1.11-.29c5.26,15.07-5.08,29.03-15.55,38.81-9.94,9.29-19.77,17.65-26.29,29.84-6.12,11.45-9.64,24.07-12.7,36.62-3.64,14.9-7.12,29.81-11.13,44.62-8.19,30.26-17.73,60.15-28.56,89.56-2.75,7.48-5.59,14.92-8.52,22.34-2.52,6.4-5.13,12.9-9.16,18.53-9.19,12.84-24.03,13.04-37.65,17.89-11.97,4.27-22.05,12.36-31.17,21.01-11.35,10.76-22.1,22.2-32.99,33.42-22.22,22.89-44.23,45.98-65.88,69.41-40.14,43.45-78.97,89.64-102.6,144.46-11.16,25.89-18.84,53.4-21.08,81.57-1.11,13.92-.47,27.89-1.3,41.82s-3.25,30.48-12.64,41.68c-2.25,2.68-5.11,5-8.66,5.51-4.33,.62-8.7-2.06-9.37-6.5-.13-.84-1.4-.48-1.28,.35,.64,4.25,4.22,7.1,8.43,7.53,4.75,.48,8.9-2.48,11.81-5.96,8.08-9.65,11.12-23.24,12.44-35.43,1.54-14.26,.76-28.63,1.5-42.93,.8-15.61,3.32-31.1,7.23-46.22,15.82-61.16,53.14-113.52,94.25-160.36,21.39-24.37,43.8-47.88,66.22-71.31,11.77-12.31,23.62-24.55,35.54-36.71,10.76-10.98,21.29-22.78,33.96-31.62,5.92-4.14,12.33-7.46,19.27-9.52s13.71-3.03,20.22-5.66c11.71-4.73,17.74-14.91,22.38-26.1,12.5-30.13,22.88-61.31,32.13-92.58,4.61-15.56,8.86-31.23,12.75-46.99,3.51-14.22,6.33-28.7,11.16-42.56,5.1-14.63,12.82-26.78,24.29-37.23,9.71-8.85,20.38-17.47,24.36-30.54,1.72-5.66,1.82-11.49-.13-17.09-.15-.43-.77-.71-1.11-.29l-.17,.21,1.13,.47c.16-9.92,6.57-17.94,11.98-25.73s11.36-16.3,16.99-24.48c9.13-13.27,18.6-29.43,13.69-46.14-2.18-7.44-7.4-13.21-12.99-18.36s-11.89-10.93-19.39-13.53c-14.9-5.16-30.15,3.68-40.47,13.95-6.3,6.27-11.66,13.39-17.56,20.03-3.09,3.48-6.35,7.31-10.24,9.92-5.38,3.61-11.52,2.78-17.16,.22-6.83-3.09-13.48-9.27-21.39-9.2-7.07,.06-10.25,6.56-13.29,11.94-9.42,16.68-18.18,33.73-26.25,51.1-2.08,4.47-4.11,8.96-6.09,13.48-.65,1.48-1.42,4.95-2.62,6.03-1.95,1.75-5.61-.75-7.57-1.78-2.53-1.34-2.77-1.89-2.2-4.66,.49-2.4,1.68-4.91,2.48-7.24,1.74-5.09,3.49-10.19,5.23-15.28,.97-2.82,3.99-7.94,3.05-11.04s-6.31-5.29-8.86-6.77c-8.96-5.17-18.58-9.01-28.01-13.19-16.21-7.19-34.3-16.52-42.4-33.26-.22-.45-.92-.41-1.14,0-17.26,31.64-34.01,63.63-51.88,94.93-4.14,7.25-8.51,14.38-13.5,21.07s-10.81,12.4-16.58,18.37c-4.87,5.05-8.9,10.42-11.56,16.96-3.08,7.56-4.94,15.67-6.97,23.56-8.33,32.35-14.5,65.32-25.38,96.96-5.52,16.04-12.34,31.57-20.92,46.21-8.58,14.63-18.56,28.37-28.73,41.93-24.97,33.29-50.13,66.43-75.21,99.64-.45,.59,.38,1.14,.91,.91-2.24,1,3.53,5.62,4.23,6.18,4.53,3.55,9.17,6.98,13.76,10.47,9.17,6.98,18.34,13.96,27.52,20.94,8.49,6.46,17.95,12.49,25.46,20.1,8.76,8.87,8.85,19.85,7.86,31.53-.05,.63,.97,.93,1.23,.33,9.23-20.9,19.78-41.16,31.61-60.7,.22-.37,.01-.86-.4-.97-10.15-2.79-17.68-11.66-19.62-21.93s2.97-20.82,11.83-26.6,19.7-6.12,28.25-.07,13.58,17.2,11.61,27.62-9.32,18.03-16.25,25.21c-7.34,7.6-13.99,15.35-19.43,24.45-11.7,19.59-19.95,41.3-30.07,61.73-12.22,24.67-25.52,48.82-40.47,71.96-.4,.62,.56,1.39,1.04,.8l.48-.59-1.04-.8c-7.34,11.53-14.9,23.77-15.48,37.83-.33,8.07,.73,16.32,1.25,24.37,.47,7.28,.4,14.84,1.97,21.98,2.89,13.2,15.2,20.4,20.62,32.23,6.93,15.13,3.45,34.88-1.49,50.07-.21,.63,.66,1.11,1.11,.64l.35-.37-1.04-.8c-2.53,4.85-5.53,9.67-7.66,14.7-1.01,2.39-1.3,4.56,.57,6.53,.59,.62,1.52-.32,.94-.94h0Z"/><path class="cls-31" d="M-26.68-75.56c-15.76,15.2-31.14,30.79-46.61,46.28-7.57,7.58-15.16,15.13-22.84,22.59C-103.02,0-110.23,6.45-115.57,14.51c-.15,.23-.11,.62,.1,.8,3.29,2.76,6.58,5.53,9.86,8.29,1.16,.98,3.97,2.57,4.15,4.08s-2.47,4.08-3.41,5.33c-1.42,1.9-1.81,2.94-4.1,1.88-1.62-.75-3.17-1.97-4.63-2.99-3.75-2.6-7.22-5.52-10.51-8.66-.27-.26-.66-.24-.94,0-29.82,26.34-58.54,53.9-86.09,82.6-.44,.46,0,1.31,.64,1.11l.49-.16-.64-1.11c-13.65,14.66-27.29,29.31-40.94,43.97-.23,.24-.28,.7,0,.94,14.35,11.98,27.78,25.05,40.09,39.13,6.33,7.25,12.32,14.76,18.09,22.46,4.75,6.36,9.47,12.79,14.99,18.51,9.84,10.21,22.73,18.21,37.26,13.6,6.83-2.17,12.93-6.46,17.71-11.75,.78-.86,4.3-5.31,6.15-3.81,.99,.8-.45,3.4-.84,4.19-5.8,11.71-18.74,22.2-31.05,26.1-.51,.16-.69,.94-.16,1.21,8.03,4.09,10.62,13.95,8.96,22.31-1.89,9.51-8.94,17.06-15.63,23.61-15.53,15.2-31.39,30.07-47.09,45.1-13.12,12.56-30.67,25.48-33.44,44.7-1.44,10,.27,20.28,1.34,30.23,1.16,10.79,2.32,21.58,3.48,32.36,2.43,22.6,4.86,45.21,7.29,67.81,.48,4.42,.77,8.91,1.47,13.3,.58,3.62,1.76,7.14,5.1,9.07,2.73,1.58,6.07,1.68,9.14,1.79,5.67,.2,11.35,.29,17.03,.43,22.7,.58,45.4,1.16,68.11,1.74,11.35,.29,22.7,.58,34.05,.87,5.16,.13,10.32,.26,15.48,.4l7.74,.2c1.06,.03,3.72-.36,4.64,.12,1.98,1.03,1.67,3.11,1.68,5.08,.01,2.16-.17,7.32-1.9,9s-5.66,.53-7.7,.43c-5.65-.28-11.29-.56-16.94-.85-11.29-.56-22.58-1.13-33.87-1.69-22.33-1.12-44.65-2.23-66.98-3.35-6.99-.35-15.33-1.26-21.51,2.85-6.87,4.57-6.27,13.71-6.74,20.98-.73,11.1-1.45,22.2-2.18,33.31-.62,9.48-2.72,20.23-.14,29.55,3.72,13.46,17.77,18.17,30.29,19.46,8.81,.9,17.71,.31,26.54,.05,11.07-.33,22.14-.67,33.21-1.02,44.67-1.38,89.34-2.59,134-3.94,18.83-.57,37.6-2.35,56.42-3.09,16.32-.64,33.47-.99,49.3,3.68,6.65,1.96,12.94,4.98,18.14,9.63,6.04,5.4,12.93,7.29,21.01,6.46,8.86-.91,17.74-3.81,26.15-6.67,7.89-2.69,15.62-5.85,23.13-9.45,31.42-15.05,59.09-37.82,79.9-65.77,10.81-14.52,18.92-31.56,32.55-43.8,14.67-13.17,35.32-17.54,53.02-25.27,67.38-29.42,125.45-81.76,150.78-151.99,12.33-34.19,17.72-73.74,9.05-109.46-3.94-16.25-12-30.97-25.4-41.26-13.11-10.06-29.27-15.25-45.23-18.71-7.98-1.73-16.05-3.05-24.12-4.27-8.87-1.33-17.89-2.5-26.86-1.79-8.38,.66-16.55,3.11-23.24,8.34-6.89,5.38-11.78,12.77-18.22,18.62-14.04,12.74-33.67,15.17-51.81,16.42-20.36,1.41-40.64,2.91-60.86,5.77-42.01,5.93-83.43,15.98-123.48,29.99-8.54,2.99-17.72,5.62-25.63,10.09-6.56,3.71-10.52,9.2-11.54,16.72-1.08,7.97-.45,16.52,.31,24.51,.7,7.41,1.94,14.82,4.23,21.91,3.9,12.06,11.14,22.81,23.25,27.64l-.29-1.11c-2.46,3.18-4.92,6.35-7.37,9.53-.82,1.06-2.5,4.3-3.69,4.77-1.93,.75-4.19-1.85-5.67-3.1-5.43-4.57-10.15-9.96-14.02-15.9-7.73-11.87-11.82-25.61-12.09-39.75-.14-7.56-.05-20.58-8.34-24.34-5.04-2.29-10.21,.69-14.71,2.85-7.59,3.65-15.11,7.44-22.57,11.36s-14.84,7.99-22.15,12.19c-3.44,1.98-6.86,3.98-10.27,6.02-1.66,.99-3.34,2.28-5.1,3.08-1.1,.49-1.25,1.07-2.31,.44-.57-.34-1.72-3.44-2.02-4.05-.86-1.73-2.08-3.56-2.69-5.4-.86-2.58,.14-2.78,2.41-4.08,3.77-2.16,7.54-4.32,11.3-6.48,7.54-4.32,15.07-8.64,22.61-12.96,7.54-4.32,15.07-8.64,22.61-12.96,5.91-3.39,12.38-6.47,17.5-11.05,11.17-9.98,7.41-26.28,6.31-39.48-3.2-38.18-8.07-76.21-14.52-113.98-.08-.44-.63-.58-.97-.4-2.19,1.19-4.37,2.37-6.56,3.56-1.4,.76-4.79,3.41-6.28,2.38-.36-.25-.99-2.25-1.24-2.82-.62-1.41-1.24-2.82-1.86-4.23-.68-1.54-3.18-5.06-2.45-6.68,.3-.67,2.65-2.03,3.28-2.66,.99-.99,1.87-2.09,2.66-3.25,1.81-2.64,3.07-5.62,4.05-8.65,2.37-7.36,2.99-15.2,3.95-22.83,1.29-10.28,2.58-20.57,3.87-30.85s2.6-20.49,3.85-30.74c1.1-9.01,2-18.44-1.21-27.15-2.75-7.44-8.02-13.62-13.12-19.56-5.99-6.99-12.23-13.76-18.72-20.29-14.29-14.37-29.75-27.53-46.16-39.42-.69-.5-1.35,.65-.67,1.14C-.84-56.43,21.91-35.41,41.54-11.83c5.25,6.31,10.07,13.04,11.65,21.27s.25,16.88-.79,25.16c-2.13,16.97-4.26,33.94-6.38,50.9-1.75,13.96-1.3,35.36-15.04,43.73-.33,.2-.38,.57-.24,.91,2.28,5.17,4.55,10.33,6.83,15.5,.15,.33,.62,.39,.91,.24,4.37-2.37,8.75-4.74,13.12-7.11l-.97-.4c5.49,32.12,9.83,64.43,12.96,96.86,.78,8.12,1.49,16.26,2.13,24.39,.55,7.07,1.81,14.87-.38,21.77-2.38,7.51-9.1,11.76-15.56,15.49-6.81,3.93-13.65,7.82-20.47,11.73-15.96,9.15-31.92,18.29-47.87,27.44-.32,.19-.4,.59-.24,.91,2.24,4.5,4.49,8.99,6.73,13.49,.16,.32,.62,.42,.91,.24,12.05-7.39,24.3-14.44,36.77-21.09,6.12-3.27,12.29-6.44,18.5-9.52,3.11-1.54,6.22-3.06,9.35-4.55,3.34-1.59,7.13-3.43,10.88-2.08,9.21,3.33,7.89,18.56,8.24,26.24,.48,10.72,3.4,21.29,8.3,30.83,5.61,10.93,13.82,20.33,23.94,27.29,.22,.15,.63,.11,.8-.1,3.99-5.16,7.99-10.32,11.98-15.49,.32-.42,.2-.91-.29-1.11-23.38-9.34-26.87-39.6-27.2-61.45-.11-7.42-.41-15.84,4.75-21.81,4.75-5.49,12.16-7.88,18.74-10.34,15.31-5.73,30.84-10.87,46.55-15.42,31.31-9.08,63.31-15.8,95.63-20.07,15.78-2.08,31.63-3.53,47.52-4.49,13.28-.8,26.85-1.54,39.58-5.7,5.92-1.94,11.62-4.65,16.64-8.37,5.2-3.85,9.33-8.79,13.63-13.58,5.06-5.63,10.54-10.68,17.73-13.41s14.53-3.2,21.93-2.93c13.57,.51,27.36,3.1,40.63,5.9,12.67,2.68,25.34,6.36,36.7,12.7,11.95,6.67,21.71,16.32,27.79,28.64,6.73,13.64,9.13,29.07,9.96,44.13,1.61,29.35-3.6,58.84-14.01,86.26-20.8,54.76-62.13,98.91-112.04,128.66-12.02,7.17-24.52,13.53-37.35,19.11-13.48,5.86-28,9.78-40.9,16.88-11.78,6.48-20.32,16.57-27.79,27.54-7.92,11.62-15.19,23.53-24.25,34.33-17.58,20.96-39.18,38.51-63.29,51.44-12.05,6.46-24.72,11.76-37.81,15.74-7.15,2.17-14.75,4.58-22.27,4.77-3.82,.1-7.82-.4-11.32-2.01-3.08-1.42-5.3-3.85-7.9-5.92-17.21-13.67-43.22-12.83-63.92-12.12-14.22,.48-28.4,1.63-42.6,2.44-16.11,.92-32.25,1.15-48.38,1.6-34.24,.96-68.48,2.04-102.71,3.1-16.23,.5-32.52,1.42-48.76,1.42-11.1,0-24.43-1.01-33.06-8.88-5.55-5.06-7.25-12.13-7.17-19.43,.09-8.13,.95-16.29,1.48-24.4,.56-8.58,1.12-17.16,1.68-25.74,.5-7.58-.69-18.51,6.71-23.13,5.7-3.56,13.25-2.77,19.64-2.45,8.47,.42,16.94,.85,25.4,1.27,16.94,.85,33.87,1.69,50.81,2.54s33.36,1.67,50.04,2.5c.22,.01,.47-.13,.57-.33,2.66-5.3,3.28-10.93,1.84-16.68-.07-.29-.35-.48-.64-.49-34.57-.88-69.14-1.77-103.71-2.65-8.51-.22-17.03-.43-25.54-.65-4.13-.11-8.26-.21-12.38-.32-4.04-.1-8.52,.28-12.48-.7-5.26-1.3-6.94-5.44-7.58-10.36-.58-4.48-.97-9-1.46-13.49-.91-8.48-1.82-16.95-2.74-25.43-1.85-17.21-3.7-34.42-5.55-51.63-.91-8.48-1.82-16.95-2.74-25.43-.83-7.75-1.95-15.64-1.26-23.45,1.48-16.83,13.57-27.72,25.06-38.72,12.4-11.87,24.79-23.74,37.19-35.6,6.53-6.25,13.16-12.41,19.56-18.79,5.14-5.12,10.07-10.72,12.93-17.48,4.2-9.95,2.65-23.86-7.85-29.21l-.16,1.21c12.64-4.01,25.58-14.58,31.71-26.46,.86-1.66,2.76-5.5,0-6.44-1.27-.43-3.22,.4-4.27,1.06-1.54,.96-2.56,2.7-3.82,4.03-2.02,2.11-4.24,4.02-6.63,5.69-9.25,6.46-20.77,8.35-30.98,3-9.62-5.04-16.96-13.36-23.53-21.81-14.09-18.12-27.97-35.91-44.51-51.93-4.86-4.71-9.86-9.28-14.99-13.7-.77-.66-3.46-2.25-3.73-3.17-.43-1.49,1.69-2.93,2.6-3.91,2.45-2.63,4.9-5.26,7.35-7.89,9.97-10.71,19.94-21.42,29.92-32.13,.43-.46,.01-1.31-.64-1.11l-.49,.16,.64,1.11c16.54-17.22,33.48-34.05,50.85-50.44,8.68-8.19,17.46-16.26,26.33-24.23,2.11-1.89,4.28-4.44,6.68-5.95,1.26-.79,1.31-1.34,2.8-.55,1.12,.59,2.13,1.92,3.11,2.74,4.1,3.44,8.52,6.44,13.18,9.07,.34,.19,.69,.05,.91-.24,2.33-3.11,4.66-6.22,7-9.32,.16-.22,.1-.63-.1-.8-2.32-1.95-4.64-3.9-6.96-5.85-1.16-.98-2.32-1.95-3.48-2.93-.73-.61-3.14-1.97-3.48-2.93-.86-2.41,2.91-5.61,4.46-7.38,1.75-1.99,3.6-3.88,5.48-5.75,8.52-8.44,17.19-16.73,25.68-25.2,17.3-17.25,34.42-34.69,52-51.66,.61-.59-.32-1.53-.94-.94h0Z"/><path class="cls-31" d="M530.63,413.02c.25-6.78,2.24-13.03,5.96-18.7,.13-.19,.12-.47,0-.67-1.49-2.49-4.35-3.2-7.04-2.2-4.13,1.54-5.48,6.56-6.85,10.26-4.26,11.51-9.66,22.57-15.99,33.08-12.61,20.94-28.85,39.58-47.32,55.55-19.3,16.69-40.97,30.48-63.72,41.94-11.35,5.71-23.04,10.58-34.68,15.66-10.9,4.76-21.7,10.12-30.76,17.95-10.18,8.8-17.68,20.18-24.65,31.56-8.18,13.35-16.2,26.8-24.3,40.2-.24,.4,.01,.81,.4,.97l.34,.14-.29-1.11c-16.75,15.58-35.8,28.58-56.49,38.38-10.55,5-21.51,9.15-32.73,12.4-10.48,3.03-21.66,4.43-31.65,8.96-7.87,3.57-13.01,8.35-12.98,17.31,.02,4.88,.85,9.73,.97,14.62,.11,4.5,.1,8.98,.83,13.44,.66,4.04,1.95,9.54,6.18,11.35,3.58,1.53,7.65-.4,10.74-2.21,10.3-6.02,18.04-15.64,28.4-21.58,2.63-1.51,5.17-2.29,8.15-2.79,6.82-1.13,13.71-1.78,20.61-2.18,12.73-.73,25.48-.57,38.22-.84,25.69-.55,51.62-2.24,77.14-5.36,24.75-3.02,48.98-8.3,72.47-16.72,23.18-8.31,45.46-18.86,67.77-29.23,23.35-10.86,46.86-21.38,70.54-31.5,47.34-20.23,95.34-38.94,143.89-56.08,24.29-8.58,48.71-16.76,73.26-24.55,12.27-3.89,24.57-7.69,36.91-11.38,11.62-3.48,23.45-6.45,34.95-10.27,4.11-1.36,8.18-3.11,11.44-6.02,3.66-3.27,5.55-7.77,7.1-12.32,3.68-10.82,7.88-21.3,13.48-31.3,10.92-19.51,25.77-36.59,43.53-50.16,7.33-5.6,15.5-11.55,17.31-21.22,1.7-9.1-.7-19.58-2.83-28.46-4.41-18.4-12.61-35.64-22.14-51.9-19.71-33.62-45.32-63.8-61.37-99.53-4.04-9-7.36-18.3-9.78-27.87-.19-.73-1.29-.57-1.3,.18-.51,41.71,1.98,83.42,7.52,124.76,2.71,20.21,6.14,40.32,10.29,60.29,1.45,6.99,2.38,14.11,.67,21.16-1.83,7.57-8.14,13.54-15.97,8.35-3.44-2.28-5.9-5.78-8.43-8.96-3.18-4.01-6.5-7.9-9.97-11.67-6.29-6.83-13.04-13.23-20.19-19.15-11.88-9.83-27.94-21.69-44.31-16.61-13.22,4.11-20.14,17.61-24.78,29.63-7.17,18.53-13.06,37.65-19.51,56.44-6.81,19.84-13.62,39.68-20.43,59.52-5.44,15.84-12.21,40.61-34.3,35.02-16.6-4.2-28.55-20.88-34.69-35.95s-7.78-30.88-5.87-46.55c.96-7.86,2.88-15.6,5.73-22.98,2.32-6.01,7.5-13.82,2.44-19.83-2.03-2.41-5-3.72-7.84-4.94-4.77-2.03-9.56-4.01-14.34-6.01-9.45-3.96-18.91-7.93-28.36-11.89-6.16-2.58-14.53-7.54-19.89-.99-2.09,2.56-3.1,5.92-4.2,8.98-1.67,4.63-3.34,9.25-5.07,13.85-6.83,18.19-14.54,36.27-25.51,52.4-9.7,14.26-22.14,27.04-37.28,35.5-3.65,2.04-7.44,3.82-11.36,5.27-3.69,1.37-16.5,5.83-14.13-2.42,2.19-7.63,12.47-10.8,18.46-14.62,25.91-16.52,45.31-42.84,54.1-72.24,2.14-7.15,3.6-14.47,4.47-21.88,.1-.84-1.23-.84-1.32,0-3.92,33.41-21.42,64.77-47.74,85.72-6.62,5.27-13.79,9.13-21.02,13.43-3.68,2.18-9.96,7.6-8.36,12.63,2.06,6.47,11.94,2.12,15.89,.66,7.64-2.83,14.81-6.85,21.38-11.66,29.68-21.8,44.41-56.83,56.61-90.34,1.54-4.24,2.71-8.92,5-12.83,4.08-6.93,10.95-3.8,16.77-1.36,9.93,4.16,19.85,8.32,29.78,12.48,4.73,1.98,9.46,3.96,14.18,5.94,5.97,2.51,12.02,5.55,10.21,13.26-.94,4.01-3.12,7.74-4.56,11.6s-2.65,7.92-3.58,11.98c-6.65,29.01-.3,63.56,22.47,84.21,10.61,9.62,27.44,15.9,38.96,4.15,5.18-5.28,8.03-12.4,10.46-19.25,3.54-9.99,6.9-20.06,10.34-30.09,7.06-20.57,14.13-41.15,21.19-61.72,3.43-9.99,6.78-20.01,10.3-29.97,2.65-7.51,5.65-15.07,10.24-21.63,5.1-7.29,12.44-12.82,21.59-13.32,9.96-.55,19.43,4.46,27.37,9.98,16.03,11.14,29.54,25.5,41.68,40.67,3.8,4.75,8.99,10.13,15.71,8.58,4.71-1.09,7.32-5.4,8.61-9.75,1.7-5.75,1.64-12.08,.7-17.96-1.6-10-4.02-19.9-5.78-29.88-7.49-42.25-11.77-85.06-12.82-127.96-.26-10.68-.31-21.36-.18-32.04l-1.3,.18c9.28,36.67,31.86,67.67,52.67,98.57,10.58,15.71,20.97,31.67,29.11,48.82,4.07,8.57,7.55,17.44,10.12,26.58s5.2,20.01,4.58,29.84c-.78,12.35-10.77,18.7-19.62,25.65-8.23,6.46-15.8,13.75-22.61,21.69-13.23,15.43-23.6,33.28-30.38,52.44-2.09,5.92-3.49,12.45-8,17.09-3.83,3.95-9.33,5.81-14.48,7.34-11.65,3.47-23.36,6.75-35.01,10.25-23.71,7.13-47.31,14.64-70.79,22.5-46.98,15.74-93.48,32.94-139.39,51.56-45.64,18.51-90.28,39.04-135.08,59.45-22.46,10.23-45.33,19.84-69.23,26.21-24.34,6.49-49.42,9.56-74.48,11.47-25.11,1.91-50.14,2.51-75.3,3.07-11.87,.27-24.24,.53-35.89,3.09-4.67,1.02-8.71,3.91-12.45,6.76-4.71,3.58-9.11,7.53-13.71,11.25-3.98,3.21-8.55,7.15-13.65,8.39-5.65,1.38-8.2-3.36-9.34-8.18-1.05-4.45-1.2-9.08-1.25-13.63-.05-4.85-.68-9.64-.92-14.47s.2-9.63,3.89-13.05c4.56-4.22,10.97-6.49,16.82-8.18,10.5-3.03,21.2-5.04,31.59-8.53,20.28-6.8,39.56-16.58,57.06-28.88,8.45-5.94,16.47-12.48,24.03-19.52,.4-.37,.14-.93-.29-1.11l-.34-.14,.4,.97c7.29-12.06,14.57-24.13,21.86-36.19,6.53-10.79,13.21-21.68,22.07-30.76,17.83-18.28,43.94-25.16,66.31-36.13,43.48-21.31,83.38-51.4,110.35-92.12,7.19-10.86,13.38-22.37,18.36-34.41,1.22-2.96,2.29-5.97,3.45-8.96,.76-1.96,1.57-4.13,3.1-5.66,1.01-1.01,2.28-1.7,3.76-1.77,1.24-.06,3.08,.96,3.03,2.44-.04,1.26-1.98,3.56-2.49,4.77-.55,1.29-1.04,2.62-1.44,3.97-.92,3.1-1.35,6.28-1.47,9.5-.03,.85,1.29,.85,1.32,0h0Z"/><path class="cls-31" d="M559.53-60.4c1.37-4.9-2.16-9.2-7.33-7.17-3.07,1.2-5.14,4.09-7.02,6.65-2.44,3.33-4.81,6.7-7.24,10.04-4.97,6.83-10.19,13.57-16.46,19.26-5.56,5.04-11.92,8.87-18.75,11.95-12.72,5.73-26.54,9.02-38.68,16.02-2.72,1.57-5.33,3.33-7.75,5.33-1.29,1.06-2.52,2.19-3.68,3.39-.84,.87-2.08,3.13-3.12,3.62-1.16,.54-3.8-.92-4.95-1.35-2.43-.9-4.81-1.92-7.15-3.03-3.88-1.85-7.63-3.98-11.2-6.38-2.37-1.59-5.68-3.23-6-6.23s1.78-5.71,3.16-8.28c1.93-3.58,3.79-7.33,4.23-11.42,.65-6.05-3.05-13.16-9.71-13.37-.22,0-.47,.13-.57,.33-5.27,10.57-11.64,20.57-19.1,29.74-3.44,4.23-7.03,8.49-11.21,12.01-4.91,4.13-10.6,6.35-16.96,7.04-5.94,.65-11.98,.42-17.94,.36-6.42-.07-12.85-.23-19.27-.47-12.46-.48-24.91-1.3-37.33-2.46-2.86-.27-6.15-.18-8.9-1.01-3.81-1.16-3.54-6.17-3.91-9.39-.67-5.96-1.13-11.93-1.39-17.92-.51-11.8-.22-23.63,.86-35.39,2.17-23.67,7.53-47.09,16.01-69.3s20.96-44.23,39.64-59.97l-1.13-.47c.39,11.13,1.04,21.96,5.38,32.35,3.7,8.87,9.31,16.87,16.13,23.63,15.07,14.93,35.36,22.82,56.27,24.89,23.63,2.34,47.24-2.59,69.46-10.37,11.29-3.95,22.5-8.48,33.33-13.6,7.04-3.33,15.52-9.93,12.1-18.87-.52-1.36-1.38-2.72-2.57-3.58-1.66-1.21-3.5,.34-5.23,1.05-5.38,2.21-10.73,4.5-16.09,6.77-11.86,5.03-23.78,9.99-36.07,13.88-23.28,7.37-49.31,11.03-72.85,2.63-19.15-6.83-36.2-22.02-41.08-42.28-5.67-23.55,5.13-47.4,19.4-65.64,7.25-9.27,15.54-17.67,23.86-25.96,9.25-9.21,18.52-18.41,27.77-27.61,18.85-18.74,37.7-37.47,56.55-56.21,4.61-4.58,9.22-9.17,13.83-13.75,.57-.57-.15-1.32-.8-1.04l-.65,.28,.8,1.04c7.1-7.92,15.29-14.8,24.39-20.31,4.53-2.75,9.85-6.18,15.1-7.24,3.75-.76,9.04,1.05,8.02,5.82-.57,2.68-2.69,5.32-4,7.69-4.98,8.96-9.27,18.31-9.87,28.69-.52,9.12,1.5,18.36,5.72,26.45,1.04,2,2.22,3.92,3.53,5.75,1.42,1.97,3.33,3.73,4.51,5.85,1.68,3.02,.03,6.13-1.06,9.05-1,2.66-2.01,5.32-3.07,7.96-2.09,5.21-4.35,10.36-7.04,15.28-2.52,4.62-5.63,8.73-8.61,13.05-2.29,3.32-4.12,7.23-2.86,11.31,1.11,3.58,4.06,6.41,7.35,8.06,6.39,3.21,14.6,2.34,20.3-1.93,6.79-5.09,8.5-14.38,5.34-22.04-.71-1.72-1.66-3.34-2.84-4.78-.73-.88-1.58-1.57-2.37-2.38-.98-1.01-.91-1.09-.55-2.73,1.4-6.4,3.8-12.5,7.01-18.2l-1.04,.13c13.56,13.99,35.27,7.62,48.9-2.58,8.55-6.4,15.8-14.3,23.82-21.32,8.43-7.38,17.61-13.89,27.33-19.43,19.14-10.91,41.1-18.85,63.14-20.8,10.9-.97,22.48-.14,32.16,5.4s15.67,14.81,20.64,24.31c11.99,22.91,22.55,46.85,29.72,71.72,.19,.67,1.05,.59,1.28,0l.13-.35-1.21,.16c15.27,35.01,19.61,73.35,22.4,111.08,.66,8.93,1.53,17.91,1.64,26.86s-.98,18.37-6.15,26.01c-10.19,15.06-29.67,18.58-45.98,22.99-15.05,4.07-28.35,10.61-38.94,22.28-9.45,10.42-15.99,23.18-20.5,36.43-11.31,33.23-8.3,68.61-11.58,103.04-.93,9.84-2.4,19.64-4.86,29.21-2.04,7.93-4.5,16.53-10.14,22.73-14.4,15.82-35.98-1.84-50.16-8.94-16.34-8.19-33.78-14.71-51.64-18.67-8.5-1.89-17.59-2.82-25.86,.55-6.38,2.6-11.61,7.32-15.74,12.76-10.77,14.2-12.97,32.49-21.9,47.63-2.33,3.95-5.42,7.79-9.92,9.3-4.99,1.67-10.72-.15-15.7-1.09-9.88-1.88-19.76-3.76-29.64-5.63s-20.13-3.83-30.2-5.74c-8.68-1.65-19.43-2.29-24.96-10.19-4.49-6.42-4.88-14.94-4.14-22.48,.93-9.44,3.58-18.64,7.09-27.42,7.09-17.71,17.37-34.27,27.67-50.26,5.31-8.25,10.86-16.35,16.62-24.3,5.32-7.33,10.73-14.69,17.14-21.12s13.8-11.44,22.46-14.43c8-2.76,16.16-4.68,23.46-9.14,12.56-7.68,21.47-19.95,28.58-32.58,3.74-6.66,7.05-13.55,10.28-20.47,.36-.77-.78-1.44-1.14-.67-6.78,14.51-13.94,29.36-24.87,41.27-5.31,5.78-11.54,10.76-18.67,14.09-8.39,3.93-17.75,5.29-25.99,9.6-15.55,8.12-26,23.71-35.88,37.66-11.43,16.14-22.13,32.91-31.55,50.32-8.52,15.75-16.22,33.19-16.79,51.37-.22,6.95,.87,14.57,5.29,20.19,5.02,6.37,13.08,7.57,20.57,8.99,20.69,3.93,41.39,7.87,62.08,11.8,7.77,1.48,16.58,4.4,23.42-1.12,6.31-5.1,9.48-13.77,12.3-21.1,6.15-15.98,11.16-35.28,27.22-44.36,9.3-5.25,19.99-4.13,29.98-1.78,9.32,2.2,18.5,5.06,27.46,8.43s18.22,7.53,26.93,12.14c8,4.24,15.71,9.6,24.52,12.05,7.19,2,14.75,1.26,20.57-3.72,5.52-4.73,8.5-11.83,10.63-18.61,11.62-37.08,5.89-76.45,12.22-114.32,4.9-29.34,17.87-61.25,45.76-75.57,16.19-8.32,35.2-8.8,51.16-17.71,6.68-3.73,12.73-8.92,16.3-15.79,3.85-7.4,4.63-15.88,4.49-24.1-.16-9.32-1.05-18.65-1.75-27.94-.73-9.76-1.57-19.52-2.68-29.24-2.13-18.69-5.24-37.32-10.53-55.39-2.55-8.7-5.63-17.23-9.25-25.54-.25-.58-1.03-.31-1.21,.16l-.13,.35h1.28c-6.34-21.99-15.5-42.8-25.51-63.33-4.54-9.31-9.14-18.9-16.44-26.42s-16.03-11.19-25.88-12.47c-10.39-1.35-20.97,.03-31.15,2.21s-20.95,5.57-30.92,9.81c-20.44,8.71-38.12,21.37-54.17,36.61-8.92,8.47-18.33,17.58-30.31,21.42-10.7,3.43-23.48,2.73-31.68-5.72-.29-.3-.83-.23-1.04,.13-3.69,6.56-6.26,13.59-7.64,21-.06,.31,.05,.57,.3,.75,6.94,4.87,9.55,14.9,5.71,22.52s-13.11,10.68-20.84,8.35c-4.52-1.36-9.41-5.09-9.73-10.17s3.74-9.18,6.45-13.01c5.35-7.53,9.22-15.98,12.62-24.53,.87-2.18,1.7-4.36,2.53-6.56s2.05-4.54,2.27-6.87c.37-3.83-2.88-6.47-4.96-9.26-5.42-7.25-8.7-16.05-9.49-25.06-.88-9.96,1.57-19.39,5.92-28.3,2.17-4.45,5-8.6,7.08-13.08,1.22-2.63,1.28-5.43-.97-7.52-3.08-2.87-7.42-2.23-11.01-.81-4.74,1.88-9.3,4.47-13.62,7.17-8.71,5.44-16.57,12.11-23.42,19.75-.53,.59,.13,1.33,.8,1.04l.65-.28-.8-1.04c-18.44,18.33-36.89,36.67-55.33,55-17.84,17.73-36.11,35.14-53.45,53.37-14.95,15.73-28.73,33.68-33.13,55.41-3.98,19.61,1.24,39.14,15.52,53.32,14.3,14.2,34.04,20.87,53.93,21.37,24.13,.6,47.42-7,69.52-15.98,5.39-2.19,10.74-4.46,16.1-6.74,2.93-1.24,5.86-2.49,8.8-3.71,2.23-.93,6.9-3.99,8.93-2.1,4.2,3.9,1.08,11.22-2.25,14.38-3.95,3.75-9.43,5.72-14.34,7.87-22.33,9.77-45.66,18.42-70.08,20.86-22.64,2.26-46.59-.83-66.28-12.84-16.94-10.34-30.55-27.2-34.3-46.97-1.23-6.47-1.36-13.07-1.59-19.63-.02-.6-.69-.83-1.13-.47-21.08,17.77-34.08,42.92-42.9,68.63-9.98,29.06-14.76,59.91-14.19,90.62,.14,7.75,.64,15.5,1.47,23.21,.56,5.16,.29,11.05,6.53,12,7.75,1.18,15.73,1.52,23.54,2.07,8.29,.58,16.6,1.01,24.91,1.29s16.54,.43,24.8,.39c6.71-.03,13.66-.32,19.85-3.2s11.18-8.3,15.65-13.51,8.98-11.21,12.87-17.23c2.21-3.41,4.29-6.91,6.23-10.49,.85-1.56,1.76-4.86,3.59-4.95,2.05-.09,4.17,2.23,5.17,3.77,4.82,7.45-.5,15.57-4.03,22.27-1.43,2.72-2.8,5.67-.67,8.42,1.89,2.45,5.32,4.25,7.9,5.87,6.78,4.27,14.11,7.57,21.76,9.94,.31,.09,.57-.07,.75-.3,10.67-14.2,28.65-18.93,44.48-24.97,7.61-2.9,15.2-6.17,21.85-10.94,7.67-5.5,13.87-12.67,19.53-20.15,3.35-4.43,6.53-8.99,9.8-13.48,1.75-2.41,3.61-5.23,6.36-6.61,4.17-2.09,7.27,1.22,6.12,5.35-.23,.82,1.05,1.17,1.28,.35h0Z"/><path class="cls-31" d="M277.07,275.97c-.18-2.35-1.65-3.45-3.75-4.18-3.04-1.05-5.92-1.22-9.11-.93-6.75,.63-13.49,1.35-20.22,2.08-13.55,1.47-27.08,3.15-40.51,5.46-13.44,2.32-26.8,5.28-39.84,9.31-6.44,1.99-12.8,4.24-19.04,6.79-5.05,2.06-10.02,4.36-14.5,7.49-4.11,2.87-7.9,6.48-10.13,11.04-2.58,5.26-2.63,11.14-1,16.71,1.77,6.06,5.06,11.8,8.6,16.99,2.96,4.34,6.55,8.55,11.27,11.03,5.45,2.87,11.53,2.56,17.24,.59,6.35-2.2,12.29-5.71,18.2-8.85,12.22-6.48,24.29-13.27,36.16-20.38,11.73-7.03,23.28-14.38,34.59-22.07,5.79-3.93,11.51-7.95,17.17-12.06,2.62-1.91,5.27-3.76,7.59-6.03,1.15-1.13,2.27-2.29,3.45-3.39,1.01-.94,1.98-1.91,2.65-3.12,1.11-2,1.18-4.24,1.18-6.48,0-.85-1.32-.85-1.32,0,0,2.39-.1,4.69-1.57,6.69-.93,1.27-2.21,2.26-3.32,3.37s-2.14,2.17-3.27,3.2c-2.45,2.22-5.27,4.06-7.95,5.99s-5.44,3.89-8.18,5.8c-10.71,7.48-21.63,14.64-32.73,21.51s-22.53,13.52-34.04,19.85c-5.72,3.15-11.48,6.23-17.28,9.24s-11.71,6.43-18.27,6.95c-12.02,.96-19.47-10.05-24.6-19.32-3.09-5.6-5.83-11.89-5.37-18.43,.37-5.25,2.98-9.91,6.65-13.58s8.07-6.33,12.64-8.58c5.41-2.66,11.11-4.79,16.79-6.78,12.14-4.27,24.62-7.51,37.23-10.06s25.67-4.49,38.61-6.06c6.43-.78,12.87-1.49,19.32-2.16,3.22-.34,6.43-.66,9.65-.99s6.69-.98,9.93-.39c2.17,.4,5.55,1.1,5.75,3.75,.06,.84,1.39,.85,1.32,0h0Z"/><path class="cls-31" d="M299.53,305.77c-4.84-4.98-11.43-9.09-18.43-9.91-3.58-.42-7.03,.26-10.14,2.1-3.83,2.26-7.28,5.28-10.82,7.97-15.05,11.42-30.09,22.84-45.14,34.26s-29.68,22.2-44.25,33.64c-6.45,5.07-12.68,10.51-17.63,17.1-5.02,6.69-8.57,14.31-12.63,21.59-3.9,6.99-8.47,13.46-14.37,18.92s-12.11,9.43-19.13,12.46c-1.78,.77-3.59,1.44-5.43,2.05-.42,.14-.6,.58-.4,.97,5.48,10.6,10.96,21.2,16.44,31.8,1.01,1.95,1.92,4.61,3.79,5.94,1.97,1.39,4.46,.6,6.59,.09,4.65-1.12,9.47-2.47,13.24-5.58,3.16-2.61,5.51-6.8,5.13-11-.2-2.24-1.34-3.96-2.27-5.95-1.3-2.78-.1-4.87,2.08-6.7,4.1-3.44,8.68-6.43,13.16-9.34s9.28-5.75,14.09-8.34c4.74-2.55,9.58-4.92,14.51-7.08,2.43-1.07,4.91-2.31,7.49-2.99,1.3-.34,2.76-.49,3.97,.24,.99,.6,1.61,1.66,2.37,2.49,3.24,3.54,7.67,1.22,10.61-1.47,2.01-1.84,3.8-3.97,5.66-5.97,1.96-2.12,3.92-4.26,5.86-6.4,15.61-17.19,30.63-34.9,45.42-52.8,7.47-9.04,14.89-18.13,22.3-27.23,3.25-3.99,6.93-7.92,9.24-12.55,1.93-3.88,2.85-8.8,1.73-13.06-.53-2.01-1.59-3.76-3.03-5.25-.59-.61-1.53,.32-.94,.94,3.39,3.49,3.59,8.46,2.48,12.97-1.24,5.04-4.79,9.1-7.99,13.03-7.1,8.72-14.21,17.45-21.36,26.13-14.25,17.3-28.68,34.46-43.63,51.16-3.75,4.19-7.53,8.35-11.35,12.48-1.79,1.93-3.51,3.99-5.47,5.75-1.64,1.47-4.03,3.24-6.38,2.74s-3.02-2.99-4.85-4.1-4.05-.73-5.95-.08c-4.71,1.6-9.3,3.86-13.76,6.03-9.42,4.57-18.48,9.88-27.07,15.85-2.15,1.49-4.27,3.03-6.35,4.61-1.6,1.21-3.33,2.48-4.23,4.32s-.51,3.7,.36,5.47c1.06,2.16,2.18,4.02,2.03,6.53-.3,4.84-3.96,8.65-8.07,10.76-2.25,1.15-4.67,1.91-7.1,2.56-1.15,.3-2.31,.59-3.47,.86-1.49,.35-3.2,.72-4.48-.36-.77-.65-1.24-1.62-1.71-2.5-.69-1.31-1.36-2.63-2.04-3.95-1.36-2.63-2.72-5.26-4.08-7.89-2.65-5.12-5.29-10.23-7.94-15.35-1.29-2.49-2.57-4.97-3.86-7.46l-.4,.97c13.95-4.62,26.27-13.74,34.66-25.81,4.73-6.81,8.18-14.38,12.31-21.55s9.37-13.59,15.65-19.17,13.59-10.87,20.51-16.12c7.42-5.63,14.85-11.27,22.27-16.9,14.91-11.32,29.83-22.64,44.74-33.95,3.71-2.82,7.42-5.63,11.14-8.45,3.36-2.55,6.77-5.77,10.75-7.31,6.99-2.71,14.98,.96,20.56,5.15,1.46,1.09,2.82,2.31,4.08,3.61,.59,.61,1.53-.32,.94-.94h0Z"/><polygon class="cls-27" points="128.42 309.04 150.94 351.51 175.12 337.69 173.22 333.14 207.61 315.59 210.61 320.22 235.43 306.36 215.56 264.15 191.46 276.87 194.39 282.61 157.72 301.1 155.18 296.22 128.42 309.04"/><rect class="cls-25" x="201.46" y="170.37" width="34.21" height="49.65"/><rect class="cls-25" x="201.46" y="137.26" width="34.21" height="22.07"/><g><g><rect class="cls-4" x="290.99" y="265.31" width="6.32" height="5.37" transform="translate(687.5 328.21) rotate(146.37)"/><rect class="cls-4" x="285.4" y="269.03" width="6.32" height="5.37" transform="translate(679.31 338.12) rotate(146.37)"/></g><text class="cls-7" transform="translate(288.1 273.74) rotate(-33.63)"><tspan x="0" y="0" xml:space="preserve">1   2</tspan></text></g><g><rect class="cls-4" x="297.1" y="261.17" width="6.32" height="5.37" transform="translate(696.4 317.24) rotate(146.37)"/><text class="cls-7" transform="translate(298.89 266.5) rotate(-33.63)"><tspan x="0" y="0" xml:space="preserve"> 3   4</tspan></text></g><g><g><rect class="cls-4" x="285.34" y="285.22" width="6.32" height="5.37" transform="translate(322.91 694.03) rotate(-139.78)"/><rect class="cls-4" x="280.21" y="280.88" width="6.32" height="5.37" transform="translate(316.66 683.07) rotate(-139.78)"/></g><text class="cls-10" transform="translate(280.47 283.05) rotate(40.22)"><tspan x="0" y="0">12 11</tspan></text></g><g><path class="cls-26" d="M117.97,183.29c-6.99,1.1-13.98,2.21-20.97,3.31-2.21,1.47-4.41,2.94-6.62,4.41l-8.83,8.83,9.93,47.45,3.31,6.62,5.52,4.41,15.45,4.41,68.41-20.97,11.03-17.65-3.31-37.52c-5.15-1.84-10.3-3.68-15.45-5.52-14.26,.54-28.52,1.08-42.77,1.61-5.24,.2-10.47,.4-15.71,.59Z"/><path class="cls-28" d="M130.08,211.98l-46.25,1.25,1.04,7.34,45.21,1.34-28.66,36.41,8.75,3.85,34.28-39.16,49.54,3.05,1.22-1.95-.51-5.77-49.35-5.12c.07-10.35,.14-20.7,.2-31.04-3.47,.15-6.94,.3-10.41,.46l-5.07,29.34Z"/><text class="cls-21" transform="translate(123.6 219.41)"><tspan x="0" y="0">학생문화관 숲</tspan></text></g><g><g><rect class="cls-4" x="296.59" y="294.82" width="6.32" height="5.37" transform="translate(336.55 718.23) rotate(-139.78)"/><rect class="cls-4" x="291.47" y="290.49" width="6.32" height="5.37" transform="translate(330.31 707.28) rotate(-139.78)"/></g><text class="cls-22" transform="translate(291.72 292.66) rotate(40.22)"><tspan class="cls-32" x="0" y="0"> </tspan><tspan class="cls-23" x=".03" y="0" xml:space="preserve">10  </tspan><tspan class="cls-32" x="7.85" y="0"> </tspan><tspan class="cls-24" x="7.88" y="0">9</tspan></text></g><text class="cls-2" transform="translate(171.62 320) rotate(-25.27)"><tspan x="0" y="0">중강당 </tspan></text><text class="cls-3" transform="translate(207.62 200.36)"><tspan x="0" y="0">ESS</tspan></text><text class="cls-1" transform="translate(207.43 147)"><tspan x="0" y="0">물품배부</tspan><tspan x="-2.86" y="7.94">쓰레기수거</tspan></text><g><g><rect class="cls-4" x="195.05" y="228.44" width="6.07" height="6.07" transform="translate(-104.43 195.36) rotate(-42.64)"/><rect class="cls-4" x="190.53" y="232.6" width="6.07" height="6.07" transform="translate(-108.44 193.39) rotate(-42.64)"/></g><text class="cls-16" transform="translate(192.53 238.54) rotate(-42.64)"><tspan x="0" y="0">22 21</tspan></text></g><g><g><rect class="cls-4" x="125.13" y="257.87" width="6.07" height="6.07" transform="translate(-74.98 52.99) rotate(-18.17)"/><rect class="cls-4" x="119.29" y="259.79" width="6.07" height="6.07" transform="translate(-75.87 51.26) rotate(-18.17)"/></g><text class="cls-13" transform="translate(120.13 265.1) rotate(-18.17)"><tspan x="0" y="0">34 33</tspan></text></g><g><g><rect class="cls-4" x="113" y="261.85" width="6.07" height="6.07" transform="translate(-76.83 49.41) rotate(-18.17)"/><rect class="cls-4" x="107.15" y="263.77" width="6.07" height="6.07" transform="translate(-77.72 47.68) rotate(-18.17)"/></g><text class="cls-13" transform="translate(108 269.09) rotate(-18.17)"><tspan x="0" y="0">36 35</tspan></text></g><g><g><rect class="cls-4" x="173.65" y="241.94" width="6.07" height="6.07" transform="translate(-67.59 67.33) rotate(-18.17)"/><rect class="cls-4" x="167.81" y="243.86" width="6.07" height="6.07" transform="translate(-68.48 65.61) rotate(-18.17)"/></g><text class="cls-13" transform="translate(168.66 249.17) rotate(-18.17)"><tspan x="0" y="0">26 25</tspan></text></g><g><g><rect class="cls-4" x="161.52" y="245.92" width="6.07" height="6.07" transform="translate(-69.44 63.75) rotate(-18.17)"/><rect class="cls-4" x="155.68" y="247.84" width="6.07" height="6.07" transform="translate(-70.33 62.02) rotate(-18.17)"/></g><text class="cls-13" transform="translate(156.53 253.16) rotate(-18.17)"><tspan x="0" y="0">28 27</tspan></text></g><g><g><rect class="cls-4" x="137.26" y="253.89" width="6.07" height="6.07" transform="translate(-73.14 56.58) rotate(-18.17)"/><rect class="cls-4" x="131.42" y="255.8" width="6.07" height="6.07" transform="translate(-74.03 54.85) rotate(-18.17)"/></g><text class="cls-13" transform="translate(132.26 261.12) rotate(-18.17)"><tspan x="0" y="0">32 31</tspan></text></g><g><g><rect class="cls-4" x="185.54" y="236.3" width="6.07" height="6.07" transform="translate(-93.21 123.4) rotate(-29.4)"/><rect class="cls-4" x="180.18" y="239.32" width="6.07" height="6.07" transform="translate(-95.38 121.16) rotate(-29.4)"/></g><text class="cls-15" transform="translate(181.55 244.97) rotate(-29.4)"><tspan x="0" y="0">24 23</tspan></text></g><g><g><rect class="cls-4" x="149.39" y="249.9" width="6.07" height="6.07" transform="translate(-71.29 60.16) rotate(-18.17)"/><rect class="cls-4" x="143.55" y="251.82" width="6.07" height="6.07" transform="translate(-72.18 58.44) rotate(-18.17)"/></g><text class="cls-13" transform="translate(144.4 257.14) rotate(-18.17)"><tspan x="0" y="0">30 29</tspan></text></g><g><g><rect class="cls-4" x="153.59" y="174.9" width="6.07" height="6.07"/><rect class="cls-4" x="147.44" y="174.9" width="6.07" height="6.07"/></g><text class="cls-17" transform="translate(147.74 179.4)"><tspan x="0" y="0" xml:space="preserve"> 5   6</tspan></text></g><g><g><rect class="cls-4" x="139.24" y="174.9" width="6.07" height="6.07"/><rect class="cls-4" x="133.09" y="174.9" width="6.07" height="6.07"/></g><text class="cls-17" transform="translate(133.39 179.4)"><tspan x="0" y="0" xml:space="preserve"> 3   4</tspan></text></g><g><g><rect class="cls-4" x="124.9" y="174.9" width="6.07" height="6.07"/><rect class="cls-4" x="118.75" y="174.9" width="6.07" height="6.07"/></g><text class="cls-17" transform="translate(119.05 179.4)"><tspan x="0" y="0" xml:space="preserve"> 1   2</tspan></text></g><g><g><rect class="cls-4" x="86.85" y="183.47" width="6.07" height="6.07" transform="translate(266.06 295.26) rotate(147.42)"/><rect class="cls-4" x="92.03" y="180.16" width="6.07" height="6.07" transform="translate(273.82 286.37) rotate(147.42)"/></g><text class="cls-5" transform="translate(92.61 181.66) rotate(57.42)"><tspan x="0" y="0">50</tspan><tspan x="0" y="6.62">49</tspan></text></g><g><g><rect class="cls-4" x="94.32" y="259.06" width="6.07" height="6.07" transform="translate(183.48 -3.9) rotate(38.32)"/><rect class="cls-4" x="89.5" y="255.25" width="6.07" height="6.07" transform="translate(180.08 -1.73) rotate(38.32)"/></g><text class="cls-18" transform="translate(91.85 261.17) rotate(-51.68)"><tspan x="0" y="0">38</tspan><tspan x="0" y="6.62">37</tspan></text></g><g><g><rect class="cls-4" x="85.13" y="249.71" width="6.07" height="6.07" transform="translate(312.59 106.86) rotate(76.21)"/><rect class="cls-4" x="83.66" y="243.73" width="6.07" height="6.07" transform="translate(305.67 103.74) rotate(76.21)"/></g><text class="cls-10" transform="translate(84.4 248.6) rotate(-13.79)"><tspan x="0" y="0">40</tspan><tspan x="0" y="6.62">39</tspan></text></g><g><g><rect class="cls-4" x="82.02" y="237.06" width="6.07" height="6.07" transform="translate(297.95 100.25) rotate(76.21)"/><rect class="cls-4" x="80.56" y="231.09" width="6.07" height="6.07" transform="translate(291.03 97.12) rotate(76.21)"/></g><text class="cls-10" transform="translate(81.3 235.96) rotate(-13.79)"><tspan x="0" y="0">42</tspan><tspan x="0" y="6.62">41</tspan></text></g><g><g><rect class="cls-4" x="78.92" y="224.42" width="6.07" height="6.07" transform="translate(283.31 93.63) rotate(76.21)"/><rect class="cls-4" x="77.45" y="218.45" width="6.07" height="6.07" transform="translate(276.39 90.51) rotate(76.21)"/></g><text class="cls-10" transform="translate(78.2 223.32) rotate(-13.79)"><tspan x="0" y="0">44</tspan><tspan x="0" y="6.62">43</tspan></text></g><g><g><rect class="cls-4" x="75.12" y="206.51" width="6.07" height="6.07" transform="translate(287.7 131.4) rotate(90)"/><rect class="cls-4" x="75.12" y="200.37" width="6.07" height="6.07" transform="translate(281.55 125.25) rotate(90)"/></g><text class="cls-17" transform="translate(75.5 204.62)"><tspan x="0" y="0">46</tspan><tspan x="0" y="6.62">45</tspan></text></g><g><g><rect class="cls-4" x="77.5" y="192.73" width="6.07" height="6.07" transform="translate(280.72 264.58) rotate(131.33)"/><rect class="cls-4" x="81.56" y="188.11" width="6.07" height="6.07" transform="translate(283.99 253.86) rotate(131.33)"/></g><text class="cls-12" transform="translate(81.77 190.32) rotate(41.33)"><tspan x="0" y="0">48</tspan><tspan x="0" y="6.62">47</tspan></text></g><path class="cls-30" d="M72.01,91.36l8.83,1.37,9.35-7.52v-8.2l-4.93-4.41,23.17-23.17,5.52,5.52,11.03-9.93,7.72,1.1,8.83,8.83s-26.48,26.48-27.59,26.48-5.52,5.52-5.52,5.52h-7.72l-28.69,26.56v-22.15Z"/><polygon class="cls-29" points="201.11 116.27 180.14 116.27 180.14 99.05 187.87 92.17 142.63 49.22 136.56 53.38 131.59 50.26 118.35 61.99 118.35 62.84 125.95 69.43 103.14 88.85 106.68 93.33 106.85 93.45 77.53 117.32 77.53 125.37 80.84 127.79 104.01 127.09 104.01 143.51 113.94 143.51 113.94 169.7 187.87 169.7 187.87 144.56 201.11 144.56 201.11 116.27"/><text class="cls-19" transform="translate(117.65 150.17)"><tspan x="0" y="0">학생문화관 1층 로비</tspan></text><text class="cls-19" transform="translate(93.81 103.26)"><tspan x="0" y="0">학생문화관 4층 전시실</tspan></text><text class="cls-3" transform="translate(113.7 123.94)"><tspan x="0" y="0">학생문화관</tspan></text><g><rect class="cls-4" x="120.63" y="138.69" width="6.07" height="6.07"/><text class="cls-17" transform="translate(121.05 143.23)"><tspan x="0" y="0">63</tspan></text></g><g><rect class="cls-4" x="129.42" y="138.69" width="6.07" height="6.07"/><text class="cls-17" transform="translate(129.69 143.17)"><tspan x="0" y="0">62</tspan></text></g><g><rect class="cls-4" x="138.21" y="138.69" width="6.07" height="6.07"/><text class="cls-17" transform="translate(138.57 143.18)"><tspan x="0" y="0">61</tspan></text></g><g><rect class="cls-4" x="112.52" y="92.14" width="6.07" height="6.07"/><text class="cls-17" transform="translate(112.79 96.62)"><tspan x="0" y="0">64</tspan></text></g><g><g><rect class="cls-4" x="94.56" y="63.14" width="6.07" height="6.07" transform="translate(-18.21 88.39) rotate(-45)"/><rect class="cls-4" x="90.21" y="67.49" width="6.07" height="6.07" transform="translate(-22.56 86.59) rotate(-45)"/></g><text class="cls-6" transform="translate(92.41 73.51) rotate(-45)"><tspan x="0" y="0">53 54</tspan></text></g><g><g><rect class="cls-4" x="87.4" y="86.57" width="6.07" height="6.07" transform="translate(-36.6 81.2) rotate(-40.95)"/><rect class="cls-4" x="82.76" y="90.6" width="6.07" height="6.07" transform="translate(-40.38 79.14) rotate(-40.95)"/></g><text class="cls-14" transform="translate(84.67 96.47) rotate(-40.95)"><tspan x="0" y="0">51 52</tspan></text></g><g><g><rect class="cls-4" x="130.03" y="72.82" width="6.07" height="6.07" transform="translate(88.02 -70.54) rotate(43.21)"/><rect class="cls-4" x="125.55" y="68.61" width="6.07" height="6.07" transform="translate(83.92 -68.61) rotate(43.21)"/></g><text class="cls-8" transform="translate(125.42 70.65) rotate(43.21)"><tspan x="0" y="0">59 60</tspan></text></g><g><g><rect class="cls-4" x="103.9" y="54.04" width="6.07" height="6.07" transform="translate(-9.03 92.33) rotate(-45)"/><rect class="cls-4" x="99.55" y="58.38" width="6.07" height="6.07" transform="translate(-13.38 90.53) rotate(-45)"/></g><text class="cls-6" transform="translate(101.74 64.4) rotate(-45)"><tspan x="0" y="0">55 56</tspan></text></g><g><g><rect class="cls-4" x="119.93" y="63.31" width="6.07" height="6.07" transform="translate(78.78 -66.2) rotate(43.21)"/><rect class="cls-4" x="115.45" y="59.1" width="6.07" height="6.07" transform="translate(74.68 -64.28) rotate(43.21)"/></g><text class="cls-8" transform="translate(115.32 61.14) rotate(43.21)"><tspan x="0" y="0">57 58</tspan></text></g><text class="cls-20" transform="translate(97.75 80.03) rotate(-40.95)"><tspan x="0" y="0">학생문화관</tspan><tspan x="-1.96" y="5.3">지하1층 로비</tspan></text><polygon class="cls-29" points="-145.58 314.9 -99.46 363.74 41.88 221.11 -2.14 173.94 -145.58 314.9"/><g><g><rect class="cls-4" x="43.69" y="229.85" width="6.32" height="5.37" transform="translate(247.64 358.83) rotate(133.56)"/><rect class="cls-4" x="39.06" y="234.71" width="6.32" height="5.37" transform="translate(243.35 370.4) rotate(133.56)"/></g><text class="cls-11" transform="translate(42.44 239.28) rotate(-46.44)"><tspan x="0" y="0" xml:space="preserve">8   7</tspan></text></g><g><g><rect class="cls-4" x="24.85" y="249.66" width="6.32" height="5.37" transform="translate(230.17 405.94) rotate(133.56)"/><rect class="cls-4" x="20.22" y="254.52" width="6.32" height="5.37" transform="translate(225.88 417.51) rotate(133.56)"/></g><text class="cls-11" transform="translate(22.64 260.15) rotate(-46.44)"><tspan x="0" y="0">12 11</tspan></text></g><g><g><rect class="cls-4" x="34.78" y="219.37" width="6.32" height="5.37" transform="translate(223.3 350.06) rotate(134.33)"/><rect class="cls-4" x="30.09" y="224.17" width="6.32" height="5.37" transform="translate(218.77 361.58) rotate(134.33)"/></g><text class="cls-9" transform="translate(32.56 229.64) rotate(-45.67)"><tspan x="0" y="0">22 21</tspan></text></g><g><g><rect class="cls-4" x="25.07" y="229.31" width="6.32" height="5.37" transform="translate(213.92 373.89) rotate(134.33)"/><rect class="cls-4" x="20.38" y="234.11" width="6.32" height="5.37" transform="translate(209.39 385.41) rotate(134.33)"/></g><text class="cls-9" transform="translate(22.74 239.66) rotate(-45.67)"><tspan x="0" y="0">24 23</tspan></text></g><g><g><rect class="cls-4" x="15.37" y="239.24" width="6.32" height="5.37" transform="translate(204.54 397.72) rotate(134.33)"/><rect class="cls-4" x="10.67" y="244.05" width="6.32" height="5.37" transform="translate(200 409.24) rotate(134.33)"/></g><text class="cls-9" transform="translate(13.08 249.57) rotate(-45.67)"><tspan x="0" y="0">26 25</tspan></text></g><g><g><rect class="cls-4" x="5.66" y="249.18" width="6.32" height="5.37" transform="translate(195.16 421.55) rotate(134.33)"/><rect class="cls-4" x=".97" y="253.99" width="6.32" height="5.37" transform="translate(190.62 433.07) rotate(134.33)"/></g><text class="cls-9" transform="translate(3.33 259.52) rotate(-45.67)"><tspan x="0" y="0">28 27</tspan></text></g><g><rect class="cls-4" x="-4.05" y="259.12" width="6.32" height="5.37" transform="translate(185.78 445.38) rotate(134.33)"/><text class="cls-9" transform="translate(-6.37 269.46) rotate(-45.67)"><tspan x="0" y="0">30 29</tspan></text></g><g><rect class="cls-4" x="29.8" y="244.45" width="6.32" height="5.37" transform="translate(234.76 393.55) rotate(133.56)"/><g><rect class="cls-4" x="34.11" y="239.92" width="6.32" height="5.37" transform="translate(238.76 382.78) rotate(133.56)"/><text class="cls-11" transform="translate(37.41 244.58) rotate(-46.44)"><tspan x="0" y="0">9</tspan></text><text class="cls-11" transform="translate(32.08 250.19) rotate(-46.44)"><tspan x="0" y="0">10</tspan></text></g></g><g><g><rect class="cls-4" x="15.43" y="259.56" width="6.32" height="5.37" transform="translate(221.44 429.49) rotate(133.56)"/><rect class="cls-4" x="10.81" y="264.43" width="6.32" height="5.37" transform="translate(217.15 441.06) rotate(133.56)"/></g><text class="cls-11" transform="translate(13.18 270.05) rotate(-46.44)"><tspan x="0" y="0">14 13</tspan></text></g><g><g><rect class="cls-4" x="6.01" y="269.47" width="6.32" height="5.37" transform="translate(212.71 453.05) rotate(133.56)"/><rect class="cls-4" x="1.39" y="274.33" width="6.32" height="5.37" transform="translate(208.42 464.62) rotate(133.56)"/></g><text class="cls-11" transform="translate(3.73 280.01) rotate(-46.44)"><tspan x="0" y="0">16 15</tspan></text></g><g><rect class="cls-4" x="-3.59" y="279.56" width="6.32" height="5.37" transform="translate(203.81 477.05) rotate(133.56)"/><text class="cls-11" transform="translate(-5.9 290.11) rotate(-46.44)"><tspan x="0" y="0">18 17 </tspan></text></g><g><rect class="cls-4" x="56.64" y="244.7" width="6.32" height="5.37" transform="translate(-183.51 322.06) rotate(-93.47)"/><rect class="cls-4" x="56.24" y="238" width="6.32" height="5.37" transform="translate(-177.25 314.55) rotate(-93.47)"/></g><rect class="cls-4" x="57.78" y="259.29" width="6.32" height="5.37" transform="translate(-196.86 338.67) rotate(-93.47)"/><rect class="cls-4" x="57.38" y="252.59" width="6.32" height="5.37" transform="translate(-190.6 331.16) rotate(-93.47)"/><g><rect class="cls-4" x="58.54" y="274.21" width="6.32" height="5.37" transform="translate(-210.94 355.25) rotate(-93.47)"/><rect class="cls-4" x="58.14" y="267.51" width="6.32" height="5.37" transform="translate(-204.68 347.74) rotate(-93.47)"/></g><text class="cls-17" transform="translate(58.28 241.93)"><tspan x="0" y="0">6</tspan><tspan x="0" y="6.62">5</tspan></text><text class="cls-17" transform="translate(59.69 257.38)"><tspan x="0" y="0">4</tspan><tspan x="0" y="6.62">3</tspan></text><text class="cls-17" transform="translate(59.52 271.73)"><tspan x="0" y="0">2</tspan><tspan x="0" y="6.62">1</tspan></text><polygon class="cls-27" points="345.38 93.35 345.38 155.14 239.45 155.14 239.45 93.35 265.93 93.35 265.93 109.9 282.48 109.9 282.48 118.73 303.45 118.73 303.45 108.8 321.1 108.8 321.1 93.35 345.38 93.35"/><rect class="cls-27" x="267.03" y="33.77" width="84.96" height="49.65"/><polyline class="cls-27" points="4.42 -85.05 89.29 -173.68 204.17 -30.59 206.35 -18.59 155.85 23.84 120.99 16.77 70.15 -18.59 4.42 -85.05"/><rect class="cls-27" x="-217.78" y="47.83" width="264.2" height="112.35" transform="translate(-98.64 -30.12) rotate(-45)"/><text class="cls-3" transform="translate(266.9 138.16)"><tspan x="0" y="0">약학관A동</tspan></text><text class="cls-3" transform="translate(281.54 62.03)"><tspan x="0" y="0">약학관B동</tspan></text><path class="cls-27" d="M390.55,220.84c-18.29,32.74-42.94,60.82-66.91,89.1-67.31,79.43-130.75,162.58-189.98,248.99,13.98,26.21,30.28,51.02,48.62,73.99,61.56-74.17,140.35-129.55,208.08-197.38,33.18-33.23,63.63-69.38,94.04-105.48-26.99-39.92-58.34-76.52-93.2-108.81-.87,.8-1.75,1.61-2.62,2.41"/></svg>