<?xml version="1.0" encoding="UTF-8"?><svg id="_레이어_9" xmlns="http://www.w3.org/2000/svg" viewBox="0 0 300 300"><defs><style>.cls-1{font-size:7.89px;}.cls-1,.cls-2{fill:#0e0e0d;font-family:PretendardVariable-Medium, 'Pretendard Variable';font-variation-settings:'wght' 500;}.cls-3{fill:#00df04;}.cls-4,.cls-5{fill:#004625;}.cls-6{fill:#e9eaea;}.cls-7{fill:#f5f5ee;}.cls-8{fill:#ffac00;}.cls-9{fill:#a8b2a5;}.cls-10{fill:#a5a5a5;}.cls-11{font-size:5.26px;}.cls-11,.cls-12,.cls-13,.cls-14,.cls-15,.cls-16,.cls-17,.cls-18,.cls-19,.cls-20,.cls-21,.cls-22,.cls-23,.cls-24,.cls-25,.cls-5{font-family:NanumGothicExtraBold, NanumGothic;}.cls-12{font-size:5.26px;}.cls-13,.cls-25,.cls-5{font-size:5.26px;}.cls-14{font-size:5.26px;}.cls-15{font-size:5.26px;}.cls-16{font-size:5.26px;}.cls-17{font-size:5.26px;}.cls-18{font-size:5.26px;}.cls-19{font-size:5.26px;}.cls-20{font-size:5.26px;}.cls-21{font-size:5.26px;}.cls-22{font-size:5.26px;}.cls-23,.cls-24{font-size:5.26px;}.cls-2{font-size:16.03px;}.cls-24,.cls-25{fill:#fff;}.cls-26{fill:#ef0;stroke:#000;stroke-miterlimit:10;stroke-width:.66px;}</style></defs><path class="cls-10" d="M472.12,1.6c2.18,1.65,4.49,3.12,6.68,4.75,1.89,1.4,3.7,3.03,4.72,5.19,.6,1.26,.97,2.69,.7,4.09-.29,1.51-1.15,2.9-1.82,4.27-1.25,2.55-2.51,5.1-3.77,7.64-5.12,10.34-10.28,20.67-14.94,31.23s-8.73,21.03-11.8,31.99-5.06,22.99-5.52,34.77c-.24,6.29-.14,12.6,.18,18.89,.16,3.19,.38,6.37,.63,9.56,.23,2.88,.62,5.78,.5,8.67s-.91,5.45-2.67,7.67c-1.52,1.92-3.5,3.42-5.56,4.73-4.98,3.18-10.36,5.84-15.67,8.41-2.6,1.26-5.38,2.92-8.27,3.37s-5.28-.92-7.35-2.62-3.94-3.77-5.88-5.67c-2.13-2.08-4.3-4.11-6.53-6.09-4.26-3.79-8.7-7.39-13.28-10.79s-9.37-6.72-14.54-9.24c-10.65-5.19-22.35-5.54-33.98-5.09-12.38,.48-24.69,.78-37.07-.03-6.34-.42-12.67-1.05-18.96-1.91-3.06-.42-6.12-.89-9.16-1.41-2.29-.39-4.91-.68-6.83-2.09-2.55-1.87-2.24-5.51-2.42-8.33-.21-3.22-.41-6.44-.6-9.66-.37-6.28-.7-12.56-1-18.84-.6-12.73-1.06-25.47-1.37-38.21-.15-6.17-.67-12.56,.47-18.67,1.04-5.58,3.88-10.41,7.21-14.91,7.17-9.71,15.19-18.89,23.43-27.7,7.73-8.27,15.68-17.69,27.09-20.57,5.42-1.37,11.05-1.54,16.61-1.51,6.3,.03,12.6,.17,18.9,.26,12.77,.18,25.53,.37,38.3,.55,12.71,.18,25.46,.1,38.16,.61,5.97,.24,11.89,.9,17.63,2.61,5.11,1.53,9.94,3.78,14.6,6.34,4.47,2.45,8.79,5.16,13.18,7.75,.88,.52,1.67-.85,.8-1.36-9.26-5.45-18.34-11.43-28.77-14.43-5.83-1.68-11.88-2.28-17.92-2.51-6.58-.25-13.18-.24-19.76-.34-13.1-.19-26.2-.38-39.3-.57-12.8-.18-25.63-.64-38.43-.5-5.67,.06-11.46,.48-16.88,2.28-5.31,1.76-9.83,4.93-13.92,8.69-4.44,4.08-8.59,8.53-12.68,12.95s-8.45,9.36-12.48,14.2c-3.8,4.55-7.62,9.14-11.03,14s-5.75,9.78-6.52,15.54c-.83,6.18-.36,12.54-.2,18.76s.36,12.91,.6,19.36c.49,13.23,1.13,26.46,1.94,39.68,.19,3.19,.36,6.38,.61,9.57,.19,2.36,.74,4.61,2.71,6.12s4.26,1.89,6.52,2.29c3.2,.56,6.42,1.07,9.64,1.51,12.64,1.75,25.39,2.64,38.14,2.63s24.77-1.71,37-.1c6.19,.82,12.06,2.74,17.53,5.74s10.29,6.55,15.09,10.27,9.22,7.51,13.56,11.58c2.16,2.03,4.24,4.14,6.35,6.22,1.79,1.76,3.72,3.5,6.05,4.51,5.26,2.27,10.7-1.32,15.33-3.61,5.23-2.58,10.64-5.18,15.43-8.52,4.22-2.94,7.24-6.77,7.68-12.04,.25-3.01-.17-6.06-.41-9.06-.26-3.18-.48-6.37-.64-9.56-.67-12.87-.44-25.82,1.79-38.55,2.02-11.56,5.48-22.83,9.7-33.76s9.35-21.89,14.58-32.57c2.63-5.38,5.31-10.74,7.96-16.12,.59-1.21,1.19-2.41,1.78-3.62,.67-1.36,1.48-2.74,1.79-4.25,.47-2.31-.33-4.71-1.61-6.63-2.69-4.02-7.45-6.32-11.21-9.18-.81-.61-1.6,.76-.8,1.36h0Z"/><path class="cls-10" d="M88.67-16.13c-1.96-.68-3.85-1.51-5.74-2.37-1.25-.57-2.53-1.2-3.89-1.45-2.61-.47-4.76,1.03-6.45,2.88-2.61,2.86-3.95,6.61-4.79,10.32-.98,4.32-1.49,8.76-2.06,13.14-2.65,20.23-3.65,40.65-3.36,61.04,.58,40.71,6.22,81.17,13.74,121.12,3.78,20.06,8.04,40.02,12.44,59.95,1.13,5.12,2.27,10.23,3.41,15.35,.86,3.84,1.44,8.06,3.51,11.48,4.65,7.68,14.18,4.61,21,2.27,9.2-3.16,18.05-7.24,26.9-11.24s17.67-7.76,26.75-11.06c18.04-6.56,36.62-11.57,55.43-15.38,37.82-7.68,76.41-10.61,114.9-12.32,9.54-.42,19.14-.46,28.67-1.17,8.05-.6,16.6-2.94,20.86-10.44,1.78-3.13,2.39-6.8,1.39-10.29-1.05-3.67-3.58-6.68-6.26-9.3-6.27-6.15-13.12-12.09-20.42-16.98-7.81-5.24-16.28-8.38-25.59-9.65-9.89-1.35-19.97-1.58-29.93-2.2-9.76-.61-19.53-1.07-29.28-1.86-7.28-.6-14.6-1.59-21.56-3.88-6.82-2.25-13.36-5.95-17.67-11.83-5.53-7.55-6.3-17.21-7.08-26.22-1.74-20.26-1.98-41.08,.63-61.28,.66-5.14,1.62-10.26,3.04-15.25,1.22-4.29,2.8-8.46,4.34-12.64,2.96-8.04,6.19-16.46,6.14-25.16-.02-3.82-.78-7.6-2.43-11.06-1.55-3.25-3.97-6.52-7.8-6.98-3.21-.38-6.13,1.46-8.47,3.46-3.1,2.65-5.49,5.96-8.29,8.9-12.84,13.47-32.94,14.24-50.04,10.74-9.75-2-19.34-5.01-28.74-8.23-9.27-3.18-18.4-6.78-27.42-10.64s-17.19-7.65-25.7-11.68c-.91-.43-1.71,.93-.8,1.36C105.19-6.59,122.51,1.18,140.43,7.4c9.01,3.13,18.16,6.01,27.47,8.11,9.01,2.03,18.36,3.16,27.56,1.93,7.76-1.04,15.44-3.72,21.75-8.44,3.13-2.34,5.62-5.19,8.18-8.12,2.37-2.71,4.95-5.73,8.29-7.24,9.25-4.19,12.64,10.48,12.48,16.81-.22,8.76-3.66,17.19-6.65,25.3-3.15,8.55-5.58,17.09-6.78,26.15-1.31,9.91-1.75,19.96-1.88,29.94s.23,20.47,1.07,30.67c.7,8.54,1.26,17.69,5.51,25.34,6.93,12.48,21.56,16.84,34.81,18.62,8.23,1.11,16.56,1.41,24.84,1.93,10.15,.63,20.31,1.25,30.46,1.9s19.41,1.59,28.27,5.83c7.98,3.81,14.88,9.46,21.46,15.28,5.74,5.08,14.9,11.63,12.69,20.49-2.32,9.3-12.43,12.35-20.84,12.98-9.13,.68-18.34,.72-27.48,1.12s-18.94,.9-28.4,1.51c-18.58,1.2-37.13,2.88-55.58,5.42-37.01,5.09-73.63,13.83-107.91,28.89-8.88,3.9-17.61,8.12-26.63,11.68-4.24,1.67-8.57,3.32-12.99,4.47-4.02,1.04-8.89,1.55-12.04-1.74-2.87-2.99-3.47-7.67-4.33-11.54-1.1-4.91-2.19-9.82-3.28-14.73-2.16-9.75-4.28-19.51-6.34-29.28-8.26-39.26-15.43-78.86-18.57-118.9-1.55-19.71-2.11-39.51-1.31-59.27,.4-9.98,1.15-19.95,2.29-29.88,.58-5.03,1.23-10.05,2.03-15.04,.63-3.92,1.45-7.98,3.55-11.41,1.47-2.39,3.93-5.24,7.04-4.47s6.03,2.63,9.08,3.7c.96,.33,1.37-1.19,.42-1.52h0Z"/><path class="cls-10" d="M-47.65-135.37c-18.77,18.12-37.1,36.68-55.53,55.14-9.02,9.03-18.07,18.02-27.21,26.92-8.2,7.98-16.8,15.66-23.16,25.27-.18,.27-.13,.74,.12,.96,3.92,3.29,7.83,6.58,11.75,9.87,1.39,1.17,4.73,3.06,4.95,4.86s-2.94,4.86-4.06,6.35c-1.7,2.26-2.15,3.51-4.89,2.24-1.93-.89-3.77-2.35-5.51-3.56-4.46-3.09-8.6-6.57-12.52-10.32-.32-.31-.79-.29-1.12,0-35.53,31.38-69.75,64.21-102.58,98.41-.53,.55,0,1.56,.77,1.32l.59-.19-.77-1.32c-16.26,17.46-32.52,34.92-48.77,52.39-.27,.29-.34,.83,0,1.12,17.1,14.28,33.1,29.84,47.76,46.62,7.54,8.63,14.68,17.59,21.55,26.76,5.66,7.57,11.29,15.24,17.86,22.06,11.73,12.17,27.08,21.7,44.39,16.2,8.14-2.58,15.4-7.7,21.1-14,.93-1.03,5.12-6.33,7.33-4.54,1.18,.96-.53,4.05-1,4.99-6.91,13.95-22.33,26.45-36.99,31.1-.61,.19-.82,1.12-.19,1.44,9.57,4.87,12.65,16.62,10.67,26.59-2.25,11.33-10.65,20.33-18.63,28.13-18.51,18.1-37.4,35.83-56.1,53.74-15.63,14.96-36.54,30.35-39.84,53.25-1.72,11.92,.33,24.16,1.6,36.02,1.38,12.85,2.77,25.71,4.15,38.56,2.9,26.93,5.79,53.86,8.69,80.79,.57,5.27,.92,10.61,1.75,15.85,.69,4.31,2.1,8.5,6.07,10.81,3.26,1.89,7.23,2.01,10.88,2.13,6.76,.23,13.53,.35,20.29,.52,27.05,.69,54.1,1.38,81.14,2.07,13.52,.35,27.05,.69,40.57,1.04,6.15,.16,12.29,.31,18.44,.47,3.07,.08,6.15,.16,9.22,.24,1.26,.03,4.43-.43,5.53,.14,2.36,1.22,1.99,3.7,2,6.05,.02,2.57-.2,8.72-2.27,10.72s-6.75,.63-9.17,.51c-6.73-.34-13.45-.67-20.18-1.01-13.45-.67-26.9-1.34-40.36-2.02-26.6-1.33-53.2-2.66-79.8-3.99-8.33-.42-18.26-1.5-25.62,3.39-8.19,5.44-7.47,16.34-8.04,25-.86,13.23-1.73,26.46-2.59,39.68-.74,11.3-3.24,24.1-.16,35.21,4.44,16.04,21.17,21.65,36.08,23.18,10.5,1.08,21.1,.37,31.62,.05,13.19-.4,26.38-.8,39.56-1.21,53.22-1.65,106.44-3.08,159.65-4.69,22.44-.68,44.8-2.8,67.22-3.68,19.45-.77,39.88-1.18,58.73,4.39,7.92,2.34,15.42,5.93,21.61,11.47,7.19,6.43,15.4,8.68,25.04,7.7,10.56-1.08,21.14-4.53,31.15-7.94,9.4-3.2,18.61-6.97,27.56-11.25,37.44-17.93,70.41-45.07,95.19-78.36,12.88-17.3,22.55-37.6,38.78-52.18,17.47-15.7,42.08-20.9,63.17-30.1,80.27-35.05,149.47-97.42,179.65-181.09,14.69-40.73,21.12-87.86,10.79-130.42-4.7-19.36-14.29-36.9-30.27-49.16-15.62-11.98-34.87-18.17-53.88-22.29-9.51-2.06-19.12-3.64-28.74-5.08-10.56-1.59-21.31-2.98-32.01-2.13-9.98,.79-19.72,3.71-27.69,9.93-8.21,6.41-14.03,15.22-21.71,22.18-16.72,15.18-40.12,18.07-61.73,19.57-24.26,1.68-48.41,3.47-72.51,6.87-50.05,7.07-99.4,19.04-147.11,35.73-10.17,3.56-21.11,6.7-30.53,12.03-7.81,4.42-12.53,10.97-13.75,19.92-1.29,9.5-.53,19.69,.37,29.2,.83,8.83,2.31,17.66,5.04,26.11,4.65,14.37,13.27,27.17,27.7,32.94l-.35-1.32c-2.93,3.78-5.86,7.57-8.79,11.35-.98,1.26-2.98,5.13-4.39,5.68-2.3,.9-4.99-2.21-6.75-3.69-6.47-5.44-12.09-11.86-16.7-18.94-9.21-14.14-14.08-30.51-14.4-47.36-.17-9.01-.06-24.52-9.94-29-6.01-2.72-12.17,.82-17.53,3.4-9.04,4.35-18.01,8.86-26.88,13.54s-17.68,9.52-26.39,14.52c-4.1,2.35-8.18,4.74-12.24,7.17-1.98,1.18-3.97,2.72-6.07,3.66-1.3,.59-1.49,1.28-2.75,.53-.67-.4-2.05-4.1-2.41-4.82-1.03-2.07-2.48-4.24-3.21-6.43-1.02-3.07,.17-3.32,2.87-4.86,4.49-2.57,8.98-5.15,13.47-7.72,8.98-5.15,17.96-10.29,26.94-15.44s17.96-10.29,26.94-15.44c7.05-4.04,14.75-7.71,20.86-13.16,13.31-11.89,8.83-31.31,7.52-47.04-3.81-45.49-9.61-90.8-17.3-135.8-.09-.52-.75-.69-1.16-.47-2.61,1.41-5.21,2.82-7.82,4.24-1.67,.9-5.71,4.07-7.48,2.84-.43-.3-1.18-2.68-1.48-3.36-.74-1.68-1.48-3.36-2.22-5.04-.81-1.84-3.79-6.03-2.92-7.96,.35-.79,3.16-2.42,3.91-3.17,1.18-1.18,2.23-2.49,3.17-3.87,2.15-3.14,3.66-6.7,4.82-10.31,2.82-8.76,3.57-18.11,4.71-27.2,1.54-12.25,3.07-24.5,4.61-36.76s3.1-24.41,4.59-36.63c1.31-10.73,2.38-21.98-1.45-32.34-3.27-8.87-9.56-16.23-15.63-23.31-7.13-8.33-14.57-16.4-22.31-24.17-17.02-17.12-35.44-32.8-55-46.96-.82-.6-1.61,.77-.8,1.36C-16.86-112.57,10.24-87.53,33.63-59.43c6.26,7.52,12,15.54,13.88,25.34s.3,20.11-.94,29.98c-2.54,20.22-5.07,40.43-7.61,60.65-2.09,16.63-1.55,42.13-17.92,52.1-.39,.24-.46,.68-.28,1.08,2.71,6.16,5.42,12.31,8.14,18.47,.18,.4,.74,.47,1.08,.28,5.21-2.82,10.42-5.65,15.63-8.47l-1.16-.47c6.54,38.27,11.71,76.76,15.44,115.4,.93,9.68,1.78,19.37,2.54,29.06,.66,8.42,2.16,17.72-.45,25.94-2.83,8.95-10.84,14.01-18.54,18.46-8.11,4.69-16.26,9.32-24.39,13.98-19.01,10.9-38.03,21.79-57.04,32.69-.39,.22-.47,.7-.28,1.08,2.67,5.36,5.35,10.72,8.02,16.07,.19,.38,.73,.49,1.08,.28,14.35-8.81,28.95-17.2,43.81-25.13,7.29-3.89,14.64-7.67,22.05-11.34,3.7-1.83,7.41-3.65,11.15-5.42,3.98-1.89,8.5-4.09,12.97-2.48,10.97,3.96,9.41,22.11,9.82,31.27,.57,12.77,4.05,25.36,9.88,36.73,6.69,13.03,16.46,24.22,28.53,32.52,.26,.18,.76,.14,.96-.12,4.76-6.15,9.52-12.3,14.28-18.45,.38-.5,.24-1.08-.35-1.32-27.86-11.12-32.02-47.18-32.41-73.22-.13-8.84-.49-18.87,5.66-25.98,5.65-6.54,14.48-9.38,22.33-12.32,18.25-6.82,36.75-12.95,55.46-18.37,37.3-10.82,75.43-18.83,113.93-23.91,18.8-2.48,37.69-4.21,56.62-5.35,15.82-.95,31.99-1.83,47.16-6.8,7.06-2.31,13.84-5.54,19.82-9.97s11.12-10.48,16.24-16.18c6.03-6.71,12.55-12.73,21.12-15.97,8.31-3.15,17.31-3.82,26.13-3.49,16.16,.6,32.6,3.69,48.41,7.03s30.19,7.58,43.72,15.13c14.24,7.95,25.87,19.44,33.11,34.13,8.02,16.25,10.88,34.64,11.86,52.58,1.91,34.97-4.28,70.1-16.7,102.78-24.78,65.24-74.03,117.84-133.49,153.29-14.32,8.54-29.21,16.12-44.5,22.77-16.06,6.98-33.36,11.66-48.73,20.11-14.04,7.72-24.21,19.74-33.11,32.81-9.43,13.85-18.09,28.03-28.89,40.9-20.95,24.98-46.67,45.89-75.4,61.29-14.36,7.7-29.45,14.01-45.04,18.76-8.52,2.59-17.58,5.46-26.53,5.68-4.55,.11-9.32-.48-13.49-2.4-3.67-1.69-6.31-4.58-9.42-7.05-20.51-16.28-51.49-15.28-76.15-14.45-16.94,.58-33.84,1.94-50.76,2.91-19.19,1.1-38.43,1.37-57.64,1.91-40.79,1.14-81.58,2.43-122.37,3.69-19.34,.6-38.74,1.69-58.09,1.7-13.23,0-29.1-1.21-39.38-10.57-6.62-6.03-8.64-14.45-8.54-23.15,.11-9.68,1.13-19.41,1.76-29.07,.67-10.22,1.34-20.44,2-30.66,.59-9.03-.83-22.06,7.99-27.56,6.79-4.24,15.79-3.3,23.4-2.92,10.09,.5,20.18,1.01,30.27,1.51,20.18,1.01,40.36,2.02,60.54,3.02,19.87,.99,39.75,1.99,59.62,2.98,.26,.01,.56-.16,.68-.39,3.16-6.31,3.91-13.03,2.19-19.88-.09-.34-.42-.57-.76-.58-41.19-1.05-82.37-2.1-123.56-3.15-10.14-.26-20.29-.52-30.43-.78-4.92-.13-9.84-.25-14.75-.38s-10.15,.33-14.87-.84c-6.26-1.55-8.26-6.48-9.03-12.35-.7-5.34-1.16-10.72-1.74-16.08-1.09-10.1-2.17-20.2-3.26-30.3-2.21-20.5-4.41-41.01-6.62-61.51-1.09-10.1-2.17-20.2-3.26-30.3-.99-9.24-2.32-18.63-1.5-27.94,1.77-20.05,16.16-33.03,29.85-46.13,14.77-14.14,29.54-28.28,44.31-42.42,7.78-7.45,15.68-14.78,23.31-22.38,6.12-6.1,12-12.77,15.4-20.82,5.01-11.86,3.16-28.43-9.36-34.8l-.19,1.44c15.06-4.78,30.48-17.37,37.78-31.53,1.02-1.98,3.29-6.55,0-7.67-1.51-.51-3.84,.48-5.08,1.26-1.83,1.15-3.04,3.22-4.55,4.8-2.4,2.52-5.05,4.78-7.9,6.78-11.02,7.7-24.75,9.94-36.91,3.57-11.47-6.01-20.2-15.91-28.04-25.99-16.79-21.58-33.32-42.78-53.03-61.87-5.8-5.61-11.75-11.06-17.86-16.33-.91-.79-4.13-2.68-4.45-3.78-.51-1.78,2.01-3.49,3.1-4.65,2.92-3.13,5.84-6.27,8.75-9.4,11.88-12.76,23.76-25.52,35.64-38.28,.51-.55,.02-1.56-.77-1.32l-.59,.19,.77,1.32c19.7-20.52,39.89-40.57,60.59-60.09,10.34-9.75,20.8-19.38,31.38-28.87,2.51-2.25,5.1-5.29,7.95-7.09,1.5-.95,1.56-1.6,3.34-.65,1.33,.71,2.54,2.28,3.71,3.26,4.89,4.09,10.15,7.67,15.7,10.81,.4,.23,.82,.06,1.08-.28,2.78-3.7,5.56-7.41,8.34-11.11,.19-.26,.12-.75-.12-.96-2.77-2.32-5.53-4.65-8.3-6.97-1.38-1.16-2.77-2.32-4.15-3.48-.87-.73-3.74-2.35-4.15-3.48-1.02-2.87,3.46-6.69,5.32-8.79,2.09-2.37,4.29-4.63,6.53-6.85,10.15-10.06,20.48-19.93,30.6-30.02,20.62-20.55,41-41.33,61.95-61.55,.73-.71-.38-1.82-1.12-1.12h0Z"/><path class="cls-10" d="M616.35,446.74c.3-8.07,2.67-15.52,7.1-22.28,.15-.23,.14-.56,0-.8-1.78-2.96-5.18-3.82-8.39-2.62-4.92,1.84-6.52,7.81-8.16,12.23-5.08,13.71-11.51,26.9-19.05,39.42-15.02,24.95-34.37,47.16-56.37,66.18s-48.81,36.31-75.92,49.96c-13.52,6.81-27.45,12.6-41.31,18.66-12.99,5.68-25.85,12.05-36.64,21.38-12.13,10.48-21.07,24.04-29.37,37.6-9.74,15.91-19.31,31.93-28.95,47.9-.29,.48,.02,.97,.47,1.16l.4,.17-.35-1.32c-19.96,18.57-42.66,34.05-67.3,45.73-12.58,5.96-25.63,10.91-38.99,14.77-12.48,3.61-25.81,5.28-37.71,10.68-9.38,4.25-15.5,9.95-15.47,20.63,.02,5.82,1.02,11.6,1.15,17.41,.13,5.36,.12,10.7,.99,16.01,.79,4.81,2.33,11.37,7.36,13.52,4.26,1.82,9.12-.48,12.8-2.63,12.27-7.18,21.5-18.64,33.84-25.71,3.14-1.8,6.16-2.73,9.72-3.32,8.12-1.35,16.33-2.12,24.55-2.59,15.17-.87,30.36-.68,45.54-1,30.61-.66,61.5-2.67,91.9-6.38,29.48-3.6,58.36-9.89,86.34-19.92,27.62-9.9,54.17-22.47,80.74-34.83,27.82-12.94,55.83-25.47,84.04-37.52,56.41-24.11,113.59-46.39,171.43-66.82,28.93-10.22,58.03-19.97,87.28-29.25,14.62-4.64,29.28-9.16,43.97-13.56,13.84-4.15,27.94-7.69,41.64-12.24,4.89-1.62,9.75-3.71,13.63-7.18,4.36-3.89,6.61-9.25,8.46-14.67,4.39-12.9,9.39-25.38,16.06-37.29,13.01-23.25,30.7-43.59,51.87-59.76,8.74-6.68,18.47-13.76,20.62-25.28,2.02-10.85-.84-23.33-3.37-33.91-5.25-21.92-15.02-42.46-26.38-61.83-23.48-40.06-54-76.01-73.12-118.59-4.82-10.72-8.77-21.8-11.66-33.2-.22-.87-1.54-.67-1.55,.21-.61,49.69,2.36,99.39,8.96,148.65,3.23,24.08,7.31,48.04,12.26,71.83,1.73,8.32,2.83,16.81,.8,25.21-2.18,9.02-9.7,16.13-19.02,9.95-4.1-2.72-7.03-6.89-10.04-10.68-3.79-4.77-7.75-9.42-11.88-13.9-7.5-8.13-15.53-15.76-24.05-22.81-14.15-11.71-33.29-25.85-52.79-19.79-15.75,4.89-23.99,20.99-29.53,35.3-8.54,22.08-15.56,44.85-23.25,67.25-8.11,23.64-16.23,47.27-24.34,70.91-6.48,18.87-14.54,48.38-40.87,41.72-19.78-5-34.01-24.88-41.33-42.83s-9.27-36.79-6.99-55.46c1.14-9.36,3.43-18.59,6.83-27.38,2.77-7.16,8.94-16.46,2.9-23.63-2.42-2.88-5.96-4.44-9.34-5.88-5.68-2.42-11.39-4.77-17.08-7.16-11.26-4.72-22.53-9.44-33.79-14.16-7.34-3.08-17.31-8.99-23.7-1.18-2.49,3.04-3.69,7.06-5,10.7-1.98,5.51-3.98,11.02-6.04,16.5-8.14,21.67-17.32,43.21-30.39,62.43-11.55,16.99-26.38,32.22-44.42,42.3-4.35,2.43-8.86,4.55-13.53,6.28-4.4,1.63-19.66,6.94-16.84-2.88,2.61-9.09,14.85-12.87,22-17.42,30.87-19.69,53.99-51.05,64.45-86.07,2.55-8.52,4.29-17.24,5.33-26.07,.12-1.01-1.46-1-1.58,0-4.67,39.81-25.52,77.16-56.88,102.13-7.89,6.28-16.43,10.88-25.04,16-4.38,2.6-11.87,9.05-9.96,15.05,2.45,7.71,14.23,2.53,18.94,.79,9.11-3.37,17.65-8.16,25.47-13.9,35.36-25.97,52.91-67.71,67.45-107.63,1.84-5.05,3.22-10.63,5.96-15.28,4.86-8.26,13.04-4.53,19.98-1.62,11.83,4.96,23.65,9.91,35.48,14.87,5.63,2.36,11.27,4.71,16.9,7.08,7.12,2.99,14.32,6.62,12.17,15.8-1.12,4.78-3.72,9.22-5.44,13.82s-3.16,9.43-4.27,14.28c-7.93,34.57-.36,75.72,26.77,100.33,12.64,11.46,32.69,18.94,46.42,4.94,6.17-6.28,9.56-14.77,12.46-22.93,4.22-11.91,8.22-23.9,12.32-35.85,8.42-24.51,16.83-49.02,25.25-73.54,4.09-11.9,8.08-23.84,12.27-35.7,3.15-8.95,6.73-17.96,12.21-25.77,6.08-8.68,14.83-15.27,25.73-15.87,11.87-.66,23.15,5.32,32.61,11.89,19.1,13.27,35.19,30.39,49.66,48.45,4.53,5.66,10.71,12.06,18.72,10.22,5.61-1.29,8.72-6.44,10.25-11.62,2.03-6.85,1.96-14.4,.84-21.39-1.91-11.91-4.78-23.71-6.89-35.6-8.92-50.34-14.03-101.35-15.28-152.45-.31-12.72-.37-25.45-.22-38.17l-1.55,.21c11.06,43.7,37.96,80.63,62.75,117.44,12.61,18.72,24.98,37.74,34.68,58.16,4.85,10.21,9,20.77,12.06,31.67s6.2,23.84,5.46,35.55c-.93,14.71-12.83,22.28-23.37,30.56-9.8,7.7-18.83,16.38-26.94,25.85-15.76,18.38-28.11,39.65-36.19,62.48-2.5,7.05-4.16,14.83-9.53,20.36-4.57,4.71-11.12,6.92-17.25,8.75-13.88,4.14-27.84,8.04-41.71,12.22-28.25,8.5-56.37,17.44-84.34,26.81-55.98,18.76-111.37,39.25-166.08,61.44-54.38,22.05-107.56,46.51-160.94,70.83-26.76,12.19-54.01,23.64-82.48,31.23-28.99,7.73-58.88,11.39-88.74,13.66-29.91,2.27-59.74,2.99-89.71,3.66-14.14,.32-28.88,.63-42.76,3.68-5.56,1.22-10.38,4.66-14.84,8.05-5.61,4.27-10.86,8.97-16.34,13.4-4.74,3.83-10.19,8.51-16.26,9.99-6.73,1.64-9.77-4-11.13-9.75-1.25-5.3-1.43-10.82-1.49-16.24-.06-5.78-.81-11.48-1.1-17.24s.23-11.48,4.63-15.55c5.43-5.03,13.07-7.73,20.04-9.74,12.51-3.61,25.26-6.01,37.64-10.16,24.16-8.11,47.13-19.75,67.98-34.41,10.07-7.08,19.62-14.87,28.63-23.26,.48-.45,.16-1.11-.35-1.32l-.4-.17,.47,1.16c8.68-14.37,17.35-28.75,26.04-43.12,7.78-12.86,15.74-25.83,26.29-36.65,21.25-21.78,52.36-29.98,79.01-43.04,51.81-25.39,99.34-61.24,131.47-109.75,8.57-12.94,15.94-26.65,21.87-41,1.46-3.53,2.73-7.12,4.11-10.67,.9-2.34,1.88-4.92,3.7-6.74,1.21-1.2,2.72-2.02,4.48-2.11,1.48-.08,3.67,1.15,3.61,2.91-.05,1.51-2.35,4.25-2.97,5.68-.66,1.54-1.24,3.12-1.72,4.73-1.1,3.7-1.61,7.48-1.75,11.32-.04,1.02,1.54,1.01,1.58,0h0Z"/><path class="cls-10" d="M314.25,283.46c-.19-2.73-1.9-4.08-4.35-4.94-3.49-1.22-6.82-1.51-10.5-1.19-8.12,.72-16.23,1.62-24.33,2.5-16.02,1.73-32.01,3.71-47.9,6.43-15.95,2.73-31.79,6.21-47.26,10.95-7.69,2.35-15.29,5.02-22.75,8.04-6.13,2.48-12.18,5.22-17.65,8.97-4.96,3.4-9.53,7.67-12.29,13.08-3.19,6.27-3.34,13.33-1.42,20.02,2.06,7.18,5.93,13.95,10.08,20.12,3.55,5.28,7.87,10.41,13.57,13.44,6.52,3.46,13.8,3.11,20.63,.74,7.6-2.64,14.71-6.84,21.79-10.6,14.41-7.65,28.64-15.65,42.64-24.03,14.06-8.42,27.9-17.22,41.46-26.43,6.75-4.58,13.42-9.27,20.03-14.06,3.2-2.32,6.47-4.56,9.31-7.31,1.38-1.33,2.7-2.72,4.09-4.04,1.24-1.17,2.47-2.32,3.34-3.81,1.41-2.42,1.5-5.15,1.5-7.88,0-1.02-1.58-1.02-1.58,0,0,2.85-.12,5.59-1.88,7.98-1.11,1.51-2.63,2.69-3.95,4s-2.67,2.71-4.09,3.98c-2.92,2.61-6.27,4.8-9.44,7.08s-6.32,4.52-9.5,6.74c-12.86,8.99-25.99,17.59-39.34,25.84-13.29,8.21-26.79,16.06-40.47,23.59-6.81,3.74-13.66,7.4-20.56,10.99-6.83,3.55-14.02,7.68-21.87,8.22-14.31,1-23.17-12.3-29.23-23.35-3.65-6.65-6.81-14.11-6.2-21.86,.49-6.25,3.68-11.78,8.07-16.12s9.68-7.51,15.15-10.18c6.53-3.19,13.4-5.74,20.26-8.14,14.54-5.08,29.49-8.93,44.58-11.96,15.26-3.07,30.68-5.31,46.13-7.18,7.74-.93,15.48-1.78,23.24-2.58,3.83-.4,7.66-.79,11.49-1.17s7.91-1.13,11.7-.14c2.4,.62,5.7,1.3,5.91,4.26,.07,1.01,1.65,1.01,1.58,0h0Z"/><polygon class="cls-6" points="137.14 322.87 163.98 373.47 192.78 357 190.52 351.57 231.49 330.66 235.06 336.18 264.64 319.66 240.97 269.38 212.25 284.54 215.74 291.37 172.06 313.4 169.02 307.59 137.14 322.87"/><rect class="cls-3" x="224.17" y="157.64" width="40.75" height="59.16"/><rect class="cls-3" x="224.17" y="118.2" width="40.75" height="26.29"/><g><path class="cls-4" d="M124.69,173.04c-8.33,1.31-16.65,2.63-24.98,3.94-2.63,1.75-5.26,3.51-7.89,5.26l-10.52,10.52,11.83,56.53,3.94,7.89,6.57,5.26,18.41,5.26,81.51-24.98,13.15-21.03-3.94-44.7c-6.13-2.19-12.27-4.38-18.41-6.57-16.99,.64-33.98,1.28-50.96,1.92-6.24,.24-12.48,.47-18.71,.71Z"/><path class="cls-7" d="M139.12,207.22l-55.11,1.49,1.25,8.75,53.86,1.6-34.14,43.38,10.43,4.59,40.85-46.66,59.02,3.63,1.45-2.32-.61-6.88-58.8-6.1c.08-12.33,.16-24.66,.24-36.99-4.13,.18-8.27,.36-12.4,.54l-6.04,34.95Z"/><text class="cls-5" transform="translate(131.4 216.07)"><tspan x="0" y="0">학생문화관 숲</tspan></text></g><text class="cls-2" transform="translate(231.5 193.38)"><tspan x="0" y="0">ESS</tspan></text><text class="cls-1" transform="translate(231.28 129.8)"><tspan x="0" y="0">물품배부</tspan><tspan x="-3.41" y="9.47">쓰레기수거</tspan></text><g><g><rect class="cls-26" x="216.53" y="226.83" width="7.23" height="7.23" transform="translate(-97.9 210.03) rotate(-42.64)"/><rect class="cls-26" x="211.14" y="231.79" width="7.23" height="7.23" transform="translate(-102.69 207.69) rotate(-42.64)"/></g><text class="cls-15" transform="translate(213.53 238.86) rotate(-42.64)"><tspan x="0" y="0">22 21</tspan></text></g><g><g><rect class="cls-26" x="133.22" y="261.89" width="7.23" height="7.23" transform="translate(-75.99 55.93) rotate(-18.17)"/><rect class="cls-26" x="126.26" y="264.18" width="7.23" height="7.23" transform="translate(-77.05 53.87) rotate(-18.17)"/></g><text class="cls-22" transform="translate(127.27 270.52) rotate(-18.17)"><tspan x="0" y="0">34 33</tspan></text></g><g><g><rect class="cls-26" x="118.77" y="266.64" width="7.23" height="7.23" transform="translate(-78.19 51.65) rotate(-18.17)"/><rect class="cls-26" x="111.81" y="268.92" width="7.23" height="7.23" transform="translate(-79.25 49.6) rotate(-18.17)"/></g><text class="cls-22" transform="translate(112.82 275.26) rotate(-18.17)"><tspan x="0" y="0">36 35</tspan></text></g><g><g><rect class="cls-26" x="191.03" y="242.91" width="7.23" height="7.23" transform="translate(-67.18 73.01) rotate(-18.17)"/><rect class="cls-26" x="184.07" y="245.2" width="7.23" height="7.23" transform="translate(-68.24 70.96) rotate(-18.17)"/></g><text class="cls-22" transform="translate(185.08 251.54) rotate(-18.17)"><tspan x="0" y="0">26 25</tspan></text></g><g><g><rect class="cls-26" x="176.58" y="247.66" width="7.23" height="7.23" transform="translate(-69.39 68.74) rotate(-18.17)"/><rect class="cls-26" x="169.62" y="249.94" width="7.23" height="7.23" transform="translate(-70.45 66.68) rotate(-18.17)"/></g><text class="cls-22" transform="translate(170.63 256.28) rotate(-18.17)"><tspan x="0" y="0">28 27</tspan></text></g><g><g><rect class="cls-26" x="147.67" y="257.15" width="7.23" height="7.23" transform="translate(-73.79 60.2) rotate(-18.17)"/><rect class="cls-26" x="140.71" y="259.43" width="7.23" height="7.23" transform="translate(-74.85 58.14) rotate(-18.17)"/></g><text class="cls-22" transform="translate(141.72 265.77) rotate(-18.17)"><tspan x="0" y="0">32 31</tspan></text></g><g><g><rect class="cls-26" x="205.2" y="236.2" width="7.23" height="7.23" transform="translate(-90.83 133.39) rotate(-29.4)"/><rect class="cls-26" x="198.82" y="239.8" width="7.23" height="7.23" transform="translate(-93.42 130.72) rotate(-29.4)"/></g><text class="cls-12" transform="translate(200.44 246.53) rotate(-29.4)"><tspan x="0" y="0">24 23</tspan></text></g><g><g><rect class="cls-26" x="162.13" y="252.4" width="7.23" height="7.23" transform="translate(-71.59 64.47) rotate(-18.17)"/><rect class="cls-26" x="155.17" y="254.69" width="7.23" height="7.23" transform="translate(-72.65 62.41) rotate(-18.17)"/></g><text class="cls-22" transform="translate(156.18 261.03) rotate(-18.17)"><tspan x="0" y="0">30 29</tspan></text></g><g><g><rect class="cls-26" x="167.13" y="163.05" width="7.23" height="7.23"/><rect class="cls-26" x="159.8" y="163.05" width="7.23" height="7.23"/></g><text class="cls-13" transform="translate(160.16 168.41)"><tspan x="0" y="0" xml:space="preserve"> 5   6</tspan></text></g><g><g><rect class="cls-26" x="150.04" y="163.05" width="7.23" height="7.23"/><rect class="cls-26" x="142.71" y="163.05" width="7.23" height="7.23"/></g><text class="cls-13" transform="translate(143.07 168.41)"><tspan x="0" y="0" xml:space="preserve"> 3   4</tspan></text></g><g><g><rect class="cls-26" x="132.95" y="163.05" width="7.23" height="7.23"/><rect class="cls-26" x="125.62" y="163.05" width="7.23" height="7.23"/></g><text class="cls-13" transform="translate(125.97 168.41)"><tspan x="0" y="0" xml:space="preserve"> 1   2</tspan></text></g><g><g><rect class="cls-26" x="87.62" y="173.26" width="7.23" height="7.23" transform="translate(263.35 276.78) rotate(147.42)"/><rect class="cls-26" x="93.79" y="169.31" width="7.23" height="7.23" transform="translate(272.6 266.19) rotate(147.42)"/></g><text class="cls-17" transform="translate(94.48 171.11) rotate(57.42)"><tspan x="0" y="0">50</tspan><tspan x="0" y="7.89">49</tspan></text></g><g><g><rect class="cls-26" x="96.52" y="263.32" width="7.23" height="7.23" transform="translate(187.08 -4.58) rotate(38.32)"/><rect class="cls-26" x="90.77" y="258.77" width="7.23" height="7.23" transform="translate(183.02 -2) rotate(38.32)"/></g><text class="cls-11" transform="translate(93.57 265.83) rotate(-51.68)"><tspan x="0" y="0">38</tspan><tspan x="0" y="7.89">37</tspan></text></g><g><g><rect class="cls-26" x="85.56" y="252.17" width="7.23" height="7.23" transform="translate(316.32 108.19) rotate(76.21)"/><rect class="cls-26" x="83.82" y="245.05" width="7.23" height="7.23" transform="translate(308.08 104.47) rotate(76.21)"/></g><text class="cls-14" transform="translate(84.7 250.85) rotate(-13.79)"><tspan x="0" y="0">40</tspan><tspan x="0" y="7.89">39</tspan></text></g><g><g><rect class="cls-26" x="81.87" y="237.11" width="7.23" height="7.23" transform="translate(298.87 100.31) rotate(76.21)"/><rect class="cls-26" x="80.12" y="229.99" width="7.23" height="7.23" transform="translate(290.63 96.59) rotate(76.21)"/></g><text class="cls-14" transform="translate(81 235.79) rotate(-13.79)"><tspan x="0" y="0">42</tspan><tspan x="0" y="7.89">41</tspan></text></g><g><g><rect class="cls-26" x="78.17" y="222.04" width="7.23" height="7.23" transform="translate(281.43 92.43) rotate(76.21)"/><rect class="cls-26" x="76.42" y="214.93" width="7.23" height="7.23" transform="translate(273.19 88.71) rotate(76.21)"/></g><text class="cls-14" transform="translate(77.3 220.73) rotate(-13.79)"><tspan x="0" y="0">44</tspan><tspan x="0" y="7.89">43</tspan></text></g><g><g><rect class="cls-26" x="73.64" y="200.71" width="7.23" height="7.23" transform="translate(281.57 127.07) rotate(90)"/><rect class="cls-26" x="73.64" y="193.38" width="7.23" height="7.23" transform="translate(274.25 119.75) rotate(90)"/></g><text class="cls-13" transform="translate(74.09 198.45)"><tspan x="0" y="0">46</tspan><tspan x="0" y="7.89">45</tspan></text></g><g><g><rect class="cls-26" x="76.48" y="184.29" width="7.23" height="7.23" transform="translate(274.08 251.86) rotate(131.33)"/><rect class="cls-26" x="81.32" y="178.79" width="7.23" height="7.23" transform="translate(277.98 239.09) rotate(131.33)"/></g><text class="cls-20" transform="translate(81.56 181.42) rotate(41.33)"><tspan x="0" y="0">48</tspan><tspan x="0" y="7.89">47</tspan></text></g><path class="cls-9" d="M69.93,63.51l10.52,1.63,11.14-8.95v-9.77l-5.88-5.26,27.61-27.61,6.57,6.57,13.15-11.83,9.2,1.31,10.52,10.52s-31.55,31.55-32.87,31.55-6.57,6.57-6.57,6.57h-9.2l-34.18,31.64v-26.39Z"/><polygon class="cls-8" points="223.75 93.19 198.77 93.19 198.77 72.67 207.97 64.48 154.07 13.3 146.84 18.27 140.92 14.55 125.15 28.52 125.15 29.53 134.2 37.39 107.02 60.52 111.24 65.85 111.44 66.01 76.51 94.44 76.51 104.04 80.45 106.92 108.06 106.08 108.06 125.65 119.89 125.65 119.89 156.85 207.97 156.85 207.97 126.89 223.75 126.89 223.75 93.19"/><text class="cls-25" transform="translate(124.31 133.58)"><tspan x="0" y="0">학생문화관 1층 로비</tspan></text><text class="cls-25" transform="translate(95.9 77.69)"><tspan x="0" y="0">학생문화관 4층 전시실</tspan></text><text class="cls-2" transform="translate(119.61 102.33)"><tspan x="0" y="0">학생문화관</tspan></text><g><rect class="cls-26" x="127.86" y="119.9" width="7.23" height="7.23"/><text class="cls-13" transform="translate(128.36 125.32)"><tspan x="0" y="0">63</tspan></text></g><g><rect class="cls-26" x="138.33" y="119.9" width="7.23" height="7.23"/><text class="cls-13" transform="translate(138.66 125.25)"><tspan x="0" y="0">64</tspan></text></g><g><rect class="cls-26" x="148.81" y="119.9" width="7.23" height="7.23"/><text class="cls-13" transform="translate(149.23 125.25)"><tspan x="0" y="0">65</tspan></text></g><g><rect class="cls-26" x="118.2" y="64.44" width="7.23" height="7.23"/><text class="cls-13" transform="translate(118.53 69.79)"><tspan x="0" y="0">64</tspan></text></g><g><g><rect class="cls-26" x="96.8" y="29.89" width="7.23" height="7.23" transform="translate(5.72 80.82) rotate(-45)"/><rect class="cls-26" x="91.62" y="35.07" width="7.23" height="7.23" transform="translate(.54 78.67) rotate(-45)"/></g><text class="cls-16" transform="translate(94.24 42.25) rotate(-45)"><tspan x="0" y="0">53 54</tspan></text></g><g><g><rect class="cls-26" x="88.27" y="57.81" width="7.23" height="7.23" transform="translate(-17.77 75.25) rotate(-40.95)"/><rect class="cls-26" x="82.74" y="62.61" width="7.23" height="7.23" transform="translate(-22.27 72.8) rotate(-40.95)"/></g><text class="cls-23" transform="translate(85.02 69.6) rotate(-40.95)"><tspan x="0" y="0">51 52</tspan></text></g><g><g><rect class="cls-26" x="139.06" y="41.42" width="7.23" height="7.23" transform="translate(69.53 -85.48) rotate(43.21)"/><rect class="cls-26" x="133.72" y="36.4" width="7.23" height="7.23" transform="translate(64.65 -83.18) rotate(43.21)"/></g><text class="cls-19" transform="translate(133.58 38.84) rotate(43.21)"><tspan x="0" y="0">59 60</tspan></text></g><g><g><rect class="cls-26" x="107.93" y="19.04" width="7.23" height="7.23" transform="translate(16.65 85.51) rotate(-45)"/><rect class="cls-26" x="102.75" y="24.22" width="7.23" height="7.23" transform="translate(11.47 83.36) rotate(-45)"/></g><text class="cls-16" transform="translate(105.36 31.39) rotate(-45)"><tspan x="0" y="0">55 56</tspan></text></g><g><g><rect class="cls-26" x="127.03" y="30.09" width="7.23" height="7.23" transform="translate(58.51 -80.31) rotate(43.21)"/><rect class="cls-26" x="121.69" y="25.08" width="7.23" height="7.23" transform="translate(53.63 -78.02) rotate(43.21)"/></g><text class="cls-19" transform="translate(121.54 27.51) rotate(43.21)"><tspan x="0" y="0">57 58</tspan></text></g><text class="cls-24" transform="translate(100.6 50.02) rotate(-40.95)"><tspan x="0" y="0">학생문화관</tspan><tspan x="-2.33" y="6.31">지하1층 로비</tspan></text><polygon class="cls-8" points="-189.31 329.84 -134.36 388.04 34.04 218.1 -18.41 161.9 -189.31 329.84"/><g><g><rect class="cls-26" x="36.19" y="228.51" width="7.53" height="6.39" transform="translate(235.4 362.43) rotate(133.56)"/><rect class="cls-26" x="30.68" y="234.31" width="7.53" height="6.39" transform="translate(230.29 376.22) rotate(133.56)"/></g><text class="cls-21" transform="translate(34.7 239.75) rotate(-46.44)"><tspan x="0" y="0" xml:space="preserve">8   7</tspan></text></g><g><g><rect class="cls-26" x="13.75" y="252.11" width="7.53" height="6.39" transform="translate(214.59 418.56) rotate(133.56)"/><rect class="cls-26" x="8.24" y="257.91" width="7.53" height="6.39" transform="translate(209.48 432.34) rotate(133.56)"/></g><text class="cls-21" transform="translate(11.11 264.61) rotate(-46.44)"><tspan x="0" y="0">12 11</tspan></text></g><g><g><rect class="cls-26" x="25.58" y="216.02" width="7.53" height="6.39" transform="translate(206.67 351.41) rotate(134.33)"/><rect class="cls-26" x="19.99" y="221.75" width="7.53" height="6.39" transform="translate(201.27 365.13) rotate(134.33)"/></g><text class="cls-18" transform="translate(22.93 228.26) rotate(-45.67)"><tspan x="0" y="0">22 21</tspan></text></g><g><g><rect class="cls-26" x="14.01" y="227.86" width="7.53" height="6.39" transform="translate(195.5 379.8) rotate(134.33)"/><rect class="cls-26" x="8.42" y="233.59" width="7.53" height="6.39" transform="translate(190.09 393.52) rotate(134.33)"/></g><text class="cls-18" transform="translate(11.22 240.2) rotate(-45.67)"><tspan x="0" y="0">24 23</tspan></text></g><g><g><rect class="cls-26" x="2.45" y="239.71" width="7.53" height="6.39" transform="translate(184.32 408.19) rotate(134.33)"/><rect class="cls-26" x="-3.14" y="245.43" width="7.53" height="6.39" transform="translate(178.92 421.91) rotate(134.33)"/></g><text class="cls-18" transform="translate(-.28 252.01) rotate(-45.67)"><tspan x="0" y="0">26 25</tspan></text></g><rect class="cls-26" x="-9.12" y="251.55" width="7.53" height="6.39" transform="translate(173.14 436.58) rotate(134.33)"/><g><rect class="cls-26" x="19.65" y="245.91" width="7.53" height="6.39" transform="translate(220.06 403.8) rotate(133.56)"/><g><rect class="cls-26" x="24.78" y="240.51" width="7.53" height="6.39" transform="translate(224.82 390.97) rotate(133.56)"/><text class="cls-21" transform="translate(28.71 246.07) rotate(-46.44)"><tspan x="0" y="0">9</tspan></text><text class="cls-21" transform="translate(22.36 252.75) rotate(-46.44)"><tspan x="0" y="0">10</tspan></text></g></g><g><g><rect class="cls-26" x="2.53" y="263.91" width="7.53" height="6.39" transform="translate(204.19 446.62) rotate(133.56)"/><rect class="cls-26" x="-2.99" y="269.71" width="7.53" height="6.39" transform="translate(199.07 460.41) rotate(133.56)"/></g><text class="cls-21" transform="translate(-.16 276.41) rotate(-46.44)"><tspan x="0" y="0">14 13</tspan></text></g><rect class="cls-26" x="-8.69" y="275.71" width="7.53" height="6.39" transform="translate(193.78 474.69) rotate(133.56)"/><g><rect class="cls-26" x="51.63" y="246.21" width="7.53" height="6.39" transform="translate(-190.21 319.8) rotate(-93.47)"/><rect class="cls-26" x="51.14" y="238.22" width="7.53" height="6.39" transform="translate(-182.75 310.85) rotate(-93.47)"/></g><rect class="cls-26" x="52.99" y="263.59" width="7.53" height="6.39" transform="translate(-206.11 339.59) rotate(-93.47)"/><rect class="cls-26" x="52.5" y="255.61" width="7.53" height="6.39" transform="translate(-198.66 330.64) rotate(-93.47)"/><g><rect class="cls-26" x="53.89" y="281.36" width="7.53" height="6.39" transform="translate(-222.89 359.34) rotate(-93.47)"/><rect class="cls-26" x="53.41" y="273.38" width="7.53" height="6.39" transform="translate(-215.43 350.39) rotate(-93.47)"/></g><text class="cls-13" transform="translate(53.58 242.91)"><tspan x="0" y="0">6</tspan><tspan x="0" y="7.89">5</tspan></text><text class="cls-13" transform="translate(55.26 261.32)"><tspan x="0" y="0">4</tspan><tspan x="0" y="7.89">3</tspan></text><text class="cls-13" transform="translate(55.06 278.41)"><tspan x="0" y="0">2</tspan><tspan x="0" y="7.89">1</tspan></text><polygon class="cls-6" points="395.63 65.89 395.63 139.51 269.42 139.51 269.42 65.89 300.98 65.89 300.98 85.61 320.7 85.61 320.7 96.12 345.67 96.12 345.67 84.29 366.71 84.29 366.71 65.89 395.63 65.89"/><rect class="cls-6" x="-275.33" y="11.65" width="314.77" height="133.86" transform="translate(-90.11 -60.38) rotate(-45)"/><path class="cls-6" d="M449.45,217.78c-21.79,39-51.16,72.46-79.71,106.16-80.2,94.64-155.78,193.7-226.34,296.66,16.66,31.23,36.08,60.79,57.93,88.16,73.34-88.37,167.22-154.35,247.91-235.16,39.53-39.59,75.81-82.66,112.04-125.67-32.16-47.57-69.5-91.16-111.04-129.64-1.04,.96-2.08,1.92-3.12,2.87"/></svg>